<?xml version="1.0" encoding="utf-8"?>
<!-- Generator: Adobe Illustrator 25.4.4, SVG Export Plug-In . SVG Version: 6.00 Build 0)  -->
<svg version="1.1" id="Layer_1" xmlns="http://www.w3.org/2000/svg" xmlns:xlink="http://www.w3.org/1999/xlink" x="0px" y="0px"
	 viewBox="0 0 672 175.9" style="enable-background:new 0 0 672 175.9;" xml:space="preserve">
<style type="text/css">
	.st0{fill:#222221;}
	.st1{fill:#FFED00;}
	.st2{fill:#1D1D1B;}
	.st3{fill:#D27357;}
	.st4{fill:#87B44A;}
	.st5{fill:#69A9DF;}
	.st6{fill:#C5225F;}
	.st7{fill:#D68224;}
</style>
<g id="Capa_3">
</g>
<g id="Capa_1">
</g>
<g id="guias">
	<g>
		<g>
			<polygon class="st0" points="6,145.7 2.8,145.7 2.8,149 5.7,149 5.7,150.3 2.8,150.3 2.8,155.1 0.8,155.1 0.8,144.4 6,144.4 			
				"/>
			<path class="st0" d="M13.4,154.7c-0.7,0.4-1.6,0.6-2.8,0.6c-2.1,0-3.2-0.8-3.2-2.4c0-1,0.5-1.8,1.5-2.2c0.6-0.3,1.6-0.5,2.8-0.6
				v-0.4c0-0.9-0.5-1.3-1.5-1.3c-0.6,0-1.3,0.2-1.9,0.5l-0.4-1c0.8-0.4,1.7-0.6,2.7-0.6c1.9,0,2.9,0.9,2.9,2.7L13.4,154.7
				 M11.8,154.1v-3.2c-0.9,0.1-1.5,0.3-1.8,0.4c-0.6,0.3-0.9,0.8-0.9,1.5c0,1,0.5,1.4,1.6,1.4C11.1,154.3,11.5,154.2,11.8,154.1"/>
			<path class="st0" d="M20.4,154.8c-0.4,0.4-1,0.5-1.8,0.5c-1,0-1.8-0.4-2.4-1.3c-0.5-0.7-0.7-1.6-0.7-2.7c0-1.1,0.2-2,0.7-2.7
				c0.5-0.9,1.3-1.3,2.4-1.3c0.8,0,1.4,0.2,1.8,0.5l-0.4,1c-0.3-0.2-0.6-0.3-1-0.3c-1.1,0-1.7,0.9-1.7,2.8c0,0.7,0.1,1.3,0.3,1.8
				c0.3,0.7,0.7,1,1.4,1c0.4,0,0.8-0.1,1.1-0.3L20.4,154.8"/>
			<path class="st0" d="M28.2,154.7c-0.8,0.4-1.8,0.6-3,0.6c-2,0-3-0.9-3-2.6v-5.3H24v5.4c0,0.9,0.4,1.3,1.3,1.3
				c0.5,0,0.9-0.1,1.2-0.3v-6.4h1.8L28.2,154.7"/>
			<rect x="30.7" y="144.2" class="st0" width="1.8" height="10.9"/>
			<path class="st0" d="M38.4,155.1c-0.2,0.1-0.5,0.2-0.9,0.2c-0.7,0-1.2-0.2-1.6-0.6s-0.6-0.9-0.6-1.5v-4.6h-0.9v-1.1h0.9v-2.6
				l1.8-0.5v3.1h1.3v1.1h-1.3v4.5c0,0.7,0.3,1,0.8,1c0.1,0,0.3,0,0.4-0.1V155.1"/>
			<path class="st0" d="M45.9,154.7c-0.7,0.4-1.6,0.6-2.8,0.6c-2.1,0-3.2-0.8-3.2-2.4c0-1,0.5-1.8,1.5-2.2c0.6-0.3,1.6-0.5,2.8-0.6
				v-0.4c0-0.9-0.5-1.3-1.5-1.3c-0.6,0-1.3,0.2-1.9,0.5l-0.4-1c0.8-0.4,1.7-0.6,2.7-0.6c1.9,0,2.9,0.9,2.9,2.7V154.7 M44.3,154.1
				v-3.2c-0.9,0.1-1.5,0.3-1.8,0.4c-0.6,0.3-0.9,0.8-0.9,1.5c0,1,0.5,1.4,1.6,1.4C43.7,154.3,44,154.2,44.3,154.1"/>
			<path class="st0" d="M54.3,154.7c-0.7,0.4-1.6,0.6-2.7,0.6c-1.2,0-2.1-0.4-2.7-1.1c-0.6-0.7-0.9-1.6-0.9-2.8
				c0-1.2,0.3-2.1,0.8-2.8c0.6-0.8,1.5-1.2,2.6-1.2c0.4,0,0.8,0,1.2,0.1v-3.2h1.8L54.3,154.7 M52.5,153.9v-5.6
				c-0.2-0.1-0.5-0.1-0.8-0.1c-1.4,0-2,1-2,3c0,1.9,0.6,2.9,1.9,2.9C52,154.1,52.3,154,52.5,153.9"/>
			<path class="st0" d="M6.3,172c-0.7,0.4-1.6,0.6-2.7,0.6c-1.2,0-2.1-0.4-2.7-1.1c-0.6-0.7-0.9-1.6-0.9-2.8c0-1.2,0.3-2.1,0.8-2.8
				c0.6-0.8,1.5-1.2,2.6-1.2c0.5,0,0.8,0,1.2,0.1v-3.2h1.8L6.3,172 M4.5,171.3v-5.6c-0.2-0.1-0.5-0.1-0.8-0.1c-1.4,0-2,1-2,3
				c0,1.9,0.6,2.9,1.9,2.9C4.1,171.5,4.4,171.4,4.5,171.3"/>
			<path class="st0" d="M14.9,168.6l-4.7,0.7c0.1,1.5,0.8,2.2,2.1,2.2c0.7,0,1.4-0.1,2-0.4l0.4,1.1c-0.7,0.4-1.5,0.5-2.6,0.5
				c-1.2,0-2.1-0.4-2.7-1.2c-0.6-0.7-0.9-1.7-0.9-2.9c0-1.2,0.3-2.1,0.8-2.8c0.6-0.8,1.4-1.2,2.5-1.2c1.1,0,2,0.4,2.5,1.2
				C14.7,166.5,14.9,167.4,14.9,168.6 M13.2,167.9c0-1.5-0.5-2.2-1.5-2.2c-0.7,0-1.1,0.3-1.4,0.9c-0.2,0.5-0.3,1.1-0.3,1.8
				L13.2,167.9z"/>
			<path class="st0" d="M29.5,172.5h-2.1l-0.8-2.8h-3.5l-0.9,2.8h-1.8l3.6-10.8h1.9L29.5,172.5 M26.3,168.6l-1.1-3.8
				c-0.2-0.6-0.3-1-0.3-1.3h0c-0.1,0.4-0.2,0.9-0.3,1.3l-1.2,3.8H26.3z"/>
			<path class="st0" d="M37.7,172c-0.7,0.4-1.6,0.6-2.7,0.6c-1.2,0-2.1-0.4-2.7-1.1c-0.6-0.7-0.9-1.6-0.9-2.8c0-1.2,0.3-2.1,0.8-2.8
				c0.6-0.8,1.5-1.2,2.6-1.2c0.4,0,0.8,0,1.2,0.1v-3.2h1.8L37.7,172 M35.9,171.3v-5.6c-0.2-0.1-0.5-0.1-0.8-0.1c-1.4,0-2,1-2,3
				c0,1.9,0.6,2.9,1.9,2.9C35.4,171.5,35.7,171.4,35.9,171.3"/>
			<path class="st0" d="M50.5,172.5h-1.8V167c0-0.8-0.4-1.3-1.3-1.3c-0.5,0-0.9,0.2-1.3,0.5v6.2h-1.8V167c0-0.8-0.5-1.2-1.5-1.2
				c-0.4,0-0.8,0.1-1.2,0.2v6.6h-1.8v-7.3c0.8-0.4,1.7-0.6,2.9-0.6c1.1,0,1.9,0.3,2.4,0.8c0.6-0.6,1.4-0.8,2.5-0.8
				c0.8,0,1.4,0.2,1.9,0.6c0.5,0.4,0.8,1,0.8,1.8L50.5,172.5"/>
			<path class="st0" d="M54.8,162.5c0,0.2-0.1,0.5-0.3,0.6c-0.2,0.2-0.4,0.2-0.7,0.2s-0.5-0.1-0.7-0.2c-0.2-0.2-0.3-0.4-0.3-0.6
				c0-0.2,0.1-0.5,0.3-0.6c0.2-0.2,0.4-0.3,0.7-0.3s0.5,0.1,0.7,0.2C54.7,162.1,54.8,162.3,54.8,162.5 M53,164.8h1.8v7.8H53V164.8z"
				/>
			<path class="st0" d="M63.3,172.5h-1.8V167c0-0.9-0.5-1.3-1.4-1.3c-0.4,0-0.8,0.1-1.2,0.2v6.6h-1.8v-7.3c0.8-0.4,1.8-0.6,3-0.6
				c0.9,0,1.6,0.2,2.1,0.5c0.6,0.4,1,1,1,1.9L63.3,172.5"/>
			<path class="st0" d="M67.5,162.5c0,0.2-0.1,0.5-0.3,0.6s-0.4,0.2-0.7,0.2c-0.3,0-0.5-0.1-0.7-0.2c-0.2-0.2-0.3-0.4-0.3-0.6
				c0-0.2,0.1-0.5,0.3-0.6c0.2-0.2,0.4-0.3,0.7-0.3c0.3,0,0.5,0.1,0.7,0.2C67.5,162.1,67.5,162.3,67.5,162.5 M65.7,164.8h1.8v7.8
				h-1.8V164.8z"/>
			<path class="st0" d="M74.3,170.3c0,0.7-0.3,1.3-0.8,1.8c-0.5,0.4-1.2,0.6-1.9,0.6c-0.9,0-1.6-0.2-2.1-0.6l0.5-1.1
				c0.4,0.3,0.9,0.4,1.5,0.4c0.3,0,0.6-0.1,0.8-0.3c0.2-0.2,0.3-0.5,0.3-0.8c0-0.6-0.4-1-1.1-1.3c-1.2-0.4-1.8-1.2-1.8-2.2
				c0-0.7,0.2-1.2,0.7-1.6c0.5-0.4,1-0.6,1.7-0.6c0.8,0,1.5,0.2,2,0.5l-0.4,1c-0.4-0.3-0.8-0.4-1.2-0.4c-0.3,0-0.6,0.1-0.8,0.3
				c-0.2,0.2-0.3,0.4-0.3,0.7c0,0.5,0.4,0.9,1.2,1.2C73.7,168.5,74.3,169.2,74.3,170.3"/>
			<path class="st0" d="M79.8,172.4c-0.2,0.1-0.5,0.2-0.9,0.2c-0.7,0-1.2-0.2-1.6-0.6s-0.6-0.9-0.6-1.5v-4.6h-0.9v-1.1h0.9v-2.6
				l1.8-0.5v3.1h1.3v1.1h-1.3v4.5c0,0.7,0.3,1,0.8,1c0.1,0,0.3,0,0.4-0.1V172.4"/>
			<path class="st0" d="M85.5,164.6l-0.3,1.3c-0.3-0.1-0.5-0.1-0.8-0.1c-0.3,0-0.6,0.1-0.8,0.2v6.5h-1.8v-7.3
				C82.7,164.8,83.9,164.6,85.5,164.6"/>
			<path class="st0" d="M92.8,172.1c-0.7,0.4-1.6,0.6-2.8,0.6c-2.1,0-3.2-0.8-3.2-2.4c0-1,0.5-1.8,1.5-2.2c0.6-0.3,1.6-0.5,2.8-0.6
				V167c0-0.9-0.5-1.3-1.5-1.3c-0.6,0-1.3,0.2-1.9,0.5l-0.4-1c0.8-0.4,1.7-0.6,2.7-0.6c1.9,0,2.9,0.9,2.9,2.7L92.8,172.1
				 M91.2,171.5v-3.2c-0.9,0.1-1.5,0.3-1.8,0.4c-0.6,0.3-0.9,0.8-0.9,1.5c0,1,0.5,1.4,1.6,1.4C90.5,171.7,90.9,171.6,91.2,171.5"/>
			<path class="st0" d="M99.8,172.1c-0.4,0.4-1,0.5-1.8,0.5c-1,0-1.8-0.4-2.4-1.3c-0.5-0.7-0.7-1.6-0.7-2.7c0-1.1,0.2-2,0.7-2.7
				c0.5-0.9,1.3-1.3,2.4-1.3c0.8,0,1.4,0.2,1.8,0.5l-0.4,1c-0.3-0.2-0.6-0.3-1-0.3c-1.1,0-1.7,0.9-1.7,2.8c0,0.7,0.1,1.3,0.3,1.8
				c0.3,0.7,0.7,1,1.4,1c0.4,0,0.8-0.1,1.1-0.3L99.8,172.1"/>
			<path class="st0" d="M103.6,162.5c0,0.2-0.1,0.5-0.3,0.6c-0.2,0.2-0.4,0.2-0.7,0.2s-0.5-0.1-0.7-0.2c-0.2-0.2-0.3-0.4-0.3-0.6
				c0-0.2,0.1-0.5,0.3-0.6c0.2-0.2,0.4-0.3,0.7-0.3c0.3,0,0.5,0.1,0.7,0.2C103.5,162.1,103.6,162.3,103.6,162.5 M101.7,164.8h1.8
				v7.8h-1.8V164.8z"/>
			<path class="st0" d="M112.1,168.6c0,1.1-0.2,2.1-0.7,2.8c-0.6,0.8-1.4,1.2-2.5,1.2c-1.1,0-1.9-0.4-2.5-1.2
				c-0.5-0.7-0.7-1.6-0.7-2.8c0-1.2,0.2-2.1,0.7-2.8c0.6-0.8,1.4-1.2,2.5-1.2c1.1,0,1.9,0.4,2.5,1.2
				C111.8,166.6,112.1,167.5,112.1,168.6 M110.3,168.6c0-1.9-0.5-2.9-1.5-2.9c-1,0-1.5,1-1.5,2.9c0,1.9,0.5,2.8,1.5,2.8
				C109.8,171.4,110.3,170.5,110.3,168.6 M110.8,161.9l-1.7,2h-1l1-2c0.3-0.2,0.6-0.3,1-0.3C110.5,161.6,110.8,161.7,110.8,161.9"/>
			<path class="st0" d="M120.3,172.5h-1.8V167c0-0.9-0.5-1.3-1.4-1.3c-0.4,0-0.8,0.1-1.2,0.2v6.6h-1.8v-7.3c0.8-0.4,1.8-0.6,3-0.6
				c0.9,0,1.6,0.2,2.1,0.5c0.6,0.4,1,1,1,1.9L120.3,172.5"/>
		</g>
		<g>
			<path class="st0" d="M350.7,145.7h-3.3v3.3h2.9v1.3h-2.9v4.9h-2v-10.9h5.3V145.7z"/>
			<path class="st0" d="M357.6,154.8c-0.7,0.4-1.6,0.6-2.8,0.6c-2.1,0-3.2-0.8-3.2-2.4c0-1,0.5-1.8,1.5-2.2c0.6-0.3,1.6-0.5,2.8-0.6
				v-0.4c0-0.9-0.5-1.3-1.6-1.3c-0.6,0-1.3,0.2-2,0.5l-0.4-1c0.8-0.4,1.7-0.6,2.7-0.6c1.9,0,2.9,0.9,2.9,2.7L357.6,154.8
				L357.6,154.8z M355.9,154.2v-3.2c-0.9,0.1-1.5,0.3-1.8,0.4c-0.6,0.3-0.9,0.8-0.9,1.5c0,1,0.5,1.4,1.6,1.4
				C355.3,154.4,355.6,154.3,355.9,154.2z"/>
			<path class="st0" d="M364.1,154.8c-0.4,0.4-1,0.5-1.8,0.5c-1,0-1.8-0.4-2.4-1.3c-0.5-0.7-0.7-1.7-0.7-2.8c0-1.1,0.2-2,0.7-2.7
				c0.6-0.9,1.3-1.3,2.4-1.3c0.8,0,1.4,0.2,1.8,0.5l-0.4,1c-0.3-0.2-0.6-0.3-1-0.3c-1.1,0-1.7,0.9-1.7,2.8c0,0.7,0.1,1.3,0.3,1.8
				c0.3,0.7,0.7,1,1.4,1c0.4,0,0.8-0.1,1.1-0.3L364.1,154.8z"/>
			<path class="st0" d="M371.5,154.8c-0.8,0.4-1.8,0.6-3,0.6c-2,0-3-0.9-3-2.6v-5.3h1.8v5.4c0,0.9,0.4,1.3,1.3,1.3
				c0.5,0,0.9-0.1,1.2-0.3v-6.5h1.8L371.5,154.8L371.5,154.8z"/>
			<path class="st0" d="M375.2,155.2h-1.8v-11h1.8V155.2z"/>
			<path class="st0" d="M380.7,155.1c-0.2,0.1-0.5,0.2-0.9,0.2c-0.7,0-1.2-0.2-1.6-0.6c-0.4-0.4-0.6-0.9-0.6-1.6v-4.7h-0.9v-1.1h0.9
				v-2.6l1.8-0.5v3.1h1.3v1.1h-1.3v4.6c0,0.7,0.3,1,0.8,1c0.1,0,0.3,0,0.4-0.1L380.7,155.1L380.7,155.1z"/>
			<path class="st0" d="M387.8,154.8c-0.7,0.4-1.6,0.6-2.8,0.6c-2.1,0-3.2-0.8-3.2-2.4c0-1,0.5-1.8,1.5-2.2c0.6-0.3,1.6-0.5,2.8-0.6
				v-0.4c0-0.9-0.5-1.3-1.6-1.3c-0.6,0-1.3,0.2-2,0.5l-0.4-1c0.8-0.4,1.7-0.6,2.7-0.6c1.9,0,2.9,0.9,2.9,2.7L387.8,154.8
				L387.8,154.8z M386.2,154.2v-3.2c-0.9,0.1-1.5,0.3-1.8,0.4c-0.6,0.3-0.9,0.8-0.9,1.5c0,1,0.5,1.4,1.6,1.4
				C385.5,154.4,385.9,154.3,386.2,154.2z"/>
			<path class="st0" d="M395.7,154.7c-0.7,0.4-1.6,0.6-2.7,0.6c-1.2,0-2.1-0.4-2.7-1.1c-0.6-0.7-0.9-1.6-0.9-2.9
				c0-1.2,0.3-2.1,0.8-2.8c0.6-0.8,1.5-1.2,2.6-1.2c0.5,0,0.8,0,1.2,0.1v-3.2h1.8L395.7,154.7L395.7,154.7z M393.9,154v-5.6
				c-0.2-0.1-0.5-0.1-0.8-0.1c-1.4,0-2,1-2,3c0,2,0.6,2.9,1.9,2.9C393.4,154.2,393.7,154.1,393.9,154z"/>
			<path class="st0" d="M351.2,172c-0.7,0.4-1.6,0.6-2.7,0.6c-1.2,0-2.1-0.4-2.7-1.1c-0.6-0.7-0.9-1.6-0.9-2.9
				c0-1.2,0.3-2.1,0.8-2.8c0.6-0.8,1.5-1.2,2.6-1.2c0.5,0,0.8,0,1.2,0.1v-3.2h1.8L351.2,172L351.2,172z M349.4,171.2v-5.6
				c-0.2-0.1-0.5-0.1-0.8-0.1c-1.4,0-2,1-2,3c0,2,0.6,2.9,1.9,2.9C348.9,171.4,349.2,171.4,349.4,171.2z"/>
			<path class="st0" d="M359.3,168.5l-4.8,0.7c0.1,1.5,0.9,2.2,2.1,2.2c0.8,0,1.4-0.1,2-0.4l0.4,1.1c-0.7,0.4-1.5,0.6-2.6,0.6
				c-1.2,0-2.1-0.4-2.8-1.2c-0.6-0.7-0.9-1.7-0.9-2.9c0-1.2,0.3-2.1,0.8-2.8c0.6-0.8,1.4-1.2,2.6-1.2c1.1,0,2,0.4,2.5,1.2
				C359.1,166.4,359.3,167.3,359.3,168.5z M357.6,167.8c0-1.5-0.5-2.2-1.5-2.2c-0.7,0-1.1,0.3-1.4,0.9c-0.2,0.5-0.3,1.1-0.3,1.8
				L357.6,167.8z"/>
			<path class="st0" d="M370.8,172c-0.5,0.4-1.3,0.6-2.3,0.6c-1.4,0-2.5-0.6-3.3-1.8c-0.6-1-0.9-2.3-0.9-3.8c0-1.5,0.3-2.7,1-3.8
				c0.8-1.2,1.8-1.8,3.2-1.8c0.9,0,1.7,0.2,2.2,0.6l-0.4,1.2c-0.4-0.3-0.9-0.4-1.4-0.4c-0.9,0-1.6,0.5-2,1.5
				c-0.3,0.7-0.5,1.6-0.5,2.7c0,1,0.2,1.9,0.5,2.6c0.4,1,1.1,1.4,2,1.4c0.5,0,1-0.1,1.4-0.4L370.8,172z"/>
			<path class="st0" d="M373.8,162.4c0,0.3-0.1,0.5-0.3,0.6c-0.2,0.2-0.4,0.2-0.7,0.2s-0.5-0.1-0.7-0.2c-0.2-0.2-0.3-0.4-0.3-0.6
				c0-0.3,0.1-0.5,0.3-0.6c0.2-0.2,0.4-0.3,0.7-0.3s0.5,0.1,0.7,0.2C373.7,162,373.8,162.2,373.8,162.4z M373.7,172.5h-1.8v-7.8h1.8
				V172.5z"/>
			<path class="st0" d="M381.8,168.5l-4.8,0.7c0.1,1.5,0.9,2.2,2.1,2.2c0.8,0,1.4-0.1,2-0.4l0.4,1.1c-0.7,0.4-1.5,0.6-2.6,0.6
				c-1.2,0-2.1-0.4-2.8-1.2c-0.6-0.7-0.9-1.7-0.9-2.9c0-1.2,0.3-2.1,0.8-2.8c0.6-0.8,1.4-1.2,2.6-1.2c1.1,0,2,0.4,2.5,1.2
				C381.6,166.4,381.9,167.3,381.8,168.5z M380.2,167.8c0-1.5-0.5-2.2-1.5-2.2c-0.7,0-1.1,0.3-1.4,0.9c-0.2,0.5-0.3,1.1-0.3,1.8
				L380.2,167.8z"/>
			<path class="st0" d="M389.6,172.5h-1.8v-5.5c0-0.9-0.5-1.3-1.4-1.3c-0.4,0-0.8,0.1-1.2,0.2v6.6h-1.8v-7.4
				c0.8-0.4,1.8-0.6,3.1-0.6c0.9,0,1.6,0.2,2.1,0.5c0.6,0.4,1,1,1,1.9L389.6,172.5L389.6,172.5z"/>
			<path class="st0" d="M396.1,172.1c-0.4,0.4-1,0.5-1.8,0.5c-1,0-1.8-0.4-2.4-1.3c-0.5-0.7-0.7-1.7-0.7-2.8c0-1.1,0.2-2,0.7-2.7
				c0.6-0.9,1.3-1.3,2.4-1.3c0.8,0,1.4,0.2,1.8,0.5l-0.4,1c-0.3-0.2-0.6-0.3-1-0.3c-1.1,0-1.7,0.9-1.7,2.8c0,0.7,0.1,1.3,0.3,1.8
				c0.3,0.7,0.7,1,1.4,1c0.4,0,0.8-0.1,1.1-0.3L396.1,172.1z"/>
			<path class="st0" d="M399.4,162.4c0,0.3-0.1,0.5-0.3,0.6c-0.2,0.2-0.4,0.2-0.7,0.2s-0.5-0.1-0.7-0.2c-0.2-0.2-0.3-0.4-0.3-0.6
				c0-0.3,0.1-0.5,0.3-0.6c0.2-0.2,0.4-0.3,0.7-0.3s0.5,0.1,0.7,0.2C399.3,162,399.4,162.2,399.4,162.4z M399.3,172.5h-1.8v-7.8h1.8
				V172.5z"/>
			<path class="st0" d="M406.9,172c-0.7,0.4-1.6,0.6-2.8,0.6c-2.1,0-3.2-0.8-3.2-2.4c0-1,0.5-1.8,1.5-2.2c0.6-0.3,1.6-0.5,2.8-0.6
				v-0.4c0-0.9-0.5-1.3-1.6-1.3c-0.6,0-1.3,0.2-2,0.5l-0.4-1c0.8-0.4,1.7-0.6,2.7-0.6c1.9,0,2.9,0.9,2.9,2.7L406.9,172L406.9,172z
				 M405.3,171.4v-3.2c-0.9,0.1-1.5,0.3-1.8,0.4c-0.6,0.3-0.9,0.8-0.9,1.5c0,1,0.5,1.4,1.6,1.4C404.6,171.6,405,171.5,405.3,171.4z"
				/>
			<path class="st0" d="M413.3,170.2c0,0.7-0.3,1.3-0.9,1.8c-0.5,0.4-1.2,0.6-1.9,0.6c-0.9,0-1.6-0.2-2.2-0.6l0.5-1.1
				c0.4,0.3,0.9,0.4,1.5,0.4c0.3,0,0.6-0.1,0.9-0.3c0.2-0.2,0.3-0.5,0.3-0.8c0-0.6-0.4-1-1.1-1.3c-1.2-0.5-1.8-1.2-1.8-2.2
				c0-0.7,0.2-1.2,0.7-1.7c0.5-0.4,1-0.6,1.7-0.6c0.8,0,1.5,0.2,2,0.6l-0.4,1c-0.4-0.3-0.8-0.4-1.2-0.4c-0.3,0-0.6,0.1-0.8,0.3
				c-0.2,0.2-0.3,0.4-0.3,0.8c0,0.5,0.4,0.9,1.2,1.2C412.6,168.4,413.3,169.2,413.3,170.2z"/>
		</g>
		<g>
			<path class="st0" d="M468.2,145.7H465v3.2h2.9v1.3H465v4.8h-2v-10.7h5.2V145.7z"/>
			<path class="st0" d="M475,154.6c-0.7,0.4-1.6,0.6-2.8,0.6c-2.1,0-3.1-0.8-3.1-2.3c0-1,0.5-1.7,1.5-2.2c0.6-0.3,1.5-0.5,2.8-0.6
				v-0.4c0-0.8-0.5-1.3-1.5-1.3c-0.6,0-1.3,0.2-1.9,0.5l-0.4-1c0.8-0.4,1.7-0.6,2.6-0.6c1.9,0,2.8,0.9,2.8,2.7V154.6z M473.4,154
				v-3.2c-0.9,0.1-1.5,0.3-1.8,0.4c-0.6,0.3-0.9,0.8-0.9,1.5c0,1,0.5,1.4,1.6,1.4C472.7,154.2,473.1,154.2,473.4,154z"/>
			<path class="st0" d="M481.4,154.7c-0.4,0.4-1,0.5-1.8,0.5c-1,0-1.8-0.4-2.4-1.3c-0.5-0.7-0.7-1.6-0.7-2.7c0-1.1,0.2-2,0.7-2.7
				c0.5-0.8,1.3-1.3,2.4-1.3c0.8,0,1.4,0.2,1.8,0.5l-0.4,1c-0.3-0.2-0.6-0.3-1-0.3c-1.1,0-1.7,0.9-1.7,2.7c0,0.7,0.1,1.3,0.3,1.8
				c0.3,0.7,0.7,1,1.3,1c0.4,0,0.8-0.1,1-0.3L481.4,154.7z"/>
			<path class="st0" d="M488.7,154.6c-0.8,0.4-1.8,0.6-3,0.6c-2,0-3-0.9-3-2.6v-5.2h1.8v5.4c0,0.9,0.4,1.3,1.3,1.3
				c0.5,0,0.9-0.1,1.1-0.3v-6.4h1.8L488.7,154.6L488.7,154.6z"/>
			<path class="st0" d="M492.4,155h-1.8v-10.8h1.8V155z"/>
			<path class="st0" d="M497.8,155c-0.2,0.1-0.5,0.2-0.9,0.2c-0.7,0-1.2-0.2-1.5-0.5s-0.6-0.9-0.6-1.5v-4.6h-0.9v-1.1h0.9v-2.6
				l1.8-0.5v3.1h1.2v1.1h-1.2v4.5c0,0.7,0.3,1,0.8,1c0.1,0,0.2,0,0.4-0.1L497.8,155L497.8,155z"/>
			<path class="st0" d="M504.8,154.6c-0.7,0.4-1.6,0.6-2.8,0.6c-2.1,0-3.1-0.8-3.1-2.3c0-1,0.5-1.7,1.5-2.2c0.6-0.3,1.5-0.5,2.8-0.6
				v-0.4c0-0.8-0.5-1.3-1.5-1.3c-0.6,0-1.3,0.2-1.9,0.5l-0.4-1c0.8-0.4,1.7-0.6,2.6-0.6c1.9,0,2.8,0.9,2.8,2.7L504.8,154.6
				L504.8,154.6z M503.1,154v-3.2c-0.9,0.1-1.5,0.3-1.8,0.4c-0.6,0.3-0.9,0.8-0.9,1.5c0,1,0.5,1.4,1.6,1.4
				C502.5,154.2,502.9,154.2,503.1,154z"/>
			<path class="st0" d="M512.5,154.6c-0.7,0.4-1.6,0.6-2.7,0.6c-1.2,0-2.1-0.4-2.7-1.1c-0.6-0.7-0.9-1.6-0.9-2.8
				c0-1.1,0.3-2.1,0.8-2.8c0.6-0.8,1.4-1.2,2.5-1.2c0.4,0,0.8,0,1.2,0.1v-3.2h1.8L512.5,154.6L512.5,154.6z M510.8,153.9v-5.5
				c-0.2-0.1-0.5-0.1-0.8-0.1c-1.3,0-2,1-2,2.9c0,1.9,0.6,2.9,1.9,2.9C510.3,154,510.6,154,510.8,153.9z"/>
			<path class="st0" d="M468.5,172.2c-0.7,0.4-1.6,0.6-2.7,0.6c-1.2,0-2.1-0.4-2.7-1.1c-0.6-0.7-0.9-1.6-0.9-2.8
				c0-1.1,0.3-2.1,0.8-2.8c0.6-0.8,1.4-1.2,2.5-1.2c0.4,0,0.8,0,1.2,0.1v-3.2h1.8L468.5,172.2L468.5,172.2z M466.7,171.5V166
				c-0.2-0.1-0.5-0.1-0.8-0.1c-1.3,0-2,1-2,2.9c0,1.9,0.6,2.9,1.9,2.9C466.3,171.7,466.6,171.6,466.7,171.5z"/>
			<path class="st0" d="M476.5,168.8l-4.7,0.7c0.1,1.4,0.8,2.2,2.1,2.2c0.7,0,1.4-0.1,1.9-0.4l0.4,1.1c-0.7,0.4-1.5,0.5-2.5,0.5
				c-1.2,0-2.1-0.4-2.7-1.1c-0.6-0.7-0.9-1.7-0.9-2.9c0-1.1,0.3-2.1,0.8-2.8c0.6-0.8,1.4-1.2,2.5-1.2c1.1,0,2,0.4,2.5,1.2
				C476.3,166.7,476.5,167.7,476.5,168.8z M474.8,168.1c0-1.5-0.5-2.2-1.5-2.2c-0.6,0-1.1,0.3-1.4,0.9c-0.2,0.5-0.3,1-0.3,1.8
				L474.8,168.1z"/>
			<path class="st0" d="M484,172.7h-2V162h2V172.7z"/>
			<path class="st0" d="M491.9,172.7h-1.8v-5.5c0-0.9-0.5-1.3-1.4-1.3c-0.4,0-0.8,0.1-1.2,0.2v6.5h-1.8v-7.3c0.8-0.4,1.8-0.6,3-0.6
				c0.9,0,1.6,0.2,2.1,0.5c0.6,0.4,1,1,1,1.9L491.9,172.7L491.9,172.7z"/>
			<path class="st0" d="M499.7,172.8c0,1-0.3,1.8-0.8,2.3c-0.6,0.5-1.3,0.8-2.3,0.8c-1.1,0-2-0.2-2.6-0.5l0.5-1.1
				c0.6,0.3,1.2,0.5,1.8,0.5c1.2,0,1.8-0.6,1.8-1.7v-0.5c-0.3,0.2-0.8,0.3-1.4,0.3c-1,0-1.8-0.4-2.4-1.2c-0.5-0.7-0.7-1.5-0.7-2.6
				c0-1.3,0.3-2.3,0.9-3c0.6-0.8,1.6-1.2,2.8-1.2c1.1,0,1.9,0.2,2.5,0.6L499.7,172.8L499.7,172.8z M498,171.5v-5.5
				c-0.2-0.1-0.5-0.2-0.9-0.2c-1.3,0-1.9,1-1.9,3c0,1.9,0.6,2.8,1.8,2.8C497.4,171.8,497.8,171.7,498,171.5z"/>
			<path class="st0" d="M507.6,168.8l-4.7,0.7c0.1,1.4,0.8,2.2,2.1,2.2c0.7,0,1.4-0.1,1.9-0.4l0.4,1.1c-0.7,0.4-1.5,0.5-2.5,0.5
				c-1.2,0-2.1-0.4-2.7-1.1c-0.6-0.7-0.9-1.7-0.9-2.9c0-1.1,0.3-2.1,0.8-2.8c0.6-0.8,1.4-1.2,2.5-1.2c1.1,0,2,0.4,2.5,1.2
				C507.5,166.7,507.7,167.7,507.6,168.8z M506,168.1c0-1.5-0.5-2.2-1.5-2.2c-0.6,0-1.1,0.3-1.4,0.9c-0.2,0.5-0.3,1-0.3,1.8
				L506,168.1z"/>
			<path class="st0" d="M515.3,172.7h-1.8v-5.5c0-0.9-0.5-1.3-1.4-1.3c-0.4,0-0.8,0.1-1.2,0.2v6.5h-1.8v-7.3c0.8-0.4,1.8-0.6,3-0.6
				c0.9,0,1.6,0.2,2.1,0.5c0.6,0.4,1,1,1,1.9L515.3,172.7L515.3,172.7z"/>
			<path class="st0" d="M519,162.8c0,0.2-0.1,0.5-0.3,0.6c-0.2,0.2-0.4,0.2-0.7,0.2s-0.5-0.1-0.7-0.2s-0.3-0.4-0.3-0.6
				c0-0.2,0.1-0.5,0.3-0.6c0.2-0.2,0.4-0.2,0.7-0.2s0.5,0.1,0.7,0.2C518.9,162.4,519,162.6,519,162.8z M518.9,172.7h-1.8V165h1.8
				V172.7z"/>
			<path class="st0" d="M526.9,168.8l-4.7,0.7c0.1,1.4,0.8,2.2,2.1,2.2c0.7,0,1.4-0.1,1.9-0.4l0.4,1.1c-0.7,0.4-1.5,0.5-2.5,0.5
				c-1.2,0-2.1-0.4-2.7-1.1c-0.6-0.7-0.9-1.7-0.9-2.9c0-1.1,0.3-2.1,0.8-2.8c0.6-0.8,1.4-1.2,2.5-1.2c1.1,0,2,0.4,2.5,1.2
				C526.8,166.7,527,167.7,526.9,168.8z M525.3,168.1c0-1.5-0.5-2.2-1.5-2.2c-0.6,0-1.1,0.3-1.4,0.9c-0.2,0.5-0.3,1-0.3,1.8
				L525.3,168.1z"/>
			<path class="st0" d="M532.2,164.9l-0.3,1.3c-0.3-0.1-0.5-0.1-0.8-0.1c-0.3,0-0.6,0.1-0.8,0.2v6.5h-1.8v-7.3
				C529.4,165,530.6,164.9,532.2,164.9z"/>
			<path class="st0" d="M536.1,162.2l-1.7,2h-1l1-2c0.3-0.2,0.6-0.3,1-0.3C535.8,161.9,536,162,536.1,162.2z M535.2,172.7h-1.8V165
				h1.8V172.7z"/>
			<path class="st0" d="M542.6,172.3c-0.7,0.4-1.6,0.6-2.8,0.6c-2.1,0-3.1-0.8-3.1-2.3c0-1,0.5-1.7,1.5-2.2c0.6-0.3,1.5-0.5,2.8-0.6
				v-0.4c0-0.8-0.5-1.3-1.5-1.3c-0.6,0-1.3,0.2-1.9,0.5l-0.4-1c0.8-0.4,1.7-0.6,2.6-0.6c1.9,0,2.8,0.9,2.8,2.7L542.6,172.3
				L542.6,172.3z M541,171.7v-3.2c-0.9,0.1-1.5,0.3-1.8,0.4c-0.6,0.3-0.9,0.8-0.9,1.5c0,1,0.5,1.4,1.6,1.4
				C540.4,171.9,540.7,171.8,541,171.7z"/>
		</g>
		<g>
			<path class="st0" d="M159.5,145.7h-3.2v3.2h2.8v1.3h-2.8v4.8h-1.9v-10.6h5.1V145.7z"/>
			<path class="st0" d="M166.3,154.5c-0.7,0.4-1.6,0.6-2.8,0.6c-2.1,0-3.1-0.8-3.1-2.3c0-1,0.5-1.7,1.5-2.2c0.6-0.3,1.5-0.5,2.8-0.6
				v-0.4c0-0.8-0.5-1.3-1.5-1.3c-0.6,0-1.3,0.2-1.9,0.5l-0.4-1c0.8-0.4,1.7-0.6,2.6-0.6c1.9,0,2.8,0.9,2.8,2.6L166.3,154.5
				L166.3,154.5z M164.7,153.9v-3.1c-0.8,0.1-1.4,0.2-1.8,0.4c-0.6,0.3-0.9,0.8-0.9,1.5c0,0.9,0.5,1.4,1.6,1.4
				C164,154.1,164.4,154.1,164.7,153.9z"/>
			<path class="st0" d="M172.6,154.6c-0.4,0.3-1,0.5-1.8,0.5c-1,0-1.8-0.4-2.3-1.3c-0.5-0.7-0.7-1.6-0.7-2.7c0-1.1,0.2-2,0.7-2.7
				c0.5-0.8,1.3-1.3,2.3-1.3c0.8,0,1.4,0.2,1.8,0.5l-0.4,1c-0.3-0.2-0.6-0.3-1-0.3c-1.1,0-1.7,0.9-1.7,2.7c0,0.7,0.1,1.3,0.3,1.8
				c0.3,0.7,0.7,1,1.3,1c0.4,0,0.8-0.1,1-0.3L172.6,154.6z"/>
			<path class="st0" d="M179.8,154.5c-0.8,0.4-1.7,0.6-2.9,0.6c-2,0-3-0.9-3-2.6v-5.2h1.7v5.3c0,0.9,0.4,1.3,1.3,1.3
				c0.5,0,0.8-0.1,1.1-0.3v-6.3h1.7L179.8,154.5L179.8,154.5z"/>
			<path class="st0" d="M183.5,154.9h-1.7v-10.7h1.7V154.9z"/>
			<path class="st0" d="M188.8,154.9c-0.2,0.1-0.5,0.2-0.9,0.2c-0.6,0-1.2-0.2-1.5-0.5c-0.4-0.4-0.6-0.9-0.6-1.5v-4.5H185v-1.1h0.8
				v-2.5l1.7-0.5v3h1.2v1.1h-1.2v4.4c0,0.7,0.3,1,0.8,1c0.1,0,0.2,0,0.4-0.1L188.8,154.9L188.8,154.9z"/>
			<path class="st0" d="M195.7,154.5c-0.7,0.4-1.6,0.6-2.8,0.6c-2.1,0-3.1-0.8-3.1-2.3c0-1,0.5-1.7,1.5-2.2c0.6-0.3,1.5-0.5,2.8-0.6
				v-0.4c0-0.8-0.5-1.3-1.5-1.3c-0.6,0-1.3,0.2-1.9,0.5l-0.4-1c0.8-0.4,1.7-0.6,2.6-0.6c1.9,0,2.8,0.9,2.8,2.6L195.7,154.5
				L195.7,154.5z M194.1,153.9v-3.1c-0.8,0.1-1.4,0.2-1.8,0.4c-0.6,0.3-0.9,0.8-0.9,1.5c0,0.9,0.5,1.4,1.6,1.4
				C193.5,154.1,193.8,154.1,194.1,153.9z"/>
			<path class="st0" d="M203.4,154.5c-0.7,0.4-1.5,0.6-2.7,0.6c-1.2,0-2.1-0.4-2.7-1.1c-0.6-0.7-0.9-1.6-0.9-2.8
				c0-1.1,0.3-2.1,0.8-2.8c0.6-0.8,1.4-1.2,2.5-1.2c0.4,0,0.8,0,1.1,0.1v-3.1h1.7V154.5z M201.7,153.8v-5.5
				c-0.2-0.1-0.5-0.1-0.8-0.1c-1.3,0-2,1-2,2.9c0,1.9,0.6,2.9,1.9,2.9C201.2,153.9,201.5,153.9,201.7,153.8z"/>
			<g>
				<path class="st0" d="M159.7,171.8c-0.7,0.4-1.5,0.6-2.7,0.6c-1.2,0-2.1-0.4-2.7-1.1c-0.6-0.7-0.9-1.6-0.9-2.8
					c0-1.1,0.3-2.1,0.8-2.8c0.6-0.8,1.4-1.2,2.5-1.2c0.4,0,0.8,0,1.1,0.1v-3.1h1.7V171.8z M157.9,171.1v-5.5
					c-0.2-0.1-0.5-0.1-0.8-0.1c-1.3,0-2,1-2,2.9c0,1.9,0.6,2.9,1.9,2.9C157.5,171.3,157.8,171.2,157.9,171.1z"/>
				<path class="st0" d="M167.6,168.5l-4.7,0.7c0.1,1.4,0.8,2.1,2.1,2.1c0.7,0,1.4-0.1,1.9-0.4l0.4,1.1c-0.6,0.4-1.5,0.5-2.5,0.5
					c-1.2,0-2.1-0.4-2.7-1.1c-0.6-0.7-0.8-1.6-0.8-2.8c0-1.1,0.2-2.1,0.7-2.7c0.6-0.8,1.4-1.2,2.5-1.2c1.1,0,1.9,0.4,2.4,1.2
					C167.4,166.4,167.6,167.3,167.6,168.5z M166,167.8c0-1.4-0.5-2.2-1.5-2.2c-0.6,0-1.1,0.3-1.4,0.9c-0.2,0.5-0.3,1-0.3,1.7
					L166,167.8z"/>
				<path class="st0" d="M180.9,172.3h-2l-0.8-2.7h-3.4l-0.8,2.7h-1.8l3.5-10.6h1.9L180.9,172.3z M177.8,168.4l-1.1-3.7
					c-0.2-0.6-0.3-1-0.3-1.3h0c-0.1,0.4-0.2,0.9-0.3,1.3l-1.1,3.7H177.8z"/>
				<path class="st0" d="M186.3,164.6l-0.3,1.3c-0.3-0.1-0.5-0.1-0.8-0.1c-0.3,0-0.6,0.1-0.8,0.2v6.4h-1.7v-7.2
					C183.4,164.7,184.6,164.5,186.3,164.6z"/>
				<path class="st0" d="M193.3,175.3h-1.7v-3.2c-0.4,0.2-0.9,0.3-1.5,0.3c-1,0-1.8-0.4-2.3-1.2c-0.5-0.7-0.7-1.5-0.7-2.6
					c0-1.3,0.3-2.2,0.9-3c0.6-0.8,1.6-1.2,2.8-1.2c1,0,1.9,0.2,2.5,0.6V175.3z M191.6,171.1v-5.4c-0.2-0.1-0.5-0.2-0.9-0.2
					c-1.3,0-1.9,1-1.9,3c0,1.9,0.6,2.8,1.8,2.8C191,171.4,191.3,171.3,191.6,171.1z"/>
				<path class="st0" d="M201,171.9c-0.8,0.4-1.7,0.6-2.9,0.6c-2,0-3-0.9-3-2.6v-5.2h1.7v5.3c0,0.9,0.4,1.3,1.3,1.3
					c0.5,0,0.8-0.1,1.1-0.3v-6.3h1.7L201,171.9L201,171.9z"/>
				<path class="st0" d="M204.7,162.5c0,0.2-0.1,0.4-0.3,0.6c-0.2,0.2-0.4,0.2-0.7,0.2s-0.5-0.1-0.7-0.2c-0.2-0.2-0.3-0.4-0.3-0.6
					s0.1-0.4,0.3-0.6c0.2-0.2,0.4-0.2,0.7-0.2s0.5,0.1,0.7,0.2C204.6,162.1,204.7,162.3,204.7,162.5z M204.6,172.3h-1.7v-7.6h1.7
					V172.3z"/>
				<path class="st0" d="M209.9,172.2c-0.2,0.1-0.5,0.2-0.9,0.2c-0.6,0-1.2-0.2-1.5-0.5c-0.4-0.4-0.6-0.9-0.6-1.5v-4.5h-0.8v-1.1
					h0.8v-2.5l1.7-0.5v3h1.2v1.1h-1.2v4.4c0,0.7,0.3,1,0.8,1c0.1,0,0.2,0,0.4-0.1L209.9,172.2L209.9,172.2z"/>
				<path class="st0" d="M217.4,168.5l-4.7,0.7c0.1,1.4,0.8,2.1,2.1,2.1c0.7,0,1.4-0.1,1.9-0.4l0.4,1.1c-0.6,0.4-1.5,0.5-2.5,0.5
					c-1.2,0-2.1-0.4-2.7-1.1c-0.6-0.7-0.8-1.6-0.8-2.8c0-1.1,0.2-2.1,0.7-2.7c0.6-0.8,1.4-1.2,2.5-1.2c1.1,0,1.9,0.4,2.4,1.2
					C217.2,166.4,217.4,167.3,217.4,168.5z M215.8,167.8c0-1.4-0.5-2.2-1.5-2.2c-0.6,0-1.1,0.3-1.4,0.9c-0.2,0.5-0.3,1-0.3,1.7
					L215.8,167.8z"/>
				<path class="st0" d="M223.5,171.9c-0.4,0.3-1,0.5-1.8,0.5c-1,0-1.8-0.4-2.3-1.3c-0.5-0.7-0.7-1.6-0.7-2.7c0-1.1,0.2-2,0.7-2.7
					c0.5-0.8,1.3-1.3,2.3-1.3c0.8,0,1.4,0.2,1.8,0.5l-0.4,1c-0.3-0.2-0.6-0.3-1-0.3c-1.1,0-1.7,0.9-1.7,2.7c0,0.7,0.1,1.3,0.3,1.8
					c0.3,0.7,0.7,1,1.3,1c0.4,0,0.8-0.1,1-0.3L223.5,171.9z"/>
				<path class="st0" d="M228.2,172.2c-0.2,0.1-0.5,0.2-0.9,0.2c-0.6,0-1.2-0.2-1.5-0.5c-0.4-0.4-0.6-0.9-0.6-1.5v-4.5h-0.8v-1.1
					h0.8v-2.5l1.7-0.5v3h1.2v1.1H227v4.4c0,0.7,0.3,1,0.8,1c0.1,0,0.2,0,0.4-0.1V172.2z"/>
				<path class="st0" d="M235.5,171.9c-0.8,0.4-1.7,0.6-2.9,0.6c-2,0-3-0.9-3-2.6v-5.2h1.7v5.3c0,0.9,0.4,1.3,1.3,1.3
					c0.5,0,0.8-0.1,1.1-0.3v-6.3h1.7L235.5,171.9L235.5,171.9z"/>
				<path class="st0" d="M241.1,164.6l-0.3,1.3c-0.3-0.1-0.5-0.1-0.8-0.1c-0.3,0-0.6,0.1-0.8,0.2v6.4h-1.7v-7.2
					C238.2,164.7,239.4,164.5,241.1,164.6z"/>
				<path class="st0" d="M247.7,171.9c-0.7,0.4-1.6,0.6-2.8,0.6c-2.1,0-3.1-0.8-3.1-2.3c0-1,0.5-1.7,1.5-2.2
					c0.6-0.3,1.5-0.5,2.8-0.6v-0.4c0-0.8-0.5-1.3-1.5-1.3c-0.6,0-1.3,0.2-1.9,0.5l-0.4-1c0.8-0.4,1.7-0.6,2.6-0.6
					c1.9,0,2.8,0.9,2.8,2.6L247.7,171.9L247.7,171.9z M246.1,171.3v-3.1c-0.8,0.1-1.4,0.2-1.8,0.4c-0.6,0.3-0.9,0.8-0.9,1.5
					c0,0.9,0.5,1.4,1.6,1.4C245.5,171.5,245.8,171.4,246.1,171.3z"/>
				<path class="st0" d="M259.3,164.7l-3.5,10.6H254l1.2-3l-2.5-7.6h1.8l1.3,4.9c0.1,0.4,0.1,0.7,0.2,1.1h0c0-0.2,0.1-0.6,0.2-1.1
					l1.4-4.9H259.3z"/>
				<path class="st0" d="M271.6,167c0,1.6-0.3,2.9-1,3.9c-0.8,1.1-1.9,1.7-3.5,1.7c-1.3,0-2.3-0.2-3-0.6v-9.7
					c0.8-0.4,1.8-0.6,2.9-0.6c1.6,0,2.8,0.5,3.6,1.6C271.3,164,271.6,165.3,271.6,167z M269.6,166.9c0-2.7-0.9-4.1-2.6-4.1
					c-0.4,0-0.7,0.1-1,0.2v8c0.3,0.1,0.7,0.2,1,0.2c1,0,1.8-0.5,2.1-1.4C269.5,169.1,269.6,168.1,269.6,166.9z"/>
				<path class="st0" d="M274.8,162.5c0,0.2-0.1,0.4-0.3,0.6c-0.2,0.2-0.4,0.2-0.7,0.2s-0.5-0.1-0.7-0.2c-0.2-0.2-0.3-0.4-0.3-0.6
					s0.1-0.4,0.3-0.6c0.2-0.2,0.4-0.2,0.7-0.2s0.5,0.1,0.7,0.2C274.7,162.1,274.8,162.3,274.8,162.5z M274.7,172.3h-1.7v-7.6h1.7
					V172.3z"/>
				<path class="st0" d="M280.9,170.1c0,0.7-0.3,1.3-0.8,1.7c-0.5,0.4-1.1,0.6-1.9,0.6c-0.9,0-1.6-0.2-2.1-0.6l0.5-1.1
					c0.4,0.3,0.8,0.4,1.4,0.4c0.3,0,0.6-0.1,0.8-0.3c0.2-0.2,0.3-0.5,0.3-0.8c0-0.6-0.4-1-1.1-1.3c-1.2-0.4-1.7-1.2-1.7-2.1
					c0-0.7,0.2-1.2,0.7-1.6c0.5-0.4,1-0.6,1.7-0.6c0.8,0,1.4,0.2,2,0.5l-0.4,1c-0.3-0.3-0.8-0.4-1.2-0.4c-0.3,0-0.6,0.1-0.8,0.3
					c-0.2,0.2-0.3,0.4-0.3,0.7c0,0.5,0.4,0.9,1.1,1.2C280.3,168.4,280.9,169.1,280.9,170.1z"/>
				<path class="st0" d="M288.4,168.5l-4.7,0.7c0.1,1.4,0.8,2.1,2.1,2.1c0.7,0,1.4-0.1,1.9-0.4l0.4,1.1c-0.6,0.4-1.5,0.5-2.5,0.5
					c-1.2,0-2.1-0.4-2.7-1.1c-0.6-0.7-0.8-1.6-0.8-2.8c0-1.1,0.2-2.1,0.7-2.7c0.6-0.8,1.4-1.2,2.5-1.2c1.1,0,1.9,0.4,2.4,1.2
					C288.3,166.4,288.5,167.3,288.4,168.5z M286.8,167.8c0-1.4-0.5-2.2-1.5-2.2c-0.6,0-1.1,0.3-1.4,0.9c-0.2,0.5-0.3,1-0.3,1.7
					L286.8,167.8z"/>
				<path class="st0" d="M296,172.3h-1.7v-5.5c0-0.8-0.5-1.2-1.4-1.2c-0.4,0-0.8,0.1-1.2,0.2v6.5H290v-7.2c0.8-0.4,1.8-0.6,3-0.6
					c2,0,3,0.8,3,2.3L296,172.3L296,172.3z M291.7,163.3l1.9-0.2c0.7-0.1,1.2-0.1,1.5-0.1c0.3,0,0.5,0,0.8,0V162l-4.2,0V163.3z"/>
				<path class="st0" d="M303.9,168.5c0,1.1-0.2,2-0.7,2.7c-0.6,0.8-1.4,1.2-2.4,1.2c-1.1,0-1.9-0.4-2.4-1.2
					c-0.5-0.7-0.7-1.6-0.7-2.7c0-1.1,0.2-2,0.7-2.7c0.5-0.8,1.4-1.2,2.4-1.2s1.9,0.4,2.4,1.2C303.7,166.5,303.9,167.4,303.9,168.5z
					 M302.2,168.5c0-1.9-0.5-2.8-1.5-2.8s-1.5,0.9-1.5,2.8c0,1.9,0.5,2.8,1.5,2.8C301.7,171.3,302.2,170.3,302.2,168.5z"/>
			</g>
		</g>
		<g>
			<path class="st0" d="M602.8,145.7h-3.3v3.3h2.9v1.3h-2.9v4.9h-2v-10.8h5.3V145.7z"/>
			<path class="st0" d="M609.7,154.8c-0.7,0.4-1.6,0.6-2.8,0.6c-2.1,0-3.2-0.8-3.2-2.4c0-1,0.5-1.8,1.5-2.2c0.6-0.3,1.6-0.5,2.8-0.6
				v-0.4c0-0.9-0.5-1.3-1.5-1.3c-0.6,0-1.3,0.2-1.9,0.5l-0.4-1c0.8-0.4,1.7-0.6,2.7-0.6c1.9,0,2.9,0.9,2.9,2.7L609.7,154.8
				L609.7,154.8z M608,154.1v-3.2c-0.9,0.1-1.5,0.3-1.8,0.4c-0.6,0.3-0.9,0.8-0.9,1.5c0,1,0.5,1.4,1.6,1.4
				C607.4,154.3,607.8,154.3,608,154.1z"/>
			<path class="st0" d="M616.2,154.8c-0.4,0.4-1,0.5-1.8,0.5c-1,0-1.8-0.4-2.4-1.3c-0.5-0.7-0.7-1.6-0.7-2.7s0.2-2,0.7-2.7
				c0.5-0.9,1.3-1.3,2.4-1.3c0.8,0,1.4,0.2,1.8,0.5l-0.4,1c-0.3-0.2-0.6-0.3-1-0.3c-1.1,0-1.7,0.9-1.7,2.8c0,0.7,0.1,1.3,0.3,1.8
				c0.3,0.7,0.7,1,1.4,1c0.4,0,0.8-0.1,1.1-0.3L616.2,154.8z"/>
			<path class="st0" d="M623.6,154.7c-0.8,0.4-1.8,0.6-3,0.6c-2,0-3-0.9-3-2.6v-5.3h1.8v5.4c0,0.9,0.4,1.3,1.3,1.3
				c0.5,0,0.9-0.1,1.2-0.3v-6.5h1.8L623.6,154.7L623.6,154.7z"/>
			<path class="st0" d="M627.3,155.2h-1.8v-10.9h1.8V155.2z"/>
			<path class="st0" d="M632.7,155.1c-0.2,0.1-0.5,0.2-0.9,0.2c-0.7,0-1.2-0.2-1.6-0.6c-0.4-0.4-0.6-0.9-0.6-1.6v-4.6h-0.9v-1.1h0.9
				v-2.6l1.8-0.5v3.1h1.3v1.1h-1.3v4.5c0,0.7,0.3,1,0.8,1c0.1,0,0.3,0,0.4-0.1L632.7,155.1L632.7,155.1z"/>
			<path class="st0" d="M639.8,154.8c-0.7,0.4-1.6,0.6-2.8,0.6c-2.1,0-3.2-0.8-3.2-2.4c0-1,0.5-1.8,1.5-2.2c0.6-0.3,1.6-0.5,2.8-0.6
				v-0.4c0-0.9-0.5-1.3-1.5-1.3c-0.6,0-1.3,0.2-1.9,0.5l-0.4-1c0.8-0.4,1.7-0.6,2.7-0.6c1.9,0,2.9,0.9,2.9,2.7V154.8z M638.2,154.1
				v-3.2c-0.9,0.1-1.5,0.3-1.8,0.4c-0.6,0.3-0.9,0.8-0.9,1.5c0,1,0.5,1.4,1.6,1.4C637.5,154.3,637.9,154.3,638.2,154.1z"/>
			<path class="st0" d="M647.7,154.7c-0.7,0.4-1.6,0.6-2.7,0.6c-1.2,0-2.1-0.4-2.7-1.1c-0.6-0.7-0.9-1.6-0.9-2.8
				c0-1.2,0.3-2.1,0.8-2.8c0.6-0.8,1.5-1.2,2.6-1.2c0.5,0,0.8,0,1.2,0.1v-3.2h1.8V154.7z M645.9,154v-5.6c-0.2-0.1-0.5-0.1-0.8-0.1
				c-1.4,0-2,1-2,3c0,1.9,0.6,2.9,1.9,2.9C645.4,154.1,645.7,154.1,645.9,154z"/>
			<path class="st0" d="M603.7,172c-0.7,0.4-1.6,0.6-2.7,0.6c-1.2,0-2.1-0.4-2.7-1.1c-0.6-0.7-0.9-1.6-0.9-2.9
				c0-1.2,0.3-2.1,0.8-2.8c0.6-0.8,1.5-1.2,2.6-1.2c0.5,0,0.8,0,1.2,0.1v-3.2h1.8V172z M601.9,171.3v-5.6c-0.2-0.1-0.5-0.1-0.8-0.1
				c-1.4,0-2,1-2,3c0,1.9,0.6,2.9,1.9,2.9C601.4,171.5,601.7,171.4,601.9,171.3z"/>
			<path class="st0" d="M611.7,168.6l-4.8,0.7c0.1,1.5,0.9,2.2,2.1,2.2c0.8,0,1.4-0.1,2-0.4l0.4,1.1c-0.7,0.4-1.5,0.5-2.6,0.5
				c-1.2,0-2.1-0.4-2.7-1.2c-0.6-0.7-0.9-1.7-0.9-2.9c0-1.2,0.3-2.1,0.8-2.8c0.6-0.8,1.4-1.2,2.6-1.2c1.1,0,2,0.4,2.5,1.2
				C611.6,166.4,611.8,167.4,611.7,168.6z M610.1,167.9c0-1.5-0.5-2.2-1.5-2.2c-0.7,0-1.1,0.3-1.4,0.9c-0.2,0.5-0.3,1.1-0.3,1.8
				L610.1,167.9z"/>
			<path class="st0" d="M627.6,172.5h-1.9c-0.2-1.7-0.4-4.1-0.7-7.2c0-0.4-0.1-0.8,0-1.3h0c-0.1,0.4-0.2,0.8-0.3,1.3l-2.1,7.2h-1.1
				c-0.1-0.2-0.8-2.6-2.1-7.2c-0.1-0.4-0.2-0.8-0.3-1.3h0c0,0.4,0,0.8-0.1,1.3l-0.7,7.2h-1.7l1.2-10.9h2l2,7
				c0.1,0.4,0.2,0.8,0.3,1.2l0,0c0-0.3,0.1-0.7,0.3-1.2l2-7h2L627.6,172.5z"/>
			<path class="st0" d="M635.3,168.6l-4.8,0.7c0.1,1.5,0.9,2.2,2.1,2.2c0.8,0,1.4-0.1,2-0.4l0.4,1.1c-0.7,0.4-1.5,0.5-2.6,0.5
				c-1.2,0-2.1-0.4-2.7-1.2c-0.6-0.7-0.9-1.7-0.9-2.9c0-1.2,0.3-2.1,0.8-2.8c0.6-0.8,1.4-1.2,2.6-1.2c1.1,0,2,0.4,2.5,1.2
				C635.1,166.4,635.4,167.4,635.3,168.6z M633.7,167.9c0-1.5-0.5-2.2-1.5-2.2c-0.7,0-1.1,0.3-1.4,0.9c-0.2,0.5-0.3,1.1-0.3,1.8
				L633.7,167.9z"/>
			<path class="st0" d="M642.9,172c-0.7,0.4-1.6,0.6-2.7,0.6c-1.2,0-2.1-0.4-2.7-1.1c-0.6-0.7-0.9-1.6-0.9-2.9
				c0-1.2,0.3-2.1,0.8-2.8c0.6-0.8,1.5-1.2,2.6-1.2c0.5,0,0.8,0,1.2,0.1v-3.2h1.8V172z M641.1,171.3v-5.6c-0.2-0.1-0.5-0.1-0.8-0.1
				c-1.4,0-2,1-2,3c0,1.9,0.6,2.9,1.9,2.9C640.7,171.5,641,171.4,641.1,171.3z"/>
			<path class="st0" d="M646.8,162.5c0,0.3-0.1,0.5-0.3,0.6s-0.4,0.2-0.7,0.2s-0.5-0.1-0.7-0.2c-0.2-0.2-0.3-0.4-0.3-0.6
				s0.1-0.5,0.3-0.6c0.2-0.2,0.4-0.3,0.7-0.3c0.3,0,0.5,0.1,0.7,0.2C646.7,162,646.8,162.3,646.8,162.5z M646.7,172.5h-1.8v-7.8h1.8
				V172.5z"/>
			<path class="st0" d="M653.2,172.1c-0.4,0.4-1,0.5-1.8,0.5c-1,0-1.8-0.4-2.4-1.3c-0.5-0.7-0.7-1.6-0.7-2.7c0-1.1,0.2-2,0.7-2.7
				c0.5-0.9,1.3-1.3,2.4-1.3c0.8,0,1.4,0.2,1.8,0.5l-0.4,1c-0.3-0.2-0.6-0.3-1-0.3c-1.1,0-1.7,0.9-1.7,2.8c0,0.7,0.1,1.3,0.3,1.8
				c0.3,0.7,0.7,1,1.4,1c0.4,0,0.8-0.1,1.1-0.3L653.2,172.1z"/>
			<path class="st0" d="M656.5,162.5c0,0.3-0.1,0.5-0.3,0.6s-0.4,0.2-0.7,0.2c-0.3,0-0.5-0.1-0.7-0.2c-0.2-0.2-0.3-0.4-0.3-0.6
				s0.1-0.5,0.3-0.6c0.2-0.2,0.4-0.3,0.7-0.3c0.3,0,0.5,0.1,0.7,0.2C656.4,162,656.5,162.3,656.5,162.5z M656.4,172.5h-1.8v-7.8h1.8
				V172.5z"/>
			<path class="st0" d="M664.5,172.5h-1.8V167c0-0.9-0.5-1.3-1.4-1.3c-0.4,0-0.8,0.1-1.2,0.2v6.6h-1.8v-7.4c0.8-0.4,1.8-0.6,3-0.6
				c0.9,0,1.6,0.2,2.1,0.5c0.6,0.4,1,1,1,1.9V172.5z"/>
			<path class="st0" d="M672,172.1c-0.7,0.4-1.6,0.6-2.8,0.6c-2.1,0-3.2-0.8-3.2-2.4c0-1,0.5-1.8,1.5-2.2c0.6-0.3,1.6-0.5,2.8-0.6
				V167c0-0.9-0.5-1.3-1.5-1.3c-0.6,0-1.3,0.2-2,0.5l-0.4-1c0.8-0.4,1.7-0.6,2.7-0.6c1.9,0,2.9,0.9,2.9,2.7L672,172.1L672,172.1z
				 M670.4,171.4v-3.2c-0.9,0.1-1.5,0.3-1.8,0.4c-0.6,0.3-0.9,0.8-0.9,1.5c0,1,0.5,1.4,1.6,1.4C669.7,171.7,670.1,171.6,670.4,171.4
				z"/>
		</g>
	</g>
	<g>
		<g>
			<path class="st1" d="M34.3,7.7c0,0,27.1-13.4,67.9,0c-0.4,41.1-0.6,66-0.6,66S90,87,69,87.7c-21.1,0.7-32.3-10.6-32.3-10.6
				L34.3,7.7z"/>
			<path class="st2" d="M99.8,78.2C84.7,88,69,87.5,69,87.5s-0.4-2-0.3-5.5c0.2-3.5,2.1-2.5,3.4-5.2c0.5-1,0.9-1.7,1.7-4
				c0-0.1-0.9-16.6-1.1-23.7c-0.1-3.8-0.8-10.1-1.7-16.2c-0.5-3.6-1.6-6.5-2.1-10c-0.7-5-1.6-10.6-1.6-10.6
				c-0.6,1.6-1.5,7.5-2.4,14.2c-0.4,3.2-0.9,6.6-1.2,9.8c-0.8,6.7-2.9,24.7-3.3,25.7c-0.5,1.5-0.5-0.4-0.5-0.4s1.2-18.9,1.6-27.1
				c0.2-4,0.5-8.5,1-12.8c0.4-3.2,0.9-6.3,1.5-9.1c0,0,2.2-6.5,2.8-6.7c0.7-0.1,3.2,4.1,4,7.9c1.9,8.5,3,9.6,4.5,18.6
				c1.4,8.5,2.6,15.6,2.8,16.8c0.6,4.2,0.3,17.4-0.8,22.6c-0.3,1.4-0.3,2-1.3,2.9c-2.2,2.2-3.7,4.9-3.7,6.6c0,1.7-0.3,1.7,0.1,2.7
				c0,0,2.9,4.3,19.5-5.6c0,0,5.2-2.7,5.2-8.7V9.1c0,0-16.5-5.6-29.2-5.6c-12.7,0-28.6,5.6-28.6,5.6v60.4c0,3.7,0.5,10.7,5.9,13.1
				c0,0-14.1-4.8-14.1-13.2V4c0,0,21.6-4,36.9-4c15.3,0,37.3,4,37.3,4v65.6C105.3,75.2,99.8,78.2,99.8,78.2"/>
			<path class="st2" d="M305,27.5c-1.5,0.8-3.5,1.3-6.1,1.3c-2.6,0-4.6-0.8-6-2.3c-1.4-1.6-2.1-3.7-2.1-6.5c0-2.8,0.7-5,2.1-6.7
				c1.4-1.6,3.2-2.4,5.5-2.4c1,0,1.9,0.1,2.6,0.3v-7h3.9L305,27.5L305,27.5z M301.1,25.8V13.3c-0.5-0.2-1.1-0.2-1.7-0.2
				c-3.1,0-4.6,2.2-4.6,6.6c0,4.4,1.4,6.5,4.3,6.5C300,26.2,300.6,26.1,301.1,25.8"/>
			<path class="st2" d="M323,19.6l-10.7,1.5c0.3,3.2,1.9,4.9,4.8,4.9c1.7,0,3.2-0.3,4.4-1l0.9,2.5c-1.5,0.8-3.4,1.2-5.8,1.2
				c-2.5,0-4.5-0.8-5.9-2.4c-1.4-1.6-2.2-3.8-2.2-6.7c0-2.8,0.7-5,2-6.6c1.3-1.6,3.1-2.4,5.5-2.4c2.3,0,4.1,0.8,5.3,2.3
				C322.5,14.4,323.1,16.7,323,19.6 M319.3,18c0-3.3-1.1-5-3.4-5c-1.2,0-2.1,0.5-2.8,1.5c-0.7,1.1-1,2.6-1,4.6L319.3,18z"/>
			<rect x="118.2" y="36.7" class="st2" width="6.2" height="38.3"/>
			<path class="st2" d="M152.9,61.3c0,4.2-0.9,7.6-2.8,10.1c-2,2.7-4.9,4.1-8.6,4.1c-3.7,0-6.6-1.4-8.6-4.1
				c-1.9-2.5-2.8-5.9-2.8-10.1c0-4.3,0.9-7.6,2.8-10.2c2-2.7,4.9-4.1,8.6-4.1c3.7,0,6.6,1.4,8.6,4.1C152,53.7,152.9,57.1,152.9,61.3
				 M146.8,61.3c0-6.8-1.7-10.3-5.2-10.3c-3.5,0-5.2,3.4-5.2,10.3c0,6.7,1.7,10,5.2,10C145,71.3,146.8,67.9,146.8,61.3"/>
			<path class="st2" d="M174.2,67.1c0,2.3-0.9,4.3-2.7,5.9c-1.8,1.6-4.1,2.4-7.1,2.4c-3.1,0-5.6-0.7-7.6-2l1.6-4
				c1.3,1.1,3,1.6,5.1,1.6c1.3,0,2.3-0.4,3-1.1c0.8-0.7,1.2-1.7,1.2-2.8c0-1.2-0.3-2.1-0.9-2.7c-0.6-0.7-1.6-1.3-3.1-1.8
				c-4.2-1.6-6.2-4.1-6.2-7.7c0-2.2,0.8-4.1,2.4-5.6c1.6-1.5,3.7-2.3,6.3-2.3c2.8,0,5.1,0.6,7.1,1.9l-1.5,3.6
				c-1.3-1-2.7-1.5-4.4-1.5c-1.2,0-2.2,0.3-2.9,1c-0.7,0.7-1,1.5-1,2.6c0,1.8,1.4,3.2,4.1,4.3C172,60.8,174.2,63.5,174.2,67.1"/>
			<path class="st2" d="M219.9,75h-7.2l-2.9-9.8h-12.2l-3,9.8h-6.3l12.6-38h6.6L219.9,75z M208.7,61.1l-3.9-13.4
				c-0.6-1.9-0.9-3.4-1-4.6h-0.1c-0.2,1-0.5,2.5-1,4.6l-4.1,13.4H208.7z"/>
			<path class="st2" d="M245.3,75h-6.2V55.6c0-3-1.6-4.6-4.9-4.6c-1.6,0-3,0.3-4.3,0.8V75h-6.2V49.1c2.8-1.3,6.4-2,10.7-2
				c3.8,0,6.6,0.8,8.5,2.5c1.6,1.4,2.4,3.4,2.4,5.8L245.3,75L245.3,75z"/>
			<path class="st2" d="M273.3,73.5c-2.4,1.3-5.6,2-9.5,2c-4,0-7.2-1.2-9.4-3.7c-2.2-2.4-3.4-5.8-3.4-10.2c0-4.4,1.1-7.9,3.4-10.5
				c2.2-2.5,5-3.8,8.6-3.8c1.6,0,3,0.2,4.1,0.5V36.8h6.2L273.3,73.5L273.3,73.5z M267.1,70.9V51.2c-0.8-0.2-1.7-0.4-2.7-0.4
				c-4.8,0-7.2,3.5-7.2,10.4c0,6.8,2.3,10.3,6.8,10.3C265.4,71.5,266.4,71.3,267.1,70.9"/>
			<path class="st2" d="M301.5,61.1l-16.8,2.4c0.5,5.1,3,7.6,7.5,7.6c2.6,0,4.9-0.5,6.9-1.5l1.5,3.9c-2.3,1.3-5.3,1.9-9,1.9
				c-3.9,0-7-1.2-9.3-3.7c-2.3-2.5-3.4-6-3.4-10.6c0-4.4,1-7.9,3.1-10.4c2.1-2.5,4.9-3.7,8.6-3.7c3.7,0,6.4,1.2,8.3,3.6
				C300.7,53.1,301.6,56.6,301.5,61.1 M295.7,58.7c0-5.2-1.8-7.8-5.4-7.8c-1.9,0-3.3,0.8-4.4,2.3c-1.1,1.7-1.6,4.1-1.6,7.2
				L295.7,58.7z"/>
			<path class="st2" d="M322.8,67.1c0,2.3-0.9,4.3-2.7,5.9c-1.8,1.6-4.1,2.4-7.1,2.4c-3.1,0-5.6-0.7-7.6-2l1.6-4
				c1.3,1.1,3,1.6,5.1,1.6c1.3,0,2.3-0.4,3-1.1c0.8-0.7,1.2-1.7,1.2-2.8c0-1.2-0.3-2.1-0.9-2.7c-0.6-0.7-1.6-1.3-3.1-1.8
				c-4.2-1.6-6.2-4.1-6.2-7.7c0-2.2,0.8-4.1,2.4-5.6c1.6-1.5,3.7-2.3,6.3-2.3c2.8,0,5.1,0.6,7.1,1.9l-1.5,3.6
				c-1.2-1-2.7-1.5-4.4-1.5c-1.2,0-2.2,0.3-2.9,1s-1,1.5-1,2.6c0,1.8,1.4,3.2,4.1,4.3C320.6,60.8,322.8,63.5,322.8,67.1"/>
			<path class="st2" d="M150.8,28.5h-3.9V16.1c0-1.9-1-2.9-3.1-2.9c-1,0-1.9,0.2-2.7,0.5v14.8h-3.9V12c1.8-0.8,4.1-1.3,6.8-1.3
				c2.4,0,4.2,0.5,5.4,1.6c1,0.9,1.5,2.1,1.5,3.7L150.8,28.5L150.8,28.5z"/>
			<path class="st2" d="M159.3,6c0,0.5-0.2,1-0.6,1.4c-0.4,0.4-0.9,0.6-1.5,0.6c-0.6,0-1.1-0.2-1.5-0.6C155.2,7.1,155,6.6,155,6
				c0-0.5,0.2-1,0.6-1.4c0.4-0.4,0.9-0.6,1.5-0.6c0.6,0,1.1,0.2,1.5,0.6C159.1,5,159.3,5.5,159.3,6 M159.1,28.5h-3.9V11h3.9V28.5z"
				/>
			<path class="st2" d="M177.1,11l-5.6,17.5h-3.8L162.1,11h4.2l3.1,11.3c0.2,0.8,0.4,1.6,0.4,2.4h0.1c0.1-0.6,0.3-1.4,0.5-2.4
				l3.1-11.3C173.4,11,177.1,11,177.1,11z"/>
			<path class="st2" d="M193.7,19.6L183,21.2c0.3,3.2,1.9,4.9,4.8,4.9c1.7,0,3.2-0.3,4.4-1l0.9,2.5c-1.5,0.8-3.4,1.2-5.8,1.2
				c-2.5,0-4.5-0.8-5.9-2.4c-1.4-1.6-2.2-3.8-2.2-6.7c0-2.8,0.7-5,2-6.6c1.3-1.6,3.1-2.4,5.5-2.4c2.3,0,4.1,0.8,5.3,2.3
				C193.2,14.5,193.8,16.7,193.7,19.6 M190,18.1c0-3.3-1.1-5-3.4-5c-1.2,0-2.1,0.5-2.8,1.5c-0.7,1.1-1,2.6-1,4.6L190,18.1z"/>
			<path class="st2" d="M205.7,10.7l-0.8,2.9c-0.6-0.2-1.2-0.3-1.8-0.3c-0.8,0-1.4,0.1-1.9,0.4v14.7h-3.9V11.9
				C199.2,11,202,10.6,205.7,10.7"/>
			<path class="st2" d="M218.3,23.5c0,1.5-0.6,2.7-1.7,3.8c-1.1,1-2.6,1.6-4.5,1.6c-2,0-3.6-0.4-4.8-1.3l1-2.5c0.8,0.7,1.9,1,3.3,1
				c0.8,0,1.4-0.2,1.9-0.7c0.5-0.5,0.7-1.1,0.7-1.8c0-0.7-0.2-1.3-0.6-1.7c-0.4-0.4-1-0.8-2-1.1c-2.7-1-4-2.6-4-4.9
				c0-1.4,0.5-2.6,1.5-3.6c1-1,2.4-1.5,4-1.5c1.8,0,3.3,0.4,4.5,1.2l-1,2.3c-0.8-0.6-1.7-1-2.8-1c-0.8,0-1.4,0.2-1.8,0.7
				c-0.4,0.4-0.7,1-0.7,1.6c0,1.1,0.9,2.1,2.6,2.8C216.9,19.4,218.3,21.1,218.3,23.5"/>
			<path class="st2" d="M226,6c0,0.5-0.2,1-0.6,1.4c-0.4,0.4-0.9,0.6-1.5,0.6c-0.6,0-1.1-0.2-1.5-0.6c-0.4-0.4-0.6-0.8-0.6-1.4
				c0-0.5,0.2-1,0.6-1.4c0.4-0.4,0.9-0.6,1.5-0.6c0.6,0,1.1,0.2,1.5,0.6C225.8,5,226,5.5,226,6 M225.8,28.5h-3.9V11h3.9V28.5z"/>
			<path class="st2" d="M243.7,27.5c-1.5,0.8-3.5,1.3-6.1,1.3c-2.6,0-4.6-0.8-6-2.3c-1.4-1.6-2.1-3.7-2.1-6.5c0-2.8,0.7-5,2.1-6.7
				c1.4-1.6,3.2-2.4,5.5-2.4c1,0,1.9,0.1,2.6,0.3v-7h3.9L243.7,27.5L243.7,27.5z M239.8,25.9V13.3c-0.5-0.2-1.1-0.2-1.7-0.2
				c-3.1,0-4.6,2.2-4.6,6.6c0,4.4,1.4,6.5,4.3,6.5C238.7,26.3,239.4,26.1,239.8,25.9"/>
			<path class="st2" d="M260.5,27.5c-1.6,0.8-3.7,1.3-6.3,1.3c-4.7,0-7.1-1.8-7.1-5.3c0-2.1,1-3.7,2.9-4.8c1.5-0.8,3.8-1.4,6.9-1.7
				v-0.9c0-1.9-1.2-2.9-3.5-2.9c-1.4,0-2.9,0.4-4.4,1.1l-0.9-2.3c1.8-0.9,3.8-1.3,6-1.3c4.3,0,6.4,2,6.4,6L260.5,27.5L260.5,27.5z
				 M256.8,26.1v-7.2c-2.1,0.3-3.5,0.7-4.4,1.2c-1.1,0.7-1.6,1.7-1.6,3.2c0,2.2,1.2,3.2,3.7,3.2C255.4,26.6,256.2,26.4,256.8,26.1"
				/>
			<path class="st2" d="M278.3,27.5c-1.5,0.8-3.5,1.3-6.1,1.3c-2.6,0-4.6-0.8-6-2.3c-1.4-1.6-2.1-3.7-2.1-6.5c0-2.8,0.7-5,2.1-6.7
				c1.4-1.6,3.2-2.4,5.5-2.4c1,0,1.9,0.1,2.6,0.3v-7h3.9V27.5z M274.4,25.9V13.3c-0.5-0.2-1.1-0.2-1.7-0.2c-3.1,0-4.6,2.2-4.6,6.6
				c0,4.4,1.4,6.5,4.3,6.5C273.3,26.3,274,26.1,274.4,25.9"/>
			<path class="st2" d="M118.1,4.2h4.2v18.8c0,2.1,1.1,3.1,3.3,3.1c1.1,0,2-0.2,2.9-0.5V4.2h4.2v23.2c-1.9,0.9-4.3,1.3-7.3,1.3
				c-2.6,0-4.5-0.6-5.7-1.7c-1.1-1-1.6-2.3-1.6-4V4.2z"/>
			<path class="st2" d="M241.6,111.2c-0.8,0.7-2.1,1-3.6,1c-2.3,0-4.1-1-5.3-2.9c-1-1.6-1.5-3.7-1.5-6.1c0-2.4,0.5-4.4,1.5-6.1
				c1.2-2,3-2.9,5.2-2.9c1.5,0,2.7,0.3,3.6,1l-0.7,1.9c-0.7-0.4-1.5-0.6-2.3-0.6c-1.5,0-2.6,0.8-3.3,2.4c-0.5,1.1-0.7,2.6-0.7,4.3
				c0,1.7,0.3,3.1,0.8,4.3c0.7,1.6,1.8,2.3,3.2,2.3c0.8,0,1.6-0.2,2.2-0.6L241.6,111.2z"/>
			<path class="st2" d="M253.3,105.6c0,1.9-0.4,3.4-1.2,4.5c-0.9,1.3-2.3,2-4,2c-1.8,0-3.1-0.7-4-2c-0.8-1.2-1.2-2.7-1.2-4.5
				c0-1.9,0.4-3.4,1.2-4.5c0.9-1.3,2.2-2,4-2c1.8,0,3.1,0.7,4,2C252.9,102.3,253.3,103.8,253.3,105.6 M250.5,105.6
				c0-3.1-0.8-4.7-2.4-4.7c-1.6,0-2.4,1.6-2.4,4.7c0,3.1,0.8,4.6,2.4,4.6C249.7,110.2,250.5,108.7,250.5,105.6"/>
			<rect x="256" y="94.2" class="st2" width="2.9" height="17.7"/>
			<path class="st2" d="M272,105.6c0,1.9-0.4,3.4-1.2,4.5c-0.9,1.3-2.3,2-4,2s-3.1-0.7-4-2c-0.8-1.2-1.2-2.7-1.2-4.5
				c0-1.9,0.4-3.4,1.2-4.5c0.9-1.3,2.2-2,4-2c1.8,0,3.1,0.7,4,2C271.6,102.3,272,103.8,272,105.6 M269.2,105.6
				c0-3.1-0.8-4.7-2.4-4.7s-2.4,1.6-2.4,4.7c0,3.1,0.8,4.6,2.4,4.6S269.2,108.7,269.2,105.6"/>
			<path class="st2" d="M291.6,111.9h-2.9V103c0-1.4-0.7-2.1-2.1-2.1c-0.8,0-1.5,0.3-2.1,0.9v10.1h-2.8v-9c0-1.3-0.8-2-2.4-2
				c-0.7,0-1.3,0.1-1.9,0.4v10.7h-2.9V100c1.3-0.6,2.8-0.9,4.7-0.9c1.8,0,3.1,0.5,3.9,1.4c1-0.9,2.3-1.4,4-1.4c1.2,0,2.3,0.3,3.1,1
				s1.2,1.6,1.2,2.9V111.9z"/>
			<path class="st2" d="M304.9,105.3c0,2.1-0.5,3.7-1.5,4.9c-1.1,1.3-2.6,1.9-4.6,1.9c-1.8,0-3.2-0.3-4.2-0.9v-17h2.8v5.4
				c0.7-0.3,1.6-0.5,2.5-0.5c1.6,0,2.9,0.6,3.8,1.9C304.5,102.2,304.9,103.6,304.9,105.3 M302,105.5c0-3.1-1-4.7-2.9-4.7
				c-0.7,0-1.3,0.1-1.7,0.4v9c0.4,0.2,0.9,0.3,1.4,0.3C301,110.4,302,108.8,302,105.5"/>
			<path class="st2" d="M310.5,95.8c0,0.4-0.2,0.7-0.5,1c-0.3,0.3-0.7,0.4-1.1,0.4c-0.4,0-0.8-0.1-1.1-0.4c-0.3-0.3-0.5-0.6-0.5-1
				s0.2-0.7,0.5-1c0.3-0.3,0.7-0.4,1.1-0.4c0.4,0,0.8,0.1,1.1,0.4C310.4,95,310.5,95.3,310.5,95.8 M310.4,111.9h-2.9V99.3h2.9V111.9
				z"/>
			<path class="st2" d="M322.6,111.2c-1.1,0.6-2.7,0.9-4.6,0.9c-3.4,0-5.1-1.3-5.1-3.8c0-1.6,0.8-2.8,2.5-3.6c1-0.5,2.5-0.8,4.6-1
				V103c0-1.4-0.8-2.1-2.5-2.1c-1,0-2.1,0.3-3.2,0.8l-0.7-1.6c1.3-0.6,2.8-1,4.3-1c3.1,0,4.6,1.4,4.6,4.3V111.2z M320,110.2V105
				c-1.4,0.2-2.4,0.4-3,0.7c-0.9,0.5-1.4,1.3-1.4,2.5c0,1.6,0.9,2.3,2.7,2.3C318.9,110.6,319.5,110.5,320,110.2"/>
			<rect x="354.9" y="4.1" class="st2" width="0.9" height="107.9"/>
		</g>
		<g>
			<path class="st3" d="M430.4,86.2l0.9-7c1-0.1,1.9-0.3,2.8-0.5l-1.4-5.5c-1.2,0.3-2.4,0.4-3.6,0.4c-5.9,0-11.1-3.4-13.7-8.3
				l-5.1,2.5c0.4,0.7,0.8,1.4,1.2,2.1l-7.5,8.2c0,0,0,0,0,0c-3.8-1.9-8.5-0.3-10.4,3.5s-0.3,8.5,3.5,10.4s8.5,0.3,10.4-3.5
				c1-2,1-4.1,0.4-6l9-7.1c2.1,1.5,4.4,2.6,6.9,3.3l0.5,7.6c-1.2,0.9-1.9,2.4-1.9,4c0,2.8,2.3,5,5,5c2.8,0,5-2.3,5-5
				C432.4,88.6,431.6,87.1,430.4,86.2z"/>
			<path class="st4" d="M464.2,75.6c-2.4-1.2-5.2-1-7.3,0.2l-8.7-8.6c0.3-0.7,0.6-1.4,0.9-2.2l-5.4-1.7c-1.7,4.9-5.8,8.7-10.9,9.9
				l1.4,5.5c0.7-0.2,1.3-0.4,2-0.6l3,4.7c-0.6,0.8-0.9,1.8-0.9,2.9c0,2.8,2.3,5,5,5c2.8,0,5-2.3,5-5c0-2.6-2-4.8-4.5-5l-2.3-5.3
				c0.9-0.6,1.7-1.3,2.4-2l9.5,7.2c-0.9,3.5,0.7,7.2,4.1,8.8c3.8,1.9,8.5,0.3,10.4-3.5C469.6,82.1,468,77.5,464.2,75.6z"/>
			<path class="st5" d="M468.6,34.2c-3.8-1.9-8.5-0.3-10.4,3.5c-0.6,1.3-0.9,2.7-0.8,4l-11.6,3.8c-0.9-1.1-1.8-2.2-2.9-3.1l2.6-4.6
				c2.6-0.2,4.7-2.4,4.7-5c0-2.8-2.3-5-5-5c-2.8,0-5,2.3-5,5c0,0.8,0.2,1.5,0.5,2.2l-3,4c-0.5-0.2-0.9-0.4-1.4-0.6l-1.9,5.3
				c5.9,2.2,10.1,7.8,10.1,14.4c0,1.8-0.3,3.4-0.8,5L449,65c0.2-0.5,0.3-1.1,0.5-1.6l6.3-0.2c0.3,0.5,0.7,0.9,1.1,1.3
				c0.2,0.2,0.4,0.3,0.6,0.5c0.8,0.5,1.7,0.7,2.6,0.7c2.8,0,5-2.3,5-5c0-2.8-2.3-5-5-5c-1.7,0-3.3,0.9-4.2,2.2l-5.9-0.5
				c-0.1-1.7-0.4-3.4-0.8-4.9l10.9-5.3c0.5,0.4,1,0.7,1.5,1c3.8,1.9,8.5,0.3,10.4-3.5C474,40.8,472.4,36.1,468.6,34.2z"/>
			<path class="st6" d="M418.1,47.6l-4-4c-0.6,0.6-1.2,1.3-1.7,2l-10.1-4c0.2-3-1.4-6-4.3-7.4c-3.8-1.9-8.5-0.3-10.4,3.5
				s-0.3,8.5,3.5,10.4c2.3,1.2,5,1,7.1-0.1c0.4-0.2,0.7-0.4,1-0.6c0.2-0.1,0.3-0.2,0.5-0.4l9.2,5.5c-0.6,1.9-0.9,3.9-0.9,5.9
				c0,0,0,0,0,0.1l-6.5,1.7c-0.9-1.1-2.3-1.8-3.8-1.8c-2.8,0-5,2.3-5,5c0,2.8,2.3,5,5,5c2.1,0,3.8-1.2,4.6-3l6.8-0.4
				c0.3,1,0.7,1.9,1.2,2.9l5.1-2.5c-1.1-2.1-1.7-4.5-1.7-7.1C413.7,54.1,415.4,50.3,418.1,47.6z"/>
			<path class="st7" d="M435.1,13.1c-3.8-1.9-8.5-0.3-10.4,3.5s-0.3,8.5,3.5,10.4c0.1,0,0.1,0.1,0.2,0.1l-1,10.3
				c-1.7,0.1-3.3,0.5-4.9,1l-2.7-4.4c0.4-0.7,0.5-1.5,0.5-2.3c0-2.8-2.3-5-5-5s-5,2.3-5,5c0,2.7,2.1,4.9,4.8,5l1.9,4.4
				c-1,0.7-2,1.5-2.9,2.4l4,4c2.8-2.9,6.7-4.7,11-4.7c1.9,0,3.6,0.3,5.3,0.9l1.9-5.3c-0.4-0.2-0.9-0.3-1.3-0.4l-0.6-10.9
				c1.8-0.7,3.3-2,4.2-3.8C440.5,19.6,438.9,15,435.1,13.1z"/>
			<g>
				<g>
					<path class="st0" d="M508.7,63.7c0.6-0.2,1.2-0.1,1.7,0.3s0.8,0.9,0.8,1.6v2.6c0,0.8-0.2,1.6-0.7,2.2s-1.1,1-1.9,1.2
						c-2.2,0.4-4.5,0.6-6.9,0.6c-5.4,0-9.7-1.5-12.7-4.6s-4.6-7.5-4.6-13.4c0-5.7,1.5-10.1,4.4-13.3s7.1-4.7,12.4-4.7
						c2.4,0,4.7,0.2,6.9,0.6c0.8,0.1,1.4,0.5,1.9,1.2s0.7,1.4,0.7,2.2v2.7c0,0.7-0.3,1.2-0.8,1.6c-0.5,0.4-1.1,0.5-1.7,0.3
						c-2-0.6-3.9-0.9-5.8-0.9c-2.6,0-4.6,0.9-6,2.6c-1.4,1.7-2.2,4.3-2.2,7.7c0,3.3,0.8,5.9,2.3,7.7c1.6,1.8,3.7,2.7,6.3,2.7
						C504.9,64.5,506.8,64.2,508.7,63.7z"/>
				</g>
				<g>
					<path class="st0" d="M519.9,40.9c3-3.2,7.1-4.8,12.3-4.8c5.2,0,9.3,1.6,12.3,4.8c3,3.2,4.5,7.6,4.5,13.2c0,5.6-1.5,10-4.5,13.2
						s-7.1,4.8-12.3,4.8c-5.2,0-9.3-1.6-12.3-4.8c-3-3.2-4.5-7.6-4.5-13.2C515.4,48.5,516.9,44.1,519.9,40.9z M525.2,54.1
						c0,6.7,2.3,10.1,6.9,10.1c4.6,0,6.9-3.4,6.9-10.1S536.8,44,532.2,44C527.5,44,525.2,47.4,525.2,54.1z"/>
				</g>
				<g>
					<path class="st0" d="M575,63.7c0.7,0,1.4,0.3,1.9,0.8c0.5,0.5,0.8,1.2,0.8,1.9v2.4c0,0.7-0.3,1.4-0.8,1.9
						c-0.5,0.5-1.2,0.8-1.9,0.8h-18.5c-0.7,0-1.4-0.3-1.9-0.8c-0.5-0.5-0.8-1.2-0.8-1.9V39.3c0-0.7,0.3-1.4,0.8-1.9s1.2-0.8,1.9-0.8
						h4.4c0.7,0,1.4,0.3,1.9,0.8c0.5,0.5,0.8,1.2,0.8,1.9v23.9c0,0.3,0.1,0.4,0.4,0.4H575z"/>
				</g>
				<g>
					<path class="st0" d="M603.8,36.6c0.7,0,1.4,0.3,1.9,0.8c0.5,0.5,0.8,1.2,0.8,1.9v2.2c0,0.7-0.3,1.4-0.8,1.9
						c-0.5,0.5-1.2,0.8-1.9,0.8h-10.3c-0.3,0-0.4,0.1-0.4,0.4v4.9c0,0.3,0.1,0.4,0.4,0.4h9.3c0.7,0,1.4,0.3,1.9,0.8
						c0.5,0.5,0.8,1.2,0.8,1.9v1.7c0,0.7-0.3,1.4-0.8,1.9c-0.5,0.5-1.2,0.8-1.9,0.8h-9.3c-0.3,0-0.4,0.1-0.4,0.4v5.9
						c0,0.3,0.1,0.4,0.4,0.4h10.3c0.7,0,1.4,0.3,1.9,0.8c0.5,0.5,0.8,1.2,0.8,1.9v2.2c0,0.7-0.3,1.4-0.8,1.9
						c-0.5,0.5-1.2,0.8-1.9,0.8h-17.5c-0.7,0-1.4-0.3-1.9-0.8c-0.5-0.5-0.8-1.2-0.8-1.9V39.3c0-0.7,0.3-1.4,0.8-1.9s1.2-0.8,1.9-0.8
						L603.8,36.6L603.8,36.6z"/>
				</g>
				<g>
					<path class="st0" d="M638.8,36.6c0.7,0,1.2,0.3,1.6,0.8c0.4,0.5,0.5,1.1,0.3,1.8L631.3,69c-0.3,0.8-0.7,1.4-1.4,1.9
						c-0.7,0.5-1.4,0.7-2.2,0.7h-4.6c-0.8,0-1.6-0.2-2.2-0.7c-0.7-0.5-1.1-1.1-1.3-1.9l-9.4-29.8c-0.2-0.6-0.1-1.2,0.3-1.8
						c0.4-0.5,0.9-0.8,1.6-0.8h4.7c0.8,0,1.5,0.2,2.1,0.7c0.6,0.5,1,1.1,1.2,1.9l5.2,23.2c0,0,0,0,0.1,0c0,0,0,0,0,0l5.5-23.2
						c0.2-0.8,0.6-1.4,1.2-1.9c0.6-0.5,1.3-0.7,2.1-0.7H638.8z"/>
				</g>
			</g>
		</g>
	</g>
</g>
</svg>
