<svg version="1.1" id="Layer_1" xmlns="http://www.w3.org/2000/svg" x="0" y="0" viewBox="0 0 672 175.9" style="enable-background:new 0 0 672 175.9" xml:space="preserve"><style>.st0{fill:#222221}.st2{fill:#1d1d1b}</style><g id="guias"><path class="st0" d="M6 145.7H2.8v3.3h2.9v1.3H2.8v4.8h-2v-10.7H6zM13.4 154.7c-.7.4-1.6.6-2.8.6-2.1 0-3.2-.8-3.2-2.4 0-1 .5-1.8 1.5-2.2.6-.3 1.6-.5 2.8-.6v-.4c0-.9-.5-1.3-1.5-1.3-.6 0-1.3.2-1.9.5l-.4-1c.8-.4 1.7-.6 2.7-.6 1.9 0 2.9.9 2.9 2.7l-.1 4.7m-1.6-.6v-3.2c-.9.1-1.5.3-1.8.4-.6.3-.9.8-.9 1.5 0 1 .5 1.4 1.6 1.4.4.1.8 0 1.1-.1M20.4 154.8c-.4.4-1 .5-1.8.5-1 0-1.8-.4-2.4-1.3-.5-.7-.7-1.6-.7-2.7s.2-2 .7-2.7c.5-.9 1.3-1.3 2.4-1.3.8 0 1.4.2 1.8.5l-.4 1c-.3-.2-.6-.3-1-.3-1.1 0-1.7.9-1.7 2.8 0 .7.1 1.3.3 1.8.3.7.7 1 1.4 1 .4 0 .8-.1 1.1-.3l.3 1M28.2 154.7c-.8.4-1.8.6-3 .6-2 0-3-.9-3-2.6v-5.3H24v5.4c0 .9.4 1.3 1.3 1.3.5 0 .9-.1 1.2-.3v-6.4h1.8l-.1 7.3M30.7 144.2h1.8v10.9h-1.8zM38.4 155.1c-.2.1-.5.2-.9.2-.7 0-1.2-.2-1.6-.6s-.6-.9-.6-1.5v-4.6h-.9v-1.1h.9v-2.6l1.8-.5v3.1h1.3v1.1h-1.3v4.5c0 .7.3 1 .8 1 .1 0 .3 0 .4-.1v1.1M45.9 154.7c-.7.4-1.6.6-2.8.6-2.1 0-3.2-.8-3.2-2.4 0-1 .5-1.8 1.5-2.2.6-.3 1.6-.5 2.8-.6v-.4c0-.9-.5-1.3-1.5-1.3-.6 0-1.3.2-1.9.5l-.4-1c.8-.4 1.7-.6 2.7-.6 1.9 0 2.9.9 2.9 2.7v4.7m-1.7-.6v-3.2c-.9.1-1.5.3-1.8.4-.6.3-.9.8-.9 1.5 0 1 .5 1.4 1.6 1.4.5.1.8 0 1.1-.1M54.3 154.7c-.7.4-1.6.6-2.7.6-1.2 0-2.1-.4-2.7-1.1-.6-.7-.9-1.6-.9-2.8 0-1.2.3-2.1.8-2.8.6-.8 1.5-1.2 2.6-1.2.4 0 .8 0 1.2.1v-3.2h1.8l-.1 10.4m-1.8-.8v-5.6c-.2-.1-.5-.1-.8-.1-1.4 0-2 1-2 3 0 1.9.6 2.9 1.9 2.9.4 0 .7-.1.9-.2M6.3 172c-.7.4-1.6.6-2.7.6-1.2 0-2.1-.4-2.7-1.1-.6-.7-.9-1.6-.9-2.8 0-1.2.3-2.1.8-2.8.6-.8 1.5-1.2 2.6-1.2.5 0 .8 0 1.2.1v-3.2h1.8L6.3 172m-1.8-.7v-5.6c-.2-.1-.5-.1-.8-.1-1.4 0-2 1-2 3 0 1.9.6 2.9 1.9 2.9.5 0 .8-.1.9-.2M14.9 168.6l-4.7.7c.1 1.5.8 2.2 2.1 2.2.7 0 1.4-.1 2-.4l.4 1.1c-.7.4-1.5.5-2.6.5-1.2 0-2.1-.4-2.7-1.2-.6-.7-.9-1.7-.9-2.9s.3-2.1.8-2.8c.6-.8 1.4-1.2 2.5-1.2s2 .4 2.5 1.2c.4.7.6 1.6.6 2.8m-1.7-.7c0-1.5-.5-2.2-1.5-2.2-.7 0-1.1.3-1.4.9-.2.5-.3 1.1-.3 1.8l3.2-.5zM29.5 172.5h-2.1l-.8-2.8h-3.5l-.9 2.8h-1.8l3.6-10.8h1.9l3.6 10.8m-3.2-3.9-1.1-3.8c-.2-.6-.3-1-.3-1.3-.1.4-.2.9-.3 1.3l-1.2 3.8h2.9zM37.7 172c-.7.4-1.6.6-2.7.6-1.2 0-2.1-.4-2.7-1.1-.6-.7-.9-1.6-.9-2.8 0-1.2.3-2.1.8-2.8.6-.8 1.5-1.2 2.6-1.2.4 0 .8 0 1.2.1v-3.2h1.8l-.1 10.4m-1.8-.7v-5.6c-.2-.1-.5-.1-.8-.1-1.4 0-2 1-2 3 0 1.9.6 2.9 1.9 2.9.4 0 .7-.1.9-.2M50.5 172.5h-1.8V167c0-.8-.4-1.3-1.3-1.3-.5 0-.9.2-1.3.5v6.2h-1.8V167c0-.8-.5-1.2-1.5-1.2-.4 0-.8.1-1.2.2v6.6h-1.8v-7.3c.8-.4 1.7-.6 2.9-.6 1.1 0 1.9.3 2.4.8.6-.6 1.4-.8 2.5-.8.8 0 1.4.2 1.9.6.5.4.8 1 .8 1.8l.2 5.4M54.8 162.5c0 .2-.1.5-.3.6-.2.2-.4.2-.7.2s-.5-.1-.7-.2c-.2-.2-.3-.4-.3-.6 0-.2.1-.5.3-.6.2-.2.4-.3.7-.3s.5.1.7.2c.2.3.3.5.3.7m-1.8 2.3h1.8v7.8H53v-7.8zM63.3 172.5h-1.8V167c0-.9-.5-1.3-1.4-1.3-.4 0-.8.1-1.2.2v6.6h-1.8v-7.3c.8-.4 1.8-.6 3-.6.9 0 1.6.2 2.1.5.6.4 1 1 1 1.9l.1 5.5M67.5 162.5c0 .2-.1.5-.3.6s-.4.2-.7.2c-.3 0-.5-.1-.7-.2-.2-.2-.3-.4-.3-.6 0-.2.1-.5.3-.6.2-.2.4-.3.7-.3.3 0 .5.1.7.2.3.3.3.5.3.7m-1.8 2.3h1.8v7.8h-1.8v-7.8zM74.3 170.3c0 .7-.3 1.3-.8 1.8-.5.4-1.2.6-1.9.6-.9 0-1.6-.2-2.1-.6l.5-1.1c.4.3.9.4 1.5.4.3 0 .6-.1.8-.3.2-.2.3-.5.3-.8 0-.6-.4-1-1.1-1.3-1.2-.4-1.8-1.2-1.8-2.2 0-.7.2-1.2.7-1.6.5-.4 1-.6 1.7-.6.8 0 1.5.2 2 .5l-.4 1c-.4-.3-.8-.4-1.2-.4-.3 0-.6.1-.8.3-.2.2-.3.4-.3.7 0 .5.4.9 1.2 1.2 1.1.6 1.7 1.3 1.7 2.4M79.8 172.4c-.2.1-.5.2-.9.2-.7 0-1.2-.2-1.6-.6s-.6-.9-.6-1.5v-4.6h-.9v-1.1h.9v-2.6l1.8-.5v3.1h1.3v1.1h-1.3v4.5c0 .7.3 1 .8 1 .1 0 .3 0 .4-.1v1.1M85.5 164.6l-.3 1.3c-.3-.1-.5-.1-.8-.1-.3 0-.6.1-.8.2v6.5h-1.8v-7.3c.9-.4 2.1-.6 3.7-.6M92.8 172.1c-.7.4-1.6.6-2.8.6-2.1 0-3.2-.8-3.2-2.4 0-1 .5-1.8 1.5-2.2.6-.3 1.6-.5 2.8-.6v-.5c0-.9-.5-1.3-1.5-1.3-.6 0-1.3.2-1.9.5l-.4-1c.8-.4 1.7-.6 2.7-.6 1.9 0 2.9.9 2.9 2.7l-.1 4.8m-1.6-.6v-3.2c-.9.1-1.5.3-1.8.4-.6.3-.9.8-.9 1.5 0 1 .5 1.4 1.6 1.4.4.1.8 0 1.1-.1M99.8 172.1c-.4.4-1 .5-1.8.5-1 0-1.8-.4-2.4-1.3-.5-.7-.7-1.6-.7-2.7s.2-2 .7-2.7c.5-.9 1.3-1.3 2.4-1.3.8 0 1.4.2 1.8.5l-.4 1c-.3-.2-.6-.3-1-.3-1.1 0-1.7.9-1.7 2.8 0 .7.1 1.3.3 1.8.3.7.7 1 1.4 1 .4 0 .8-.1 1.1-.3l.3 1M103.6 162.5c0 .2-.1.5-.3.6-.2.2-.4.2-.7.2s-.5-.1-.7-.2c-.2-.2-.3-.4-.3-.6 0-.2.1-.5.3-.6.2-.2.4-.3.7-.3.3 0 .5.1.7.2.2.3.3.5.3.7m-1.9 2.3h1.8v7.8h-1.8v-7.8zM112.1 168.6c0 1.1-.2 2.1-.7 2.8-.6.8-1.4 1.2-2.5 1.2s-1.9-.4-2.5-1.2c-.5-.7-.7-1.6-.7-2.8 0-1.2.2-2.1.7-2.8.6-.8 1.4-1.2 2.5-1.2s1.9.4 2.5 1.2c.4.8.7 1.7.7 2.8m-1.8 0c0-1.9-.5-2.9-1.5-2.9s-1.5 1-1.5 2.9.5 2.8 1.5 2.8 1.5-.9 1.5-2.8m.5-6.7-1.7 2h-1l1-2c.3-.2.6-.3 1-.3s.7.1.7.3M120.3 172.5h-1.8V167c0-.9-.5-1.3-1.4-1.3-.4 0-.8.1-1.2.2v6.6h-1.8v-7.3c.8-.4 1.8-.6 3-.6.9 0 1.6.2 2.1.5.6.4 1 1 1 1.9l.1 5.5M350.7 145.7h-3.3v3.3h2.9v1.3h-2.9v4.9h-2v-10.9h5.3v1.4zM357.6 154.8c-.7.4-1.6.6-2.8.6-2.1 0-3.2-.8-3.2-2.4 0-1 .5-1.8 1.5-2.2.6-.3 1.6-.5 2.8-.6v-.4c0-.9-.5-1.3-1.6-1.3-.6 0-1.3.2-2 .5l-.4-1c.8-.4 1.7-.6 2.7-.6 1.9 0 2.9.9 2.9 2.7l.1 4.7zm-1.7-.6V151c-.9.1-1.5.3-1.8.4-.6.3-.9.8-.9 1.5 0 1 .5 1.4 1.6 1.4.5.1.8 0 1.1-.1zM364.1 154.8c-.4.4-1 .5-1.8.5-1 0-1.8-.4-2.4-1.3-.5-.7-.7-1.7-.7-2.8 0-1.1.2-2 .7-2.7.6-.9 1.3-1.3 2.4-1.3.8 0 1.4.2 1.8.5l-.4 1c-.3-.2-.6-.3-1-.3-1.1 0-1.7.9-1.7 2.8 0 .7.1 1.3.3 1.8.3.7.7 1 1.4 1 .4 0 .8-.1 1.1-.3l.3 1.1zM371.5 154.8c-.8.4-1.8.6-3 .6-2 0-3-.9-3-2.6v-5.3h1.8v5.4c0 .9.4 1.3 1.3 1.3.5 0 .9-.1 1.2-.3v-6.5h1.8l-.1 7.4zM375.2 155.2h-1.8v-11h1.8v11zM380.7 155.1c-.2.1-.5.2-.9.2-.7 0-1.2-.2-1.6-.6-.4-.4-.6-.9-.6-1.6v-4.7h-.9v-1.1h.9v-2.6l1.8-.5v3.1h1.3v1.1h-1.3v4.6c0 .7.3 1 .8 1 .1 0 .3 0 .4-.1l.1 1.2zM387.8 154.8c-.7.4-1.6.6-2.8.6-2.1 0-3.2-.8-3.2-2.4 0-1 .5-1.8 1.5-2.2.6-.3 1.6-.5 2.8-.6v-.4c0-.9-.5-1.3-1.6-1.3-.6 0-1.3.2-2 .5l-.4-1c.8-.4 1.7-.6 2.7-.6 1.9 0 2.9.9 2.9 2.7l.1 4.7zm-1.6-.6V151c-.9.1-1.5.3-1.8.4-.6.3-.9.8-.9 1.5 0 1 .5 1.4 1.6 1.4.4.1.8 0 1.1-.1zM395.7 154.7c-.7.4-1.6.6-2.7.6-1.2 0-2.1-.4-2.7-1.1-.6-.7-.9-1.6-.9-2.9 0-1.2.3-2.1.8-2.8.6-.8 1.5-1.2 2.6-1.2.5 0 .8 0 1.2.1v-3.2h1.8l-.1 10.5zm-1.8-.7v-5.6c-.2-.1-.5-.1-.8-.1-1.4 0-2 1-2 3s.6 2.9 1.9 2.9c.4 0 .7-.1.9-.2zM351.2 172c-.7.4-1.6.6-2.7.6-1.2 0-2.1-.4-2.7-1.1-.6-.7-.9-1.6-.9-2.9 0-1.2.3-2.1.8-2.8.6-.8 1.5-1.2 2.6-1.2.5 0 .8 0 1.2.1v-3.2h1.8l-.1 10.5zm-1.8-.8v-5.6c-.2-.1-.5-.1-.8-.1-1.4 0-2 1-2 3s.6 2.9 1.9 2.9c.4 0 .7 0 .9-.2zM359.3 168.5l-4.8.7c.1 1.5.9 2.2 2.1 2.2.8 0 1.4-.1 2-.4l.4 1.1c-.7.4-1.5.6-2.6.6-1.2 0-2.1-.4-2.8-1.2-.6-.7-.9-1.7-.9-2.9s.3-2.1.8-2.8c.6-.8 1.4-1.2 2.6-1.2 1.1 0 2 .4 2.5 1.2.5.6.7 1.5.7 2.7zm-1.7-.7c0-1.5-.5-2.2-1.5-2.2-.7 0-1.1.3-1.4.9-.2.5-.3 1.1-.3 1.8l3.2-.5zM370.8 172c-.5.4-1.3.6-2.3.6-1.4 0-2.5-.6-3.3-1.8-.6-1-.9-2.3-.9-3.8s.3-2.7 1-3.8c.8-1.2 1.8-1.8 3.2-1.8.9 0 1.7.2 2.2.6l-.4 1.2c-.4-.3-.9-.4-1.4-.4-.9 0-1.6.5-2 1.5-.3.7-.5 1.6-.5 2.7 0 1 .2 1.9.5 2.6.4 1 1.1 1.4 2 1.4.5 0 1-.1 1.4-.4l.5 1.4zM373.8 162.4c0 .3-.1.5-.3.6-.2.2-.4.2-.7.2s-.5-.1-.7-.2c-.2-.2-.3-.4-.3-.6 0-.3.1-.5.3-.6.2-.2.4-.3.7-.3s.5.1.7.2c.2.3.3.5.3.7zm-.1 10.1h-1.8v-7.8h1.8v7.8zM381.8 168.5l-4.8.7c.1 1.5.9 2.2 2.1 2.2.8 0 1.4-.1 2-.4l.4 1.1c-.7.4-1.5.6-2.6.6-1.2 0-2.1-.4-2.8-1.2-.6-.7-.9-1.7-.9-2.9s.3-2.1.8-2.8c.6-.8 1.4-1.2 2.6-1.2 1.1 0 2 .4 2.5 1.2.5.6.8 1.5.7 2.7zm-1.6-.7c0-1.5-.5-2.2-1.5-2.2-.7 0-1.1.3-1.4.9-.2.5-.3 1.1-.3 1.8l3.2-.5zM389.6 172.5h-1.8V167c0-.9-.5-1.3-1.4-1.3-.4 0-.8.1-1.2.2v6.6h-1.8v-7.4c.8-.4 1.8-.6 3.1-.6.9 0 1.6.2 2.1.5.6.4 1 1 1 1.9v5.6zM396.1 172.1c-.4.4-1 .5-1.8.5-1 0-1.8-.4-2.4-1.3-.5-.7-.7-1.7-.7-2.8 0-1.1.2-2 .7-2.7.6-.9 1.3-1.3 2.4-1.3.8 0 1.4.2 1.8.5l-.4 1c-.3-.2-.6-.3-1-.3-1.1 0-1.7.9-1.7 2.8 0 .7.1 1.3.3 1.8.3.7.7 1 1.4 1 .4 0 .8-.1 1.1-.3l.3 1.1zM399.4 162.4c0 .3-.1.5-.3.6-.2.2-.4.2-.7.2s-.5-.1-.7-.2c-.2-.2-.3-.4-.3-.6 0-.3.1-.5.3-.6.2-.2.4-.3.7-.3s.5.1.7.2c.2.3.3.5.3.7zm-.1 10.1h-1.8v-7.8h1.8v7.8zM406.9 172c-.7.4-1.6.6-2.8.6-2.1 0-3.2-.8-3.2-2.4 0-1 .5-1.8 1.5-2.2.6-.3 1.6-.5 2.8-.6v-.4c0-.9-.5-1.3-1.6-1.3-.6 0-1.3.2-2 .5l-.4-1c.8-.4 1.7-.6 2.7-.6 1.9 0 2.9.9 2.9 2.7l.1 4.7zm-1.6-.6v-3.2c-.9.1-1.5.3-1.8.4-.6.3-.9.8-.9 1.5 0 1 .5 1.4 1.6 1.4.4.1.8 0 1.1-.1zM413.3 170.2c0 .7-.3 1.3-.9 1.8-.5.4-1.2.6-1.9.6-.9 0-1.6-.2-2.2-.6l.5-1.1c.4.3.9.4 1.5.4.3 0 .6-.1.9-.3.2-.2.3-.5.3-.8 0-.6-.4-1-1.1-1.3-1.2-.5-1.8-1.2-1.8-2.2 0-.7.2-1.2.7-1.7.5-.4 1-.6 1.7-.6.8 0 1.5.2 2 .6l-.4 1c-.4-.3-.8-.4-1.2-.4-.3 0-.6.1-.8.3-.2.2-.3.4-.3.8 0 .5.4.9 1.2 1.2 1.1.5 1.8 1.3 1.8 2.3zM468.2 145.7H465v3.2h2.9v1.3H465v4.8h-2v-10.7h5.2v1.4zM475 154.6c-.7.4-1.6.6-2.8.6-2.1 0-3.1-.8-3.1-2.3 0-1 .5-1.7 1.5-2.2.6-.3 1.5-.5 2.8-.6v-.4c0-.8-.5-1.3-1.5-1.3-.6 0-1.3.2-1.9.5l-.4-1c.8-.4 1.7-.6 2.6-.6 1.9 0 2.8.9 2.8 2.7v4.6zm-1.6-.6v-3.2c-.9.1-1.5.3-1.8.4-.6.3-.9.8-.9 1.5 0 1 .5 1.4 1.6 1.4.4.1.8.1 1.1-.1zM481.4 154.7c-.4.4-1 .5-1.8.5-1 0-1.8-.4-2.4-1.3-.5-.7-.7-1.6-.7-2.7s.2-2 .7-2.7c.5-.8 1.3-1.3 2.4-1.3.8 0 1.4.2 1.8.5l-.4 1c-.3-.2-.6-.3-1-.3-1.1 0-1.7.9-1.7 2.7 0 .7.1 1.3.3 1.8.3.7.7 1 1.3 1 .4 0 .8-.1 1-.3l.5 1.1zM488.7 154.6c-.8.4-1.8.6-3 .6-2 0-3-.9-3-2.6v-5.2h1.8v5.4c0 .9.4 1.3 1.3 1.3.5 0 .9-.1 1.1-.3v-6.4h1.8v7.2zM492.4 155h-1.8v-10.8h1.8V155zM497.8 155c-.2.1-.5.2-.9.2-.7 0-1.2-.2-1.5-.5s-.6-.9-.6-1.5v-4.6h-.9v-1.1h.9v-2.6l1.8-.5v3.1h1.2v1.1h-1.2v4.5c0 .7.3 1 .8 1 .1 0 .2 0 .4-.1v1zM504.8 154.6c-.7.4-1.6.6-2.8.6-2.1 0-3.1-.8-3.1-2.3 0-1 .5-1.7 1.5-2.2.6-.3 1.5-.5 2.8-.6v-.4c0-.8-.5-1.3-1.5-1.3-.6 0-1.3.2-1.9.5l-.4-1c.8-.4 1.7-.6 2.6-.6 1.9 0 2.8.9 2.8 2.7v4.6zm-1.7-.6v-3.2c-.9.1-1.5.3-1.8.4-.6.3-.9.8-.9 1.5 0 1 .5 1.4 1.6 1.4.5.1.9.1 1.1-.1zM512.5 154.6c-.7.4-1.6.6-2.7.6-1.2 0-2.1-.4-2.7-1.1-.6-.7-.9-1.6-.9-2.8 0-1.1.3-2.1.8-2.8.6-.8 1.4-1.2 2.5-1.2.4 0 .8 0 1.2.1v-3.2h1.8v10.4zm-1.7-.7v-5.5c-.2-.1-.5-.1-.8-.1-1.3 0-2 1-2 2.9s.6 2.9 1.9 2.9c.4-.1.7-.1.9-.2zM468.5 172.2c-.7.4-1.6.6-2.7.6-1.2 0-2.1-.4-2.7-1.1-.6-.7-.9-1.6-.9-2.8 0-1.1.3-2.1.8-2.8.6-.8 1.4-1.2 2.5-1.2.4 0 .8 0 1.2.1v-3.2h1.8v10.4zm-1.8-.7V166c-.2-.1-.5-.1-.8-.1-1.3 0-2 1-2 2.9s.6 2.9 1.9 2.9c.5 0 .8-.1.9-.2zM476.5 168.8l-4.7.7c.1 1.4.8 2.2 2.1 2.2.7 0 1.4-.1 1.9-.4l.4 1.1c-.7.4-1.5.5-2.5.5-1.2 0-2.1-.4-2.7-1.1-.6-.7-.9-1.7-.9-2.9 0-1.1.3-2.1.8-2.8.6-.8 1.4-1.2 2.5-1.2s2 .4 2.5 1.2c.4.6.6 1.6.6 2.7zm-1.7-.7c0-1.5-.5-2.2-1.5-2.2-.6 0-1.1.3-1.4.9-.2.5-.3 1-.3 1.8l3.2-.5zM484 172.7h-2V162h2v10.7zM491.9 172.7h-1.8v-5.5c0-.9-.5-1.3-1.4-1.3-.4 0-.8.1-1.2.2v6.5h-1.8v-7.3c.8-.4 1.8-.6 3-.6.9 0 1.6.2 2.1.5.6.4 1 1 1 1.9l.1 5.6zM499.7 172.8c0 1-.3 1.8-.8 2.3-.6.5-1.3.8-2.3.8-1.1 0-2-.2-2.6-.5l.5-1.1c.6.3 1.2.5 1.8.5 1.2 0 1.8-.6 1.8-1.7v-.5c-.3.2-.8.3-1.4.3-1 0-1.8-.4-2.4-1.2-.5-.7-.7-1.5-.7-2.6 0-1.3.3-2.3.9-3 .6-.8 1.6-1.2 2.8-1.2 1.1 0 1.9.2 2.5.6l-.1 7.3zm-1.7-1.3V166c-.2-.1-.5-.2-.9-.2-1.3 0-1.9 1-1.9 3 0 1.9.6 2.8 1.8 2.8.4.2.8.1 1-.1zM507.6 168.8l-4.7.7c.1 1.4.8 2.2 2.1 2.2.7 0 1.4-.1 1.9-.4l.4 1.1c-.7.4-1.5.5-2.5.5-1.2 0-2.1-.4-2.7-1.1-.6-.7-.9-1.7-.9-2.9 0-1.1.3-2.1.8-2.8.6-.8 1.4-1.2 2.5-1.2s2 .4 2.5 1.2c.5.6.7 1.6.6 2.7zm-1.6-.7c0-1.5-.5-2.2-1.5-2.2-.6 0-1.1.3-1.4.9-.2.5-.3 1-.3 1.8l3.2-.5zM515.3 172.7h-1.8v-5.5c0-.9-.5-1.3-1.4-1.3-.4 0-.8.1-1.2.2v6.5h-1.8v-7.3c.8-.4 1.8-.6 3-.6.9 0 1.6.2 2.1.5.6.4 1 1 1 1.9l.1 5.6zM519 162.8c0 .2-.1.5-.3.6-.2.2-.4.2-.7.2s-.5-.1-.7-.2-.3-.4-.3-.6c0-.2.1-.5.3-.6.2-.2.4-.2.7-.2s.5.1.7.2c.2.2.3.4.3.6zm-.1 9.9h-1.8V165h1.8v7.7zM526.9 168.8l-4.7.7c.1 1.4.8 2.2 2.1 2.2.7 0 1.4-.1 1.9-.4l.4 1.1c-.7.4-1.5.5-2.5.5-1.2 0-2.1-.4-2.7-1.1-.6-.7-.9-1.7-.9-2.9 0-1.1.3-2.1.8-2.8.6-.8 1.4-1.2 2.5-1.2s2 .4 2.5 1.2c.5.6.7 1.6.6 2.7zm-1.6-.7c0-1.5-.5-2.2-1.5-2.2-.6 0-1.1.3-1.4.9-.2.5-.3 1-.3 1.8l3.2-.5zM532.2 164.9l-.3 1.3c-.3-.1-.5-.1-.8-.1-.3 0-.6.1-.8.2v6.5h-1.8v-7.3c.9-.5 2.1-.6 3.7-.6zM536.1 162.2l-1.7 2h-1l1-2c.3-.2.6-.3 1-.3s.6.1.7.3zm-.9 10.5h-1.8V165h1.8v7.7zM542.6 172.3c-.7.4-1.6.6-2.8.6-2.1 0-3.1-.8-3.1-2.3 0-1 .5-1.7 1.5-2.2.6-.3 1.5-.5 2.8-.6v-.4c0-.8-.5-1.3-1.5-1.3-.6 0-1.3.2-1.9.5l-.4-1c.8-.4 1.7-.6 2.6-.6 1.9 0 2.8.9 2.8 2.7v4.6zm-1.6-.6v-3.2c-.9.1-1.5.3-1.8.4-.6.3-.9.8-.9 1.5 0 1 .5 1.4 1.6 1.4.5.1.8 0 1.1-.1zM159.5 145.7h-3.2v3.2h2.8v1.3h-2.8v4.8h-1.9v-10.6h5.1v1.3zM166.3 154.5c-.7.4-1.6.6-2.8.6-2.1 0-3.1-.8-3.1-2.3 0-1 .5-1.7 1.5-2.2.6-.3 1.5-.5 2.8-.6v-.4c0-.8-.5-1.3-1.5-1.3-.6 0-1.3.2-1.9.5l-.4-1c.8-.4 1.7-.6 2.6-.6 1.9 0 2.8.9 2.8 2.6v4.7zm-1.6-.6v-3.1c-.8.1-1.4.2-1.8.4-.6.3-.9.8-.9 1.5 0 .9.5 1.4 1.6 1.4.4 0 .8 0 1.1-.2zM172.6 154.6c-.4.3-1 .5-1.8.5-1 0-1.8-.4-2.3-1.3-.5-.7-.7-1.6-.7-2.7s.2-2 .7-2.7c.5-.8 1.3-1.3 2.3-1.3.8 0 1.4.2 1.8.5l-.4 1c-.3-.2-.6-.3-1-.3-1.1 0-1.7.9-1.7 2.7 0 .7.1 1.3.3 1.8.3.7.7 1 1.3 1 .4 0 .8-.1 1-.3l.5 1.1zM179.8 154.5c-.8.4-1.7.6-2.9.6-2 0-3-.9-3-2.6v-5.2h1.7v5.3c0 .9.4 1.3 1.3 1.3.5 0 .8-.1 1.1-.3v-6.3h1.7l.1 7.2zM183.5 154.9h-1.7v-10.7h1.7v10.7zM188.8 154.9c-.2.1-.5.2-.9.2-.6 0-1.2-.2-1.5-.5-.4-.4-.6-.9-.6-1.5v-4.5h-.8v-1.1h.8V145l1.7-.5v3h1.2v1.1h-1.2v4.4c0 .7.3 1 .8 1 .1 0 .2 0 .4-.1l.1 1zM195.7 154.5c-.7.4-1.6.6-2.8.6-2.1 0-3.1-.8-3.1-2.3 0-1 .5-1.7 1.5-2.2.6-.3 1.5-.5 2.8-.6v-.4c0-.8-.5-1.3-1.5-1.3-.6 0-1.3.2-1.9.5l-.4-1c.8-.4 1.7-.6 2.6-.6 1.9 0 2.8.9 2.8 2.6v4.7zm-1.6-.6v-3.1c-.8.1-1.4.2-1.8.4-.6.3-.9.8-.9 1.5 0 .9.5 1.4 1.6 1.4.5 0 .8 0 1.1-.2zM203.4 154.5c-.7.4-1.5.6-2.7.6-1.2 0-2.1-.4-2.7-1.1-.6-.7-.9-1.6-.9-2.8 0-1.1.3-2.1.8-2.8.6-.8 1.4-1.2 2.5-1.2.4 0 .8 0 1.1.1v-3.1h1.7v10.3zm-1.7-.7v-5.5c-.2-.1-.5-.1-.8-.1-1.3 0-2 1-2 2.9s.6 2.9 1.9 2.9c.4-.1.7-.1.9-.2zM159.7 171.8c-.7.4-1.5.6-2.7.6-1.2 0-2.1-.4-2.7-1.1-.6-.7-.9-1.6-.9-2.8 0-1.1.3-2.1.8-2.8.6-.8 1.4-1.2 2.5-1.2.4 0 .8 0 1.1.1v-3.1h1.7v10.3zm-1.8-.7v-5.5c-.2-.1-.5-.1-.8-.1-1.3 0-2 1-2 2.9s.6 2.9 1.9 2.9c.5 0 .8-.1.9-.2zM167.6 168.5l-4.7.7c.1 1.4.8 2.1 2.1 2.1.7 0 1.4-.1 1.9-.4l.4 1.1c-.6.4-1.5.5-2.5.5-1.2 0-2.1-.4-2.7-1.1-.6-.7-.8-1.6-.8-2.8 0-1.1.2-2.1.7-2.7.6-.8 1.4-1.2 2.5-1.2s1.9.4 2.4 1.2c.5.5.7 1.4.7 2.6zm-1.6-.7c0-1.4-.5-2.2-1.5-2.2-.6 0-1.1.3-1.4.9-.2.5-.3 1-.3 1.7l3.2-.4zM180.9 172.3h-2l-.8-2.7h-3.4l-.8 2.7h-1.8l3.5-10.6h1.9l3.4 10.6zm-3.1-3.9-1.1-3.7c-.2-.6-.3-1-.3-1.3-.1.4-.2.9-.3 1.3l-1.1 3.7h2.8zM186.3 164.6l-.3 1.3c-.3-.1-.5-.1-.8-.1-.3 0-.6.1-.8.2v6.4h-1.7v-7.2c.7-.5 1.9-.7 3.6-.6zM193.3 175.3h-1.7v-3.2c-.4.2-.9.3-1.5.3-1 0-1.8-.4-2.3-1.2-.5-.7-.7-1.5-.7-2.6 0-1.3.3-2.2.9-3 .6-.8 1.6-1.2 2.8-1.2 1 0 1.9.2 2.5.6v10.3zm-1.7-4.2v-5.4c-.2-.1-.5-.2-.9-.2-1.3 0-1.9 1-1.9 3 0 1.9.6 2.8 1.8 2.8.4.1.7 0 1-.2zM201 171.9c-.8.4-1.7.6-2.9.6-2 0-3-.9-3-2.6v-5.2h1.7v5.3c0 .9.4 1.3 1.3 1.3.5 0 .8-.1 1.1-.3v-6.3h1.7l.1 7.2zM204.7 162.5c0 .2-.1.4-.3.6-.2.2-.4.2-.7.2s-.5-.1-.7-.2c-.2-.2-.3-.4-.3-.6s.1-.4.3-.6c.2-.2.4-.2.7-.2s.5.1.7.2c.2.2.3.4.3.6zm-.1 9.8h-1.7v-7.6h1.7v7.6zM209.9 172.2c-.2.1-.5.2-.9.2-.6 0-1.2-.2-1.5-.5-.4-.4-.6-.9-.6-1.5v-4.5h-.8v-1.1h.8v-2.5l1.7-.5v3h1.2v1.1h-1.2v4.4c0 .7.3 1 .8 1 .1 0 .2 0 .4-.1l.1 1zM217.4 168.5l-4.7.7c.1 1.4.8 2.1 2.1 2.1.7 0 1.4-.1 1.9-.4l.4 1.1c-.6.4-1.5.5-2.5.5-1.2 0-2.1-.4-2.7-1.1-.6-.7-.8-1.6-.8-2.8 0-1.1.2-2.1.7-2.7.6-.8 1.4-1.2 2.5-1.2s1.9.4 2.4 1.2c.5.5.7 1.4.7 2.6zm-1.6-.7c0-1.4-.5-2.2-1.5-2.2-.6 0-1.1.3-1.4.9-.2.5-.3 1-.3 1.7l3.2-.4zM223.5 171.9c-.4.3-1 .5-1.8.5-1 0-1.8-.4-2.3-1.3-.5-.7-.7-1.6-.7-2.7s.2-2 .7-2.7c.5-.8 1.3-1.3 2.3-1.3.8 0 1.4.2 1.8.5l-.4 1c-.3-.2-.6-.3-1-.3-1.1 0-1.7.9-1.7 2.7 0 .7.1 1.3.3 1.8.3.7.7 1 1.3 1 .4 0 .8-.1 1-.3l.5 1.1zM228.2 172.2c-.2.1-.5.2-.9.2-.6 0-1.2-.2-1.5-.5-.4-.4-.6-.9-.6-1.5v-4.5h-.8v-1.1h.8v-2.5l1.7-.5v3h1.2v1.1H227v4.4c0 .7.3 1 .8 1 .1 0 .2 0 .4-.1v1zM235.5 171.9c-.8.4-1.7.6-2.9.6-2 0-3-.9-3-2.6v-5.2h1.7v5.3c0 .9.4 1.3 1.3 1.3.5 0 .8-.1 1.1-.3v-6.3h1.7l.1 7.2zM241.1 164.6l-.3 1.3c-.3-.1-.5-.1-.8-.1-.3 0-.6.1-.8.2v6.4h-1.7v-7.2c.7-.5 1.9-.7 3.6-.6zM247.7 171.9c-.7.4-1.6.6-2.8.6-2.1 0-3.1-.8-3.1-2.3 0-1 .5-1.7 1.5-2.2.6-.3 1.5-.5 2.8-.6v-.4c0-.8-.5-1.3-1.5-1.3-.6 0-1.3.2-1.9.5l-.4-1c.8-.4 1.7-.6 2.6-.6 1.9 0 2.8.9 2.8 2.6v4.7zm-1.6-.6v-3.1c-.8.1-1.4.2-1.8.4-.6.3-.9.8-.9 1.5 0 .9.5 1.4 1.6 1.4.5 0 .8-.1 1.1-.2zM259.3 164.7l-3.5 10.6H254l1.2-3-2.5-7.6h1.8l1.3 4.9c.1.4.1.7.2 1.1 0-.2.1-.6.2-1.1l1.4-4.9h1.7zM271.6 167c0 1.6-.3 2.9-1 3.9-.8 1.1-1.9 1.7-3.5 1.7-1.3 0-2.3-.2-3-.6v-9.7c.8-.4 1.8-.6 2.9-.6 1.6 0 2.8.5 3.6 1.6.7.7 1 2 1 3.7zm-2-.1c0-2.7-.9-4.1-2.6-4.1-.4 0-.7.1-1 .2v8c.3.1.7.2 1 .2 1 0 1.8-.5 2.1-1.4.4-.7.5-1.7.5-2.9zM274.8 162.5c0 .2-.1.4-.3.6-.2.2-.4.2-.7.2s-.5-.1-.7-.2c-.2-.2-.3-.4-.3-.6s.1-.4.3-.6c.2-.2.4-.2.7-.2s.5.1.7.2c.2.2.3.4.3.6zm-.1 9.8H273v-7.6h1.7v7.6zM280.9 170.1c0 .7-.3 1.3-.8 1.7-.5.4-1.1.6-1.9.6-.9 0-1.6-.2-2.1-.6l.5-1.1c.4.3.8.4 1.4.4.3 0 .6-.1.8-.3.2-.2.3-.5.3-.8 0-.6-.4-1-1.1-1.3-1.2-.4-1.7-1.2-1.7-2.1 0-.7.2-1.2.7-1.6.5-.4 1-.6 1.7-.6.8 0 1.4.2 2 .5l-.4 1c-.3-.3-.8-.4-1.2-.4-.3 0-.6.1-.8.3-.2.2-.3.4-.3.7 0 .5.4.9 1.1 1.2 1.2.7 1.8 1.4 1.8 2.4zM288.4 168.5l-4.7.7c.1 1.4.8 2.1 2.1 2.1.7 0 1.4-.1 1.9-.4l.4 1.1c-.6.4-1.5.5-2.5.5-1.2 0-2.1-.4-2.7-1.1-.6-.7-.8-1.6-.8-2.8 0-1.1.2-2.1.7-2.7.6-.8 1.4-1.2 2.5-1.2s1.9.4 2.4 1.2c.6.5.8 1.4.7 2.6zm-1.6-.7c0-1.4-.5-2.2-1.5-2.2-.6 0-1.1.3-1.4.9-.2.5-.3 1-.3 1.7l3.2-.4zM296 172.3h-1.7v-5.5c0-.8-.5-1.2-1.4-1.2-.4 0-.8.1-1.2.2v6.5H290v-7.2c.8-.4 1.8-.6 3-.6 2 0 3 .8 3 2.3v5.5zm-4.3-9 1.9-.2c.7-.1 1.2-.1 1.5-.1h.8v-1h-4.2v1.3zM303.9 168.5c0 1.1-.2 2-.7 2.7-.6.8-1.4 1.2-2.4 1.2-1.1 0-1.9-.4-2.4-1.2-.5-.7-.7-1.6-.7-2.7s.2-2 .7-2.7c.5-.8 1.4-1.2 2.4-1.2s1.9.4 2.4 1.2c.5.7.7 1.6.7 2.7zm-1.7 0c0-1.9-.5-2.8-1.5-2.8s-1.5.9-1.5 2.8.5 2.8 1.5 2.8 1.5-1 1.5-2.8zM602.8 145.7h-3.3v3.3h2.9v1.3h-2.9v4.9h-2v-10.8h5.3v1.3zM609.7 154.8c-.7.4-1.6.6-2.8.6-2.1 0-3.2-.8-3.2-2.4 0-1 .5-1.8 1.5-2.2.6-.3 1.6-.5 2.8-.6v-.4c0-.9-.5-1.3-1.5-1.3-.6 0-1.3.2-1.9.5l-.4-1c.8-.4 1.7-.6 2.7-.6 1.9 0 2.9.9 2.9 2.7l-.1 4.7zm-1.7-.7v-3.2c-.9.1-1.5.3-1.8.4-.6.3-.9.8-.9 1.5 0 1 .5 1.4 1.6 1.4.5.1.9.1 1.1-.1zM616.2 154.8c-.4.4-1 .5-1.8.5-1 0-1.8-.4-2.4-1.3-.5-.7-.7-1.6-.7-2.7s.2-2 .7-2.7c.5-.9 1.3-1.3 2.4-1.3.8 0 1.4.2 1.8.5l-.4 1c-.3-.2-.6-.3-1-.3-1.1 0-1.7.9-1.7 2.8 0 .7.1 1.3.3 1.8.3.7.7 1 1.4 1 .4 0 .8-.1 1.1-.3l.3 1zM623.6 154.7c-.8.4-1.8.6-3 .6-2 0-3-.9-3-2.6v-5.3h1.8v5.4c0 .9.4 1.3 1.3 1.3.5 0 .9-.1 1.2-.3v-6.5h1.8l-.1 7.4zM627.3 155.2h-1.8v-10.9h1.8v10.9zM632.7 155.1c-.2.1-.5.2-.9.2-.7 0-1.2-.2-1.6-.6-.4-.4-.6-.9-.6-1.6v-4.6h-.9v-1.1h.9v-2.6l1.8-.5v3.1h1.3v1.1h-1.3v4.5c0 .7.3 1 .8 1 .1 0 .3 0 .4-.1l.1 1.2zM639.8 154.8c-.7.4-1.6.6-2.8.6-2.1 0-3.2-.8-3.2-2.4 0-1 .5-1.8 1.5-2.2.6-.3 1.6-.5 2.8-.6v-.4c0-.9-.5-1.3-1.5-1.3-.6 0-1.3.2-1.9.5l-.4-1c.8-.4 1.7-.6 2.7-.6 1.9 0 2.9.9 2.9 2.7v4.7zm-1.6-.7v-3.2c-.9.1-1.5.3-1.8.4-.6.3-.9.8-.9 1.5 0 1 .5 1.4 1.6 1.4.4.1.8.1 1.1-.1zM647.7 154.7c-.7.4-1.6.6-2.7.6-1.2 0-2.1-.4-2.7-1.1-.6-.7-.9-1.6-.9-2.8 0-1.2.3-2.1.8-2.8.6-.8 1.5-1.2 2.6-1.2.5 0 .8 0 1.2.1v-3.2h1.8v10.4zm-1.8-.7v-5.6c-.2-.1-.5-.1-.8-.1-1.4 0-2 1-2 3 0 1.9.6 2.9 1.9 2.9.4-.1.7-.1.9-.2zM603.7 172c-.7.4-1.6.6-2.7.6-1.2 0-2.1-.4-2.7-1.1-.6-.7-.9-1.6-.9-2.9 0-1.2.3-2.1.8-2.8.6-.8 1.5-1.2 2.6-1.2.5 0 .8 0 1.2.1v-3.2h1.8V172zm-1.8-.7v-5.6c-.2-.1-.5-.1-.8-.1-1.4 0-2 1-2 3 0 1.9.6 2.9 1.9 2.9.4 0 .7-.1.9-.2zM611.7 168.6l-4.8.7c.1 1.5.9 2.2 2.1 2.2.8 0 1.4-.1 2-.4l.4 1.1c-.7.4-1.5.5-2.6.5-1.2 0-2.1-.4-2.7-1.2-.6-.7-.9-1.7-.9-2.9s.3-2.1.8-2.8c.6-.8 1.4-1.2 2.6-1.2 1.1 0 2 .4 2.5 1.2.5.6.7 1.6.6 2.8zm-1.6-.7c0-1.5-.5-2.2-1.5-2.2-.7 0-1.1.3-1.4.9-.2.5-.3 1.1-.3 1.8l3.2-.5zM627.6 172.5h-1.9c-.2-1.7-.4-4.1-.7-7.2 0-.4-.1-.8 0-1.3-.1.4-.2.8-.3 1.3l-2.1 7.2h-1.1c-.1-.2-.8-2.6-2.1-7.2-.1-.4-.2-.8-.3-1.3 0 .4 0 .8-.1 1.3l-.7 7.2h-1.7l1.2-10.9h2l2 7 .3 1.2c0-.3.1-.7.3-1.2l2-7h2l1.2 10.9zM635.3 168.6l-4.8.7c.1 1.5.9 2.2 2.1 2.2.8 0 1.4-.1 2-.4l.4 1.1c-.7.4-1.5.5-2.6.5-1.2 0-2.1-.4-2.7-1.2-.6-.7-.9-1.7-.9-2.9s.3-2.1.8-2.8c.6-.8 1.4-1.2 2.6-1.2 1.1 0 2 .4 2.5 1.2.4.6.7 1.6.6 2.8zm-1.6-.7c0-1.5-.5-2.2-1.5-2.2-.7 0-1.1.3-1.4.9-.2.5-.3 1.1-.3 1.8l3.2-.5zM642.9 172c-.7.4-1.6.6-2.7.6-1.2 0-2.1-.4-2.7-1.1-.6-.7-.9-1.6-.9-2.9 0-1.2.3-2.1.8-2.8.6-.8 1.5-1.2 2.6-1.2.5 0 .8 0 1.2.1v-3.2h1.8V172zm-1.8-.7v-5.6c-.2-.1-.5-.1-.8-.1-1.4 0-2 1-2 3 0 1.9.6 2.9 1.9 2.9.5 0 .8-.1.9-.2zM646.8 162.5c0 .3-.1.5-.3.6s-.4.2-.7.2-.5-.1-.7-.2c-.2-.2-.3-.4-.3-.6s.1-.5.3-.6c.2-.2.4-.3.7-.3.3 0 .5.1.7.2.2.2.3.5.3.7zm-.1 10h-1.8v-7.8h1.8v7.8zM653.2 172.1c-.4.4-1 .5-1.8.5-1 0-1.8-.4-2.4-1.3-.5-.7-.7-1.6-.7-2.7s.2-2 .7-2.7c.5-.9 1.3-1.3 2.4-1.3.8 0 1.4.2 1.8.5l-.4 1c-.3-.2-.6-.3-1-.3-1.1 0-1.7.9-1.7 2.8 0 .7.1 1.3.3 1.8.3.7.7 1 1.4 1 .4 0 .8-.1 1.1-.3l.3 1zM656.5 162.5c0 .3-.1.5-.3.6s-.4.2-.7.2c-.3 0-.5-.1-.7-.2-.2-.2-.3-.4-.3-.6s.1-.5.3-.6c.2-.2.4-.3.7-.3.3 0 .5.1.7.2.2.2.3.5.3.7zm-.1 10h-1.8v-7.8h1.8v7.8zM664.5 172.5h-1.8V167c0-.9-.5-1.3-1.4-1.3-.4 0-.8.1-1.2.2v6.6h-1.8v-7.4c.8-.4 1.8-.6 3-.6.9 0 1.6.2 2.1.5.6.4 1 1 1 1.9v5.6zM672 172.1c-.7.4-1.6.6-2.8.6-2.1 0-3.2-.8-3.2-2.4 0-1 .5-1.8 1.5-2.2.6-.3 1.6-.5 2.8-.6v-.5c0-.9-.5-1.3-1.5-1.3-.6 0-1.3.2-2 .5l-.4-1c.8-.4 1.7-.6 2.7-.6 1.9 0 2.9.9 2.9 2.7v4.8zm-1.6-.7v-3.2c-.9.1-1.5.3-1.8.4-.6.3-.9.8-.9 1.5 0 1 .5 1.4 1.6 1.4.4.2.8.1 1.1-.1z"/><path d="M34.3 7.7s27.1-13.4 67.9 0c-.4 41.1-.6 66-.6 66S90 87 69 87.7c-21.1.7-32.3-10.6-32.3-10.6L34.3 7.7z" style="fill:#ffed00"/><path class="st2" d="M99.8 78.2C84.7 88 69 87.5 69 87.5s-.4-2-.3-5.5c.2-3.5 2.1-2.5 3.4-5.2.5-1 .9-1.7 1.7-4 0-.1-.9-16.6-1.1-23.7-.1-3.8-.8-10.1-1.7-16.2-.5-3.6-1.6-6.5-2.1-10-.7-5-1.6-10.6-1.6-10.6-.6 1.6-1.5 7.5-2.4 14.2-.4 3.2-.9 6.6-1.2 9.8C62.9 43 60.8 61 60.4 62c-.5 1.5-.5-.4-.5-.4s1.2-18.9 1.6-27.1c.2-4 .5-8.5 1-12.8.4-3.2.9-6.3 1.5-9.1 0 0 2.2-6.5 2.8-6.7.7-.1 3.2 4.1 4 7.9 1.9 8.5 3 9.6 4.5 18.6 1.4 8.5 2.6 15.6 2.8 16.8.6 4.2.3 17.4-.8 22.6-.3 1.4-.3 2-1.3 2.9-2.2 2.2-3.7 4.9-3.7 6.6 0 1.7-.3 1.7.1 2.7 0 0 2.9 4.3 19.5-5.6 0 0 5.2-2.7 5.2-8.7V9.1S80.6 3.5 67.9 3.5 39.3 9.1 39.3 9.1v60.4c0 3.7.5 10.7 5.9 13.1 0 0-14.1-4.8-14.1-13.2V4S52.7 0 68 0c15.3 0 37.3 4 37.3 4v65.6c0 5.6-5.5 8.6-5.5 8.6M305 27.5c-1.5.8-3.5 1.3-6.1 1.3-2.6 0-4.6-.8-6-2.3-1.4-1.6-2.1-3.7-2.1-6.5s.7-5 2.1-6.7c1.4-1.6 3.2-2.4 5.5-2.4 1 0 1.9.1 2.6.3v-7h3.9l.1 23.3zm-3.9-1.7V13.3c-.5-.2-1.1-.2-1.7-.2-3.1 0-4.6 2.2-4.6 6.6 0 4.4 1.4 6.5 4.3 6.5.9 0 1.5-.1 2-.4M323 19.6l-10.7 1.5c.3 3.2 1.9 4.9 4.8 4.9 1.7 0 3.2-.3 4.4-1l.9 2.5c-1.5.8-3.4 1.2-5.8 1.2-2.5 0-4.5-.8-5.9-2.4-1.4-1.6-2.2-3.8-2.2-6.7 0-2.8.7-5 2-6.6 1.3-1.6 3.1-2.4 5.5-2.4 2.3 0 4.1.8 5.3 2.3 1.2 1.5 1.8 3.8 1.7 6.7m-3.7-1.6c0-3.3-1.1-5-3.4-5-1.2 0-2.1.5-2.8 1.5-.7 1.1-1 2.6-1 4.6l7.2-1.1zM118.2 36.7h6.2V75h-6.2zM152.9 61.3c0 4.2-.9 7.6-2.8 10.1-2 2.7-4.9 4.1-8.6 4.1-3.7 0-6.6-1.4-8.6-4.1-1.9-2.5-2.8-5.9-2.8-10.1 0-4.3.9-7.6 2.8-10.2 2-2.7 4.9-4.1 8.6-4.1 3.7 0 6.6 1.4 8.6 4.1 1.9 2.6 2.8 6 2.8 10.2m-6.1 0c0-6.8-1.7-10.3-5.2-10.3s-5.2 3.4-5.2 10.3c0 6.7 1.7 10 5.2 10 3.4 0 5.2-3.4 5.2-10M174.2 67.1c0 2.3-.9 4.3-2.7 5.9-1.8 1.6-4.1 2.4-7.1 2.4-3.1 0-5.6-.7-7.6-2l1.6-4c1.3 1.1 3 1.6 5.1 1.6 1.3 0 2.3-.4 3-1.1.8-.7 1.2-1.7 1.2-2.8 0-1.2-.3-2.1-.9-2.7-.6-.7-1.6-1.3-3.1-1.8-4.2-1.6-6.2-4.1-6.2-7.7 0-2.2.8-4.1 2.4-5.6 1.6-1.5 3.7-2.3 6.3-2.3 2.8 0 5.1.6 7.1 1.9l-1.5 3.6c-1.3-1-2.7-1.5-4.4-1.5-1.2 0-2.2.3-2.9 1-.7.7-1 1.5-1 2.6 0 1.8 1.4 3.2 4.1 4.3 4.4 1.9 6.6 4.6 6.6 8.2M219.9 75h-7.2l-2.9-9.8h-12.2l-3 9.8h-6.3l12.6-38h6.6l12.4 38zm-11.2-13.9-3.9-13.4c-.6-1.9-.9-3.4-1-4.6h-.1c-.2 1-.5 2.5-1 4.6l-4.1 13.4h10.1zM245.3 75h-6.2V55.6c0-3-1.6-4.6-4.9-4.6-1.6 0-3 .3-4.3.8V75h-6.2V49.1c2.8-1.3 6.4-2 10.7-2 3.8 0 6.6.8 8.5 2.5 1.6 1.4 2.4 3.4 2.4 5.8V75zM273.3 73.5c-2.4 1.3-5.6 2-9.5 2-4 0-7.2-1.2-9.4-3.7-2.2-2.4-3.4-5.8-3.4-10.2 0-4.4 1.1-7.9 3.4-10.5 2.2-2.5 5-3.8 8.6-3.8 1.6 0 3 .2 4.1.5v-11h6.2v36.7zm-6.2-2.6V51.2c-.8-.2-1.7-.4-2.7-.4-4.8 0-7.2 3.5-7.2 10.4 0 6.8 2.3 10.3 6.8 10.3 1.4 0 2.4-.2 3.1-.6M301.5 61.1l-16.8 2.4c.5 5.1 3 7.6 7.5 7.6 2.6 0 4.9-.5 6.9-1.5l1.5 3.9c-2.3 1.3-5.3 1.9-9 1.9-3.9 0-7-1.2-9.3-3.7-2.3-2.5-3.4-6-3.4-10.6 0-4.4 1-7.9 3.1-10.4s4.9-3.7 8.6-3.7c3.7 0 6.4 1.2 8.3 3.6 1.8 2.5 2.7 6 2.6 10.5m-5.8-2.4c0-5.2-1.8-7.8-5.4-7.8-1.9 0-3.3.8-4.4 2.3-1.1 1.7-1.6 4.1-1.6 7.2l11.4-1.7zM322.8 67.1c0 2.3-.9 4.3-2.7 5.9-1.8 1.6-4.1 2.4-7.1 2.4-3.1 0-5.6-.7-7.6-2l1.6-4c1.3 1.1 3 1.6 5.1 1.6 1.3 0 2.3-.4 3-1.1.8-.7 1.2-1.7 1.2-2.8 0-1.2-.3-2.1-.9-2.7-.6-.7-1.6-1.3-3.1-1.8-4.2-1.6-6.2-4.1-6.2-7.7 0-2.2.8-4.1 2.4-5.6 1.6-1.5 3.7-2.3 6.3-2.3 2.8 0 5.1.6 7.1 1.9l-1.5 3.6c-1.2-1-2.7-1.5-4.4-1.5-1.2 0-2.2.3-2.9 1s-1 1.5-1 2.6c0 1.8 1.4 3.2 4.1 4.3 4.4 1.9 6.6 4.6 6.6 8.2M150.8 28.5h-3.9V16.1c0-1.9-1-2.9-3.1-2.9-1 0-1.9.2-2.7.5v14.8h-3.9V12c1.8-.8 4.1-1.3 6.8-1.3 2.4 0 4.2.5 5.4 1.6 1 .9 1.5 2.1 1.5 3.7l-.1 12.5zM159.3 6c0 .5-.2 1-.6 1.4-.4.4-.9.6-1.5.6s-1.1-.2-1.5-.6c-.5-.3-.7-.8-.7-1.4 0-.5.2-1 .6-1.4.4-.4.9-.6 1.5-.6s1.1.2 1.5.6c.5.4.7.9.7 1.4m-.2 22.5h-3.9V11h3.9v17.5zM177.1 11l-5.6 17.5h-3.8L162.1 11h4.2l3.1 11.3c.2.8.4 1.6.4 2.4h.1c.1-.6.3-1.4.5-2.4l3.1-11.3h3.6zM193.7 19.6 183 21.2c.3 3.2 1.9 4.9 4.8 4.9 1.7 0 3.2-.3 4.4-1l.9 2.5c-1.5.8-3.4 1.2-5.8 1.2-2.5 0-4.5-.8-5.9-2.4-1.4-1.6-2.2-3.8-2.2-6.7 0-2.8.7-5 2-6.6 1.3-1.6 3.1-2.4 5.5-2.4 2.3 0 4.1.8 5.3 2.3 1.2 1.5 1.8 3.7 1.7 6.6m-3.7-1.5c0-3.3-1.1-5-3.4-5-1.2 0-2.1.5-2.8 1.5-.7 1.1-1 2.6-1 4.6l7.2-1.1zM205.7 10.7l-.8 2.9c-.6-.2-1.2-.3-1.8-.3-.8 0-1.4.1-1.9.4v14.7h-3.9V11.9c1.9-.9 4.7-1.3 8.4-1.2M218.3 23.5c0 1.5-.6 2.7-1.7 3.8-1.1 1-2.6 1.6-4.5 1.6-2 0-3.6-.4-4.8-1.3l1-2.5c.8.7 1.9 1 3.3 1 .8 0 1.4-.2 1.9-.7.5-.5.7-1.1.7-1.8s-.2-1.3-.6-1.7c-.4-.4-1-.8-2-1.1-2.7-1-4-2.6-4-4.9 0-1.4.5-2.6 1.5-3.6s2.4-1.5 4-1.5c1.8 0 3.3.4 4.5 1.2l-1 2.3c-.8-.6-1.7-1-2.8-1-.8 0-1.4.2-1.8.7-.4.4-.7 1-.7 1.6 0 1.1.9 2.1 2.6 2.8 3 1 4.4 2.7 4.4 5.1M226 6c0 .5-.2 1-.6 1.4-.4.4-.9.6-1.5.6s-1.1-.2-1.5-.6c-.4-.4-.6-.8-.6-1.4 0-.5.2-1 .6-1.4.4-.4.9-.6 1.5-.6s1.1.2 1.5.6c.4.4.6.9.6 1.4m-.2 22.5h-3.9V11h3.9v17.5zM243.7 27.5c-1.5.8-3.5 1.3-6.1 1.3-2.6 0-4.6-.8-6-2.3-1.4-1.6-2.1-3.7-2.1-6.5s.7-5 2.1-6.7c1.4-1.6 3.2-2.4 5.5-2.4 1 0 1.9.1 2.6.3v-7h3.9l.1 23.3zm-3.9-1.6V13.3c-.5-.2-1.1-.2-1.7-.2-3.1 0-4.6 2.2-4.6 6.6 0 4.4 1.4 6.5 4.3 6.5.9.1 1.6-.1 2-.3M260.5 27.5c-1.6.8-3.7 1.3-6.3 1.3-4.7 0-7.1-1.8-7.1-5.3 0-2.1 1-3.7 2.9-4.8 1.5-.8 3.8-1.4 6.9-1.7v-.9c0-1.9-1.2-2.9-3.5-2.9-1.4 0-2.9.4-4.4 1.1l-.9-2.3c1.8-.9 3.8-1.3 6-1.3 4.3 0 6.4 2 6.4 6v10.8zm-3.7-1.4v-7.2c-2.1.3-3.5.7-4.4 1.2-1.1.7-1.6 1.7-1.6 3.2 0 2.2 1.2 3.2 3.7 3.2.9.1 1.7-.1 2.3-.4M278.3 27.5c-1.5.8-3.5 1.3-6.1 1.3-2.6 0-4.6-.8-6-2.3-1.4-1.6-2.1-3.7-2.1-6.5s.7-5 2.1-6.7c1.4-1.6 3.2-2.4 5.5-2.4 1 0 1.9.1 2.6.3v-7h3.9v23.3zm-3.9-1.6V13.3c-.5-.2-1.1-.2-1.7-.2-3.1 0-4.6 2.2-4.6 6.6 0 4.4 1.4 6.5 4.3 6.5.9.1 1.6-.1 2-.3M118.1 4.2h4.2V23c0 2.1 1.1 3.1 3.3 3.1 1.1 0 2-.2 2.9-.5V4.2h4.2v23.2c-1.9.9-4.3 1.3-7.3 1.3-2.6 0-4.5-.6-5.7-1.7-1.1-1-1.6-2.3-1.6-4V4.2zM241.6 111.2c-.8.7-2.1 1-3.6 1-2.3 0-4.1-1-5.3-2.9-1-1.6-1.5-3.7-1.5-6.1 0-2.4.5-4.4 1.5-6.1 1.2-2 3-2.9 5.2-2.9 1.5 0 2.7.3 3.6 1l-.7 1.9c-.7-.4-1.5-.6-2.3-.6-1.5 0-2.6.8-3.3 2.4-.5 1.1-.7 2.6-.7 4.3 0 1.7.3 3.1.8 4.3.7 1.6 1.8 2.3 3.2 2.3.8 0 1.6-.2 2.2-.6l.9 2zM253.3 105.6c0 1.9-.4 3.4-1.2 4.5-.9 1.3-2.3 2-4 2-1.8 0-3.1-.7-4-2-.8-1.2-1.2-2.7-1.2-4.5 0-1.9.4-3.4 1.2-4.5.9-1.3 2.2-2 4-2 1.8 0 3.1.7 4 2 .8 1.2 1.2 2.7 1.2 4.5m-2.8 0c0-3.1-.8-4.7-2.4-4.7-1.6 0-2.4 1.6-2.4 4.7s.8 4.6 2.4 4.6c1.6 0 2.4-1.5 2.4-4.6M256 94.2h2.9v17.7H256zM272 105.6c0 1.9-.4 3.4-1.2 4.5-.9 1.3-2.3 2-4 2s-3.1-.7-4-2c-.8-1.2-1.2-2.7-1.2-4.5 0-1.9.4-3.4 1.2-4.5.9-1.3 2.2-2 4-2 1.8 0 3.1.7 4 2 .8 1.2 1.2 2.7 1.2 4.5m-2.8 0c0-3.1-.8-4.7-2.4-4.7s-2.4 1.6-2.4 4.7.8 4.6 2.4 4.6 2.4-1.5 2.4-4.6M291.6 111.9h-2.9V103c0-1.4-.7-2.1-2.1-2.1-.8 0-1.5.3-2.1.9v10.1h-2.8v-9c0-1.3-.8-2-2.4-2-.7 0-1.3.1-1.9.4V112h-2.9v-12c1.3-.6 2.8-.9 4.7-.9 1.8 0 3.1.5 3.9 1.4 1-.9 2.3-1.4 4-1.4 1.2 0 2.3.3 3.1 1s1.2 1.6 1.2 2.9v8.9zM304.9 105.3c0 2.1-.5 3.7-1.5 4.9-1.1 1.3-2.6 1.9-4.6 1.9-1.8 0-3.2-.3-4.2-.9v-17h2.8v5.4c.7-.3 1.6-.5 2.5-.5 1.6 0 2.9.6 3.8 1.9.8 1.2 1.2 2.6 1.2 4.3m-2.9.2c0-3.1-1-4.7-2.9-4.7-.7 0-1.3.1-1.7.4v9c.4.2.9.3 1.4.3 2.2-.1 3.2-1.7 3.2-5M310.5 95.8c0 .4-.2.7-.5 1-.3.3-.7.4-1.1.4-.4 0-.8-.1-1.1-.4-.3-.3-.5-.6-.5-1s.2-.7.5-1c.3-.3.7-.4 1.1-.4.4 0 .8.1 1.1.4.4.2.5.5.5 1m-.1 16.1h-2.9V99.3h2.9v12.6zM322.6 111.2c-1.1.6-2.7.9-4.6.9-3.4 0-5.1-1.3-5.1-3.8 0-1.6.8-2.8 2.5-3.6 1-.5 2.5-.8 4.6-1v-.7c0-1.4-.8-2.1-2.5-2.1-1 0-2.1.3-3.2.8l-.7-1.6c1.3-.6 2.8-1 4.3-1 3.1 0 4.6 1.4 4.6 4.3v7.8zm-2.6-1V105c-1.4.2-2.4.4-3 .7-.9.5-1.4 1.3-1.4 2.5 0 1.6.9 2.3 2.7 2.3.6.1 1.2 0 1.7-.3M354.9 4.1h.9V112h-.9z"/><path d="m430.4 86.2.9-7c1-.1 1.9-.3 2.8-.5l-1.4-5.5c-1.2.3-2.4.4-3.6.4-5.9 0-11.1-3.4-13.7-8.3l-5.1 2.5 1.2 2.1-7.5 8.2c-3.8-1.9-8.5-.3-10.4 3.5s-.3 8.5 3.5 10.4 8.5.3 10.4-3.5c1-2 1-4.1.4-6l9-7.1c2.1 1.5 4.4 2.6 6.9 3.3l.5 7.6c-1.2.9-1.9 2.4-1.9 4 0 2.8 2.3 5 5 5 2.8 0 5-2.3 5-5 0-1.7-.8-3.2-2-4.1z" style="fill:#d27357"/><path d="M464.2 75.6c-2.4-1.2-5.2-1-7.3.2l-8.7-8.6c.3-.7.6-1.4.9-2.2l-5.4-1.7c-1.7 4.9-5.8 8.7-10.9 9.9l1.4 5.5c.7-.2 1.3-.4 2-.6l3 4.7c-.6.8-.9 1.8-.9 2.9 0 2.8 2.3 5 5 5 2.8 0 5-2.3 5-5 0-2.6-2-4.8-4.5-5l-2.3-5.3c.9-.6 1.7-1.3 2.4-2l9.5 7.2c-.9 3.5.7 7.2 4.1 8.8 3.8 1.9 8.5.3 10.4-3.5 1.7-3.8.1-8.4-3.7-10.3z" style="fill:#87b44a"/><path d="M468.6 34.2c-3.8-1.9-8.5-.3-10.4 3.5-.6 1.3-.9 2.7-.8 4l-11.6 3.8c-.9-1.1-1.8-2.2-2.9-3.1l2.6-4.6c2.6-.2 4.7-2.4 4.7-5 0-2.8-2.3-5-5-5-2.8 0-5 2.3-5 5 0 .8.2 1.5.5 2.2l-3 4c-.5-.2-.9-.4-1.4-.6l-1.9 5.3c5.9 2.2 10.1 7.8 10.1 14.4 0 1.8-.3 3.4-.8 5L449 65c.2-.5.3-1.1.5-1.6l6.3-.2c.3.5.7.9 1.1 1.3.2.2.4.3.6.5.8.5 1.7.7 2.6.7 2.8 0 5-2.3 5-5 0-2.8-2.3-5-5-5-1.7 0-3.3.9-4.2 2.2l-5.9-.5c-.1-1.7-.4-3.4-.8-4.9l10.9-5.3c.5.4 1 .7 1.5 1 3.8 1.9 8.5.3 10.4-3.5 2-3.9.4-8.6-3.4-10.5z" style="fill:#69a9df"/><path d="m418.1 47.6-4-4c-.6.6-1.2 1.3-1.7 2l-10.1-4c.2-3-1.4-6-4.3-7.4-3.8-1.9-8.5-.3-10.4 3.5s-.3 8.5 3.5 10.4c2.3 1.2 5 1 7.1-.1.4-.2.7-.4 1-.6.2-.1.3-.2.5-.4l9.2 5.5c-.6 1.9-.9 3.9-.9 5.9v.1l-6.5 1.7c-.9-1.1-2.3-1.8-3.8-1.8-2.8 0-5 2.3-5 5 0 2.8 2.3 5 5 5 2.1 0 3.8-1.2 4.6-3l6.8-.4c.3 1 .7 1.9 1.2 2.9l5.1-2.5c-1.1-2.1-1.7-4.5-1.7-7.1 0-4.2 1.7-8 4.4-10.7z" style="fill:#c5225f"/><path d="M435.1 13.1c-3.8-1.9-8.5-.3-10.4 3.5s-.3 8.5 3.5 10.4c.1 0 .1.1.2.1l-1 10.3c-1.7.1-3.3.5-4.9 1l-2.7-4.4c.4-.7.5-1.5.5-2.3 0-2.8-2.3-5-5-5s-5 2.3-5 5 2.1 4.9 4.8 5l1.9 4.4c-1 .7-2 1.5-2.9 2.4l4 4c2.8-2.9 6.7-4.7 11-4.7 1.9 0 3.6.3 5.3.9l1.9-5.3c-.4-.2-.9-.3-1.3-.4l-.6-10.9c1.8-.7 3.3-2 4.2-3.8 1.9-3.7.3-8.3-3.5-10.2z" style="fill:#d68224"/><path class="st0" d="M508.7 63.7c.6-.2 1.2-.1 1.7.3s.8.9.8 1.6v2.6c0 .8-.2 1.6-.7 2.2s-1.1 1-1.9 1.2c-2.2.4-4.5.6-6.9.6-5.4 0-9.7-1.5-12.7-4.6s-4.6-7.5-4.6-13.4c0-5.7 1.5-10.1 4.4-13.3s7.1-4.7 12.4-4.7c2.4 0 4.7.2 6.9.6.8.1 1.4.5 1.9 1.2s.7 1.4.7 2.2v2.7c0 .7-.3 1.2-.8 1.6-.5.4-1.1.5-1.7.3-2-.6-3.9-.9-5.8-.9-2.6 0-4.6.9-6 2.6-1.4 1.7-2.2 4.3-2.2 7.7 0 3.3.8 5.9 2.3 7.7 1.6 1.8 3.7 2.7 6.3 2.7 2.1-.1 4-.4 5.9-.9zM519.9 40.9c3-3.2 7.1-4.8 12.3-4.8 5.2 0 9.3 1.6 12.3 4.8 3 3.2 4.5 7.6 4.5 13.2s-1.5 10-4.5 13.2-7.1 4.8-12.3 4.8c-5.2 0-9.3-1.6-12.3-4.8-3-3.2-4.5-7.6-4.5-13.2s1.5-10 4.5-13.2zm5.3 13.2c0 6.7 2.3 10.1 6.9 10.1 4.6 0 6.9-3.4 6.9-10.1S536.8 44 532.2 44c-4.7 0-7 3.4-7 10.1zM575 63.7a2.732 2.732 0 0 1 2.7 2.7v2.4a2.732 2.732 0 0 1-2.7 2.7h-18.5a2.732 2.732 0 0 1-2.7-2.7V39.3a2.732 2.732 0 0 1 2.7-2.7h4.4a2.732 2.732 0 0 1 2.7 2.7v23.9c0 .3.1.4.4.4h11zM603.8 36.6a2.732 2.732 0 0 1 2.7 2.7v2.2a2.732 2.732 0 0 1-2.7 2.7h-10.3c-.3 0-.4.1-.4.4v4.9c0 .3.1.4.4.4h9.3a2.732 2.732 0 0 1 2.7 2.7v1.7a2.732 2.732 0 0 1-2.7 2.7h-9.3c-.3 0-.4.1-.4.4v5.9c0 .3.1.4.4.4h10.3a2.732 2.732 0 0 1 2.7 2.7v2.2a2.732 2.732 0 0 1-2.7 2.7h-17.5a2.732 2.732 0 0 1-2.7-2.7V39.3a2.732 2.732 0 0 1 2.7-2.7h17.5zM638.8 36.6c.7 0 1.2.3 1.6.8.4.5.5 1.1.3 1.8L631.3 69c-.3.8-.7 1.4-1.4 1.9s-1.4.7-2.2.7h-4.6c-.8 0-1.6-.2-2.2-.7-.7-.5-1.1-1.1-1.3-1.9l-9.4-29.8c-.2-.6-.1-1.2.3-1.8.4-.5.9-.8 1.6-.8h4.7c.8 0 1.5.2 2.1.7.6.5 1 1.1 1.2 1.9l5.2 23.2h.1l5.5-23.2c.2-.8.6-1.4 1.2-1.9s1.3-.7 2.1-.7h4.6z"/></g></svg>