<svg xmlns="http://www.w3.org/2000/svg" viewBox="0 0 152.81 40"><defs><style>.cls-1{fill:#222221;}.cls-2{fill:#ffed00;}.cls-3{fill:#1d1d1b;}.cls-4{fill:#d27357;}.cls-5{fill:#87b44a;}.cls-6{fill:#69a9df;}.cls-7{fill:#c5225f;}.cls-8{fill:#d68224;}</style></defs><g id="Layer_2" data-name="Layer 2"><g id="Layer_1-2" data-name="Layer 1"><g id="guias"><polygon class="cls-1" points="1.36 33.13 0.64 33.13 0.64 33.88 1.3 33.88 1.3 34.18 0.64 34.18 0.64 35.27 0.18 35.27 0.18 32.84 1.36 32.84 1.36 33.13"/><path class="cls-1" d="M3.05,35.18a1.29,1.29,0,0,1-.64.14c-.48,0-.73-.19-.73-.55a.52.52,0,0,1,.34-.5,2.11,2.11,0,0,1,.64-.14V34c0-.2-.11-.29-.34-.29a1,1,0,0,0-.43.11l-.09-.23a1.33,1.33,0,0,1,.61-.13c.43,0,.66.2.66.61l0,1.07M2.68,35v-.73a1.84,1.84,0,0,0-.41.1.35.35,0,0,0-.2.34c0,.22.11.32.36.32a.41.41,0,0,0,.25,0"/><path class="cls-1" d="M4.64,35.2a.56.56,0,0,1-.41.12.64.64,0,0,1-.55-.3,1,1,0,0,1-.16-.61,1.08,1.08,0,0,1,.16-.62.59.59,0,0,1,.55-.29.67.67,0,0,1,.41.11l-.09.23a.37.37,0,0,0-.23-.07c-.25,0-.39.2-.39.64a1.25,1.25,0,0,0,.07.41.32.32,0,0,0,.32.22A.43.43,0,0,0,4.57,35l.07.23"/><path class="cls-1" d="M6.41,35.18a1.52,1.52,0,0,1-.68.14c-.45,0-.68-.21-.68-.6v-1.2h.41v1.23c0,.2.09.29.29.29A.47.47,0,0,0,6,35V33.52h.41l0,1.66"/><rect class="cls-1" x="6.98" y="32.79" width="0.41" height="2.48"/><path class="cls-1" d="M8.73,35.27a.44.44,0,0,1-.2,0,.5.5,0,0,1-.37-.14A.47.47,0,0,1,8,34.84V33.79H7.82v-.25H8V33l.41-.11v.7h.29v.25H8.44v1c0,.15.06.22.18.22a.15.15,0,0,0,.09,0v.25"/><path class="cls-1" d="M10.44,35.18a1.29,1.29,0,0,1-.64.14c-.48,0-.73-.19-.73-.55a.52.52,0,0,1,.34-.5,2.11,2.11,0,0,1,.64-.14V34c0-.2-.11-.29-.34-.29a1,1,0,0,0-.43.11l-.09-.23a1.33,1.33,0,0,1,.61-.13c.43,0,.66.2.66.61v1.07M10.07,35v-.73a1.84,1.84,0,0,0-.41.1.35.35,0,0,0-.2.34c0,.22.11.32.36.32a.37.37,0,0,0,.25,0"/><path class="cls-1" d="M12.35,35.18a1.26,1.26,0,0,1-.62.14.8.8,0,0,1-.61-.25.93.93,0,0,1-.2-.64,1,1,0,0,1,.18-.64.7.7,0,0,1,.59-.27,1.23,1.23,0,0,1,.27,0v-.73h.41l0,2.37M11.94,35V33.72a.52.52,0,0,0-.18,0c-.32,0-.46.23-.46.68s.14.66.43.66a.56.56,0,0,0,.21,0"/><path class="cls-1" d="M1.43,39.11a1.22,1.22,0,0,1-.61.14A.79.79,0,0,1,.2,39a1,1,0,0,1-.2-.64,1.07,1.07,0,0,1,.18-.63.69.69,0,0,1,.59-.28.8.8,0,0,1,.28,0v-.73h.41l0,2.36M1,39V37.68a.47.47,0,0,0-.18,0c-.32,0-.45.23-.45.68s.13.66.43.66C.93,39,1,39,1,39"/><path class="cls-1" d="M3.39,38.34l-1.07.16c0,.34.18.5.48.5a1,1,0,0,0,.45-.09l.09.25a1.15,1.15,0,0,1-.59.11A.71.71,0,0,1,2.14,39a1,1,0,0,1-.21-.66,1.1,1.1,0,0,1,.18-.64.67.67,0,0,1,.57-.27.64.64,0,0,1,.57.27,1.29,1.29,0,0,1,.14.64M3,38.18c0-.34-.11-.5-.34-.5a.32.32,0,0,0-.32.21,1.19,1.19,0,0,0-.07.4Z"/><path class="cls-1" d="M6.71,39.23H6.23l-.18-.64h-.8l-.2.64H4.64l.82-2.46h.43l.82,2.46M6,38.34l-.25-.86a1.33,1.33,0,0,1-.07-.3h0c0,.09,0,.2-.07.3l-.27.86Z"/><path class="cls-1" d="M8.57,39.11a1.22,1.22,0,0,1-.61.14A.75.75,0,0,1,7.35,39a.91.91,0,0,1-.21-.64,1.07,1.07,0,0,1,.18-.63.69.69,0,0,1,.59-.28.89.89,0,0,1,.28,0v-.73H8.6l0,2.36M8.16,39V37.68a.47.47,0,0,0-.18,0c-.32,0-.45.23-.45.68S7.66,39,8,39a.34.34,0,0,0,.2,0"/><path class="cls-1" d="M11.48,39.23h-.41V38a.26.26,0,0,0-.29-.3.55.55,0,0,0-.3.11V39.2h-.41V38c0-.19-.11-.28-.34-.28a1.28,1.28,0,0,0-.27,0v1.5H9.05V37.59a1.43,1.43,0,0,1,.66-.14.75.75,0,0,1,.55.19.71.71,0,0,1,.56-.19.68.68,0,0,1,.44.14.51.51,0,0,1,.18.41l0,1.23"/><path class="cls-1" d="M12.46,37a.15.15,0,0,1-.07.14s-.09,0-.16,0a.33.33,0,0,1-.15,0A.19.19,0,0,1,12,37a.15.15,0,0,1,.07-.13.18.18,0,0,1,.15-.07.34.34,0,0,1,.16,0,.3.3,0,0,1,.07.16m-.41.53h.41v1.77h-.41Z"/><path class="cls-1" d="M14.39,39.23H14V38c0-.21-.12-.3-.32-.3a.92.92,0,0,0-.28,0v1.5H13V37.57a1.57,1.57,0,0,1,.69-.14,1,1,0,0,1,.47.11.5.5,0,0,1,.23.44l0,1.25"/><path class="cls-1" d="M15.35,37a.15.15,0,0,1-.07.14.34.34,0,0,1-.16,0,.38.38,0,0,1-.16,0,.23.23,0,0,1-.07-.14.17.17,0,0,1,.07-.13.2.2,0,0,1,.16-.07.34.34,0,0,1,.16,0,.19.19,0,0,1,.07.16m-.41.53h.41v1.77h-.41Z"/><path class="cls-1" d="M16.9,38.73a.56.56,0,0,1-.19.41.69.69,0,0,1-.43.13.78.78,0,0,1-.48-.13l.12-.25a.59.59,0,0,0,.34.09.27.27,0,0,0,.18-.07.26.26,0,0,0,.07-.18c0-.14-.09-.23-.25-.3a.52.52,0,0,1-.41-.5.42.42,0,0,1,.16-.36.58.58,0,0,1,.39-.14,1,1,0,0,1,.45.11l-.09.23a.42.42,0,0,0-.27-.09.26.26,0,0,0-.19.07.21.21,0,0,0-.06.16q0,.17.27.27a.61.61,0,0,1,.39.55"/><path class="cls-1" d="M18.15,39.2a.41.41,0,0,1-.21,0,.47.47,0,0,1-.36-.14.46.46,0,0,1-.14-.34v-1h-.2v-.25h.2v-.6l.41-.11v.71h.3v.25h-.3v1c0,.16.07.23.18.23s.07,0,.09,0v.25"/><path class="cls-1" d="M19.44,37.43l-.07.3a.36.36,0,0,0-.18,0,.48.48,0,0,0-.18,0v1.48H18.6V37.57a2.12,2.12,0,0,1,.84-.14"/><path class="cls-1" d="M21.1,39.14a1.26,1.26,0,0,1-.63.13c-.48,0-.73-.18-.73-.54a.5.5,0,0,1,.34-.5,1.79,1.79,0,0,1,.64-.14V38c0-.21-.12-.3-.34-.3a1.19,1.19,0,0,0-.44.11l-.09-.22a1.38,1.38,0,0,1,.62-.14c.43,0,.66.21.66.61l0,1.1M20.74,39v-.73a1.85,1.85,0,0,0-.41.09.34.34,0,0,0-.2.34c0,.23.11.32.36.32a.51.51,0,0,0,.25,0"/><path class="cls-1" d="M22.69,39.14a.53.53,0,0,1-.4.11.62.62,0,0,1-.55-.3,1.24,1.24,0,0,1,0-1.22.57.57,0,0,1,.55-.3.71.71,0,0,1,.4.11l-.09.23a.38.38,0,0,0-.22-.07c-.25,0-.39.21-.39.64a1,1,0,0,0,.07.41.32.32,0,0,0,.32.23.52.52,0,0,0,.25-.07l.06.23"/><path class="cls-1" d="M23.56,37a.15.15,0,0,1-.07.14s-.09,0-.16,0a.38.38,0,0,1-.16,0A.23.23,0,0,1,23.1,37a.17.17,0,0,1,.07-.13.2.2,0,0,1,.16-.07.34.34,0,0,1,.16,0,.3.3,0,0,1,.07.16m-.43.53h.41v1.77h-.41Z"/><path class="cls-1" d="M25.49,38.34a1.07,1.07,0,0,1-.16.64.66.66,0,0,1-.57.27A.64.64,0,0,1,24.2,39a1.36,1.36,0,0,1,0-1.28.64.64,0,0,1,.56-.27.66.66,0,0,1,.57.27,1.44,1.44,0,0,1,.16.64m-.41,0c0-.43-.11-.66-.34-.66s-.34.23-.34.66.11.64.34.64.34-.21.34-.64m.12-1.52-.39.45h-.23l.23-.45a.37.37,0,0,1,.23-.07c.09,0,.16,0,.16.07"/><path class="cls-1" d="M27.36,39.23H27V38c0-.21-.12-.3-.32-.3a.86.86,0,0,0-.27,0v1.5H26V37.57a1.52,1.52,0,0,1,.68-.14,1.06,1.06,0,0,1,.48.11.52.52,0,0,1,.22.44l0,1.25"/><path class="cls-1" d="M79.75,33.13H79v.75h.66v.3H79v1.11h-.46V32.81h1.21Z"/><path class="cls-1" d="M81.32,35.2a1.27,1.27,0,0,1-.64.14c-.48,0-.73-.18-.73-.55a.52.52,0,0,1,.35-.5,1.76,1.76,0,0,1,.63-.13v-.1c0-.2-.11-.29-.36-.29a1.18,1.18,0,0,0-.46.11L80,33.66a1.26,1.26,0,0,1,.62-.14c.43,0,.66.2.66.61l0,1.07Zm-.39-.13v-.73a2,2,0,0,0-.41.09.36.36,0,0,0-.2.34c0,.23.11.32.36.32A.48.48,0,0,0,80.93,35.07Z"/><path class="cls-1" d="M82.8,35.2a.56.56,0,0,1-.41.12.64.64,0,0,1-.55-.3,1.15,1.15,0,0,1-.16-.64,1,1,0,0,1,.16-.61.6.6,0,0,1,.55-.3.67.67,0,0,1,.41.12l-.09.22a.44.44,0,0,0-.23-.06c-.25,0-.39.2-.39.63a1,1,0,0,0,.07.41.32.32,0,0,0,.32.23.43.43,0,0,0,.25-.07Z"/><path class="cls-1" d="M84.48,35.2a1.52,1.52,0,0,1-.68.14c-.46,0-.68-.21-.68-.59V33.54h.4v1.23a.27.27,0,0,0,.3.3.51.51,0,0,0,.27-.07V33.52h.41l0,1.68Z"/><path class="cls-1" d="M85.32,35.29h-.41v-2.5h.41Z"/><path class="cls-1" d="M86.57,35.27a.44.44,0,0,1-.2,0,.5.5,0,0,1-.37-.14.48.48,0,0,1-.13-.36V33.75h-.21V33.5h.21v-.59l.41-.12v.71h.29v.25h-.29v1c0,.16.06.23.18.23a.15.15,0,0,0,.09,0l0,.27Z"/><path class="cls-1" d="M88.19,35.2a1.29,1.29,0,0,1-.64.14c-.48,0-.73-.18-.73-.55a.53.53,0,0,1,.34-.5,1.88,1.88,0,0,1,.64-.13v-.1c0-.2-.11-.29-.36-.29a1.18,1.18,0,0,0-.46.11l-.09-.22a1.25,1.25,0,0,1,.61-.14c.44,0,.66.2.66.61l0,1.07Zm-.37-.13v-.73a2,2,0,0,0-.41.09.36.36,0,0,0-.2.34c0,.23.11.32.36.32A.51.51,0,0,0,87.82,35.07Z"/><path class="cls-1" d="M90,35.18a1.22,1.22,0,0,1-.61.14.82.82,0,0,1-.62-.25,1,1,0,0,1-.2-.66,1.08,1.08,0,0,1,.18-.64.71.71,0,0,1,.59-.27,1.19,1.19,0,0,1,.28,0v-.73H90l0,2.39ZM89.57,35V33.75a.32.32,0,0,0-.18,0c-.32,0-.45.23-.45.69s.13.66.43.66A.44.44,0,0,0,89.57,35Z"/><path class="cls-1" d="M79.86,39.11a1.22,1.22,0,0,1-.61.14.75.75,0,0,1-.61-.25.93.93,0,0,1-.21-.66,1.1,1.1,0,0,1,.18-.64.71.71,0,0,1,.59-.27,1.19,1.19,0,0,1,.28,0v-.72h.41l0,2.38Zm-.41-.18V37.66a.47.47,0,0,0-.18,0c-.32,0-.45.22-.45.68s.13.66.43.66C79.34,39,79.41,39,79.45,38.93Z"/><path class="cls-1" d="M81.71,38.32l-1.1.16c0,.34.21.5.48.5a1.11,1.11,0,0,0,.46-.09l.09.25a1.15,1.15,0,0,1-.59.13.8.8,0,0,1-.64-.27,1,1,0,0,1-.21-.66,1,1,0,0,1,.19-.64.66.66,0,0,1,.59-.27.65.65,0,0,1,.57.27A1,1,0,0,1,81.71,38.32Zm-.39-.16c0-.34-.11-.5-.34-.5a.33.33,0,0,0-.32.2,1,1,0,0,0-.07.41Z"/><path class="cls-1" d="M84.32,39.11a.83.83,0,0,1-.52.14.86.86,0,0,1-.75-.41,1.64,1.64,0,0,1-.21-.86,1.55,1.55,0,0,1,.23-.87.83.83,0,0,1,.73-.41.85.85,0,0,1,.5.14l-.09.27a.52.52,0,0,0-.32-.09.47.47,0,0,0-.46.34,1.77,1.77,0,0,0-.11.62,1.72,1.72,0,0,0,.11.59.47.47,0,0,0,.46.32.53.53,0,0,0,.32-.1Z"/><path class="cls-1" d="M85,36.93a.14.14,0,0,1-.07.14.19.19,0,0,1-.15,0,.34.34,0,0,1-.16,0,.19.19,0,0,1-.07-.14.14.14,0,0,1,.07-.14.21.21,0,0,1,.16-.06.33.33,0,0,1,.15,0A.27.27,0,0,1,85,36.93Zm0,2.3h-.41V37.45H85Z"/><path class="cls-1" d="M86.82,38.32l-1.09.16a.46.46,0,0,0,.48.5,1,1,0,0,0,.45-.09l.09.25a1.15,1.15,0,0,1-.59.13.79.79,0,0,1-.63-.27,1,1,0,0,1-.21-.66,1.1,1.1,0,0,1,.18-.64.68.68,0,0,1,.59-.27.64.64,0,0,1,.57.27A.82.82,0,0,1,86.82,38.32Zm-.36-.16c0-.34-.12-.5-.34-.5a.33.33,0,0,0-.32.2,1,1,0,0,0-.07.41Z"/><path class="cls-1" d="M88.6,39.23h-.41V38c0-.21-.12-.3-.32-.3a.86.86,0,0,0-.27,0v1.5h-.41V37.54a1.56,1.56,0,0,1,.7-.13.92.92,0,0,1,.48.11.51.51,0,0,1,.23.43v1.28Z"/><path class="cls-1" d="M90.07,39.14a.55.55,0,0,1-.41.11.61.61,0,0,1-.54-.3,1.11,1.11,0,0,1-.16-.63,1.08,1.08,0,0,1,.16-.62.59.59,0,0,1,.54-.29.65.65,0,0,1,.41.11l-.09.23a.34.34,0,0,0-.22-.07c-.25,0-.39.21-.39.64a1,1,0,0,0,.07.41.31.31,0,0,0,.32.22.51.51,0,0,0,.25-.06Z"/><path class="cls-1" d="M90.82,36.93a.16.16,0,0,1-.06.14.22.22,0,0,1-.16,0,.34.34,0,0,1-.16,0,.19.19,0,0,1-.07-.14.14.14,0,0,1,.07-.14.21.21,0,0,1,.16-.06.38.38,0,0,1,.16,0A.32.32,0,0,1,90.82,36.93Zm0,2.3h-.41V37.45h.41Z"/><path class="cls-1" d="M92.53,39.11a1.27,1.27,0,0,1-.64.14c-.47,0-.72-.18-.72-.55a.51.51,0,0,1,.34-.5,2,2,0,0,1,.63-.13V38c0-.21-.11-.3-.36-.3a1.39,1.39,0,0,0-.46.11l-.09-.22a1.41,1.41,0,0,1,.62-.14c.43,0,.66.21.66.61l0,1.07ZM92.17,39v-.73a1.71,1.71,0,0,0-.41.09.35.35,0,0,0-.21.34c0,.23.12.32.37.32A.51.51,0,0,0,92.17,39Z"/><path class="cls-1" d="M94,38.7a.51.51,0,0,1-.21.41.69.69,0,0,1-.43.14.85.85,0,0,1-.5-.14l.11-.25a.54.54,0,0,0,.34.09.42.42,0,0,0,.21-.06.32.32,0,0,0,.07-.19c0-.13-.1-.22-.25-.29s-.41-.27-.41-.5a.49.49,0,0,1,.16-.39.56.56,0,0,1,.38-.14.76.76,0,0,1,.46.14l-.09.23a.44.44,0,0,0-.28-.09.24.24,0,0,0-.18.07.23.23,0,0,0-.07.18c0,.11.09.2.28.27A.6.6,0,0,1,94,38.7Z"/><path class="cls-1" d="M106.47,33.13h-.73v.73h.66v.3h-.66v1.09h-.45V32.81h1.18Z"/><path class="cls-1" d="M108,35.16a1.3,1.3,0,0,1-.64.13c-.48,0-.71-.18-.71-.52a.53.53,0,0,1,.35-.5,1.84,1.84,0,0,1,.63-.14V34c0-.18-.11-.29-.34-.29a1,1,0,0,0-.43.11l-.09-.23a1.31,1.31,0,0,1,.59-.13c.43,0,.64.2.64.61Zm-.37-.14v-.73a2,2,0,0,0-.41.09.37.37,0,0,0-.2.34c0,.23.11.32.36.32A.27.27,0,0,0,107.65,35Z"/><path class="cls-1" d="M109.47,35.18a.56.56,0,0,1-.41.11.6.6,0,0,1-.54-.29,1,1,0,0,1-.16-.62,1,1,0,0,1,.16-.61.61.61,0,0,1,.54-.3.67.67,0,0,1,.41.12l-.09.22a.44.44,0,0,0-.23-.06c-.25,0-.38.2-.38.61a1.22,1.22,0,0,0,.06.41.31.31,0,0,0,.3.23.39.39,0,0,0,.23-.07Z"/><path class="cls-1" d="M111.13,35.16a1.53,1.53,0,0,1-.68.13c-.46,0-.68-.2-.68-.59V33.52h.41v1.23c0,.2.09.29.29.29a.33.33,0,0,0,.25-.07V33.52h.41v1.64Z"/><path class="cls-1" d="M112,35.25h-.41V32.79H112Z"/><path class="cls-1" d="M113.2,35.25a.46.46,0,0,1-.2,0,.49.49,0,0,1-.35-.11.58.58,0,0,1-.13-.34V33.79h-.21v-.25h.21V33l.41-.11v.7h.27v.25h-.27v1c0,.15.07.22.18.22a.18.18,0,0,0,.09,0v.23Z"/><path class="cls-1" d="M114.79,35.16a1.26,1.26,0,0,1-.63.13c-.48,0-.71-.18-.71-.52a.52.52,0,0,1,.34-.5,1.91,1.91,0,0,1,.64-.14V34c0-.18-.12-.29-.34-.29a1,1,0,0,0-.43.11l-.1-.23a1.38,1.38,0,0,1,.6-.13c.43,0,.63.2.63.61v1Zm-.38-.14v-.73a1.71,1.71,0,0,0-.41.09.36.36,0,0,0-.21.34c0,.23.12.32.37.32S114.36,35.07,114.41,35Z"/><path class="cls-1" d="M116.54,35.16a1.23,1.23,0,0,1-.61.13.75.75,0,0,1-.61-.25.9.9,0,0,1-.21-.63,1.15,1.15,0,0,1,.18-.64.67.67,0,0,1,.57-.27,1.23,1.23,0,0,1,.27,0v-.73h.41v2.37Zm-.38-.16V33.75a.38.38,0,0,0-.19,0c-.29,0-.45.23-.45.66s.14.66.43.66A2,2,0,0,0,116.16,35Z"/><path class="cls-1" d="M106.54,39.16a1.26,1.26,0,0,1-.62.14.77.77,0,0,1-.61-.26.88.88,0,0,1-.2-.63,1.08,1.08,0,0,1,.18-.64.66.66,0,0,1,.57-.27,1.23,1.23,0,0,1,.27,0v-.73h.41v2.37Zm-.41-.16V37.75a.52.52,0,0,0-.18,0c-.3,0-.46.22-.46.66s.14.65.43.65A.36.36,0,0,0,106.13,39Z"/><path class="cls-1" d="M108.36,38.39l-1.07.15c0,.32.18.5.48.5a.88.88,0,0,0,.43-.09l.09.25a1,1,0,0,1-.57.12.75.75,0,0,1-.61-.25,1,1,0,0,1-.21-.66,1.15,1.15,0,0,1,.18-.64.67.67,0,0,1,.57-.27.64.64,0,0,1,.57.27A1.21,1.21,0,0,1,108.36,38.39Zm-.39-.16c0-.34-.11-.5-.34-.5a.33.33,0,0,0-.32.2,1.12,1.12,0,0,0-.07.41Z"/><path class="cls-1" d="M110.06,39.27h-.45V36.84h.45Z"/><path class="cls-1" d="M111.86,39.27h-.41V38c0-.2-.11-.29-.32-.29a1.26,1.26,0,0,0-.27,0v1.48h-.41V37.59a1.52,1.52,0,0,1,.68-.14.89.89,0,0,1,.48.12.47.47,0,0,1,.23.43l0,1.27Z"/><path class="cls-1" d="M113.63,39.3a.76.76,0,0,1-.18.52.78.78,0,0,1-.52.18,1.47,1.47,0,0,1-.59-.11l.11-.25a1,1,0,0,0,.41.11.36.36,0,0,0,.41-.39v-.11a.56.56,0,0,1-.32.07.64.64,0,0,1-.55-.28,1,1,0,0,1-.15-.59,1,1,0,0,1,.2-.68.77.77,0,0,1,.64-.27.94.94,0,0,1,.57.14l0,1.66Zm-.38-.3V37.75a.54.54,0,0,0-.21,0c-.29,0-.43.23-.43.69s.14.63.41.63A.21.21,0,0,0,113.25,39Z"/><path class="cls-1" d="M115.43,38.39l-1.07.15c0,.32.18.5.48.5a.83.83,0,0,0,.43-.09l.09.25a1,1,0,0,1-.57.12.75.75,0,0,1-.61-.25,1,1,0,0,1-.21-.66,1.08,1.08,0,0,1,.19-.64.73.73,0,0,1,1.13,0A.86.86,0,0,1,115.43,38.39Zm-.36-.16c0-.34-.12-.5-.35-.5a.32.32,0,0,0-.31.2.94.94,0,0,0-.07.41Z"/><path class="cls-1" d="M117.18,39.27h-.41V38c0-.2-.11-.29-.32-.29a1.26,1.26,0,0,0-.27,0v1.48h-.41V37.59a1.52,1.52,0,0,1,.68-.14.89.89,0,0,1,.48.12.47.47,0,0,1,.23.43l0,1.27Z"/><path class="cls-1" d="M118,37a.16.16,0,0,1-.07.14s-.09,0-.16,0a.33.33,0,0,1-.15,0,.16.16,0,0,1-.07-.14.17.17,0,0,1,.07-.14.19.19,0,0,1,.15,0,.34.34,0,0,1,.16,0A.21.21,0,0,1,118,37Zm0,2.25h-.41V37.52H118Z"/><path class="cls-1" d="M119.82,38.39l-1.07.15c0,.32.18.5.48.5a.83.83,0,0,0,.43-.09l.09.25a1,1,0,0,1-.57.12.75.75,0,0,1-.61-.25,1,1,0,0,1-.21-.66,1.15,1.15,0,0,1,.18-.64.67.67,0,0,1,.57-.27.64.64,0,0,1,.57.27A.86.86,0,0,1,119.82,38.39Zm-.37-.16c0-.34-.11-.5-.34-.5a.34.34,0,0,0-.32.2,1.15,1.15,0,0,0-.06.41Z"/><path class="cls-1" d="M121,37.5l-.06.29a.62.62,0,0,0-.19,0,.35.35,0,0,0-.18,0V39.3h-.41V37.64A1.7,1.7,0,0,1,121,37.5Z"/><path class="cls-1" d="M121.91,36.88l-.39.46h-.22l.22-.46a.44.44,0,0,1,.23-.06C121.84,36.82,121.89,36.84,121.91,36.88Zm-.2,2.39h-.41V37.52h.41Z"/><path class="cls-1" d="M123.39,39.18a1.29,1.29,0,0,1-.64.14c-.48,0-.7-.18-.7-.53a.54.54,0,0,1,.34-.5,1.89,1.89,0,0,1,.63-.13v-.09c0-.18-.11-.3-.34-.3a1,1,0,0,0-.43.12l-.09-.23a1.35,1.35,0,0,1,.59-.14.56.56,0,0,1,.64.62v1ZM123,39v-.72a1.72,1.72,0,0,0-.4.09.35.35,0,0,0-.21.34c0,.23.11.32.36.32A.37.37,0,0,0,123,39Z"/><path class="cls-1" d="M36.27,33.13h-.73v.73h.64v.3h-.64v1.09h-.43V32.84h1.16v.29Z"/><path class="cls-1" d="M37.82,35.13a1.29,1.29,0,0,1-.64.14c-.48,0-.7-.18-.7-.52a.52.52,0,0,1,.34-.5,1.63,1.63,0,0,1,.63-.14V34c0-.18-.11-.3-.34-.3a1,1,0,0,0-.43.12l-.09-.23a1.35,1.35,0,0,1,.59-.14c.43,0,.64.21.64.59v1.07ZM37.45,35v-.71a1.49,1.49,0,0,0-.41.09.37.37,0,0,0-.2.34c0,.21.11.32.36.32A.51.51,0,0,0,37.45,35Z"/><path class="cls-1" d="M39.25,35.16a.74.74,0,0,1-.41.11.54.54,0,0,1-.52-.3,1,1,0,0,1-.16-.61,1,1,0,0,1,.16-.61.58.58,0,0,1,.52-.3.74.74,0,0,1,.41.11l-.09.23a.45.45,0,0,0-.23-.07c-.25,0-.39.21-.39.62a1.25,1.25,0,0,0,.07.41.3.3,0,0,0,.3.22.39.39,0,0,0,.23-.06Z"/><path class="cls-1" d="M40.89,35.13a1.46,1.46,0,0,1-.66.14c-.46,0-.68-.2-.68-.59V33.5h.38v1.2c0,.21.09.3.3.3a.46.46,0,0,0,.25-.07V33.5h.38l0,1.63Z"/><path class="cls-1" d="M41.73,35.22h-.39V32.79h.39Z"/><path class="cls-1" d="M42.93,35.22a.34.34,0,0,1-.2.05.55.55,0,0,1-.34-.11.48.48,0,0,1-.14-.34v-1h-.18v-.25h.18V33l.39-.11v.68h.27v.25h-.27v1c0,.16.07.23.18.23a.18.18,0,0,0,.09,0l0,.22Z"/><path class="cls-1" d="M44.5,35.13a1.25,1.25,0,0,1-.63.14c-.48,0-.71-.18-.71-.52a.52.52,0,0,1,.34-.5,1.69,1.69,0,0,1,.64-.14V34c0-.18-.11-.3-.34-.3a1,1,0,0,0-.43.12l-.1-.23a1.39,1.39,0,0,1,.6-.14c.43,0,.63.21.63.59v1.07ZM44.14,35v-.71a1.49,1.49,0,0,0-.41.09.36.36,0,0,0-.21.34c0,.21.12.32.37.32A.47.47,0,0,0,44.14,35Z"/><path class="cls-1" d="M46.25,35.13a1.17,1.17,0,0,1-.61.14A.75.75,0,0,1,45,35a.91.91,0,0,1-.21-.64,1.12,1.12,0,0,1,.18-.63.65.65,0,0,1,.57-.28.66.66,0,0,1,.25,0v-.71h.39v2.34ZM45.87,35V33.72a.52.52,0,0,0-.18,0c-.3,0-.46.23-.46.66s.14.66.43.66A.81.81,0,0,0,45.87,35Z"/><path class="cls-1" d="M36.32,39.07a1.22,1.22,0,0,1-.62.13.75.75,0,0,1-.61-.25.9.9,0,0,1-.21-.63,1.08,1.08,0,0,1,.19-.64.64.64,0,0,1,.56-.27.94.94,0,0,1,.25,0v-.7h.39v2.34Zm-.41-.16V37.66a.55.55,0,0,0-.19,0c-.29,0-.45.22-.45.65s.14.66.43.66A.39.39,0,0,0,35.91,38.91Z"/><path class="cls-1" d="M38.11,38.32,37,38.48a.45.45,0,0,0,.48.47.83.83,0,0,0,.43-.09l.09.25a1,1,0,0,1-.56.12.78.78,0,0,1-.62-.25,1,1,0,0,1-.18-.64,1,1,0,0,1,.16-.61.65.65,0,0,1,.57-.28.57.57,0,0,1,.54.28A.79.79,0,0,1,38.11,38.32Zm-.36-.16c0-.32-.11-.5-.34-.5a.35.35,0,0,0-.32.2.94.94,0,0,0-.07.39Z"/><path class="cls-1" d="M41.14,39.18h-.46l-.18-.61h-.77l-.18.61h-.41l.79-2.41h.43Zm-.71-.89-.25-.84a1.17,1.17,0,0,1-.07-.29h0l-.06.29-.25.84Z"/><path class="cls-1" d="M42.36,37.43l-.06.3a.42.42,0,0,0-.19,0,.53.53,0,0,0-.18,0V39.2h-.38V37.57A1.28,1.28,0,0,1,42.36,37.43Z"/><path class="cls-1" d="M44,39.86h-.39v-.72a.83.83,0,0,1-.34.06.57.57,0,0,1-.52-.27.92.92,0,0,1-.16-.59,1.08,1.08,0,0,1,.2-.68.79.79,0,0,1,.64-.28,1.07,1.07,0,0,1,.57.14Zm-.39-1V37.68a.5.5,0,0,0-.2,0c-.3,0-.44.22-.44.68s.14.63.41.63A.26.26,0,0,0,43.57,38.91Z"/><path class="cls-1" d="M45.71,39.09a1.43,1.43,0,0,1-.66.14c-.46,0-.68-.21-.68-.59V37.45h.38v1.21c0,.2.09.29.3.29a.46.46,0,0,0,.25-.06V37.45h.39l0,1.64Z"/><path class="cls-1" d="M46.55,37a.19.19,0,0,1-.07.14s-.09,0-.16,0a.38.38,0,0,1-.16,0,.23.23,0,0,1-.07-.14.21.21,0,0,1,.07-.13.18.18,0,0,1,.16,0,.25.25,0,0,1,.16,0A.17.17,0,0,1,46.55,37Zm0,2.23h-.39V37.45h.39Z"/><path class="cls-1" d="M47.73,39.16a.46.46,0,0,1-.2,0,.48.48,0,0,1-.34-.11.42.42,0,0,1-.14-.34v-1h-.18v-.25h.18v-.57l.39-.12v.69h.27v.25h-.27v1c0,.16.06.22.18.22l.09,0,0,.23Z"/><path class="cls-1" d="M49.44,38.32l-1.07.16a.44.44,0,0,0,.48.47.85.85,0,0,0,.43-.09l.09.25a1.07,1.07,0,0,1-.57.12.75.75,0,0,1-.61-.25.92.92,0,0,1-.19-.64,1,1,0,0,1,.16-.61.65.65,0,0,1,.57-.28.6.6,0,0,1,.55.28A.83.83,0,0,1,49.44,38.32Zm-.37-.16c0-.32-.11-.5-.34-.5a.36.36,0,0,0-.32.2,1.14,1.14,0,0,0-.06.39Z"/><path class="cls-1" d="M50.82,39.09a.64.64,0,0,1-.4.11.58.58,0,0,1-.53-.29,1.08,1.08,0,0,1-.16-.62,1,1,0,0,1,.16-.61.63.63,0,0,1,.53-.3.63.63,0,0,1,.4.12l-.09.23a.32.32,0,0,0-.22-.07c-.25,0-.39.2-.39.61a1,1,0,0,0,.07.41c.07.16.16.23.29.23a.32.32,0,0,0,.23-.07Z"/><path class="cls-1" d="M51.89,39.16a.46.46,0,0,1-.2,0,.5.5,0,0,1-.34-.11.46.46,0,0,1-.14-.34v-1H51v-.25h.18v-.57l.39-.12v.69h.27v.25h-.25v1c0,.16.07.22.18.22a.18.18,0,0,0,.09,0Z"/><path class="cls-1" d="M53.55,39.09a1.4,1.4,0,0,1-.66.14c-.45,0-.68-.21-.68-.59V37.45h.39v1.21c0,.2.09.29.29.29a.42.42,0,0,0,.25-.06V37.45h.39l0,1.64Z"/><path class="cls-1" d="M54.83,37.43l-.07.3a.4.4,0,0,0-.18,0,.53.53,0,0,0-.19,0V39.2H54V37.57A1.3,1.3,0,0,1,54.83,37.43Z"/><path class="cls-1" d="M56.33,39.09a1.29,1.29,0,0,1-.64.14c-.48,0-.7-.19-.7-.53a.54.54,0,0,1,.34-.5,1.89,1.89,0,0,1,.63-.13V38c0-.19-.11-.3-.34-.3a1.19,1.19,0,0,0-.43.11l-.09-.22a1.35,1.35,0,0,1,.59-.14c.43,0,.64.21.64.59v1.07ZM56,39v-.7a1.25,1.25,0,0,0-.41.09.36.36,0,0,0-.2.34c0,.21.11.32.36.32A.52.52,0,0,0,56,39Z"/><path class="cls-1" d="M59,37.45l-.8,2.41h-.41l.27-.68-.57-1.73h.41l.3,1.12c0,.09,0,.16,0,.25h0s0-.14,0-.25l.32-1.12Z"/><path class="cls-1" d="M61.76,38a1.48,1.48,0,0,1-.23.88.91.91,0,0,1-.79.39,1.38,1.38,0,0,1-.68-.14v-2.2a1.49,1.49,0,0,1,.66-.14.92.92,0,0,1,.81.36A1.22,1.22,0,0,1,61.76,38Zm-.45,0c0-.61-.21-.93-.59-.93a.56.56,0,0,0-.23,0v1.82a.93.93,0,0,0,.23,0,.46.46,0,0,0,.47-.32A1.37,1.37,0,0,0,61.31,38Z"/><path class="cls-1" d="M62.49,37a.19.19,0,0,1-.07.14s-.09,0-.16,0a.38.38,0,0,1-.16,0A.22.22,0,0,1,62,37a.19.19,0,0,1,.06-.13.18.18,0,0,1,.16,0,.25.25,0,0,1,.16,0A.17.17,0,0,1,62.49,37Zm0,2.23h-.39V37.45h.39Z"/><path class="cls-1" d="M63.88,38.68a.5.5,0,0,1-.18.39.68.68,0,0,1-.44.13.73.73,0,0,1-.47-.13l.11-.25a.47.47,0,0,0,.32.09.24.24,0,0,0,.25-.25c0-.14-.09-.23-.25-.3a.48.48,0,0,1-.39-.47.44.44,0,0,1,.16-.37.58.58,0,0,1,.39-.14.91.91,0,0,1,.45.12l-.09.23a.38.38,0,0,0-.27-.09.26.26,0,0,0-.18.06.2.2,0,0,0-.07.16c0,.12.09.21.25.28S63.88,38.45,63.88,38.68Z"/><path class="cls-1" d="M65.58,38.32l-1.07.16A.45.45,0,0,0,65,39a.83.83,0,0,0,.43-.09l.09.25a1,1,0,0,1-.56.12.78.78,0,0,1-.62-.25,1,1,0,0,1-.18-.64,1,1,0,0,1,.16-.61.65.65,0,0,1,.57-.28.57.57,0,0,1,.54.28A.63.63,0,0,1,65.58,38.32Zm-.36-.16c0-.32-.11-.5-.34-.5a.35.35,0,0,0-.32.2.94.94,0,0,0-.07.39Z"/><path class="cls-1" d="M67.31,39.18h-.39V37.93c0-.18-.11-.27-.31-.27a1.35,1.35,0,0,0-.28,0v1.48H66V37.54a1.53,1.53,0,0,1,.68-.13c.45,0,.68.18.68.52v1.25Zm-1-2,.44,0a2.45,2.45,0,0,1,.34,0h.18v-.23h-1v.29Z"/><path class="cls-1" d="M69.11,38.32a1,1,0,0,1-.16.61.66.66,0,0,1-.55.27.58.58,0,0,1-.54-.27,1,1,0,0,1-.16-.61,1,1,0,0,1,.16-.62.62.62,0,0,1,.54-.27.63.63,0,0,1,.55.27A1.08,1.08,0,0,1,69.11,38.32Zm-.39,0c0-.43-.11-.64-.34-.64s-.34.21-.34.64.11.63.34.63S68.72,38.73,68.72,38.32Z"/><path class="cls-1" d="M137.08,33.13h-.75v.75H137v.3h-.66v1.11h-.46V32.84h1.21Z"/><path class="cls-1" d="M138.65,35.2a1.29,1.29,0,0,1-.64.14c-.48,0-.73-.18-.73-.55a.53.53,0,0,1,.34-.5,1.88,1.88,0,0,1,.64-.13v-.1c0-.2-.11-.29-.34-.29a1,1,0,0,0-.43.11l-.09-.22a1.22,1.22,0,0,1,.61-.14c.43,0,.66.2.66.61l0,1.07Zm-.39-.16v-.73a1.84,1.84,0,0,0-.41.1.33.33,0,0,0-.2.34c0,.22.11.32.36.32S138.21,35.09,138.26,35Z"/><path class="cls-1" d="M140.13,35.2a.58.58,0,0,1-.41.12.64.64,0,0,1-.55-.3,1,1,0,0,1-.16-.61,1.08,1.08,0,0,1,.16-.62.58.58,0,0,1,.55-.29.69.69,0,0,1,.41.11l-.1.23a.32.32,0,0,0-.22-.07c-.25,0-.39.2-.39.64a1,1,0,0,0,.07.41.32.32,0,0,0,.32.22.43.43,0,0,0,.25-.07Z"/><path class="cls-1" d="M141.81,35.18a1.52,1.52,0,0,1-.68.14c-.46,0-.69-.21-.69-.6v-1.2h.41v1.23c0,.2.09.29.3.29a.45.45,0,0,0,.27-.07V33.5h.41l0,1.68Z"/><path class="cls-1" d="M142.65,35.29h-.41V32.81h.41Z"/><path class="cls-1" d="M143.88,35.27a.54.54,0,0,1-.21,0,.47.47,0,0,1-.36-.14.49.49,0,0,1-.14-.36v-1H143v-.25h.2v-.59l.41-.12v.71h.3v.25h-.3v1c0,.16.07.23.18.23a.13.13,0,0,0,.09,0l0,.27Z"/><path class="cls-1" d="M145.49,35.2a1.25,1.25,0,0,1-.63.14c-.48,0-.73-.18-.73-.55a.51.51,0,0,1,.34-.5,1.77,1.77,0,0,1,.64-.13v-.1c0-.2-.12-.29-.35-.29a1,1,0,0,0-.43.11l-.09-.22a1.26,1.26,0,0,1,.62-.14c.43,0,.65.2.65.61V35.2Zm-.36-.16v-.73a1.69,1.69,0,0,0-.41.1.34.34,0,0,0-.21.34c0,.22.12.32.37.32A.31.31,0,0,0,145.13,35Z"/><path class="cls-1" d="M147.29,35.18a1.26,1.26,0,0,1-.62.14.8.8,0,0,1-.61-.25.93.93,0,0,1-.2-.64,1,1,0,0,1,.18-.64.7.7,0,0,1,.59-.27,1.14,1.14,0,0,1,.27,0v-.73h.41v2.37Zm-.41-.16V33.75a.34.34,0,0,0-.18,0c-.32,0-.46.23-.46.69s.14.66.43.66Z"/><path class="cls-1" d="M137.28,39.11a1.22,1.22,0,0,1-.61.14.79.79,0,0,1-.62-.25,1,1,0,0,1-.2-.66,1.1,1.1,0,0,1,.18-.64.71.71,0,0,1,.59-.27,1.23,1.23,0,0,1,.28,0v-.72h.41v2.38Zm-.41-.16V37.68a.47.47,0,0,0-.18,0c-.32,0-.45.23-.45.68s.13.66.43.66A.34.34,0,0,0,136.87,39Z"/><path class="cls-1" d="M139.1,38.34,138,38.5c0,.34.2.5.48.5a.91.91,0,0,0,.45-.09l.09.25a1.15,1.15,0,0,1-.59.11.71.71,0,0,1-.61-.27,1,1,0,0,1-.21-.66,1,1,0,0,1,.19-.64.66.66,0,0,1,.59-.27.65.65,0,0,1,.57.27A.94.94,0,0,1,139.1,38.34Zm-.36-.16c0-.34-.12-.5-.34-.5a.32.32,0,0,0-.32.21,1,1,0,0,0-.07.4Z"/><path class="cls-1" d="M142.72,39.23h-.43c0-.39-.1-.94-.16-1.64a1,1,0,0,1,0-.3h0a2.21,2.21,0,0,0-.07.3l-.48,1.64h-.25s-.18-.59-.48-1.64l-.07-.3h0a1.62,1.62,0,0,1,0,.3l-.16,1.64h-.38l.27-2.48h.45l.46,1.59.07.27h0a.83.83,0,0,1,.06-.27l.46-1.59h.45Z"/><path class="cls-1" d="M144.47,38.34l-1.09.16c0,.34.2.5.47.5a1,1,0,0,0,.46-.09l.09.25a1.15,1.15,0,0,1-.59.11.74.74,0,0,1-.62-.27,1,1,0,0,1-.2-.66,1.1,1.1,0,0,1,.18-.64.68.68,0,0,1,.59-.27.64.64,0,0,1,.57.27A1.07,1.07,0,0,1,144.47,38.34Zm-.37-.16c0-.34-.11-.5-.34-.5a.3.3,0,0,0-.31.21,1,1,0,0,0-.07.4Z"/><path class="cls-1" d="M146.2,39.11a1.26,1.26,0,0,1-.62.14A.77.77,0,0,1,145,39a.93.93,0,0,1-.21-.66,1,1,0,0,1,.19-.64.7.7,0,0,1,.59-.27,1.14,1.14,0,0,1,.27,0v-.72h.41v2.38Zm-.41-.16V37.68a.52.52,0,0,0-.18,0c-.32,0-.46.23-.46.68s.14.66.43.66A.3.3,0,0,0,145.79,39Z"/><path class="cls-1" d="M147.08,37c0,.07,0,.12-.06.14a.42.42,0,0,1-.16,0,.34.34,0,0,1-.16,0,.19.19,0,0,1-.07-.14.15.15,0,0,1,.07-.13.19.19,0,0,1,.16-.07.42.42,0,0,1,.16,0A.29.29,0,0,1,147.08,37Zm0,2.28h-.41V37.45h.41Z"/><path class="cls-1" d="M148.54,39.14a.56.56,0,0,1-.41.11.62.62,0,0,1-.55-.3,1.24,1.24,0,0,1,0-1.22.58.58,0,0,1,.55-.3.74.74,0,0,1,.41.11l-.09.23a.45.45,0,0,0-.23-.07c-.25,0-.39.21-.39.64a1.21,1.21,0,0,0,.07.41.32.32,0,0,0,.32.23.52.52,0,0,0,.25-.07Z"/><path class="cls-1" d="M149.29,37c0,.07,0,.12-.07.14a.34.34,0,0,1-.16,0,.38.38,0,0,1-.16,0,.23.23,0,0,1-.07-.14.17.17,0,0,1,.07-.13.2.2,0,0,1,.16-.07.34.34,0,0,1,.16,0A.25.25,0,0,1,149.29,37Zm0,2.28h-.41V37.45h.41Z"/><path class="cls-1" d="M151.11,39.23h-.41V38c0-.21-.11-.3-.32-.3a.86.86,0,0,0-.27,0v1.5h-.41V37.54a1.53,1.53,0,0,1,.68-.13.92.92,0,0,1,.48.11.51.51,0,0,1,.23.43v1.28Z"/><path class="cls-1" d="M152.81,39.14a1.26,1.26,0,0,1-.63.13c-.48,0-.73-.18-.73-.54a.5.5,0,0,1,.34-.5,1.79,1.79,0,0,1,.64-.14V38c0-.21-.12-.3-.34-.3a1.39,1.39,0,0,0-.46.11l-.09-.22a1.37,1.37,0,0,1,.61-.14c.44,0,.66.21.66.61v1.1Zm-.36-.16v-.73a2,2,0,0,0-.41.09.34.34,0,0,0-.2.34c0,.23.11.32.36.32A.27.27,0,0,0,152.45,39Z"/><path class="cls-2" d="M7.8,1.75s6.16-3,15.44,0c-.09,9.35-.14,15-.14,15a10.78,10.78,0,0,1-7.41,3.18,10.2,10.2,0,0,1-7.34-2.41Z"/><path class="cls-3" d="M22.69,17.78a13.4,13.4,0,0,1-7,2.12,6.35,6.35,0,0,1-.07-1.25c.05-.8.48-.57.78-1.19a5.59,5.59,0,0,0,.38-.91s-.2-3.77-.25-5.38a36.06,36.06,0,0,0-.38-3.69C16,6.66,15.78,6,15.67,5.21c-.16-1.14-.37-2.41-.37-2.41A26.83,26.83,0,0,0,14.76,6c-.09.72-.21,1.5-.27,2.22-.19,1.53-.66,5.62-.75,5.85s-.12-.09-.12-.09.27-4.3.37-6.16c0-.91.11-1.94.22-2.92.09-.72.21-1.43.34-2.06a8.35,8.35,0,0,1,.64-1.53,3.3,3.3,0,0,1,.91,1.8c.43,1.93.68,2.18,1,4.23s.59,3.55.64,3.82a23.16,23.16,0,0,1-.18,5.14c-.07.32-.07.45-.3.66a2.59,2.59,0,0,0-.84,1.5c0,.38-.07.38,0,.61,0,0,.66,1,4.44-1.27a2.35,2.35,0,0,0,1.18-2V2.07A25.4,25.4,0,0,0,15.44.8a23.79,23.79,0,0,0-6.5,1.27V15.8c0,.85.11,2.44,1.34,3,0,0-3.21-1.09-3.21-3V.91A57.37,57.37,0,0,1,15.46,0,59.56,59.56,0,0,1,24,.91V15.83a2.46,2.46,0,0,1-1.26,2"/><path class="cls-3" d="M69.36,6.25a2.84,2.84,0,0,1-1.39.3A1.76,1.76,0,0,1,66.61,6a2.16,2.16,0,0,1-.48-1.48A2.32,2.32,0,0,1,66.61,3a1.56,1.56,0,0,1,1.25-.54,2.08,2.08,0,0,1,.59.07V1h.88l0,5.29Zm-.89-.38V3a1.2,1.2,0,0,0-.39,0c-.7,0-1,.5-1,1.5S67.36,6,68,6a.82.82,0,0,0,.45-.09"/><path class="cls-3" d="M73.45,4.46,71,4.8c.07.73.43,1.11,1.09,1.11a2.05,2.05,0,0,0,1-.22l.2.56A2.65,2.65,0,0,1,72,6.53,1.73,1.73,0,0,1,70.65,6a2.26,2.26,0,0,1-.5-1.52A2.28,2.28,0,0,1,70.61,3a1.48,1.48,0,0,1,1.25-.55,1.46,1.46,0,0,1,1.2.52,2.29,2.29,0,0,1,.39,1.53m-.84-.37c0-.75-.25-1.13-.77-1.13a.72.72,0,0,0-.64.34,1.91,1.91,0,0,0-.23,1Z"/><rect class="cls-3" x="26.88" y="8.35" width="1.41" height="8.71"/><path class="cls-3" d="M34.77,13.94a3.69,3.69,0,0,1-.64,2.3,2.3,2.3,0,0,1-2,.93,2.33,2.33,0,0,1-2-.93,3.76,3.76,0,0,1-.64-2.3,3.8,3.8,0,0,1,.64-2.32,2.33,2.33,0,0,1,2-.93,2.3,2.3,0,0,1,2,.93,3.77,3.77,0,0,1,.64,2.32m-1.39,0c0-1.55-.38-2.34-1.18-2.34S31,12.37,31,13.94s.38,2.27,1.18,2.27,1.18-.77,1.18-2.27"/><path class="cls-3" d="M39.61,15.26A1.73,1.73,0,0,1,39,16.6a2.34,2.34,0,0,1-1.62.55,3,3,0,0,1-1.72-.46l.36-.91a1.74,1.74,0,0,0,1.16.37,1,1,0,0,0,.68-.25.94.94,0,0,0,.07-1.26,1.61,1.61,0,0,0-.7-.4,1.83,1.83,0,0,1-1.41-1.76,1.69,1.69,0,0,1,.54-1.27,2,2,0,0,1,1.43-.52,2.84,2.84,0,0,1,1.62.43l-.34.82a1.57,1.57,0,0,0-1-.34.92.92,0,0,0-.66.22.79.79,0,0,0-.23.6c0,.41.32.72.93,1,1,.44,1.5,1,1.5,1.87"/><path class="cls-3" d="M50,17.06H48.37l-.66-2.23H44.93l-.68,2.23H42.82l2.87-8.65h1.5Zm-2.55-3.17-.89-3a6,6,0,0,1-.23-1h0c0,.23-.11.57-.23,1l-.93,3Z"/><path class="cls-3" d="M55.78,17.06H54.37V12.64c0-.68-.36-1-1.11-1a2.76,2.76,0,0,0-1,.18v5.28H50.87V11.17a5.75,5.75,0,0,1,2.43-.46,2.81,2.81,0,0,1,1.94.57,1.69,1.69,0,0,1,.54,1.32v4.46Z"/><path class="cls-3" d="M62.15,16.71a4.5,4.5,0,0,1-2.16.46,2.71,2.71,0,0,1-2.14-.84A3.33,3.33,0,0,1,57.08,14a3.49,3.49,0,0,1,.77-2.39,2.47,2.47,0,0,1,2-.86,3.54,3.54,0,0,1,.93.11V8.37h1.41v8.34Zm-1.41-.59V11.64a2.79,2.79,0,0,0-.61-.09c-1.1,0-1.64.8-1.64,2.37S59,16.26,60,16.26a1.46,1.46,0,0,0,.71-.14"/><path class="cls-3" d="M68.56,13.89l-3.82.55c.12,1.16.68,1.73,1.71,1.73A3.59,3.59,0,0,0,68,15.83l.34.88a4.13,4.13,0,0,1-2,.44,2.71,2.71,0,0,1-2.11-.85,3.36,3.36,0,0,1-.78-2.41,3.56,3.56,0,0,1,.71-2.36,2.37,2.37,0,0,1,2-.84,2.24,2.24,0,0,1,1.89.82,3.87,3.87,0,0,1,.59,2.38m-1.32-.54c0-1.18-.41-1.78-1.23-1.78a1.18,1.18,0,0,0-1,.53,3,3,0,0,0-.36,1.64Z"/><path class="cls-3" d="M73.41,15.26a1.74,1.74,0,0,1-.62,1.34,2.33,2.33,0,0,1-1.61.55,3,3,0,0,1-1.73-.46l.36-.91a1.74,1.74,0,0,0,1.16.37.94.94,0,0,0,.68-.25.81.81,0,0,0,.28-.64.85.85,0,0,0-.21-.62,1.55,1.55,0,0,0-.7-.4,1.83,1.83,0,0,1-1.41-1.76,1.69,1.69,0,0,1,.54-1.27,2,2,0,0,1,1.44-.52,2.81,2.81,0,0,1,1.61.43l-.34.82a1.5,1.5,0,0,0-1-.34.94.94,0,0,0-.66.22.79.79,0,0,0-.23.6c0,.41.32.72.93,1,1,.44,1.51,1,1.51,1.87"/><path class="cls-3" d="M34.29,6.48h-.88V3.66c0-.43-.23-.66-.71-.66a1.66,1.66,0,0,0-.61.12V6.48H31.2V2.73a3.85,3.85,0,0,1,1.55-.3A1.75,1.75,0,0,1,34,2.8a1,1,0,0,1,.34.84l0,2.84Z"/><path class="cls-3" d="M36.23,1.36a.45.45,0,0,1-.14.32.48.48,0,0,1-.34.14.46.46,0,0,1-.34-.14.33.33,0,0,1-.16-.32.43.43,0,0,1,.13-.31.48.48,0,0,1,.34-.14.5.5,0,0,1,.35.14.4.4,0,0,1,.16.31m0,5.12h-.89v-4h.89Z"/><path class="cls-3" d="M40.27,2.5,39,6.48h-.86l-1.28-4h1l.7,2.57a2,2,0,0,1,.09.55h0c0-.14.06-.32.11-.55l.7-2.57Z"/><path class="cls-3" d="M44.05,4.46l-2.44.36c.07.73.44,1.12,1.1,1.12a2,2,0,0,0,1-.23l.2.57a2.79,2.79,0,0,1-1.32.27A1.68,1.68,0,0,1,41.25,6a2.21,2.21,0,0,1-.5-1.52A2.28,2.28,0,0,1,41.21,3a1.51,1.51,0,0,1,1.25-.55,1.47,1.47,0,0,1,1.2.53,2.26,2.26,0,0,1,.39,1.5m-.84-.34C43.21,3.37,43,3,42.43,3a.72.72,0,0,0-.63.34,1.93,1.93,0,0,0-.23,1.05Z"/><path class="cls-3" d="M46.78,2.43l-.19.66a1.4,1.4,0,0,0-.4-.07.82.82,0,0,0-.44.1V6.46h-.88V2.71a4.29,4.29,0,0,1,1.91-.28"/><path class="cls-3" d="M49.64,5.34a1.17,1.17,0,0,1-.38.87,1.48,1.48,0,0,1-1,.36,1.8,1.8,0,0,1-1.09-.29l.23-.57a1.09,1.09,0,0,0,.75.23.55.55,0,0,0,.59-.57A.55.55,0,0,0,48.57,5a1,1,0,0,0-.45-.25,1.15,1.15,0,0,1-.91-1.11,1.09,1.09,0,0,1,.34-.82,1.25,1.25,0,0,1,.91-.34,1.8,1.8,0,0,1,1,.27l-.22.52A1.11,1.11,0,0,0,48.62,3a.5.5,0,0,0-.41.16.55.55,0,0,0-.16.37c0,.25.2.48.59.63.68.23,1,.62,1,1.16"/><path class="cls-3" d="M51.39,1.36a.44.44,0,0,1-.13.32.48.48,0,0,1-.34.14.5.5,0,0,1-.35-.14.41.41,0,0,1-.13-.32.43.43,0,0,1,.13-.31.5.5,0,0,1,.35-.14.48.48,0,0,1,.34.14.43.43,0,0,1,.13.31m0,5.12h-.89v-4h.89Z"/><path class="cls-3" d="M55.42,6.25a2.84,2.84,0,0,1-1.39.3A1.76,1.76,0,0,1,52.67,6a2.16,2.16,0,0,1-.48-1.48A2.32,2.32,0,0,1,52.67,3a1.56,1.56,0,0,1,1.25-.54,2.08,2.08,0,0,1,.59.07V1h.89l0,5.29Zm-.89-.36V3a1.2,1.2,0,0,0-.39,0c-.7,0-1,.5-1,1.5S53.42,6,54.08,6a.8.8,0,0,0,.45-.07"/><path class="cls-3" d="M59.24,6.25a3.1,3.1,0,0,1-1.43.3c-1.07,0-1.62-.41-1.62-1.21a1.21,1.21,0,0,1,.66-1.09,4.21,4.21,0,0,1,1.57-.38V3.66c0-.43-.27-.66-.8-.66a2.42,2.42,0,0,0-1,.25l-.2-.52a2.92,2.92,0,0,1,1.36-.3c1,0,1.46.46,1.46,1.37V6.25Zm-.84-.31V4.3a3.11,3.11,0,0,0-1,.27A.79.79,0,0,0,57,5.3c0,.5.28.73.84.73a1.07,1.07,0,0,0,.53-.09"/><path class="cls-3" d="M63.29,6.25a2.87,2.87,0,0,1-1.39.3A1.8,1.8,0,0,1,60.53,6a2.21,2.21,0,0,1-.47-1.48A2.37,2.37,0,0,1,60.53,3a1.59,1.59,0,0,1,1.26-.54,2.08,2.08,0,0,1,.59.07V1h.88V6.25Zm-.89-.36V3A1.2,1.2,0,0,0,62,3c-.7,0-1,.5-1,1.5S61.28,6,61.94,6a.82.82,0,0,0,.46-.07"/><path class="cls-3" d="M26.86,1h.95V5.23c0,.48.25.71.75.71a1.94,1.94,0,0,0,.66-.12V1h1V6.23a3.82,3.82,0,0,1-1.66.3,1.87,1.87,0,0,1-1.3-.39,1.15,1.15,0,0,1-.36-.91Z"/><path class="cls-3" d="M54.94,25.29a1.25,1.25,0,0,1-.82.22,1.34,1.34,0,0,1-1.2-.65,3,3,0,0,1,0-2.78,1.45,1.45,0,0,1,2-.43l-.16.43a1.07,1.07,0,0,0-.52-.14.8.8,0,0,0-.76.55,2.53,2.53,0,0,0-.15,1,2.45,2.45,0,0,0,.18,1,.76.76,0,0,0,.73.52.94.94,0,0,0,.5-.14Z"/><path class="cls-3" d="M57.6,24a1.73,1.73,0,0,1-.27,1,1.07,1.07,0,0,1-.91.45,1,1,0,0,1-.91-.45,1.86,1.86,0,0,1-.27-1,1.71,1.71,0,0,1,.27-1,1,1,0,0,1,.91-.45,1,1,0,0,1,.91.45,1.8,1.8,0,0,1,.27,1M57,24c0-.7-.18-1.07-.54-1.07s-.55.37-.55,1.07.18,1,.55,1,.54-.34.54-1"/><rect class="cls-3" x="58.21" y="21.42" width="0.66" height="4.03"/><path class="cls-3" d="M61.85,24a1.73,1.73,0,0,1-.27,1,1.06,1.06,0,0,1-.91.45,1.07,1.07,0,0,1-.91-.45,1.86,1.86,0,0,1-.27-1,1.71,1.71,0,0,1,.27-1,1,1,0,0,1,.91-.45,1,1,0,0,1,.91.45,1.8,1.8,0,0,1,.27,1m-.63,0c0-.7-.19-1.07-.55-1.07s-.54.37-.54,1.07.18,1,.54,1,.55-.34.55-1"/><path class="cls-3" d="M66.31,25.45h-.66v-2a.42.42,0,0,0-.48-.48.62.62,0,0,0-.47.21v2.3h-.64V23.4c0-.3-.18-.46-.55-.46a.91.91,0,0,0-.43.1v2.43h-.66V22.74a2.46,2.46,0,0,1,1.07-.2,1.15,1.15,0,0,1,.89.31,1.3,1.3,0,0,1,.91-.31,1,1,0,0,1,.7.22.82.82,0,0,1,.27.66v2Z"/><path class="cls-3" d="M69.33,24A1.66,1.66,0,0,1,69,25.06a1.26,1.26,0,0,1-1,.43,2,2,0,0,1-1-.2V21.42h.64v1.23a1.45,1.45,0,0,1,.57-.11,1,1,0,0,1,.86.43,1.71,1.71,0,0,1,.27,1m-.65,0c0-.7-.23-1.07-.66-1.07a.65.65,0,0,0-.39.09v2a.66.66,0,0,0,.32.07c.5,0,.73-.39.73-1.14"/><path class="cls-3" d="M70.61,21.79a.31.31,0,0,1-.12.22.31.31,0,0,1-.25.09A.34.34,0,0,1,70,22a.29.29,0,0,1,0-.45.34.34,0,0,1,.25-.09.31.31,0,0,1,.25.09c.1,0,.12.11.12.23m0,3.66h-.66V22.58h.66Z"/><path class="cls-3" d="M73.36,25.29a2.33,2.33,0,0,1-1,.2c-.77,0-1.16-.29-1.16-.86a.87.87,0,0,1,.57-.82,3.37,3.37,0,0,1,1-.23v-.16c0-.32-.18-.48-.57-.48a1.72,1.72,0,0,0-.73.19l-.16-.37a2.51,2.51,0,0,1,1-.22c.71,0,1,.31,1,1v1.78Zm-.59-.23V23.88a2.17,2.17,0,0,0-.68.16.58.58,0,0,0-.32.56c0,.37.2.53.61.53a.59.59,0,0,0,.39-.07"/><rect class="cls-3" x="80.7" y="0.93" width="0.2" height="24.54"/><path class="cls-4" d="M97.87,19.6,98.08,18a6.09,6.09,0,0,0,.64-.11l-.32-1.25a3.88,3.88,0,0,1-.82.09,3.57,3.57,0,0,1-3.12-1.89l-1.16.57.28.48-1.71,1.86h0a1.76,1.76,0,1,0,.8,2.37,1.87,1.87,0,0,0,.09-1.37l2-1.61a5.05,5.05,0,0,0,1.57.75l.12,1.72a1.13,1.13,0,0,0-.44.91,1.14,1.14,0,0,0,2.28,0A1.16,1.16,0,0,0,97.87,19.6Z"/><path class="cls-5" d="M105.56,17.19a1.77,1.77,0,0,0-1.66,0l-2-2c.07-.16.14-.32.21-.5l-1.23-.39a3.51,3.51,0,0,1-2.48,2.26l.32,1.25.45-.14.68,1.07a1.12,1.12,0,0,0-.2.66,1.14,1.14,0,1,0,1.25-1.14l-.52-1.2a4.08,4.08,0,0,0,.54-.46l2.16,1.64a1.72,1.72,0,0,0,.94,2,1.77,1.77,0,0,0,2.36-.8A1.81,1.81,0,0,0,105.56,17.19Z"/><path class="cls-6" d="M106.56,7.78a1.77,1.77,0,0,0-2.36.79,1.89,1.89,0,0,0-.19.91l-2.63.87a5.55,5.55,0,0,0-.66-.71l.59-1a1.17,1.17,0,0,0,1.07-1.14,1.14,1.14,0,0,0-2.28,0,1.23,1.23,0,0,0,.12.5l-.69.91-.31-.14-.44,1.21a3.49,3.49,0,0,1,2.3,3.27,3.83,3.83,0,0,1-.18,1.14l1.2.43c.05-.11.07-.25.12-.36l1.43-.05a1.48,1.48,0,0,0,.25.3l.14.11a1.11,1.11,0,0,0,.59.16,1.14,1.14,0,0,0,0-2.27,1.18,1.18,0,0,0-1,.5l-1.34-.12a5.59,5.59,0,0,0-.18-1.11l2.48-1.21A3.39,3.39,0,0,0,105,11a1.78,1.78,0,0,0,1.59-3.18Z"/><path class="cls-7" d="M95.08,10.82l-.91-.91a3.39,3.39,0,0,0-.39.46l-2.3-.91a1.73,1.73,0,0,0-1-1.68,1.76,1.76,0,1,0-1.57,3.16,1.76,1.76,0,0,0,1.61,0l.23-.14a.44.44,0,0,0,.11-.09L93,11.94a4.68,4.68,0,0,0-.2,1.34v0l-1.48.39a1.11,1.11,0,0,0-.86-.41,1.14,1.14,0,1,0,0,2.27,1.11,1.11,0,0,0,1-.68L93,14.78a4.58,4.58,0,0,0,.27.66l1.16-.57a3.52,3.52,0,0,1,.62-4Z"/><path class="cls-8" d="M98.94,3a1.76,1.76,0,0,0-1.57,3.16s0,0,0,0L97.19,8.5a5.21,5.21,0,0,0-1.11.23l-.62-1a1,1,0,0,0,.12-.52,1.15,1.15,0,0,0-1.14-1.14A1.16,1.16,0,0,0,93.3,7.21a1.14,1.14,0,0,0,1.09,1.14l.44,1a4.86,4.86,0,0,0-.66.54l.91.91a3.45,3.45,0,0,1,2.5-1.07,3.4,3.4,0,0,1,1.2.21l.44-1.21a2,2,0,0,0-.3-.09l-.14-2.48a1.79,1.79,0,0,0,1-.86A1.73,1.73,0,0,0,98.94,3Z"/><path class="cls-1" d="M115.68,14.49a.39.39,0,0,1,.39.06.46.46,0,0,1,.18.37v.59a.81.81,0,0,1-.16.5.76.76,0,0,1-.43.27,8.9,8.9,0,0,1-1.57.14,3.83,3.83,0,0,1-2.89-1.05,4.18,4.18,0,0,1-1-3,4.34,4.34,0,0,1,1-3A3.62,3.62,0,0,1,114,8.23a8.82,8.82,0,0,1,1.57.14.58.58,0,0,1,.43.27.79.79,0,0,1,.16.5v.62a.43.43,0,0,1-.18.36.4.4,0,0,1-.38.07,4.48,4.48,0,0,0-1.32-.21,1.71,1.71,0,0,0-1.37.59,2.74,2.74,0,0,0-.5,1.76,2.63,2.63,0,0,0,.53,1.75,1.81,1.81,0,0,0,1.43.61A6.36,6.36,0,0,0,115.68,14.49Z"/><path class="cls-1" d="M118.23,9.3a4.13,4.13,0,0,1,5.59,0,4.23,4.23,0,0,1,1,3,4.2,4.2,0,0,1-1,3,4.1,4.1,0,0,1-5.59,0,4.16,4.16,0,0,1-1-3A4.19,4.19,0,0,1,118.23,9.3Zm1.2,3c0,1.53.52,2.3,1.57,2.3s1.57-.77,1.57-2.3S122.07,10,121,10,119.43,10.78,119.43,12.3Z"/><path class="cls-1" d="M130.76,14.49a.6.6,0,0,1,.43.18.62.62,0,0,1,.18.43v.55a.66.66,0,0,1-.18.43.64.64,0,0,1-.43.18h-4.21a.62.62,0,0,1-.43-.18.61.61,0,0,1-.18-.43V8.94a.61.61,0,0,1,.61-.62h1a.61.61,0,0,1,.61.62v5.43c0,.07,0,.09.09.09h2.51Z"/><path class="cls-1" d="M137.31,8.32a.61.61,0,0,1,.61.62v.5a.62.62,0,0,1-.18.43.66.66,0,0,1-.43.18H135c-.07,0-.09,0-.09.09v1.12c0,.06,0,.09.09.09h2.12a.61.61,0,0,1,.61.61v.39a.61.61,0,0,1-.61.61H135c-.07,0-.09,0-.09.09v1.34c0,.07,0,.1.09.1h2.35a.61.61,0,0,1,.43.18.62.62,0,0,1,.18.43v.5a.62.62,0,0,1-.18.43.61.61,0,0,1-.43.18h-4a.61.61,0,0,1-.62-.61V8.94a.61.61,0,0,1,.62-.62Z"/><path class="cls-1" d="M145.26,8.32a.46.46,0,0,1,.37.18.45.45,0,0,1,.07.41l-2.14,6.78a.86.86,0,0,1-.32.43.79.79,0,0,1-.5.16h-1.05a.75.75,0,0,1-.5-.16.67.67,0,0,1-.29-.43l-2.14-6.78a.48.48,0,0,1,.07-.41.44.44,0,0,1,.36-.18h1.07a.75.75,0,0,1,.48.16.76.76,0,0,1,.27.43l1.18,5.28h0l1.25-5.28a.76.76,0,0,1,.27-.43.75.75,0,0,1,.48-.16Z"/></g></g></g></svg>