<svg version="1.1" id="Layer_1" xmlns="http://www.w3.org/2000/svg" x="0" y="0" viewBox="0 0 836.4 170.4" style="enable-background:new 0 0 836.4 170.4" xml:space="preserve"><style>.st0{fill:#00a896}.st1{stroke:#b4b68f;stroke-width:1.5221;stroke-miterlimit:10}.st1,.st2{fill:#b4b68f}</style><path class="st0" d="M262.6 32.7c-4.6-5.7-11.8-9.1-21.3-9.1-18.4 0-27.7 12.9-27.7 29.8 0 16.8 9.5 29.7 27.9 29.7 10.5 0 18.1-4.4 22.7-11.2V59.7l-21.4.1v-8.3l21.4-.1h10.1v22.3c-2.5 4.4-5.8 8.1-10.1 11-6 4.2-13.6 6.6-22.7 6.6-11.8 0-21.3-4-27.8-10.7-6.5-6.7-10.1-16.3-10.2-27.1 0-10.9 3.5-20.4 10-27.3.8-.8 1.7-1.7 2.7-2.5 6.3-5.3 14.8-8.3 25-8.3 9 0 16.7 2.3 22.7 6.5.8.5 1.6 1.1 2.4 1.7 1.4 1.2 2.8 2.6 4.1 4l-6.4 4.2-1.4.9zM296.7 13.6c.1 25.9.1 51.8.2 77.6h-10c-.1-25.8-.1-51.7-.2-77.6h10zM359.2 62.3c.1 38.3-49.8 38.4-49.9.1-.1-38.2 49.8-38.4 49.9-.1zm-10.1 0c-.1-27.2-29.8-27.2-29.8.1.1 27.2 29.9 27.2 29.8-.1zM371.7 62.3l-.1-20.4v-8.3l-.1-20.2h10.1l.1 20.2v5.5c7.9-7 19.3-7.3 27.6-.9 1.3 1 2.6 2.2 3.7 3.6 3.8 4.8 6.3 11.5 6.4 20.4 0 8.9-2.5 15.7-6.3 20.5-1.1 1.4-2.3 2.6-3.6 3.7-8.3 6.4-19.7 6.1-27.6-.8v5.5h-10.1v-8.2l-.1-20.6zm10.1-.1c.1 27.2 27.7 27.2 27.6-.1-.1-27.2-27.7-27.1-27.6.1zM458.6 33.5c12.8 0 20.1 5.5 20.1 19.7 0 6.5-1.3 33.6 2.8 37.5h-10.6s-1.8-2.7-1.9-7.2c-11.1 11.3-36.6 9.7-37-6.8v-.6c.2-26.1 28.9-15.2 36.9-24.2 0-8.7-4.8-10.3-11.7-10.3-6.7 0-15.3 2.5-15.5 9.4l-9.5-1.7c1.9-11.8 15.7-15.8 26.4-15.8zm-16.8 42.7c0 .8.1 1.5.6 2.1 5.3 6.5 26.6 5.8 26.5-14.6 0 0-.1-1.1-.1-2.3-11.7 5-26.9 2-27 14.8zM503.8 13c.1 25.9.1 51.8.2 77.6h-10c-.1-25.8-.1-51.7-.2-77.6h10zM600.1 35.4c0-6.4-5.7-12.7-17.2-12.7-22.8.1-22.8 25.6.1 25.6 7.2 0 13.1 1.4 17.5 3.7.5.2.9.5 1.4.8 1.8 1.1 3.4 2.3 4.7 3.7 3.3 3.3 5.1 7.3 5.4 11.4v2.8c-.3 4.1-2.1 8.1-5.4 11.5-1.3 1.3-2.9 2.6-4.7 3.7-4.6 2.8-10.9 4.6-18.9 4.6-7.9 0-14.3-1.7-19-4.5-1.7-1.1-3.3-2.3-4.6-3.6-3.3-3.3-5-7.3-5.4-11.4l10-1.2.1-.1c.2 6.2 6.2 12.4 18.1 12.6h1.6c12.1-.3 18-6.7 18-12.9 0-9.3-10.7-12.6-18.2-12.8H582.3c-7.1-.1-12.7-1.8-16.9-4.4-.5-.3-.9-.6-1.4-1-1.1-.8-2.2-1.7-3.1-2.8-6.8-7.3-6.8-18.2-.1-25.6.9-1 2-2 3.1-2.9 4.5-3.3 10.8-5.4 19-5.4 8.1 0 14.4 2.1 18.9 5.3 1.2.9 2.3 1.8 3.3 2.9 3.1 3.3 4.7 7.4 5 11.6l-8.3 1-1.7.1zM674.4 61.4c.1 38.3-49.8 38.4-49.9.1 0-38.2 49.8-38.3 49.9-.1zm-10.1.1c-.1-27.2-29.8-27.2-29.8.1.1 27.2 29.9 27.1 29.8-.1zM731.6 61.3l.1 20.4V90h-10.1v-6.1c-6.1 6.3-16.8 8.3-24.4 3.8-2.4-1.4-4.3-3.4-5.8-5.8-3.2-5.3-4.4-12.7-4.4-20.4l-.1-28.8H697c0 9.6.1 19.1.1 28.8 0 5.2.6 14.5 4.5 18.3 6.1 6.1 20.6-2.1 20-13.9 0-11.1-.1-22.2-.1-33.2h10.1v28.6zM780.1 88.1c-2.4 1.1-5.1 1.8-8 1.8-3.2 0-6.2-.7-8.9-2.2-2.7-1.4-5-3.5-6.8-6-2.1-3-3.3-6.7-3.3-10.7V40.7h-9v-8.3h9V19.8l10-7.6V32.4h10.3v8.3h-10.3v12.5l.1 19c0 5.2 4 9.5 8.9 9.5 1.8 0 3.5-.6 4.9-1.6l.6 1.6 2.5 6.4zM791.7 61.1l-.1-20.4v-8.3l-.1-20.2h10.1l.1 20.2v6.1c6.1-6.3 16.8-8.3 24.4-3.8 2.4 1.4 4.3 3.4 5.8 5.8 3.2 5.3 4.4 12.7 4.4 20.4l.1 20.5v8.2h-10.1V61c0-5.2-.6-14.5-4.5-18.4-6.2-6.1-19.6 1.9-20 13.9l.1 25v8.2h-10.1v-8.2l-.1-20.4z"/><path class="st1" d="m212 157 20.7-49.6h7.1l20.9 49.5h-6.6l-5.9-14.6-23.6.1-5.8 14.6H212zm34-20.1-9.8-24.1-9.5 24.1H246zM275.4 134.7l.1 22.1h-6.6l-.1-22.1v-5.4l-.1-22.1h6.6l.1 22.1v5.4zM316.6 156.7H310v-13.9l-23.5.1h-2.9v-5l26.3-30.8h6.6l.1 30.3h4.5v5.4h-4.5v13.9zm-25.1-19.2h18.4l-.1-21.5-18.3 21.5zM373.4 145c-3.7 6.9-11.1 11.6-19.4 11.6-6 0-11.6-2.4-15.6-6.4-9.1-9-9.2-27.6-.1-36.7.3-.3.7-.7 1.1-1 3.9-3.4 8.9-5.4 14.4-5.4s10.6 2 14.5 5.4c2 1.7 3.7 3.8 5 6.1l-5.4 2.6c-2.6-5.1-7.9-8.7-14-8.7-21.3.1-21.2 38.9.1 38.8 6.1 0 11.4-3.6 14-8.8l5.4 2.5zM404.3 106.9c14.3 0 22.8 11.2 22.8 24.7s-8.4 24.8-22.7 24.8c-14.3 0-22.8-11.2-22.8-24.7-.1-13.5 8.4-24.8 22.7-24.8zm0 5.4c-10.6 0-16.2 8.9-16.1 19.5 0 10.5 5.6 19.4 16.2 19.4 10.5 0 16.1-8.9 16.1-19.5-.1-10.6-5.7-19.4-16.2-19.4zM453.2 156.3h-5.6l-18.9-49.5h6.5l15.2 41.8 14.9-41.8h6.5l-18.6 49.5zM486.7 134.2l.1 22.1h-6.6l-.1-22.1v-5.4l-.1-22.1h6.6l.1 22.1v5.4zM494.7 106.6l20.8-.1c14.9 0 20.8 11.6 20.9 24.8 0 13.1-5.8 24.8-20.7 24.8l-20.8.1-.2-49.6zm6.6 5.4.1 38.8h14.2c10.9 0 14.2-9.2 14.2-19.4s-3.4-19.4-14.3-19.4h-14.2zM569.1 130.4v-23.9l21.3-.1c3 0 5.7.9 8.1 2.4 1.2.8 2.3 1.8 3.2 3 2.1 2.5 3.4 5.7 3.4 9.2 0 3.5-1.3 6.7-3.3 9.3-.9 1.1-2 2.1-3.2 3-2.3 1.5-5.1 2.4-8.1 2.4h-14.8l.1 20.3h-6.6l-.1-20.3v-5.3zm20 .2c.7 0 1.4-.1 2.1-.3 4.2-1 7.3-4.7 7.3-9.1 0-5.2-4.3-9.4-9.4-9.4h-13.4v18.7l13.4.1zM613.3 137.2V118.5h6.6v4c4-4.1 10.9-5.4 15.9-2.5l-3.5 5.8c-4.1-3.7-12.2.7-12.5 8.5 0 7.2 0 14.4.1 21.6h-6.6v-18.7zM670.1 137c.1 25-32.5 25-32.5.1-.1-24.9 32.4-25 32.5-.1zm-6.6 0c0-17.8-19.5-17.7-19.4.1 0 17.8 19.5 17.7 19.4-.1zM709.4 136.9v18.7c0 3.5-1.1 6.4-3 8.6-1 1.2-2.2 2.1-3.6 2.9-1.2.7-2.6 1.3-4 1.7-1.2.3-2.4.6-3.7.7-2.6.2-5.2 0-7.7-.7-.9-.3-1.8-.6-2.6-1-1.8-.8-3.4-2-4.5-3.6-.8-1-1.4-2.2-1.7-3.6l6.2-1.7c.2 4.7 6.1 5.5 9.6 5.2 4.3-.5 8.4-2.6 8.3-7.6V152c-5.1 4.6-12.6 4.8-18 .6-.9-.7-1.7-1.5-2.4-2.4-2.5-3.1-4.2-7.6-4.2-13.4 0-5.8 1.6-10.2 4.1-13.3.7-.9 1.5-1.7 2.4-2.4 5.3-4.2 12.8-4 18 .5V118h6.6v5.4l.2 13.5zm-19.5-12.1c-2.9 1.8-5.1 5.9-5.1 12.1 0 17.8 18 17.7 18 0 0-6.2-2.3-10.3-5.1-12.1-2.4-1.6-5.4-1.5-7.8 0zM717.6 136.9V118.2h6.6v4c4-4.1 10.9-5.4 15.9-2.5l-3.5 5.8c-4.1-3.7-12.2.7-12.5 8.5 0 7.2 0 14.4.1 21.6h-6.6v-18.7zM762.2 118.2c8.3 0 13.1 3.6 13.1 12.8 0 4.2-.8 21.9 1.8 24.5h-6.9s-1.2-1.8-1.2-4.7c-7.3 7.4-23.8 6.4-24.1-4.4v-.4c.2-17 18.8-9.9 24.1-15.8 0-5.7-3.1-6.7-7.6-6.7-4.4 0-10 1.6-10.1 6.1l-6.2-1.1c1.1-7.7 10.1-10.3 17.1-10.3zm-11 27.8c0 .5.1 1 .4 1.4 3.4 4.2 17.3 3.8 17.3-9.6 0 0-.1-.7-.1-1.5-7.6 3.4-17.5 1.4-17.6 9.7zM791.9 133.8c0 7.2 0 14.4.1 21.6h-6.6l-.1-18.7V118h6.6v2.6c4.1-3 10-3.7 14.4-1.1 1.6.9 2.8 2.2 3.8 3.8.7-1 1.7-1.9 2.8-2.7 1.9-1.4 4.3-2.3 6.6-2.6 2.7-.3 5.4.1 7.8 1.5 1.6.9 2.8 2.2 3.8 3.8 2.1 3.5 2.8 8.3 2.9 13.3l.1 18.7h-6.6c0-6.2 0-12.5-.1-18.7 0-3.4-.2-9.8-2.9-12-6.2-4.9-11.9 2-11.5 9.1v2.9l.1 18.7h-6.6c0-6.2 0-12.5-.1-18.7 0-3.4-.1-9.8-2.9-12-6.3-4.9-12.1 2.1-11.6 9.2z"/><path class="st2" d="m17.5 46 3 1.6c.6-1.2 1.3-2.3 2-3.5l-2.8-1.8c-1-.7-2.4-.3-3 .7-.7 1.1-.2 2.4.8 3z"/><path class="st0" d="M53.1 47.9c.3.4.9.4 1.3.1.4-.3.5-.9.2-1.3L39.8 27.5c-1 .8-2 1.6-3 2.5l16.3 17.9zM43.6 59.7c.5.2 1 .1 1.3-.4.3-.4.1-1-.3-1.3L24.1 45.1c-.7 1.1-1.3 2.2-1.9 3.3l21.4 11.3zM39.8 73.2c.1-.5-.2-1-.7-1.1L15.4 67c-.3 1.3-.5 2.5-.7 3.8l24 3.2c.5.1 1-.3 1.1-.8z"/><path class="st2" d="M35.5 28.6c1-.9 2-1.8 3.1-2.6l-2-2.6c-.7-1-2.2-1.1-3.1-.4-.9.8-1 2.2-.2 3.1l2.2 2.5zM17.5 115.3c-1.1.6-1.5 1.9-.9 3s2 1.4 3 .7l2.8-1.8c-.7-1.1-1.4-2.3-2-3.5l-2.9 1.6z"/><path class="st0" d="M39.8 88.1c0-.1 0-.2-.1-.4 0-.2-.1-.4-.1-.6l-24.9 3.4c.2 1.3.4 2.6.7 3.8L39 89.2c.6-.1.9-.6.8-1.1z"/><path class="st2" d="M7.7 67.6c-.2 1.2.6 2.3 1.9 2.5l3.3.4c.2-1.3.4-2.6.7-4l-3.3-.7c-1.2-.2-2.4.6-2.6 1.8zM9.6 91.2c-1.2.2-2.1 1.3-1.9 2.5.2 1.2 1.4 2 2.6 1.7l3.3-.7c-.3-1.3-.5-2.6-.7-4l-3.3.5z"/><path class="st0" d="M118.9 59.3c.3.4.8.6 1.3.4l21.4-11.2c-.6-1.1-1.3-2.2-1.9-3.3L119.2 58c-.4.3-.6.9-.3 1.3zM44.9 102c-.3-.5-.8-.6-1.3-.4l-21.4 11.2c.6 1.1 1.3 2.3 1.9 3.3l20.4-12.9c.5-.1.6-.7.4-1.2z"/><path class="st2" d="M56.1 15.8c1.2-.5 2.5-1 3.8-1.4l-1-3.2c-.4-1.2-1.6-1.8-2.8-1.4-1.2.4-1.7 1.7-1.2 2.9l1.2 3.1zM130.5 26.1c.8-.9.8-2.3-.2-3.1-.9-.8-2.3-.6-3.1.4l-2 2.6c1 .8 2.1 1.7 3.1 2.6l2.2-2.5zM154.2 70.1c1.2-.2 2.1-1.3 1.9-2.5-.2-1.2-1.4-2-2.6-1.7l-3.3.7c.3 1.3.5 2.6.7 4l3.3-.5zM146.2 46c1.1-.6 1.5-1.9.9-3s-2-1.4-3-.7l-2.8 1.8c.7 1.1 1.4 2.3 2 3.5l2.9-1.6z"/><path class="st0" d="M109.3 47.9c.4.3 1 .3 1.3-.1L126.9 30c-1-.9-1.9-1.7-3-2.5l-14.8 19.1c-.2.4-.2 1 .2 1.3zM96.5 40.5c.5.2 1-.1 1.2-.5l9.2-22.4c-1.2-.5-2.4-.9-3.6-1.3l-7.4 23c-.2.5.1 1 .6 1.2z"/><path class="st2" d="M108.9 12.8c.5-1.1-.1-2.4-1.2-2.9-1.2-.4-2.4.2-2.8 1.4l-1 3.2c1.3.4 2.5.9 3.8 1.4l1.2-3.1zM128.2 132.8c-1 .9-2 1.8-3.1 2.6l2 2.6c.7 1 2.2 1.1 3.1.4.9-.8 1-2.2.2-3.1l-2.2-2.5z"/><path class="st0" d="M110.7 113.5c-.4-.4-.9-.4-1.4-.1-.4.3-.5.9-.1 1.3l14.8 19.1c1-.8 2-1.6 3-2.5l-16.3-17.8zM120.2 101.7c-.5-.2-1-.1-1.3.4-.3.5-.1 1 .3 1.3l20.4 12.9c.7-1.1 1.3-2.2 1.9-3.3l-21.3-11.3z"/><path class="st2" d="m146.2 115.3-2.9-1.6c-.6 1.2-1.3 2.3-2 3.5l2.8 1.8c1 .7 2.4.3 3-.7.6-1 .2-2.4-.9-3zM107.6 145.5c-1.2.5-2.5 1-3.8 1.4l1 3.2c.4 1.2 1.6 1.8 2.8 1.4 1.2-.4 1.7-1.7 1.2-2.9l-1.2-3.1z"/><path class="st0" d="M124.7 72.1c-.5.1-.8.6-.7 1.1.1.5.6.9 1.1.8l23.9-3.2c-.2-1.3-.4-2.6-.7-3.8l-23.6 5.1z"/><path class="st2" d="m154.2 91.2-3.3-.4c-.2 1.3-.4 2.6-.7 4l3.3.7c1.2.3 2.4-.5 2.6-1.7.1-1.3-.7-2.4-1.9-2.6z"/><path class="st0" d="M123.9 88.1c-.1.5.2 1 .7 1.1l23.6 5.1c.3-1.3.5-2.5.7-3.8L125 87.3c-.5-.1-1 .3-1.1.8zM97.7 121.4c-.2-.5-.7-.7-1.2-.5-.5.2-.8.7-.6 1.2l7.4 23c1.2-.4 2.4-.9 3.6-1.3l-9.2-22.4zM81.9 37.9c.5 0 1-.4 1-.9l1-24.2h-3.8l1 24.2c-.2.5.3.9.8.9z"/><path class="st2" d="M54.9 148.6c-.5 1.1.1 2.4 1.2 2.9 1.2.4 2.4-.2 2.8-1.4l1-3.2c-1.3-.4-2.5-.9-3.8-1.4l-1.2 3.1z"/><path class="st0" d="M60.5 16.3c-1.2.4-2.4.9-3.6 1.3L66 40c.2.5.7.7 1.2.5.5-.2.8-.7.6-1.2l-7.3-23zM67.2 120.8c-.5-.2-1 .1-1.2.5l-9.2 22.4c1.2.5 2.4.9 3.6 1.3l7.4-23c.2-.5-.1-1-.6-1.2zM55.1 114c-.2-.1-.3-.3-.5-.4-.5-.4-1.3-.4-1.8.1l-16 17.6c1 .9 1.9 1.7 3 2.5L55.1 114z"/><path class="st2" d="M81.9 150.4h-2l-.1 3.3c0 1.2.9 2.3 2.1 2.3 1.2 0 2.2-1 2.1-2.3l-.1-3.3h-2zM81.9 5.4c-1.2 0-2.2 1-2.1 2.3l.1 3.3h4l.1-3.4c.1-1.2-.9-2.2-2.1-2.2zM33.3 135.2c-.8.9-.8 2.3.2 3.1.9.8 2.3.6 3.1-.4l2-2.6c-1-.8-2.1-1.7-3.1-2.6l-2.2 2.5z"/><path class="st0" d="M81.9 148.5h1.9l-1-24.2c0-.5-.5-.9-1-.9s-1 .4-1 .9l-1 24.2h2.1zM106.5 38c.6.3 1.3.2 1.7-.4l2.3-3.7c-.8-.5-1.6-1-2.5-1.4l-2 3.9c-.3.6-.1 1.3.5 1.6zM44.1 47.3l-3.2-2.9c-.6.7-1.2 1.4-1.8 2.2l3.4 2.7c.5.4 1.3.3 1.7-.2.4-.6.3-1.4-.1-1.8zM70.6 25.1c1-.2 2-.4 2.9-.5l-3-22.5c-.2-1.3-1.4-2.3-2.8-2-1.3.2-2.2 1.5-1.9 2.9l4.8 22.1zM90.4 32.2c.7.1 1.3-.3 1.4-.9l.9-4.3c-.9-.2-1.9-.4-2.8-.5l-.6 4.3c0 .7.5 1.3 1.1 1.4zM52.2 32.3c.8-.5 1.7-1 2.6-1.5L44.3 10.7c-.6-1.2-2.1-1.6-3.3-1-1.2.7-1.6 2.2-.8 3.4l12 19.2zM42.4 112.1l-3.4 2.7c.6.7 1.2 1.5 1.8 2.2l3.2-3c.5-.4.5-1.2.1-1.7s-1.1-.6-1.7-.2zM135.7 62.7l21.6-6.9c1.3-.4 2-1.8 1.5-3.1s-1.9-1.9-3.2-1.4l-21 8.6c.4.9.7 1.8 1.1 2.8zM34.9 99.1c.6-.3.9-.9.7-1.6-.2-.6-.9-1-1.5-.8L29.9 98c.3.9.6 1.8 1 2.7l4-1.6zM19.5 31.5l18 13.9c.6-.8 1.3-1.5 1.9-2.3L22.6 27.8c-1-.9-2.6-.8-3.4.2-.9 1.1-.7 2.6.3 3.5zM32.6 80.7c0-.7-.5-1.2-1.2-1.2l-4.4-.2v2.8l4.4-.2c.7 0 1.2-.6 1.2-1.2zM136.7 80.7v-1.4l-4.4.2c-.7 0-1.2.6-1.2 1.2 0 .7.5 1.2 1.2 1.2l4.4.2v-1.4zM129.7 64.6l4.1-1.3c-.3-.9-.6-1.8-1-2.7l-4 1.7c-.6.3-.9.9-.7 1.6.3.6 1 .9 1.6.7zM128.8 99.1l4 1.7c.3-.9.7-1.8 1-2.7l-4.1-1.3c-.6-.2-1.3.1-1.5.8-.3.5 0 1.2.6 1.5zM144.2 31.5c1.1-.8 1.2-2.4.4-3.4-.9-1-2.4-1.1-3.4-.2l-16.8 15.3c.7.7 1.3 1.5 1.9 2.3l17.9-14zM119.6 112.3c-.4.5-.4 1.3.1 1.7l3.2 2.9c.6-.7 1.2-1.4 1.8-2.2l-3.4-2.7c-.5-.3-1.3-.2-1.7.3zM123.6 13.1c.7-1.2.3-2.7-.8-3.4-1.2-.7-2.7-.2-3.3 1l-10.6 20.1c.9.5 1.7 1 2.6 1.5l12.1-19.2zM122.9 44.4l-3.2 2.9c-.5.4-.5 1.2-.1 1.7s1.2.6 1.7.2l3.4-2.7-1.8-2.1zM34.9 62.2l-4-1.7c-.3.9-.7 1.8-1 2.7l4.2 1.3c.6.2 1.3-.1 1.5-.8.2-.5-.1-1.2-.7-1.5zM96.1 0c-1.3-.2-2.6.7-2.8 2l-3.1 22.5c1 .1 2 .3 2.9.5L98 2.9c.3-1.3-.6-2.6-1.9-2.9zM93.2 136.2c-1 .2-2 .4-2.9.5l3.1 22.5c.2 1.3 1.4 2.3 2.8 2 1.3-.2 2.2-1.5 1.9-2.9l-4.9-22.1zM108.2 123.7c-.4-.6-1.1-.7-1.7-.4-.6.3-.8 1.1-.5 1.6l2 3.9c.8-.5 1.6-.9 2.5-1.4l-2.3-3.7zM111.5 129c-.8.5-1.7 1-2.6 1.5l10.6 20.1c.6 1.2 2.1 1.6 3.3 1 1.2-.7 1.6-2.2.8-3.4L111.5 129zM91.8 130.1c-.1-.6-.8-1.1-1.4-.9-.7.1-1.1.7-1 1.4l.6 4.3c.9-.1 1.9-.3 2.8-.5l-1-4.3zM144.2 129.9l-18-13.9c-.6.8-1.3 1.5-1.9 2.3l16.8 15.3c1 .9 2.6.8 3.4-.2 1-1.1.8-2.7-.3-3.5zM161.3 78.3l-22.7.9v3l22.7.9c1.4.1 2.5-1 2.5-2.4s-1.2-2.5-2.5-2.4zM73.8 26.5c-.9.1-1.9.3-2.8.5l.9 4.3c.1.7.8 1.1 1.4.9.7-.1 1.1-.7 1-1.4l-.5-4.3zM157.3 105.6l-21.6-6.9c-.3.9-.7 1.9-1 2.8l21 8.6c1.3.5 2.7-.1 3.2-1.4.4-1.3-.3-2.7-1.6-3.1zM28.1 98.6l-21.6 6.9c-1.3.4-2 1.8-1.5 3.1s1.9 1.9 3.2 1.4l21-8.6c-.5-.9-.8-1.8-1.1-2.8zM6.5 55.8l21.6 6.9c.3-.9.7-1.9 1-2.8l-21-8.6c-1.3-.5-2.7.1-3.2 1.4-.4 1.2.3 2.6 1.6 3.1zM40.1 148.2c-.7 1.2-.4 2.7.8 3.4 1.2.7 2.7.2 3.3-1l10.6-20.1c-.9-.5-1.7-1-2.6-1.5l-12.1 19.2zM19.5 129.9c-1.1.8-1.2 2.4-.4 3.4.9 1 2.4 1.1 3.4.2l16.8-15.3c-.7-.7-1.3-1.5-1.9-2.3l-17.9 14zM25.2 80.7v-1.5l-22.7-.9c-1.4-.1-2.5 1-2.5 2.4s1.1 2.4 2.5 2.4l22.7-.9v-1.5zM57.2 123.3c-.6-.3-1.3-.2-1.7.4l-2.3 3.7c.8.5 1.6 1 2.5 1.4l2-3.9c.3-.5.1-1.3-.5-1.6zM65.7 158.4c-.3 1.3.6 2.6 1.9 2.9 1.3.2 2.6-.7 2.8-2l3.1-22.5c-1-.1-2-.3-2.9-.5l-4.9 22.1zM73.3 129.2c-.7-.1-1.3.3-1.4.9l-.9 4.3c.9.2 1.9.4 2.8.5l.6-4.3c0-.7-.4-1.3-1.1-1.4zM55.7 32.5c-.8.5-1.6.9-2.5 1.4l2.3 3.7c.4.6 1.1.7 1.7.4.6-.3.8-1.1.5-1.6l-2-3.9zM59 88.7h3.2c1.8 0 3.2-1.5 3.2-3.2v-13c0-9 7.3-16.2 16.2-16.2 9 0 16.2 7.3 16.2 16.2v13c0 1.8 1.5 3.2 3.2 3.2h3.2V72.4c0-12.5-10.2-22.7-22.7-22.7C69.1 49.7 59 59.9 59 72.4v16.3z"/><path class="st0" d="M81.7 62.7c-5.4 0-9.7 4.4-9.7 9.7v16.2c0 3.6-2.9 6.5-6.5 6.5H59v6.5h6.5c7.2 0 13-5.8 13-13V72.4c0-1.8 1.5-3.2 3.2-3.2 1.8 0 3.2 1.5 3.2 3.2v16.2c0 7.2 5.8 13 13 13h6.5v-6.5h-6.5c-3.6 0-6.5-2.9-6.5-6.5V72.4c0-5.3-4.3-9.7-9.7-9.7z"/></svg>