<?xml version="1.0" encoding="utf-8"?>
<!-- Generator: Adobe Illustrator 25.4.4, SVG Export Plug-In . SVG Version: 6.00 Build 0)  -->
<svg version="1.1" id="Layer_1" xmlns="http://www.w3.org/2000/svg" xmlns:xlink="http://www.w3.org/1999/xlink" x="0px" y="0px"
	 viewBox="0 0 836.4 170.4" style="enable-background:new 0 0 836.4 170.4;" xml:space="preserve">
<style type="text/css">
	.st0{fill:#00A896;}
	.st1{fill:#B4B68F;stroke:#B4B68F;stroke-width:1.5221;stroke-miterlimit:10;}
	.st2{fill:#B4B68F;}
</style>
<g>
	<g>
		<path class="st0" d="M262.6,32.7c-4.6-5.7-11.8-9.1-21.3-9.1c-18.4,0-27.7,12.9-27.7,29.8c0,16.8,9.5,29.7,27.9,29.7
			c10.5,0,18.1-4.4,22.7-11.2l0-12.2l-21.4,0.1l0-8.3l21.4-0.1l5,0l5.1,0l0,8.3l0,14c-2.5,4.4-5.8,8.1-10.1,11
			c-6,4.2-13.6,6.6-22.7,6.6c-11.8,0-21.3-4-27.8-10.7c-6.5-6.7-10.1-16.3-10.2-27.1c0-10.9,3.5-20.4,10-27.3
			c0.8-0.8,1.7-1.7,2.7-2.5c6.3-5.3,14.8-8.3,25-8.3c9,0,16.7,2.3,22.7,6.5c0.8,0.5,1.6,1.1,2.4,1.7c1.4,1.2,2.8,2.6,4.1,4l-6.4,4.2
			L262.6,32.7z"/>
		<path class="st0" d="M296.7,13.6c0.1,25.9,0.1,51.8,0.2,77.6l-10,0c-0.1-25.8-0.1-51.7-0.2-77.6L296.7,13.6z"/>
		<path class="st0" d="M359.2,62.3c0.1,38.3-49.8,38.4-49.9,0.1C309.2,24.2,359.1,24,359.2,62.3z M349.1,62.3
			c-0.1-27.2-29.8-27.2-29.8,0.1C319.4,89.6,349.2,89.6,349.1,62.3z"/>
		<path class="st0" d="M371.7,62.3l-0.1-20.4l0-8.3l-0.1-20.2l10.1,0l0.1,20.2l0,5.5c7.9-7,19.3-7.3,27.6-0.9c1.3,1,2.6,2.2,3.7,3.6
			c3.8,4.8,6.3,11.5,6.4,20.4c0,8.9-2.5,15.7-6.3,20.5c-1.1,1.4-2.3,2.6-3.6,3.7c-8.3,6.4-19.7,6.1-27.6-0.8l0,5.5l-10.1,0l0-8.2
			L371.7,62.3z M381.8,62.2c0.1,27.2,27.7,27.2,27.6-0.1C409.3,34.9,381.7,35,381.8,62.2z"/>
		<path class="st0" d="M458.6,33.5c12.8,0,20.1,5.5,20.1,19.7c0,6.5-1.3,33.6,2.8,37.5l-10.6,0c0,0-1.8-2.7-1.9-7.2
			c-11.1,11.3-36.6,9.7-37-6.8c0-0.2,0-0.4,0-0.6c0.2-26.1,28.9-15.2,36.9-24.2c0-8.7-4.8-10.3-11.7-10.3c-6.7,0-15.3,2.5-15.5,9.4
			l-9.5-1.7C434.1,37.5,447.9,33.5,458.6,33.5z M441.8,76.2c0,0.8,0.1,1.5,0.6,2.1c5.3,6.5,26.6,5.8,26.5-14.6c0,0-0.1-1.1-0.1-2.3
			C457.1,66.4,441.9,63.4,441.8,76.2z"/>
		<path class="st0" d="M503.8,13c0.1,25.9,0.1,51.8,0.2,77.6l-10,0c-0.1-25.8-0.1-51.7-0.2-77.6L503.8,13z"/>
		<path class="st0" d="M600.1,35.4c0-6.4-5.7-12.7-17.2-12.7c-22.8,0.1-22.8,25.6,0.1,25.6c7.2,0,13.1,1.4,17.5,3.7
			c0.5,0.2,0.9,0.5,1.4,0.8c1.8,1.1,3.4,2.3,4.7,3.7c3.3,3.3,5.1,7.3,5.4,11.4l0,2.8c-0.3,4.1-2.1,8.1-5.4,11.5
			c-1.3,1.3-2.9,2.6-4.7,3.7c-4.6,2.8-10.9,4.6-18.9,4.6c-7.9,0-14.3-1.7-19-4.5c-1.7-1.1-3.3-2.3-4.6-3.6c-3.3-3.3-5-7.3-5.4-11.4
			l10-1.2l0.1-0.1c0.2,6.2,6.2,12.4,18.1,12.6c0.3,0,0.6,0,0.8,0c0.3,0,0.6,0,0.8,0c12.1-0.3,18-6.7,18-12.9
			c0-9.3-10.7-12.6-18.2-12.8c-0.2,0-0.5,0-0.7,0c-0.2,0-0.4,0-0.6,0c-7.1-0.1-12.7-1.8-16.9-4.4c-0.5-0.3-0.9-0.6-1.4-1
			c-1.1-0.8-2.2-1.7-3.1-2.8c-6.8-7.3-6.8-18.2-0.1-25.6c0.9-1,2-2,3.1-2.9c4.5-3.3,10.8-5.4,19-5.4c8.1,0,14.4,2.1,18.9,5.3
			c1.2,0.9,2.3,1.8,3.3,2.9c3.1,3.3,4.7,7.4,5,11.6l-8.3,1L600.1,35.4z"/>
		<path class="st0" d="M674.4,61.4c0.1,38.3-49.8,38.4-49.9,0.1C624.5,23.3,674.3,23.2,674.4,61.4z M664.3,61.5
			c-0.1-27.2-29.8-27.2-29.8,0.1C634.6,88.8,664.4,88.7,664.3,61.5z"/>
		<path class="st0" d="M731.6,61.3l0.1,20.4l0,8.3l-10.1,0l0-6.1c-6.1,6.3-16.8,8.3-24.4,3.8c-2.4-1.4-4.3-3.4-5.8-5.8
			c-3.2-5.3-4.4-12.7-4.4-20.4l-0.1-28.8l10.1,0c0,9.6,0.1,19.1,0.1,28.8c0,5.2,0.6,14.5,4.5,18.3c6.1,6.1,20.6-2.1,20-13.9
			c0-11.1-0.1-22.2-0.1-33.2l10.1,0L731.6,61.3z"/>
		<path class="st0" d="M780.1,88.1c-2.4,1.1-5.1,1.8-8,1.8c-3.2,0-6.2-0.7-8.9-2.2c-2.7-1.4-5-3.5-6.8-6c-2.1-3-3.3-6.7-3.3-10.7
			l0-17.8l0-8.3l0-4.2l-9,0l0-8.3l9,0l0-0.5l0-9.8l0-2.3l10-7.6l0,1.6l0,8.3l0,9.8l0,0.5l10.3,0l0,8.3l-10.3,0l0,4.2l0,8.3l0.1,19
			c0,5.2,4,9.5,8.9,9.5c1.8,0,3.5-0.6,4.9-1.6l0.6,1.6L780.1,88.1z"/>
		<path class="st0" d="M791.7,61.1l-0.1-20.4l0-8.3l-0.1-20.2l10.1,0l0.1,20.2l0,6.1c6.1-6.3,16.8-8.3,24.4-3.8
			c2.4,1.4,4.3,3.4,5.8,5.8c3.2,5.3,4.4,12.7,4.4,20.4l0.1,20.5l0,8.2l-10.1,0l0-3.3l0-4.9L826.3,61c0-5.2-0.6-14.5-4.5-18.4
			c-6.2-6.1-19.6,1.9-20,13.9l0.1,25l0,5.5l0,2.7l-10.1,0l0-8.2L791.7,61.1z"/>
	</g>
	<g>
		<path class="st1" d="M212,157l20.7-49.6l7.1,0l20.9,49.5l-6.6,0l-5.9-14.6l-23.6,0.1l-5.8,14.6L212,157z M246,136.9l-9.8-24.1
			l-9.5,24.1L246,136.9z"/>
		<path class="st1" d="M275.4,134.7l0.1,22.1l-6.6,0l-0.1-22.1l0-5.4l-0.1-22.1l6.6,0l0.1,22.1L275.4,134.7z"/>
		<path class="st1" d="M316.6,156.7l-6.6,0l0-13.9l-23.5,0.1l-2.9,0l0-5l26.3-30.8l6.6,0l0.1,30.3l4.5,0l0,5.4l-4.5,0L316.6,156.7z
			 M291.5,137.5l18.4,0l-0.1-21.5L291.5,137.5z"/>
		<path class="st1" d="M373.4,145c-3.7,6.9-11.1,11.6-19.4,11.6c-6,0-11.6-2.4-15.6-6.4c-9.1-9-9.2-27.6-0.1-36.7
			c0.3-0.3,0.7-0.7,1.1-1c3.9-3.4,8.9-5.4,14.4-5.4c5.5,0,10.6,2,14.5,5.4c2,1.7,3.7,3.8,5,6.1l-5.4,2.6c-2.6-5.1-7.9-8.7-14-8.7
			c-21.3,0.1-21.2,38.9,0.1,38.8c6.1,0,11.4-3.6,14-8.8L373.4,145z"/>
		<path class="st1" d="M404.3,106.9c14.3,0,22.8,11.2,22.8,24.7c0,13.5-8.4,24.8-22.7,24.8c-14.3,0-22.8-11.2-22.8-24.7
			C381.5,118.2,390,106.9,404.3,106.9z M404.3,112.3c-10.6,0-16.2,8.9-16.1,19.5c0,10.5,5.6,19.4,16.2,19.4
			c10.5,0,16.1-8.9,16.1-19.5C420.4,121.1,414.8,112.3,404.3,112.3z"/>
		<path class="st1" d="M453.2,156.3l-5.6,0l-18.9-49.5l6.5,0l15.2,41.8l14.9-41.8l6.5,0L453.2,156.3z"/>
		<path class="st1" d="M486.7,134.2l0.1,22.1l-6.6,0l-0.1-22.1l0-5.4l-0.1-22.1l6.6,0l0.1,22.1L486.7,134.2z"/>
		<path class="st1" d="M494.7,106.6l20.8-0.1c14.9,0,20.8,11.6,20.9,24.8c0,13.1-5.8,24.8-20.7,24.8l-20.8,0.1L494.7,106.6z
			 M501.3,112l0.1,38.8l14.2,0c10.9,0,14.2-9.2,14.2-19.4s-3.4-19.4-14.3-19.4L501.3,112z"/>
		<path class="st1" d="M569.1,130.4l0-18.5l0-5.4l21.3-0.1c3,0,5.7,0.9,8.1,2.4c1.2,0.8,2.3,1.8,3.2,3c2.1,2.5,3.4,5.7,3.4,9.2
			c0,3.5-1.3,6.7-3.3,9.3c-0.9,1.1-2,2.1-3.2,3c-2.3,1.5-5.1,2.4-8.1,2.4l-14.8,0l0.1,20.3l-6.6,0l-0.1-20.3L569.1,130.4z
			 M589.1,130.6c0.7,0,1.4-0.1,2.1-0.3c4.2-1,7.3-4.7,7.3-9.1c0-5.2-4.3-9.4-9.4-9.4l-13.4,0l0,18.5l0,0.2L589.1,130.6z"/>
		<path class="st1" d="M613.3,137.2l0-13.3l0-5.4l6.6,0l0,4c4-4.1,10.9-5.4,15.9-2.5l-3.5,5.8c-4.1-3.7-12.2,0.7-12.5,8.5
			c0,7.2,0,14.4,0.1,21.6l-6.6,0L613.3,137.2z"/>
		<path class="st1" d="M670.1,137c0.1,25-32.5,25-32.5,0.1C637.5,112.2,670,112.1,670.1,137z M663.5,137c0-17.8-19.5-17.7-19.4,0.1
			C644.1,154.9,663.6,154.8,663.5,137z"/>
		<path class="st1" d="M709.4,136.9l0,13.4l0,5.3c0,3.5-1.1,6.4-3,8.6c-1,1.2-2.2,2.1-3.6,2.9c-1.2,0.7-2.6,1.3-4,1.7
			c-1.2,0.3-2.4,0.6-3.7,0.7c-2.6,0.2-5.2,0-7.7-0.7c-0.9-0.3-1.8-0.6-2.6-1c-1.8-0.8-3.4-2-4.5-3.6c-0.8-1-1.4-2.2-1.7-3.6l6.2-1.7
			c0.2,4.7,6.1,5.5,9.6,5.2c4.3-0.5,8.4-2.6,8.3-7.6l0-0.9l0-3.6c-5.1,4.6-12.6,4.8-18,0.6c-0.9-0.7-1.7-1.5-2.4-2.4
			c-2.5-3.1-4.2-7.6-4.2-13.4c0-5.8,1.6-10.2,4.1-13.3c0.7-0.9,1.5-1.7,2.4-2.4c5.3-4.2,12.8-4,18,0.5l0-3.6l6.6,0l0,1.6l0,3.8
			L709.4,136.9z M689.9,124.8c-2.9,1.8-5.1,5.9-5.1,12.1c0,17.8,18,17.7,18,0c0-6.2-2.3-10.3-5.1-12.1
			C695.3,123.2,692.3,123.3,689.9,124.8z"/>
		<path class="st1" d="M717.6,136.9l0-13.3l0-5.4l6.6,0l0,4c4-4.1,10.9-5.4,15.9-2.5l-3.5,5.8c-4.1-3.7-12.2,0.7-12.5,8.5
			c0,7.2,0,14.4,0.1,21.6l-6.6,0L717.6,136.9z"/>
		<path class="st1" d="M762.2,118.2c8.3,0,13.1,3.6,13.1,12.8c0,4.2-0.8,21.9,1.8,24.5l-6.9,0c0,0-1.2-1.8-1.2-4.7
			c-7.3,7.4-23.8,6.4-24.1-4.4c0-0.1,0-0.2,0-0.4c0.2-17,18.8-9.9,24.1-15.8c0-5.7-3.1-6.7-7.6-6.7c-4.4,0-10,1.6-10.1,6.1l-6.2-1.1
			C746.2,120.8,755.2,118.2,762.2,118.2z M751.2,146c0,0.5,0.1,1,0.4,1.4c3.4,4.2,17.3,3.8,17.3-9.6c0,0-0.1-0.7-0.1-1.5
			C761.2,139.7,751.3,137.7,751.2,146z"/>
		<path class="st1" d="M791.9,133.8c0,7.2,0,14.4,0.1,21.6l-6.6,0l-0.1-18.7l0-13.3l0-5.4l6.6,0l0,2.6c4.1-3,10-3.7,14.4-1.1
			c1.6,0.9,2.8,2.2,3.8,3.8c0.7-1,1.7-1.9,2.8-2.7c1.9-1.4,4.3-2.3,6.6-2.6c2.7-0.3,5.4,0.1,7.8,1.5c1.6,0.9,2.8,2.2,3.8,3.8
			c2.1,3.5,2.8,8.3,2.9,13.3l0.1,18.7l-6.6,0c0-6.2,0-12.5-0.1-18.7c0-3.4-0.2-9.8-2.9-12c-6.2-4.9-11.9,2-11.5,9.1l0,2.9l0.1,18.7
			l-6.6,0c0-6.2,0-12.5-0.1-18.7c0-3.4-0.1-9.8-2.9-12C797.2,119.7,791.4,126.7,791.9,133.8z"/>
	</g>
	<g>
		<path class="st2" d="M17.5,46l3,1.6c0.6-1.2,1.3-2.3,2-3.5l-2.8-1.8c-1-0.7-2.4-0.3-3,0.7C16,44.1,16.5,45.4,17.5,46z"/>
		<path class="st0" d="M53.1,47.9c0.3,0.4,0.9,0.4,1.3,0.1c0,0,0,0,0,0c0.4-0.3,0.5-0.9,0.2-1.3L39.8,27.5c-1,0.8-2,1.6-3,2.5
			L53.1,47.9z"/>
		<path class="st0" d="M43.6,59.7c0.5,0.2,1,0.1,1.3-0.4c0.3-0.4,0.1-1-0.3-1.3L24.1,45.1c-0.7,1.1-1.3,2.2-1.9,3.3L43.6,59.7z"/>
		<path class="st0" d="M39.8,73.2c0.1-0.5-0.2-1-0.7-1.1L15.4,67c-0.3,1.3-0.5,2.5-0.7,3.8L38.7,74C39.2,74.1,39.7,73.7,39.8,73.2z"
			/>
		<path class="st2" d="M35.5,28.6c1-0.9,2-1.8,3.1-2.6l-2-2.6c-0.7-1-2.2-1.1-3.1-0.4c-0.9,0.8-1,2.2-0.2,3.1L35.5,28.6z"/>
		<path class="st2" d="M17.5,115.3c-1.1,0.6-1.5,1.9-0.9,3c0.6,1.1,2,1.4,3,0.7l2.8-1.8c-0.7-1.1-1.4-2.3-2-3.5L17.5,115.3z"/>
		<path class="st0" d="M39.8,88.1c0-0.1,0-0.2-0.1-0.4c0-0.2-0.1-0.4-0.1-0.6c0,0,0,0,0,0l-24.9,3.4c0.2,1.3,0.4,2.6,0.7,3.8
			L39,89.2C39.6,89.1,39.9,88.6,39.8,88.1z"/>
		<path class="st2" d="M7.7,67.6c-0.2,1.2,0.6,2.3,1.9,2.5l3.3,0.4c0.2-1.3,0.4-2.6,0.7-4l-3.3-0.7C9.1,65.6,7.9,66.4,7.7,67.6z"/>
		<path class="st2" d="M9.6,91.2c-1.2,0.2-2.1,1.3-1.9,2.5c0.2,1.2,1.4,2,2.6,1.7l3.3-0.7c-0.3-1.3-0.5-2.6-0.7-4L9.6,91.2z"/>
		<path class="st0" d="M118.9,59.3c0.3,0.4,0.8,0.6,1.3,0.4l21.4-11.2c-0.6-1.1-1.3-2.2-1.9-3.3L119.2,58
			C118.8,58.3,118.6,58.9,118.9,59.3z"/>
		<path class="st0" d="M44.9,102c-0.3-0.5-0.8-0.6-1.3-0.4l-21.4,11.2c0.6,1.1,1.3,2.3,1.9,3.3l20.4-12.9
			C45,103.1,45.1,102.5,44.9,102z"/>
		<path class="st2" d="M56.1,15.8c1.2-0.5,2.5-1,3.8-1.4l-1-3.2c-0.4-1.2-1.6-1.8-2.8-1.4c-1.2,0.4-1.7,1.7-1.2,2.9L56.1,15.8z"/>
		<path class="st2" d="M130.5,26.1c0.8-0.9,0.8-2.3-0.2-3.1c-0.9-0.8-2.3-0.6-3.1,0.4l-2,2.6c1,0.8,2.1,1.7,3.1,2.6L130.5,26.1z"/>
		<path class="st2" d="M154.2,70.1c1.2-0.2,2.1-1.3,1.9-2.5c-0.2-1.2-1.4-2-2.6-1.7l-3.3,0.7c0.3,1.3,0.5,2.6,0.7,4L154.2,70.1z"/>
		<path class="st2" d="M146.2,46c1.1-0.6,1.5-1.9,0.9-3c-0.6-1.1-2-1.4-3-0.7l-2.8,1.8c0.7,1.1,1.4,2.3,2,3.5L146.2,46z"/>
		<path class="st0" d="M109.3,47.9L109.3,47.9c0.4,0.3,1,0.3,1.3-0.1L126.9,30c-1-0.9-1.9-1.7-3-2.5l-14.8,19.1
			C108.9,47,108.9,47.6,109.3,47.9z"/>
		<path class="st0" d="M96.5,40.5c0.5,0.2,1-0.1,1.2-0.5l9.2-22.4c-1.2-0.5-2.4-0.9-3.6-1.3l-7.4,23C95.7,39.8,96,40.3,96.5,40.5z"
			/>
		<path class="st2" d="M108.9,12.8c0.5-1.1-0.1-2.4-1.2-2.9c-1.2-0.4-2.4,0.2-2.8,1.4l-1,3.2c1.3,0.4,2.5,0.9,3.8,1.4L108.9,12.8z"
			/>
		<path class="st2" d="M128.2,132.8c-1,0.9-2,1.8-3.1,2.6l2,2.6c0.7,1,2.2,1.1,3.1,0.4c0.9-0.8,1-2.2,0.2-3.1L128.2,132.8z"/>
		<path class="st0" d="M110.7,113.5c-0.4-0.4-0.9-0.4-1.4-0.1c-0.4,0.3-0.5,0.9-0.1,1.3l14.8,19.1c1-0.8,2-1.6,3-2.5L110.7,113.5z"
			/>
		<path class="st0" d="M120.2,101.7c-0.5-0.2-1-0.1-1.3,0.4c-0.3,0.5-0.1,1,0.3,1.3l20.4,12.9c0.7-1.1,1.3-2.2,1.9-3.3L120.2,101.7z
			"/>
		<path class="st2" d="M146.2,115.3l-2.9-1.6c-0.6,1.2-1.3,2.3-2,3.5l2.8,1.8c1,0.7,2.4,0.3,3-0.7
			C147.7,117.3,147.3,115.9,146.2,115.3z"/>
		<path class="st2" d="M107.6,145.5c-1.2,0.5-2.5,1-3.8,1.4l1,3.2c0.4,1.2,1.6,1.8,2.8,1.4c1.2-0.4,1.7-1.7,1.2-2.9L107.6,145.5z"/>
		<path class="st0" d="M124.7,72.1c-0.5,0.1-0.8,0.6-0.7,1.1c0.1,0.5,0.6,0.9,1.1,0.8l23.9-3.2c-0.2-1.3-0.4-2.6-0.7-3.8L124.7,72.1
			z"/>
		<path class="st2" d="M154.2,91.2l-3.3-0.4c-0.2,1.3-0.4,2.6-0.7,4l3.3,0.7c1.2,0.3,2.4-0.5,2.6-1.7
			C156.2,92.5,155.4,91.4,154.2,91.2z"/>
		<path class="st0" d="M123.9,88.1c-0.1,0.5,0.2,1,0.7,1.1l23.6,5.1c0.3-1.3,0.5-2.5,0.7-3.8L125,87.3
			C124.5,87.2,124,87.6,123.9,88.1z"/>
		<path class="st0" d="M97.7,121.4c-0.2-0.5-0.7-0.7-1.2-0.5c-0.5,0.2-0.8,0.7-0.6,1.2l7.4,23c1.2-0.4,2.4-0.9,3.6-1.3L97.7,121.4z"
			/>
		<path class="st0" d="M81.9,37.9c0.5,0,1-0.4,1-0.9l1-24.2c-0.6,0-1.3,0-1.9,0c-0.6,0-1.3,0-1.9,0l1,24.2
			C80.9,37.5,81.4,37.9,81.9,37.9z"/>
		<path class="st2" d="M54.9,148.6c-0.5,1.1,0.1,2.4,1.2,2.9c1.2,0.4,2.4-0.2,2.8-1.4l1-3.2c-1.3-0.4-2.5-0.9-3.8-1.4L54.9,148.6z"
			/>
		<path class="st0" d="M60.5,16.3c-1.2,0.4-2.4,0.9-3.6,1.3L66,40c0.2,0.5,0.7,0.7,1.2,0.5c0.5-0.2,0.8-0.7,0.6-1.2L60.5,16.3z"/>
		<path class="st0" d="M67.2,120.8c-0.5-0.2-1,0.1-1.2,0.5l-9.2,22.4c1.2,0.5,2.4,0.9,3.6,1.3l7.4-23C68,121.5,67.7,121,67.2,120.8z
			"/>
		<path class="st0" d="M55.1,114C55.1,114,55.1,114,55.1,114c-0.2-0.1-0.3-0.3-0.5-0.4c-0.5-0.4-1.3-0.4-1.8,0.1l-16,17.6
			c1,0.9,1.9,1.7,3,2.5L55.1,114L55.1,114L55.1,114z"/>
		<path class="st2" d="M81.9,150.4c-0.7,0-1.3,0-2,0l-0.1,3.3c0,1.2,0.9,2.3,2.1,2.3c1.2,0,2.2-1,2.1-2.3l-0.1-3.3
			C83.2,150.4,82.5,150.4,81.9,150.4z"/>
		<path class="st2" d="M81.9,5.4c-1.2,0-2.2,1-2.1,2.3l0.1,3.3c0.7,0,1.3,0,2,0c0.7,0,1.3,0,2,0L84,7.6C84.1,6.4,83.1,5.4,81.9,5.4z
			"/>
		<path class="st2" d="M33.3,135.2c-0.8,0.9-0.8,2.3,0.2,3.1c0.9,0.8,2.3,0.6,3.1-0.4l2-2.6c-1-0.8-2.1-1.7-3.1-2.6L33.3,135.2z"/>
		<path class="st0" d="M81.9,148.5c0.6,0,1.3,0,1.9,0l-1-24.2c0-0.5-0.5-0.9-1-0.9c-0.5,0-1,0.4-1,0.9l-1,24.2
			C80.6,148.5,81.2,148.5,81.9,148.5z"/>
	</g>
	<g>
		<path class="st0" d="M106.5,38c0.6,0.3,1.3,0.2,1.7-0.4l2.3-3.7c-0.8-0.5-1.6-1-2.5-1.4l-2,3.9C105.7,37,105.9,37.7,106.5,38z"/>
		<path class="st0" d="M44.1,47.3l-3.2-2.9c-0.6,0.7-1.2,1.4-1.8,2.2l3.4,2.7c0.5,0.4,1.3,0.3,1.7-0.2
			C44.6,48.5,44.5,47.7,44.1,47.3z"/>
		<path class="st0" d="M70.6,25.1c1-0.2,2-0.4,2.9-0.5L70.5,2.1c-0.2-1.3-1.4-2.3-2.8-2c-1.3,0.2-2.2,1.5-1.9,2.9L70.6,25.1z"/>
		<path class="st0" d="M90.4,32.2c0.7,0.1,1.3-0.3,1.4-0.9l0.9-4.3c-0.9-0.2-1.9-0.4-2.8-0.5l-0.6,4.3
			C89.3,31.5,89.8,32.1,90.4,32.2z"/>
		<path class="st0" d="M52.2,32.3c0.8-0.5,1.7-1,2.6-1.5L44.3,10.7c-0.6-1.2-2.1-1.6-3.3-1c-1.2,0.7-1.6,2.2-0.8,3.4L52.2,32.3z"/>
		<path class="st0" d="M42.4,112.1l-3.4,2.7c0.6,0.7,1.2,1.5,1.8,2.2L44,114c0.5-0.4,0.5-1.2,0.1-1.7
			C43.7,111.8,43,111.7,42.4,112.1z"/>
		<path class="st0" d="M135.7,62.7l21.6-6.9c1.3-0.4,2-1.8,1.5-3.1c-0.5-1.3-1.9-1.9-3.2-1.4l-21,8.6
			C135,60.8,135.3,61.7,135.7,62.7z"/>
		<path class="st0" d="M34.9,99.1c0.6-0.3,0.9-0.9,0.7-1.6c-0.2-0.6-0.9-1-1.5-0.8l-4.2,1.3c0.3,0.9,0.6,1.8,1,2.7L34.9,99.1z"/>
		<path class="st0" d="M19.5,31.5l18,13.9c0.6-0.8,1.3-1.5,1.9-2.3L22.6,27.8c-1-0.9-2.6-0.8-3.4,0.2C18.3,29.1,18.5,30.6,19.5,31.5
			z"/>
		<path class="st0" d="M32.6,80.7c0-0.7-0.5-1.2-1.2-1.2l-4.4-0.2c0,0.5,0,0.9,0,1.4c0,0.5,0,0.9,0,1.4l4.4-0.2
			C32.1,81.9,32.6,81.3,32.6,80.7z"/>
		<path class="st0" d="M136.7,80.7c0-0.5,0-0.9,0-1.4l-4.4,0.2c-0.7,0-1.2,0.6-1.2,1.2c0,0.7,0.5,1.2,1.2,1.2l4.4,0.2
			C136.7,81.6,136.7,81.1,136.7,80.7z"/>
		<path class="st0" d="M129.7,64.6l4.1-1.3c-0.3-0.9-0.6-1.8-1-2.7l-4,1.7c-0.6,0.3-0.9,0.9-0.7,1.6
			C128.4,64.5,129.1,64.8,129.7,64.6z"/>
		<path class="st0" d="M128.8,99.1l4,1.7c0.3-0.9,0.7-1.8,1-2.7l-4.1-1.3c-0.6-0.2-1.3,0.1-1.5,0.8
			C127.9,98.1,128.2,98.8,128.8,99.1z"/>
		<path class="st0" d="M144.2,31.5c1.1-0.8,1.2-2.4,0.4-3.4c-0.9-1-2.4-1.1-3.4-0.2l-16.8,15.3c0.7,0.7,1.3,1.5,1.9,2.3L144.2,31.5z
			"/>
		<path class="st0" d="M119.6,112.3c-0.4,0.5-0.4,1.3,0.1,1.7l3.2,2.9c0.6-0.7,1.2-1.4,1.8-2.2l-3.4-2.7
			C120.8,111.7,120,111.8,119.6,112.3z"/>
		<path class="st0" d="M123.6,13.1c0.7-1.2,0.3-2.7-0.8-3.4c-1.2-0.7-2.7-0.2-3.3,1l-10.6,20.1c0.9,0.5,1.7,1,2.6,1.5L123.6,13.1z"
			/>
		<path class="st0" d="M122.9,44.4l-3.2,2.9c-0.5,0.4-0.5,1.2-0.1,1.7c0.4,0.5,1.2,0.6,1.7,0.2l3.4-2.7
			C124.1,45.8,123.5,45.1,122.9,44.4z"/>
		<path class="st0" d="M34.9,62.2l-4-1.7c-0.3,0.9-0.7,1.8-1,2.7l4.2,1.3c0.6,0.2,1.3-0.1,1.5-0.8C35.8,63.2,35.5,62.5,34.9,62.2z"
			/>
		<path class="st0" d="M96.1,0c-1.3-0.2-2.6,0.7-2.8,2l-3.1,22.5c1,0.1,2,0.3,2.9,0.5L98,2.9C98.3,1.6,97.4,0.3,96.1,0z"/>
		<path class="st0" d="M93.2,136.2c-1,0.2-2,0.4-2.9,0.5l3.1,22.5c0.2,1.3,1.4,2.3,2.8,2c1.3-0.2,2.2-1.5,1.9-2.9L93.2,136.2z"/>
		<path class="st0" d="M108.2,123.7c-0.4-0.6-1.1-0.7-1.7-0.4c-0.6,0.3-0.8,1.1-0.5,1.6l2,3.9c0.8-0.5,1.6-0.9,2.5-1.4L108.2,123.7z
			"/>
		<path class="st0" d="M111.5,129c-0.8,0.5-1.7,1-2.6,1.5l10.6,20.1c0.6,1.2,2.1,1.6,3.3,1c1.2-0.7,1.6-2.2,0.8-3.4L111.5,129z"/>
		<path class="st0" d="M91.8,130.1c-0.1-0.6-0.8-1.1-1.4-0.9c-0.7,0.1-1.1,0.7-1,1.4l0.6,4.3c0.9-0.1,1.9-0.3,2.8-0.5L91.8,130.1z"
			/>
		<path class="st0" d="M144.2,129.9l-18-13.9c-0.6,0.8-1.3,1.5-1.9,2.3l16.8,15.3c1,0.9,2.6,0.8,3.4-0.2
			C145.5,132.3,145.3,130.7,144.2,129.9z"/>
		<path class="st0" d="M161.3,78.3l-22.7,0.9c0,0.5,0,1,0,1.5c0,0.5,0,1,0,1.5l22.7,0.9c1.4,0.1,2.5-1,2.5-2.4
			S162.6,78.2,161.3,78.3z"/>
		<path class="st0" d="M73.8,26.5c-0.9,0.1-1.9,0.3-2.8,0.5l0.9,4.3c0.1,0.7,0.8,1.1,1.4,0.9c0.7-0.1,1.1-0.7,1-1.4L73.8,26.5z"/>
		<path class="st0" d="M157.3,105.6l-21.6-6.9c-0.3,0.9-0.7,1.9-1,2.8l21,8.6c1.3,0.5,2.7-0.1,3.2-1.4
			C159.3,107.4,158.6,106,157.3,105.6z"/>
		<path class="st0" d="M28.1,98.6l-21.6,6.9c-1.3,0.4-2,1.8-1.5,3.1c0.5,1.3,1.9,1.9,3.2,1.4l21-8.6C28.7,100.5,28.4,99.6,28.1,98.6
			z"/>
		<path class="st0" d="M6.5,55.8l21.6,6.9c0.3-0.9,0.7-1.9,1-2.8l-21-8.6c-1.3-0.5-2.7,0.1-3.2,1.4C4.5,53.9,5.2,55.3,6.5,55.8z"/>
		<path class="st0" d="M40.1,148.2c-0.7,1.2-0.4,2.7,0.8,3.4c1.2,0.7,2.7,0.2,3.3-1l10.6-20.1c-0.9-0.5-1.7-1-2.6-1.5L40.1,148.2z"
			/>
		<path class="st0" d="M19.5,129.9c-1.1,0.8-1.2,2.4-0.4,3.4c0.9,1,2.4,1.1,3.4,0.2l16.8-15.3c-0.7-0.7-1.3-1.5-1.9-2.3L19.5,129.9z
			"/>
		<path class="st0" d="M25.2,80.7c0-0.5,0-1,0-1.5L2.5,78.3c-1.4-0.1-2.5,1-2.5,2.4c0,1.4,1.1,2.4,2.5,2.4l22.7-0.9
			C25.2,81.7,25.2,81.2,25.2,80.7z"/>
		<path class="st0" d="M57.2,123.3c-0.6-0.3-1.3-0.2-1.7,0.4l-2.3,3.7c0.8,0.5,1.6,1,2.5,1.4l2-3.9C58,124.4,57.8,123.6,57.2,123.3z
			"/>
		<path class="st0" d="M65.7,158.4c-0.3,1.3,0.6,2.6,1.9,2.9c1.3,0.2,2.6-0.7,2.8-2l3.1-22.5c-1-0.1-2-0.3-2.9-0.5L65.7,158.4z"/>
		<path class="st0" d="M73.3,129.2c-0.7-0.1-1.3,0.3-1.4,0.9l-0.9,4.3c0.9,0.2,1.9,0.4,2.8,0.5l0.6-4.3
			C74.4,129.9,74,129.3,73.3,129.2z"/>
		<path class="st0" d="M55.7,32.5c-0.8,0.5-1.6,0.9-2.5,1.4l2.3,3.7c0.4,0.6,1.1,0.7,1.7,0.4c0.6-0.3,0.8-1.1,0.5-1.6L55.7,32.5z"/>
	</g>
	<g>
		<path class="st0" d="M59,88.7h3.2c1.8,0,3.2-1.5,3.2-3.2v-13c0-9,7.3-16.2,16.2-16.2l0,0c9,0,16.2,7.3,16.2,16.2v13
			c0,1.8,1.5,3.2,3.2,3.2h3.2V72.4c0-12.5-10.2-22.7-22.7-22.7l0,0C69.1,49.7,59,59.9,59,72.4L59,88.7L59,88.7z"/>
		<path class="st0" d="M81.7,62.7L81.7,62.7c-5.4,0-9.7,4.4-9.7,9.7v16.2c0,3.6-2.9,6.5-6.5,6.5H59v6.5h6.5c7.2,0,13-5.8,13-13V72.4
			c0-1.8,1.5-3.2,3.2-3.2l0,0c1.8,0,3.2,1.5,3.2,3.2v16.2c0,7.2,5.8,13,13,13h6.5v-6.5h-6.5c-3.6,0-6.5-2.9-6.5-6.5V72.4
			C91.4,67.1,87.1,62.7,81.7,62.7z"/>
	</g>
</g>
</svg>
