<svg xmlns="http://www.w3.org/2000/svg" viewBox="0 0 224.01 90.13"><defs><style>.cls-1{fill:#5757f7;}.cls-2{isolation:isolate;font-size:33.44px;fill:#111;font-family:IBMPlexMono-SemiBold, IBM Plex Mono;font-weight:600;}</style></defs><g id="Layer_2" data-name="Layer 2"><g id="Layer_1-2" data-name="Layer 1"><path class="cls-1" d="M33,60.1a.39.39,0,0,1-.39-.4V56.91a.36.36,0,0,1,.37-.37h0a.37.37,0,0,1,.39.35v2.84A.39.39,0,0,1,33,60.1Z"/><path class="cls-1" d="M33,69.46a.41.41,0,0,1-.39-.42V63.49a.4.4,0,0,1,.39-.42h0a.41.41,0,0,1,.39.42V69A.42.42,0,0,1,33,69.46Z"/><path class="cls-1" d="M33.05,76a.38.38,0,0,1-.39-.35V72.81a.41.41,0,0,1,.39-.41h0a.41.41,0,0,1,.39.41V75.6a.39.39,0,0,1-.39.4Z"/><path class="cls-1" d="M41.16,71.36a.41.41,0,0,1-.19,0l-2.43-1.4a.4.4,0,0,1-.15-.54.4.4,0,0,1,.54-.14l2.43,1.4a.38.38,0,0,1,.14.52h0A.4.4,0,0,1,41.16,71.36Z"/><path class="cls-1" d="M35.41,68.05a.31.31,0,0,1-.19,0l-4.77-2.75a.38.38,0,0,1-.14-.52h0a.39.39,0,0,1,.53-.14h0l4.77,2.75a.38.38,0,0,1,.15.52h0A.36.36,0,0,1,35.41,68.05Z"/><path class="cls-1" d="M27.36,63.41a.45.45,0,0,1-.19,0L24.74,62a.4.4,0,0,1-.14-.54.39.39,0,0,1,.53-.14l2.44,1.4a.4.4,0,0,1,.14.53h0A.44.44,0,0,1,27.36,63.41Z"/><path class="cls-1" d="M38.71,63.35a.39.39,0,0,1-.34-.19.37.37,0,0,1,.13-.52h0l2.43-1.42a.39.39,0,0,1,.53.13h0a.39.39,0,0,1-.13.53h0L38.9,63.31A.43.43,0,0,1,38.71,63.35Z"/><path class="cls-1" d="M30.65,68a.39.39,0,0,1-.4-.37.39.39,0,0,1,.2-.35l4.77-2.77a.39.39,0,0,1,.53.14.4.4,0,0,1-.14.54L30.84,68A.41.41,0,0,1,30.65,68Z"/><path class="cls-1" d="M24.93,71.37a.36.36,0,0,1-.34-.18.39.39,0,0,1,.14-.53h0l2.43-1.42a.4.4,0,0,1,.54.15.39.39,0,0,1-.15.53l-2.43,1.42A.4.4,0,0,1,24.93,71.37Z"/><path class="cls-1" d="M30.68,58.64a.39.39,0,0,1-.34-.19.37.37,0,0,1,.13-.52h0L33,56.43l2.55,1.48a.38.38,0,0,1,.15.53.4.4,0,0,1-.54.15h0L33,57.34l-2.15,1.27A.76.76,0,0,1,30.68,58.64Z"/><path class="cls-1" d="M41.11,64.72a.39.39,0,0,1-.39-.38h0V61.77l-2.15-1.23a.38.38,0,0,1-.14-.52h0a.37.37,0,0,1,.5-.15h0l2.55,1.45v3a.38.38,0,0,1-.39.39Z"/><path class="cls-1" d="M38.77,72.72a.41.41,0,0,1-.22-.74h0l2.16-1.25V68.21a.39.39,0,1,1,.78-.07v3L39,72.65A.24.24,0,0,1,38.77,72.72Z"/><path class="cls-1" d="M33.05,76.1,30.5,74.63a.38.38,0,0,1-.15-.53.4.4,0,0,1,.54-.15l2.16,1.25L35.22,74a.37.37,0,0,1,.52.13h0a.38.38,0,0,1-.14.53h0Z"/><path class="cls-1" d="M27.28,72.72a.73.73,0,0,1-.2,0L24.51,71.2v-3a.39.39,0,0,1,.78,0h0v2.53L27.47,72a.39.39,0,0,1,.16.53h0A.39.39,0,0,1,27.28,72.72Z"/><path class="cls-1" d="M24.9,64.72a.39.39,0,0,1-.39-.38h0V61.4l2.56-1.5a.39.39,0,1,1,.4.67l-2.16,1.28v2.48A.41.41,0,0,1,24.9,64.72Z"/><path class="cls-1" d="M33,31.89a.4.4,0,0,1-.39-.42V28.68A.38.38,0,0,1,33,28.3h0a.37.37,0,0,1,.39.34v2.82a.39.39,0,0,1-.39.4Z"/><path class="cls-1" d="M33,41.24a.41.41,0,0,1-.4-.4V35.29a.42.42,0,0,1,.39-.42h0a.4.4,0,0,1,.39.41v5.55a.42.42,0,0,1-.39.43Z"/><path class="cls-1" d="M33.05,47.79a.38.38,0,0,1-.39-.36h0V44.61a.39.39,0,0,1,.39-.4h0a.39.39,0,0,1,.39.4v2.81A.39.39,0,0,1,33.05,47.79Z"/><path class="cls-1" d="M41.16,43.14a.31.31,0,0,1-.19,0l-2.43-1.4a.39.39,0,1,1,.39-.68l2.43,1.4a.38.38,0,0,1,.14.52h0A.47.47,0,0,1,41.16,43.14Z"/><path class="cls-1" d="M35.41,39.84a.32.32,0,0,1-.19-.05L30.45,37a.4.4,0,0,1-.14-.54.4.4,0,0,1,.53-.15h0l4.77,2.75a.38.38,0,0,1,.15.52h0A.39.39,0,0,1,35.41,39.84Z"/><path class="cls-1" d="M27.36,35.2a.45.45,0,0,1-.19-.05l-2.43-1.4a.4.4,0,0,1-.14-.54.38.38,0,0,1,.53-.14l2.44,1.4a.39.39,0,0,1,.14.52h0A.49.49,0,0,1,27.36,35.2Z"/><path class="cls-1" d="M38.71,35.13a.39.39,0,0,1-.34-.19.38.38,0,0,1,.13-.52h0L40.94,33a.39.39,0,0,1,.53.13h0a.37.37,0,0,1-.13.52h0L38.9,35.09A.58.58,0,0,1,38.71,35.13Z"/><path class="cls-1" d="M30.65,39.82a.39.39,0,0,1-.39-.38.37.37,0,0,1,.19-.34l4.77-2.78a.4.4,0,0,1,.53.15.39.39,0,0,1-.14.53l-4.77,2.78A.41.41,0,0,1,30.65,39.82Z"/><path class="cls-1" d="M24.93,43.14a.36.36,0,0,1-.34-.18.39.39,0,0,1,.13-.53h0L27.16,41a.4.4,0,0,1,.54.15.39.39,0,0,1-.15.53l-2.43,1.42A.31.31,0,0,1,24.93,43.14Z"/><path class="cls-1" d="M30.68,30.41a.39.39,0,0,1-.34-.19.38.38,0,0,1,.13-.52h0L33,28.2l2.55,1.48a.38.38,0,0,1,.15.53.4.4,0,0,1-.54.15L33,29.11l-2.15,1.26A.52.52,0,0,1,30.68,30.41Z"/><path class="cls-1" d="M41.11,36.5a.38.38,0,0,1-.39-.38h0V33.54l-2.15-1.21a.41.41,0,0,1-.09-.55.39.39,0,0,1,.47-.13L41.5,33.1v3a.38.38,0,0,1-.39.38Z"/><path class="cls-1" d="M38.77,44.5a.36.36,0,0,1-.34-.2.39.39,0,0,1,.12-.53h0l2.16-1.25V40a.39.39,0,0,1,.42-.35.39.39,0,0,1,.36.35v3L39,44.45A.31.31,0,0,1,38.77,44.5Z"/><path class="cls-1" d="M33.05,47.88,30.5,46.42a.39.39,0,0,1-.15-.53.4.4,0,0,1,.54-.15h0L33.05,47l2.17-1.24a.37.37,0,0,1,.52.13h0a.38.38,0,0,1-.14.53h0Z"/><path class="cls-1" d="M27.28,44.5a.37.37,0,0,1-.2,0L24.51,43V40a.39.39,0,1,1,.78,0v2.53l2.18,1.23a.39.39,0,0,1,.16.53h0A.37.37,0,0,1,27.28,44.5Z"/><path class="cls-1" d="M24.9,36.5a.38.38,0,0,1-.39-.38h0V33.17l2.56-1.5a.39.39,0,0,1,.54.14.38.38,0,0,1-.15.53h0l-2.17,1.27V36.1a.39.39,0,0,1-.37.4Z"/><path class="cls-1" d="M33,3.68a.42.42,0,0,1-.4-.41V.48A.38.38,0,0,1,33,.11h0a.37.37,0,0,1,.39.35V3.3a.4.4,0,0,1-.39.38Z"/><path class="cls-1" d="M33,13a.42.42,0,0,1-.4-.42V7.06A.42.42,0,0,1,33,6.64h0a.4.4,0,0,1,.39.42v5.55A.42.42,0,0,1,33,13Z"/><path class="cls-1" d="M33.05,19.58a.38.38,0,0,1-.39-.36V16.38a.41.41,0,0,1,.39-.4h0a.41.41,0,0,1,.39.41v2.79a.4.4,0,0,1-.39.41Z"/><path class="cls-1" d="M41.16,14.93a.41.41,0,0,1-.19,0l-2.43-1.41a.38.38,0,0,1-.15-.53.4.4,0,0,1,.54-.15l2.43,1.41a.38.38,0,0,1,.14.52h0A.4.4,0,0,1,41.16,14.93Z"/><path class="cls-1" d="M35.41,11.63a.41.41,0,0,1-.19-.05L30.46,8.83a.38.38,0,0,1-.14-.52h0a.39.39,0,0,1,.53-.14h0l4.76,2.75a.38.38,0,0,1,.15.52h0A.41.41,0,0,1,35.41,11.63Z"/><path class="cls-1" d="M27.36,7a.43.43,0,0,1-.19,0L24.74,5.53A.39.39,0,0,1,24.6,5a.39.39,0,0,1,.53-.15l2.44,1.4a.39.39,0,0,1,.14.53h0A.42.42,0,0,1,27.36,7Z"/><path class="cls-1" d="M38.71,6.92a.39.39,0,0,1-.34-.19.38.38,0,0,1,.13-.52h0l2.43-1.42a.39.39,0,0,1,.53.14h0a.39.39,0,0,1-.13.53h0L38.9,6.87A.32.32,0,0,1,38.71,6.92Z"/><path class="cls-1" d="M30.65,11.61a.38.38,0,0,1-.2-.71l4.77-2.78a.39.39,0,0,1,.39.68l-4.77,2.76A.41.41,0,0,1,30.65,11.61Z"/><path class="cls-1" d="M24.93,15a.39.39,0,0,1-.2-.72h0l2.43-1.41a.39.39,0,1,1,.39.68l-2.43,1.41A.41.41,0,0,1,24.93,15Z"/><path class="cls-1" d="M30.68,2.21A.38.38,0,0,1,30.34,2a.39.39,0,0,1,.13-.53h0L33,0l2.55,1.48a.4.4,0,0,1,.15.54.4.4,0,0,1-.54.14L33,.92,30.89,2.18A.76.76,0,0,1,30.68,2.21Z"/><path class="cls-1" d="M41.11,8.29a.39.39,0,0,1-.39-.38h0V5.35L38.57,4.11a.38.38,0,0,1-.14-.52h0a.38.38,0,0,1,.5-.16h0L41.5,4.89v3A.39.39,0,0,1,41.11,8.29Z"/><path class="cls-1" d="M38.77,16.29a.39.39,0,0,1-.34-.21.38.38,0,0,1,.12-.52h0l2.16-1.24V11.8a.39.39,0,0,1,.42-.36.4.4,0,0,1,.36.36v3L39,16.24A.41.41,0,0,1,38.77,16.29Z"/><path class="cls-1" d="M33.05,19.67,30.5,18.21a.39.39,0,1,1,.39-.68l2.16,1.24,2.17-1.24a.37.37,0,0,1,.52.13h0a.38.38,0,0,1-.14.53h0Z"/><path class="cls-1" d="M27.28,16.29a.49.49,0,0,1-.2-.05l-2.57-1.46v-3a.39.39,0,0,1,.78,0v2.52l2.18,1.23a.4.4,0,0,1,.16.53h0A.39.39,0,0,1,27.28,16.29Z"/><path class="cls-1" d="M24.9,8.29a.39.39,0,0,1-.39-.38h0V5l2.56-1.49a.38.38,0,0,1,.54.14.38.38,0,0,1-.14.52L25.29,5.43V7.92A.39.39,0,0,1,24.9,8.29Z"/><path class="cls-1" d="M8.56,17.71a.41.41,0,0,1-.39-.41V14.51a.38.38,0,0,1,.37-.37h0a.37.37,0,0,1,.39.35v2.85a.39.39,0,0,1-.39.38Z"/><path class="cls-1" d="M8.56,27.06a.42.42,0,0,1-.39-.42V21.09a.42.42,0,0,1,.39-.42h0a.4.4,0,0,1,.39.42v5.55A.42.42,0,0,1,8.56,27.06Z"/><path class="cls-1" d="M8.58,33.61a.38.38,0,0,1-.39-.36V30.41A.41.41,0,0,1,8.58,30h0a.41.41,0,0,1,.39.41V33.2A.41.41,0,0,1,8.58,33.61Z"/><path class="cls-1" d="M16.67,29a.32.32,0,0,1-.19-.05l-2.43-1.4a.39.39,0,0,1-.14-.52h0a.38.38,0,0,1,.52-.14h0l2.43,1.4a.39.39,0,0,1,.15.53h0A.39.39,0,0,1,16.67,29Z"/><path class="cls-1" d="M10.93,25.66a.37.37,0,0,1-.18-.05L6,22.86a.39.39,0,0,1-.15-.52h0a.38.38,0,0,1,.52-.15h0l4.77,2.72a.39.39,0,0,1,.14.53h0A.39.39,0,0,1,10.93,25.66Z"/><path class="cls-1" d="M2.89,21A.32.32,0,0,1,2.7,21L.27,19.56a.38.38,0,0,1,.38-.66h0l2.43,1.4a.39.39,0,0,1,.15.53h0A.41.41,0,0,1,2.89,21Z"/><path class="cls-1" d="M14.26,21a.39.39,0,0,1-.34-.19.38.38,0,0,1,.13-.52h0l2.43-1.42A.39.39,0,0,1,17,19a.38.38,0,0,1-.14.53l-2.43,1.42A.43.43,0,0,1,14.26,21Z"/><path class="cls-1" d="M6.18,25.64a.39.39,0,0,1-.34-.19A.37.37,0,0,1,6,24.93H6l4.77-2.77a.38.38,0,0,1,.52.13h0a.39.39,0,0,1-.13.53h0L6.37,25.59A.34.34,0,0,1,6.18,25.64Z"/><path class="cls-1" d="M.46,29a.39.39,0,0,1-.21-.72h0l2.42-1.42a.39.39,0,0,1,.39.68L.64,28.92Z"/><path class="cls-1" d="M6.21,16.24a.39.39,0,0,1-.2-.72H6L8.57,14l2.55,1.48a.39.39,0,1,1-.38.68L8.57,14.94,6.42,16.19A.5.5,0,0,1,6.21,16.24Z"/><path class="cls-1" d="M16.64,22.32a.39.39,0,0,1-.39-.39h0V19.39L14.1,18.16a.39.39,0,0,1-.15-.52h0a.36.36,0,0,1,.49-.16h0L17,18.93v3A.4.4,0,0,1,16.64,22.32Z"/><path class="cls-1" d="M14.3,30.32a.41.41,0,0,1-.34-.21.38.38,0,0,1,.12-.52h0l2.15-1.25V25.81a.39.39,0,0,1,.78-.07v3.05l-2.55,1.46A.22.22,0,0,1,14.3,30.32Z"/><path class="cls-1" d="M8.58,33.69,6,32.22a.38.38,0,0,1-.14-.53.4.4,0,0,1,.53-.15h0l2.17,1.25,2.17-1.25a.4.4,0,0,1,.53.15.38.38,0,0,1-.14.53h0Z"/><path class="cls-1" d="M2.81,30.32a.46.46,0,0,1-.2-.05L0,28.82v-3a.39.39,0,0,1,.78-.08v2.6L3,29.6a.4.4,0,0,1,.16.53h0A.42.42,0,0,1,2.81,30.32Z"/><path class="cls-1" d="M.43,22.32A.38.38,0,0,1,0,21.93H0V19l2.55-1.5a.42.42,0,0,1,.55.14.4.4,0,0,1-.14.53L.82,19.45v2.49a.39.39,0,0,1-.39.38Z"/><path class="cls-1" d="M57.48,17.64a.38.38,0,0,1-.39-.38h0v-2.8a.39.39,0,0,1,.42-.36.4.4,0,0,1,.36.36v2.8a.38.38,0,0,1-.39.39Z"/><path class="cls-1" d="M57.48,26.84a.38.38,0,0,1-.39-.38h0V21a.39.39,0,0,1,.42-.35.39.39,0,0,1,.36.35v5.45a.39.39,0,0,1-.39.39Z"/><path class="cls-1" d="M57.48,33.54a.38.38,0,0,1-.39-.38h0v-2.8a.39.39,0,0,1,.35-.43.39.39,0,0,1,.43.36v2.87a.38.38,0,0,1-.38.39Z"/><path class="cls-1" d="M65.55,29a.34.34,0,0,1-.19-.05L63,27.51A.39.39,0,0,1,62.8,27a.4.4,0,0,1,.54-.15l2.43,1.4a.38.38,0,0,1,.14.52h0A.38.38,0,0,1,65.55,29Z"/><path class="cls-1" d="M59.83,25.66a.45.45,0,0,1-.19-.05l-4.76-2.75a.38.38,0,0,1-.15-.53.4.4,0,0,1,.54-.15L60,24.91a.38.38,0,0,1,.15.52h0A.41.41,0,0,1,59.83,25.66Z"/><path class="cls-1" d="M51.77,21a.34.34,0,0,1-.19-.05l-2.43-1.4A.39.39,0,0,1,49,19a.39.39,0,0,1,.53-.15L52,20.28a.4.4,0,0,1,.14.53h0A.41.41,0,0,1,51.77,21Z"/><path class="cls-1" d="M63.14,21a.39.39,0,0,1-.34-.19.38.38,0,0,1,.13-.52h0l2.43-1.42a.39.39,0,0,1,.39.68h0l-2.43,1.42A.43.43,0,0,1,63.14,21Z"/><path class="cls-1" d="M55.08,25.64a.39.39,0,0,1-.34-.19.38.38,0,0,1,.13-.52h0l4.76-2.77a.39.39,0,0,1,.53.13h0a.39.39,0,0,1-.13.53h0l-4.76,2.77A.45.45,0,0,1,55.08,25.64Z"/><path class="cls-1" d="M49.33,29a.39.39,0,0,1-.34-.19.38.38,0,0,1,.14-.53h0l2.43-1.42a.4.4,0,0,1,.54.15.39.39,0,0,1-.15.53l-2.42,1.4A.36.36,0,0,1,49.33,29Z"/><path class="cls-1" d="M55.16,16.24a.39.39,0,0,1-.34-.19.38.38,0,0,1,.13-.52h0L57.5,14l2.56,1.48a.39.39,0,0,1,.14.52h0a.39.39,0,0,1-.53.14h0L57.5,14.93l-2.15,1.26A.45.45,0,0,1,55.16,16.24Z"/><path class="cls-1" d="M65.58,22.32a.4.4,0,0,1-.39-.38h0V19.39L63,18.16a.38.38,0,0,1-.14-.52h0a.38.38,0,0,1,.5-.16h0L66,18.93v3A.38.38,0,0,1,65.58,22.32Z"/><path class="cls-1" d="M63.25,30.32a.41.41,0,0,1-.34-.21.37.37,0,0,1,.11-.52h0l2.15-1.25V25.81a.39.39,0,0,1,.78-.07v3.05l-2.54,1.46A.23.23,0,0,1,63.25,30.32Z"/><path class="cls-1" d="M57.53,33.69,55,32.22a.37.37,0,0,1-.14-.52h0a.39.39,0,0,1,.52-.14h0l2.17,1.25,2.16-1.25a.4.4,0,0,1,.54.15.39.39,0,0,1-.15.53Z"/><path class="cls-1" d="M51.76,30.32a.54.54,0,0,1-.21-.05L49,28.81v-3a.39.39,0,0,1,.43-.36.39.39,0,0,1,.35.36v2.52L52,29.59a.39.39,0,0,1,.15.52h0A.39.39,0,0,1,51.76,30.32Z"/><path class="cls-1" d="M49.37,22.32a.39.39,0,0,1-.39-.38h0V19l2.56-1.5a.41.41,0,0,1,.54.14.4.4,0,0,1-.13.53l-2.17,1.28v2.49A.41.41,0,0,1,49.37,22.32Z"/><path class="cls-1" d="M8.56,45.92a.41.41,0,0,1-.39-.41V42.73a.38.38,0,0,1,.37-.38h0a.37.37,0,0,1,.39.36v2.83A.39.39,0,0,1,8.56,45.92Z"/><path class="cls-1" d="M8.56,55.27a.42.42,0,0,1-.39-.42V49.3a.42.42,0,0,1,.39-.42h0A.4.4,0,0,1,9,49.3v5.55A.41.41,0,0,1,8.56,55.27Z"/><path class="cls-1" d="M8.58,61.82a.38.38,0,0,1-.39-.35V58.62a.41.41,0,0,1,.38-.42h0a.41.41,0,0,1,.39.41V61.4a.41.41,0,0,1-.39.41Z"/><path class="cls-1" d="M16.67,57.18a.41.41,0,0,1-.19,0l-2.43-1.4a.39.39,0,0,1-.14-.53h0a.39.39,0,0,1,.52-.14h0l2.43,1.41A.38.38,0,0,1,17,57h0A.4.4,0,0,1,16.67,57.18Z"/><path class="cls-1" d="M10.93,53.87a.37.37,0,0,1-.18,0L6,51.08a.39.39,0,0,1-.15-.52h0a.38.38,0,0,1,.52-.14h0l4.77,2.72a.39.39,0,0,1,.14.53h0A.4.4,0,0,1,10.93,53.87Z"/><path class="cls-1" d="M2.89,49.23a.41.41,0,0,1-.19,0L.27,47.77a.38.38,0,0,1-.14-.52h0a.39.39,0,0,1,.52-.14h0l2.43,1.41a.38.38,0,0,1,.15.52h0A.44.44,0,0,1,2.89,49.23Z"/><path class="cls-1" d="M14.26,49.16a.39.39,0,0,1-.34-.19.38.38,0,0,1,.13-.52h0L16.49,47a.38.38,0,0,1,.53.14.39.39,0,0,1-.14.54l-2.43,1.42A.42.42,0,0,1,14.26,49.16Z"/><path class="cls-1" d="M6.18,53.85a.4.4,0,0,1-.34-.18A.38.38,0,0,1,6,53.14H6l4.77-2.78a.38.38,0,0,1,.52.13h0a.39.39,0,0,1-.13.53h0L6.37,53.81A.43.43,0,0,1,6.18,53.85Z"/><path class="cls-1" d="M.46,57.18A.4.4,0,0,1,.12,57a.39.39,0,0,1,.13-.53h0l2.42-1.41a.4.4,0,0,1,.39.69L.64,57.14A.39.39,0,0,1,.46,57.18Z"/><path class="cls-1" d="M6.21,44.45a.36.36,0,0,1-.34-.18A.39.39,0,0,1,6,43.74H6l2.56-1.5,2.55,1.48a.4.4,0,0,1,.15.54.38.38,0,0,1-.53.14h0L8.57,43.15,6.42,44.41A.49.49,0,0,1,6.21,44.45Z"/><path class="cls-1" d="M16.64,50.53a.39.39,0,0,1-.39-.38h0V47.59L14.1,46.35a.38.38,0,0,1-.15-.51h0a.36.36,0,0,1,.49-.16h0L17,47.13v3a.38.38,0,0,1-.38.39Z"/><path class="cls-1" d="M14.3,58.54a.4.4,0,0,1-.34-.2.37.37,0,0,1,.12-.52h0l2.15-1.25V54A.39.39,0,1,1,17,54V57l-2.55,1.46A.18.18,0,0,1,14.3,58.54Z"/><path class="cls-1" d="M8.58,61.91,6,60.45a.39.39,0,0,1-.14-.54.38.38,0,0,1,.53-.14h0L8.58,61l2.17-1.24a.38.38,0,0,1,.53.14.39.39,0,0,1-.14.54Z"/><path class="cls-1" d="M2.81,58.54a.45.45,0,0,1-.2,0L0,57.05v-3a.4.4,0,0,1,.35-.43A.39.39,0,0,1,.82,54v2.59L3,57.83a.39.39,0,0,1,.16.53h0A.39.39,0,0,1,2.81,58.54Z"/><path class="cls-1" d="M.43,50.53A.38.38,0,0,1,0,50.15H0V47.21l2.55-1.49a.39.39,0,1,1,.41.67L.82,47.67v2.49a.38.38,0,0,1-.39.37Z"/><path class="cls-1" d="M8.53,74.07a.39.39,0,0,1-.39-.39h0V70.87a.4.4,0,0,1,.43-.35.38.38,0,0,1,.35.35v2.81a.38.38,0,0,1-.38.39Z"/><path class="cls-1" d="M8.53,83.27a.4.4,0,0,1-.39-.39h0V77.43a.39.39,0,0,1,.43-.35.37.37,0,0,1,.35.35v5.45a.38.38,0,0,1-.38.39Z"/><path class="cls-1" d="M8.53,90a.4.4,0,0,1-.39-.38h0v-2.8a.39.39,0,0,1,.36-.43.39.39,0,0,1,.42.35.11.11,0,0,1,0,.08v2.8a.38.38,0,0,1-.38.39Z"/><path class="cls-1" d="M16.61,85.39a.41.41,0,0,1-.19,0L14,83.94a.39.39,0,1,1,.39-.68l2.43,1.4a.39.39,0,0,1,.15.52.39.39,0,0,1-.35.2Z"/><path class="cls-1" d="M10.89,82.08a.41.41,0,0,1-.19,0L5.93,79.29a.39.39,0,0,1-.14-.52h0a.39.39,0,0,1,.53-.14h0l4.76,2.73a.38.38,0,0,1,.15.52h0A.4.4,0,0,1,10.89,82.08Z"/><path class="cls-1" d="M2.83,77.44a.41.41,0,0,1-.19,0L.21,76a.4.4,0,0,1-.15-.54.4.4,0,0,1,.54-.14L3,76.72a.39.39,0,0,1,.15.52h0A.39.39,0,0,1,2.83,77.44Z"/><path class="cls-1" d="M14.19,77.37a.36.36,0,0,1-.34-.18.39.39,0,0,1,.13-.53h0l2.43-1.43a.37.37,0,0,1,.52.13h0a.39.39,0,0,1-.12.53h0l-2.43,1.42A.41.41,0,0,1,14.19,77.37Z"/><path class="cls-1" d="M6.13,82.07a.39.39,0,0,1-.4-.37.39.39,0,0,1,.2-.35l4.77-2.77a.38.38,0,0,1,.53.14.4.4,0,0,1-.14.54h0L6.32,82A.41.41,0,0,1,6.13,82.07Z"/><path class="cls-1" d="M.4,85.4A.39.39,0,0,1,0,85a.42.42,0,0,1,.19-.35l2.43-1.41a.39.39,0,0,1,.54.14A.4.4,0,0,1,3,84L.6,85.37A.44.44,0,0,1,.4,85.4Z"/><path class="cls-1" d="M6.21,72.67A.39.39,0,0,1,6,72H6l2.56-1.49,2.55,1.48a.38.38,0,0,1,.15.53.4.4,0,0,1-.53.15L8.57,71.37,6.42,72.62A.5.5,0,0,1,6.21,72.67Z"/><path class="cls-1" d="M16.64,78.75a.39.39,0,0,1-.39-.39h0V75.8L14.1,74.57a.39.39,0,0,1-.15-.52h0a.35.35,0,0,1,.49-.15h0L17,75.35v3a.4.4,0,0,1-.38.39Z"/><path class="cls-1" d="M14.3,86.74a.39.39,0,0,1-.4-.39.42.42,0,0,1,.18-.34l2.15-1.25V82.24a.39.39,0,1,1,.78-.07.09.09,0,0,1,0,.07v3l-2.54,1.46A.21.21,0,0,1,14.3,86.74Z"/><path class="cls-1" d="M8.58,90.13,6,88.66A.39.39,0,0,1,6.41,88l2.17,1.25L10.75,88a.39.39,0,0,1,.39.68Z"/><path class="cls-1" d="M2.81,86.74a.45.45,0,0,1-.2,0L0,85.25v-3a.4.4,0,0,1,.35-.43.39.39,0,0,1,.43.36v2.59L3,86a.39.39,0,0,1,.16.53h0A.39.39,0,0,1,2.81,86.74Z"/><path class="cls-1" d="M.43,78.75A.38.38,0,0,1,0,78.36H0V75.43l2.55-1.5a.4.4,0,0,1,.55.14A.4.4,0,0,1,3,74.6L.82,75.88v2.49a.4.4,0,0,1-.39.38Z"/><path class="cls-1" d="M57.5,45.92a.41.41,0,0,1-.39-.41V42.73a.37.37,0,0,1,.37-.38h0a.38.38,0,0,1,.39.35v2.84A.4.4,0,0,1,57.5,45.92Z"/><path class="cls-1" d="M57.5,55.27a.42.42,0,0,1-.39-.42V49.3a.41.41,0,0,1,.39-.42h0a.42.42,0,0,1,.39.42v5.55A.42.42,0,0,1,57.5,55.27Z"/><path class="cls-1" d="M57.53,61.82a.38.38,0,0,1-.4-.36h0V58.62a.4.4,0,0,1,.4-.4h0a.38.38,0,0,1,.38.4v2.8A.4.4,0,0,1,57.53,61.82Z"/><path class="cls-1" d="M65.62,57.18a.41.41,0,0,1-.19,0L63,55.74a.4.4,0,0,1,.4-.69l2.43,1.41A.38.38,0,0,1,66,57h0A.4.4,0,0,1,65.62,57.18Z"/><path class="cls-1" d="M59.88,53.87a.37.37,0,0,1-.18,0l-4.77-2.74a.39.39,0,1,1,.39-.68h0l4.76,2.72a.39.39,0,0,1,.15.53h0A.4.4,0,0,1,59.88,53.87Z"/><path class="cls-1" d="M51.84,49.23a.41.41,0,0,1-.19,0l-2.43-1.41a.38.38,0,0,1-.15-.53.4.4,0,0,1,.54-.15L52,48.5a.38.38,0,0,1,.14.52h0A.44.44,0,0,1,51.84,49.23Z"/><path class="cls-1" d="M63.18,49.16a.39.39,0,0,1-.34-.19.38.38,0,0,1,.13-.52h0L65.41,47a.39.39,0,0,1,.54.14.4.4,0,0,1-.15.54l-2.43,1.42A.4.4,0,0,1,63.18,49.16Z"/><path class="cls-1" d="M55.12,53.85a.41.41,0,0,1-.35-.18.4.4,0,0,1,.14-.53h0l4.77-2.78a.4.4,0,0,1,.54.15.38.38,0,0,1-.15.53h0l-4.76,2.78A.32.32,0,0,1,55.12,53.85Z"/><path class="cls-1" d="M49.41,57.18a.38.38,0,0,1-.4-.37.4.4,0,0,1,.19-.35l2.43-1.41a.39.39,0,1,1,.39.68l-2.43,1.42A.57.57,0,0,1,49.41,57.18Z"/><path class="cls-1" d="M55.16,44.45a.36.36,0,0,1-.34-.18.39.39,0,0,1,.13-.53h0l2.55-1.5,2.56,1.48a.39.39,0,0,1,.16.52h0a.39.39,0,0,1-.53.15h0L57.5,43.14l-2.15,1.27A.65.65,0,0,1,55.16,44.45Z"/><path class="cls-1" d="M65.58,50.53a.4.4,0,0,1-.39-.38h0V47.59L63,46.35a.37.37,0,0,1-.14-.51h0a.38.38,0,0,1,.5-.16h0L66,47.13v3a.38.38,0,0,1-.38.39Z"/><path class="cls-1" d="M63.25,58.54a.4.4,0,0,1-.34-.2.37.37,0,0,1,.11-.52h0l2.15-1.25V54A.39.39,0,1,1,66,54V57l-2.54,1.46A.22.22,0,0,1,63.25,58.54Z"/><path class="cls-1" d="M57.53,61.91,55,60.45a.38.38,0,0,1-.14-.53h0a.38.38,0,0,1,.52-.15h0L57.53,61l2.16-1.24a.39.39,0,1,1,.39.68h0Z"/><path class="cls-1" d="M51.76,58.54a.52.52,0,0,1-.21,0L49,57v-3a.39.39,0,0,1,.43-.35.38.38,0,0,1,.35.35v2.53L52,57.81a.39.39,0,0,1,.15.52h0A.36.36,0,0,1,51.76,58.54Z"/><path class="cls-1" d="M49.37,50.53a.39.39,0,0,1-.39-.38h0V47.21l2.56-1.49a.39.39,0,0,1,.54.14.4.4,0,0,1-.13.53l-2.17,1.28v2.49A.41.41,0,0,1,49.37,50.53Z"/><path class="cls-1" d="M8.56,14.85a.4.4,0,0,1-.34-.2.38.38,0,0,1,.14-.53h0l3-1.68a.38.38,0,0,1,.53.14.39.39,0,0,1-.14.54h0l-3,1.67A.31.31,0,0,1,8.56,14.85Z"/><path class="cls-1" d="M14.41,11.56a.43.43,0,0,1-.34-.21.38.38,0,0,1,.13-.52h0l4.67-2.67a.39.39,0,0,1,.53.14h0a.39.39,0,0,1-.13.53h0L14.6,11.49A.44.44,0,0,1,14.41,11.56Z"/><path class="cls-1" d="M21.94,7.28a.4.4,0,0,1-.34-.2.39.39,0,0,1,.12-.53h0l3-1.68a.4.4,0,0,1,.54.15.38.38,0,0,1-.15.53l-3,1.69A.24.24,0,0,1,21.94,7.28Z"/><path class="cls-1" d="M16.67,29a.4.4,0,0,1-.34-.2.39.39,0,0,1,.13-.53h0l3-1.71a.39.39,0,0,1,.53.15.4.4,0,0,1-.14.54l-3,1.7A.3.3,0,0,1,16.67,29Z"/><path class="cls-1" d="M22.52,25.63a.43.43,0,0,1-.34-.21.38.38,0,0,1,.13-.52h0L27,22.23a.39.39,0,0,1,.54.14.4.4,0,0,1-.15.54h0l-4.67,2.66A.35.35,0,0,1,22.52,25.63Z"/><path class="cls-1" d="M30.08,21.32a.43.43,0,0,1-.35-.2.4.4,0,0,1,.14-.53h0l3-1.7a.39.39,0,0,1,.53.13h0a.37.37,0,0,1-.13.52h0l-3,1.7A.35.35,0,0,1,30.08,21.32Z"/><path class="cls-1" d="M21.92,16.62a.43.43,0,0,1-.34-.21.38.38,0,0,1,.16-.52h0l3-1.66a.38.38,0,0,1,.53.15h0a.39.39,0,0,1-.15.53l-3,1.67A.38.38,0,0,1,21.92,16.62Z"/><path class="cls-1" d="M16.67,19.54a.39.39,0,0,1-.18-.73h0l3-1.67a.39.39,0,0,1,.46.64l-.09,0-3,1.67A.32.32,0,0,1,16.67,19.54Z"/><path class="cls-1" d="M57.5,14.85a.41.41,0,0,1-.19,0l-3-1.7a.39.39,0,0,1,.38-.69l3,1.71a.37.37,0,0,1,.14.52h0A.38.38,0,0,1,57.5,14.85Z"/><path class="cls-1" d="M51.66,11.52a.37.37,0,0,1-.18,0L46.8,8.81a.4.4,0,1,1,.39-.69l4.68,2.67a.39.39,0,0,1,.14.53h0A.43.43,0,0,1,51.66,11.52Z"/><path class="cls-1" d="M44.12,7.22a.45.45,0,0,1-.19,0L41,5.46a.39.39,0,0,1-.14-.53.4.4,0,0,1,.54-.15l3,1.69a.4.4,0,0,1,.13.54.42.42,0,0,1-.32.19Z"/><path class="cls-1" d="M49.41,29a.41.41,0,0,1-.19-.05l-3-1.7a.39.39,0,1,1,.39-.68l3,1.7a.39.39,0,0,1,.14.52h0A.44.44,0,0,1,49.41,29Z"/><path class="cls-1" d="M43.56,25.67a.41.41,0,0,1-.19,0l-4.68-2.7a.4.4,0,0,1-.14-.54.38.38,0,0,1,.53-.14h0l4.68,2.69a.38.38,0,0,1,.14.53h0A.39.39,0,0,1,43.56,25.67Z"/><path class="cls-1" d="M36,21.32a.29.29,0,0,1-.18-.05l-3-1.7a.39.39,0,0,1-.14-.52.38.38,0,0,1,.52-.15h0l3,1.7a.38.38,0,0,1,.14.52h0A.39.39,0,0,1,36,21.32Z"/><path class="cls-1" d="M49.41,19.61a.41.41,0,0,1-.19-.05l-3-1.68a.39.39,0,1,1,.38-.68l3,1.68a.4.4,0,0,1,.14.53h0A.45.45,0,0,1,49.41,19.61Z"/><path class="cls-1" d="M44.18,16.66a.43.43,0,0,1-.19,0l-3-1.7a.39.39,0,0,1-.14-.54.38.38,0,0,1,.53-.14l3,1.7a.39.39,0,0,1,.15.53h0A.45.45,0,0,1,44.18,16.66Z"/><path class="cls-1" d="M57.5,43.07a.41.41,0,0,1-.19,0l-3-1.7a.39.39,0,1,1,.38-.68l3,1.7a.38.38,0,0,1,.15.52v0A.4.4,0,0,1,57.5,43.07Z"/><path class="cls-1" d="M51.66,39.73a.37.37,0,0,1-.18,0L46.8,37a.39.39,0,0,1-.15-.53.4.4,0,0,1,.54-.15L51.87,39a.39.39,0,0,1,.14.53h0A.43.43,0,0,1,51.66,39.73Z"/><path class="cls-1" d="M44.12,35.41a.43.43,0,0,1-.19,0l-3-1.71a.39.39,0,0,1-.14-.53.4.4,0,0,1,.54-.15h0l3,1.71a.39.39,0,0,1,.14.53h0A.37.37,0,0,1,44.12,35.41Z"/><path class="cls-1" d="M49.41,57.18a.41.41,0,0,1-.19,0l-3-1.71a.38.38,0,0,1-.15-.53.39.39,0,0,1,.53-.15h0l3,1.7a.39.39,0,0,1,.13.55.4.4,0,0,1-.31.19Z"/><path class="cls-1" d="M43.56,53.84a.41.41,0,0,1-.19-.05l-4.68-2.68a.39.39,0,0,1-.14-.53.39.39,0,0,1,.53-.15h0l4.68,2.68a.38.38,0,0,1,.14.53h0A.4.4,0,0,1,43.56,53.84Z"/><path class="cls-1" d="M36.05,49.52a.41.41,0,0,1-.19-.05l-3-1.7a.39.39,0,0,1,.39-.68l3,1.7a.38.38,0,0,1,.16.52s0,0,0,0A.42.42,0,0,1,36.05,49.52Z"/><path class="cls-1" d="M49.41,47.82a.32.32,0,0,1-.19,0l-3-1.7a.38.38,0,0,1-.15-.53.39.39,0,0,1,.53-.15l3,1.7a.38.38,0,0,1,.14.53h0A.36.36,0,0,1,49.41,47.82Z"/><path class="cls-1" d="M44.12,44.83a.45.45,0,0,1-.19,0l-3-1.7a.39.39,0,0,1,.4-.68l3,1.7a.38.38,0,0,1,.14.53h0A.4.4,0,0,1,44.12,44.83Z"/><path class="cls-1" d="M8.56,43.07a.41.41,0,0,1-.34-.21.37.37,0,0,1,.14-.52h0l3-1.7a.39.39,0,0,1,.39.68h0l-3,1.7A.31.31,0,0,1,8.56,43.07Z"/><path class="cls-1" d="M14.41,39.76a.4.4,0,0,1-.34-.2A.37.37,0,0,1,14.2,39h0l4.68-2.65a.38.38,0,0,1,.53.14h0a.37.37,0,0,1-.14.52h0L14.6,39.7A.33.33,0,0,1,14.41,39.76Z"/><path class="cls-1" d="M21.94,35.48a.41.41,0,0,1-.34-.21.37.37,0,0,1,.12-.52h0l3-1.7a.4.4,0,0,1,.54.15.39.39,0,0,1-.15.53l-3,1.71A.29.29,0,0,1,21.94,35.48Z"/><path class="cls-1" d="M16.67,57.18a.4.4,0,0,1-.34-.2.39.39,0,0,1,.13-.53h0l3-1.7a.39.39,0,0,1,.53.14.4.4,0,0,1-.14.54l-3,1.7A.25.25,0,0,1,16.67,57.18Z"/><path class="cls-1" d="M22.52,53.84a.39.39,0,0,1-.34-.21.38.38,0,0,1,.13-.52h0L27,50.42a.4.4,0,0,1,.54.15.39.39,0,0,1-.15.53h0L22.7,53.78A.3.3,0,0,1,22.52,53.84Z"/><path class="cls-1" d="M30.08,49.52a.42.42,0,0,1-.35-.2.4.4,0,0,1,.14-.53h0l3-1.71a.4.4,0,0,1,.54.15.38.38,0,0,1-.15.53h0l-3,1.71A.27.27,0,0,1,30.08,49.52Z"/><path class="cls-1" d="M16.67,47.76a.42.42,0,0,1-.34-.2.39.39,0,0,1,.16-.53h0l3-1.67a.39.39,0,0,1,.37.68l-3,1.67A.41.41,0,0,1,16.67,47.76Z"/><path class="cls-1" d="M21.94,44.81a.4.4,0,0,1-.34-.2.38.38,0,0,1,.15-.53h0l3-1.67a.4.4,0,0,1,.55.09.39.39,0,0,1-.09.55l-.08,0-3,1.67A.37.37,0,0,1,21.94,44.81Z"/><path class="cls-1" d="M8.72,71.28a.4.4,0,0,1-.34-.2.39.39,0,0,1,.14-.53h0l3-1.71a.4.4,0,0,1,.39.69h0l-3,1.7A.26.26,0,0,1,8.72,71.28Z"/><path class="cls-1" d="M14.52,68a.42.42,0,0,1-.34-.2.38.38,0,0,1,.14-.53h0l4.6-2.64a.39.39,0,0,1,.53.14h0a.39.39,0,0,1-.13.53h0l-4.6,2.64A.33.33,0,0,1,14.52,68Z"/><path class="cls-1" d="M22,63.72a.41.41,0,0,1-.34-.2.39.39,0,0,1,.14-.53h0l3-1.7a.39.39,0,0,1,.53.13h0a.38.38,0,0,1-.13.52h0l-3,1.7A.66.66,0,0,1,22,63.72Z"/><path class="cls-1" d="M16.8,85.39a.37.37,0,0,1-.34-.21.38.38,0,0,1,.13-.52h0l3-1.7a.4.4,0,0,1,.54.15.39.39,0,0,1-.15.53l-3,1.7A.21.21,0,0,1,16.8,85.39Z"/><path class="cls-1" d="M22.61,82a.39.39,0,0,1-.39-.4.37.37,0,0,1,.19-.33L27,78.64a.39.39,0,0,1,.4.68L22.8,82A.33.33,0,0,1,22.61,82Z"/><path class="cls-1" d="M30.08,77.75a.39.39,0,0,1-.21-.73h0l3-1.71a.4.4,0,0,1,.54.15.4.4,0,0,1-.15.54l-3,1.7A.34.34,0,0,1,30.08,77.75Z"/><path class="cls-1" d="M16.83,76a.41.41,0,0,1-.34-.21.38.38,0,0,1,.14-.52h0l3-1.7a.39.39,0,0,1,.54.14.4.4,0,0,1-.15.54l-3,1.7A.29.29,0,0,1,16.83,76Z"/><path class="cls-1" d="M21.94,73.06a.42.42,0,0,1-.34-.2.39.39,0,0,1,.12-.53h0l3-1.68a.4.4,0,0,1,.54.15.38.38,0,0,1-.15.53l-3,1.69A.29.29,0,0,1,21.94,73.06Z"/><path class="cls-1" d="M33,23h0a.37.37,0,0,1-.39-.36V19.19a.4.4,0,0,1,.39-.41h0a.42.42,0,0,1,.39.41v3.4a.41.41,0,0,1-.37.42Z"/><path class="cls-1" d="M33,29.09h0a.41.41,0,0,1-.39-.43v-3.4a.37.37,0,0,1,.37-.38h0a.37.37,0,0,1,.39.34v3.45A.42.42,0,0,1,33,29.09Z"/><path class="cls-1" d="M24.9,33.86a.39.39,0,0,1-.39-.39h0V30a.39.39,0,0,1,.78,0h0v3.42a.4.4,0,0,1-.38.4Z"/><path class="cls-1" d="M24.9,27a.4.4,0,0,1-.39-.39h0V21.16a.39.39,0,0,1,.78,0h0v5.45a.39.39,0,0,1-.39.39Z"/><path class="cls-1" d="M24.9,18.42a.39.39,0,0,1-.39-.38h0V14.62a.39.39,0,1,1,.78,0V18a.39.39,0,0,1-.38.39Z"/><path class="cls-1" d="M41.11,33.69a.39.39,0,0,1-.39-.38h0V29.88a.39.39,0,0,1,.78,0v3.43A.39.39,0,0,1,41.11,33.69Z"/><path class="cls-1" d="M41.11,27a.4.4,0,0,1-.39-.39h0v-5.3a.39.39,0,1,1,.78-.07v5.37a.39.39,0,0,1-.38.39Z"/><path class="cls-1" d="M41.11,18.42a.39.39,0,0,1-.39-.38h0V14.62a.39.39,0,0,1,.45-.32.38.38,0,0,1,.33.32V18a.39.39,0,0,1-.38.39Z"/><path class="cls-1" d="M33,51.22h0a.37.37,0,0,1-.39-.36h0V47.42A.38.38,0,0,1,33,47h0a.39.39,0,0,1,.39.4v3.43A.4.4,0,0,1,33,51.22Z"/><path class="cls-1" d="M33,57.3h0a.4.4,0,0,1-.39-.41v-3.4a.36.36,0,0,1,.37-.37h0a.38.38,0,0,1,.39.35v3.46A.41.41,0,0,1,33,57.3Z"/><path class="cls-1" d="M24.9,62.07a.39.39,0,0,1-.39-.39h0V58.25a.39.39,0,0,1,.78,0v3.43a.39.39,0,0,1-.39.39Z"/><path class="cls-1" d="M24.9,55.21a.39.39,0,0,1-.39-.39h0V49.35a.39.39,0,1,1,.78,0h0V54.8a.39.39,0,0,1-.37.41Z"/><path class="cls-1" d="M24.9,46.63a.4.4,0,0,1-.39-.39h0V42.82a.39.39,0,1,1,.78,0h0v3.43A.4.4,0,0,1,24.9,46.63Z"/><path class="cls-1" d="M41.11,61.91a.39.39,0,0,1-.39-.38h0V59a.39.39,0,0,1,.78,0v2.49a.38.38,0,0,1-.39.39Zm0-6.7a.39.39,0,0,1-.39-.39h0V52.33a.39.39,0,0,1,.36-.43.39.39,0,0,1,.42.35v2.57a.39.39,0,0,1-.38.39Zm0-6.7a.39.39,0,0,1-.39-.38h0v-2.5a.39.39,0,0,1,.78,0v2.5a.39.39,0,0,1-.39.39Z"/><text class="cls-2" transform="translate(83.57 51.66)">EnFlujo</text></g></g></svg>