<svg version="1.0" xmlns="http://www.w3.org/2000/svg" width="792" height="380.26" xml:space="preserve"><path fill="#1E1E1C" d="M460.066 316.841c-.064 2.781-3.206 4.355-5.626 4.603-4.384.446-9.526-.16-12.354-3.865-6.285 4.938-17.269 6.419-23.139-.81-3.306-4.052-2.221-10.071 1.901-13.26 4.798-3.684 10.64-2.9 16.097-4.588 5.241-1.606 5.608-7.684 4.069-11.945-.875-2.387-2.396-4.67-5.101-5.142-2.705-.487-5.568-.032-7.101 2.431-1.434 2.294-1.423 5.413-4.046 6.544-2.046.883-4.303.026-5.346-1.927-1.09-2.07.187-4.198 1.702-5.603 2.402-2.186 5.544-2.877 8.617-3.104 5.918-.449 12.138-.703 17.513 2.609 2.408 1.492 2.909 4.122 3.102 6.649.804 8.923-.816 17.505.875 26.669.385 2.075 2.367 3.128 4.197 2.903 1.673-.207 2.583-1.434 3.982-2.378.227-.153.658.063.658.214zm-18.708-17.749c-7.066 2.411-17.846 7.515-14.423 16.441 1.312 3.419 6.424 4.836 9.59 3.032 1.312-.743 3.212-1.504 4.215-3.76 2.11-4.856.787-4.938 1.044-15.519 0-.075-.298-.235-.426-.194zM324.088 299.961c.571.227.741.933.67 1.428-.577 3.964-2.239 7.305-4.646 10.599-4.588 6.235-11.462 9.112-18.761 9.841-8.127.831-15.892-1.131-22.684-6.136-17.233-12.692-17.572-39.073-1.481-52.557 5.888-4.912 12.733-7.626 20.236-8.421 6.815-.711 12.879 1.851 19.531 3.34.245.056.676-.224.944-.449.857-.717.845-2.003 2.023-2.396.63-.213 1.073.405 1.119.737.752 6.976 1.3 13.811 1.464 20.743.017.88-1.411 1.364-1.621.88-3.201-7.221-6.046-15.802-13.636-19.297-4.232-1.944-9.165-1.892-13.496-.038-10.162 4.341-14.546 15.525-15.281 25.871-.775 11.191-.332 24.221 10.348 31.304 4.53 3.017 9.62 3.828 14.773 3.16 5.136-.659 9.812-2.53 13.304-6.582 2.728-3.148 4.501-6.62 5.334-10.818.151-.854.927-1.609 1.86-1.209zM366.868 283.471c-.157-.385.303-.627.478-.647 4.611-.397 9.007-2.102 13.555-1.557 1.626.192.991 2.723 1.749 4.194 6.92-4.6 16.027-6.544 23.926-3.11 1.352.586 2.408 1.556 3.241 2.892 1.323 2.16 1.766 4.556 1.784 6.894.012 7.229-.321 14.49.21 21.719.216 3.134 3.032 5.393 6.15 6.23.041.003.723.953.07.953-7.795 0-14.091.032-21.408 0-.618 0 .303-1.093.624-1.149 2.39-.42 4.396-1.924 4.728-4.063 1.259-8.168.904-16.108.589-24.192a11.6 11.6 0 0 0-.705-3.434 7.374 7.374 0 0 0-4.408-4.352c-1.288-.461-2.431-.863-3.883-.764a14.022 14.022 0 0 0-5.714 1.641c-2.903 1.571-4.285 4.393-4.792 7.433-1.178 7.177-.898 13.928-.676 21.186.093 3.058 2.693 6.162 6.197 6.544.315.047 1.084.825.799 1.119-7.975.09-14.254 0-21.722.012-.309-1.224 1.901-1.157 2.897-1.973 1.224-1.026 2.256-2.181 2.577-3.717 1.236-6.002.699-11.45.88-17.397.093-3.105-.053-6.262-.898-9.22-.711-2.46-2.857-4.929-5.783-4.798-.162.01-.371-.241-.465-.444zM551.935 316.806c-.029 2.781-3.212 4.352-5.626 4.603-4.378.452-9.523-.157-12.345-3.862-6.308 4.941-17.286 6.416-23.142-.81-3.276-4.049-2.204-10.074 1.915-13.249 4.792-3.699 10.616-2.918 16.073-4.6 5.259-1.609 5.637-7.681 4.069-11.946-.863-2.399-2.355-4.664-5.09-5.151-2.717-.487-5.574-.021-7.107 2.437-1.446 2.291-1.417 5.41-4.04 6.559-2.035.872-4.297.006-5.314-1.941-1.113-2.072.172-4.189 1.694-5.597 2.379-2.195 5.515-2.886 8.599-3.107 5.906-.449 12.132-.697 17.522 2.615 2.402 1.484 2.891 4.116 3.096 6.637.799 8.917-.81 17.51.857 26.675.402 2.076 2.373 3.131 4.221 2.895 1.673-.21 2.565-1.428 3.97-2.358.252-.173.672.058.648.2zm-18.676-17.746c-7.107 2.399-17.857 7.515-14.447 16.444 1.323 3.422 6.436 4.839 9.608 3.034 1.294-.749 3.195-1.51 4.186-3.772 2.14-4.851.816-4.944 1.055-15.502.006-.087-.309-.254-.402-.204zM483.13 257.527c5.847-.058 11.671-1.093 17.531-.828-.49 16.805-.49 33.598-.058 50.403.047 2.618.233 5.323 1.102 7.897.869 2.641 3.189 3.714 5.859 4.273.047 0 .047.382 0 .382-4.856.79-9.485 1.93-14.313 1.609-.863-.058-.904-1.367-1.102-2.268-.052-.187.012-.738-.373-.732-1.655.044-2.81 1.294-4.227 1.877-1.533.621-3.055 1.35-4.687 1.434-2.956.163-5.807.324-8.896-.271-8.384-1.592-15.024-8.159-15.758-16.432-.461-5.11-.059-10.226 2.991-14.779 1.341-1.973 2.839-3.475 4.687-4.9 7.422-5.652 18.061-6.632 25.413-.344.169.149.443-.053.431-.233-.303-7.004.898-13.738-.635-21.014-.839-3.944-4.769-5.428-8.209-5.168-.03-.361-.03-.897.244-.906zm2.419 26.206c-5.113-2.358-10.943-.44-14.26 4.376a30.019 30.019 0 0 0-1.936 3.209c-.729 1.408-.764 1.918-1.271 3.583a17.51 17.51 0 0 0-.303 1.501c-.041.28-.093 1.195-.099 1.315-.105 2.055-.262 4.107-.064 6.174.256 2.685.956 5.177 2.023 7.617 1.166 2.653 2.81 5.005 5.352 6.658 5.323 3.405 12.511 2.055 15.1-3.492 2.915-6.247 2.332-13.231 1.93-19.909-.292-4.316-2.123-9.047-6.472-11.032z"/><path fill="#E21318" d="M506.106 257.101H516.3v20.294h-10.194zM529.137 256.656l1.568 3.451 2.035-1.082-1.172 6.023 2.904-2.583.839 1.178 2.705-.642-.647 3.656.971.644-4.725 4.195.408 1.926-4.816-1.075v5.049h-.769v-5.049l-4.822 1.075.42-1.926-4.728-4.195.979-.644-.647-3.656 2.682.642.857-1.178 2.898 2.583-1.172-6.023 2.052 1.082 1.988-3.39zM541.453 257.101h10.197v20.294h-10.197z"/><path fill="#1E1E1C" d="M367.69 316.867c-.07 2.787-3.2 4.355-5.626 4.6-4.39.455-9.515-.163-12.354-3.862-6.308 4.935-17.286 6.419-23.151-.799-3.271-4.063-2.198-10.083 1.936-13.269 4.775-3.687 10.599-2.903 16.073-4.577 5.235-1.621 5.62-7.693 4.064-11.957-.869-2.39-2.373-4.673-5.107-5.154-2.693-.478-5.544-.018-7.107 2.431-1.423 2.3-1.417 5.425-4.04 6.562-2.035.88-4.303.017-5.323-1.936-1.096-2.064.175-4.189 1.696-5.597 2.396-2.195 5.544-2.886 8.605-3.113 5.917-.452 12.132-.697 17.531 2.617 2.402 1.492 2.88 4.119 3.101 6.638.781 8.929-.816 17.516.875 26.675.367 2.087 2.344 3.131 4.192 2.909 1.667-.216 2.571-1.44 3.976-2.373.234-.168.659.057.659.205zm-18.708-17.755c-7.066 2.408-17.846 7.529-14.412 16.452 1.3 3.428 6.419 4.839 9.573 3.029 1.329-.738 3.23-1.513 4.209-3.76 2.128-4.857.805-4.947 1.067-15.519 0-.076-.309-.231-.437-.202z"/><path fill="#107BC0" d="M280.078 99.106v66.034h-12.05V99.106h12.05zM293.888 99.989c5.29-.883 12.05-1.373 19.202-1.373 12.344 0 20.868 2.548 26.942 7.643 6.369 5.193 10.288 13.031 10.288 24.297 0 11.757-4.018 20.573-10.288 26.256-6.564 5.977-17.047 9.014-29.881 9.014-7.054 0-12.344-.393-16.263-.883V99.989zm12.05 55.942c1.665.294 4.213.294 6.661.294 15.676.097 24.984-8.524 24.984-25.277.097-14.598-8.328-22.926-23.416-22.926-3.82 0-6.564.295-8.229.686v47.223zM360.796 99.989c4.506-.784 11.267-1.373 18.222-1.373 9.504 0 15.971 1.568 20.378 5.292 3.625 3.036 5.683 7.642 5.683 13.225 0 8.524-5.78 14.304-11.953 16.558v.294c4.703 1.762 7.544 6.368 9.21 12.735 2.058 8.23 3.82 15.872 5.193 18.42h-12.443c-.98-1.959-2.548-7.348-4.409-15.578-1.861-8.622-4.996-11.364-11.854-11.56h-6.075v27.139h-11.952V99.989zm11.951 29.195h7.153c8.132 0 13.225-4.31 13.225-10.874 0-7.25-5.094-10.582-12.932-10.582-3.821 0-6.27.294-7.447.589v20.867zM463.854 163.182c-2.841 1.469-9.112 2.939-17.045 2.939-20.967 0-33.704-13.129-33.704-33.213 0-21.751 15.088-34.879 35.272-34.879 7.934 0 13.617 1.665 16.068 2.939l-2.646 9.602c-3.135-1.371-7.445-2.548-12.933-2.548-13.422 0-23.121 8.427-23.121 24.297 0 14.501 8.524 23.807 23.025 23.807 4.898 0 9.993-.979 13.128-2.449l1.956 9.505z"/><g fill="#107BC0"><path d="M571.24 162.742c-2.841 1.469-9.112 2.939-17.048 2.939-20.966 0-33.701-13.129-33.701-33.213 0-21.751 15.088-34.879 35.269-34.879 7.937 0 13.619 1.665 16.068 2.939l-2.646 9.602c-3.135-1.371-7.445-2.548-12.93-2.548-13.424 0-23.124 8.427-23.124 24.297 0 14.501 8.524 23.807 23.025 23.807 4.898 0 9.993-.979 13.128-2.449l1.959 9.505zM581.521 99.55c4.505-.784 11.267-1.373 18.223-1.373 9.501 0 15.969 1.568 20.378 5.292 3.624 3.036 5.683 7.642 5.683 13.225 0 8.524-5.782 14.304-11.953 16.558v.294c4.703 1.762 7.544 6.368 9.208 12.735 2.059 8.23 3.821 15.872 5.194 18.42H615.81c-.977-1.959-2.545-7.348-4.406-15.578-1.864-8.622-4.999-11.364-11.857-11.56h-6.073v27.139h-11.953V99.55zm11.953 29.195h7.151c8.132 0 13.227-4.31 13.227-10.874 0-7.25-5.095-10.582-12.933-10.582-3.821 0-6.27.294-7.445.589v20.867zM637.259 99.55c5.29-.883 12.049-1.373 19.203-1.373 12.343 0 20.867 2.548 26.942 7.643 6.366 5.193 10.287 13.031 10.287 24.297 0 11.757-4.016 20.573-10.287 26.256-6.564 5.977-17.048 9.014-29.883 9.014-7.055 0-12.346-.393-16.263-.883V99.55zm12.049 55.942c1.666.294 4.214.294 6.663.294 15.676.097 24.982-8.524 24.982-25.277.099-14.598-8.326-22.926-23.415-22.926-3.821 0-6.564.295-8.23.686v47.223zM716.216 98.667v66.034h-12.049V98.667h12.049z"/></g><circle fill="#107BC0" cx="490.883" cy="133.205" r="7.449"/><path fill="#107BC0" d="M81.085 148.628c-11.119-25.359 15.501-70.543 52.279-84.729 2.562-.988 19.12 9.67 18.569 9.998-12.921 7.686-49.622 29.443-70.848 74.731z"/><path fill="#E20E17" d="m148.94 112.156 5.217-10.609 5.183 10.214c.65 1.084 1.167.998 2.202.468l4.444-2.199-2.886 16.208c-.6 2.808.998 3.621 2.722 1.725l6.338-6.775 1.681 3.834c.567 1.167 1.426.995 2.547.776l6.556-1.377-2.193 8.281-.043.172c-.259 1.081-.776 1.983.434 2.501l2.325 1.167-13.494 11.439c-1.376 1.423-.905 1.851-.382 3.446l1.25 3.837-12.601-2.279c-1.546-.388-1.959-.388-2.001.868l.523 11.296h-5.134l.508-11.253c0-1.423-.413-1.38-2.956-.862l-11.644 2.248 1.506-3.837c.517-1.466.647-2.461-.52-3.446l-13.811-11.254 2.547-1.552c.733-.567.776-1.17.388-2.421l-2.596-8.407 6.652 1.416c1.848.431 2.365 0 2.842-1.041l1.851-3.794 6.559 7.418c1.167 1.38 2.808.474 2.285-1.509l-3.157-17.418 4.875 2.799c.779.477 1.601.613 2.07-.299"/><path fill="#1DB3E8" d="M139.975 61.108c25.359-11.119 70.543 15.501 84.729 52.279.988 2.562-9.67 19.12-9.998 18.569-7.686-12.922-29.443-49.623-74.731-70.848z"/><path fill="#98C11D" d="M227.337 119.942c11.119 25.359-15.501 70.543-52.279 84.729-2.562.988-19.12-9.67-18.569-9.998 12.921-7.686 49.623-29.443 70.848-74.731z"/><path fill="#05B1B3" d="M168.452 207.337c-25.359 11.119-70.543-15.501-84.729-52.279-.988-2.562 9.67-19.12 9.998-18.569 7.686 12.921 29.443 49.623 74.731 70.848z"/><path fill="none" d="M-.209 0H792v380.26H-.209z"/></svg>