<?xml version="1.0" encoding="utf-8"?>
<!-- Generator: Adobe Illustrator 26.0.3, SVG Export Plug-In . SVG Version: 6.00 Build 0)  -->
<svg version="1.0" id="Capa_1" xmlns="http://www.w3.org/2000/svg" xmlns:xlink="http://www.w3.org/1999/xlink" x="0px" y="0px"
	 width="792px" height="380.26px" viewBox="0 0 792 380.26" enable-background="new 0 0 792 380.26" xml:space="preserve">
<g>
	<g>
		<g>
			<path fill="#1E1E1C" d="M460.066,316.841c-0.064,2.781-3.206,4.355-5.626,4.603c-4.384,0.446-9.526-0.16-12.354-3.865
				c-6.285,4.938-17.269,6.419-23.139-0.81c-3.306-4.052-2.221-10.071,1.901-13.26c4.798-3.684,10.64-2.9,16.097-4.588
				c5.241-1.606,5.608-7.684,4.069-11.945c-0.875-2.387-2.396-4.67-5.101-5.142c-2.705-0.487-5.568-0.032-7.101,2.431
				c-1.434,2.294-1.423,5.413-4.046,6.544c-2.046,0.883-4.303,0.026-5.346-1.927c-1.09-2.07,0.187-4.198,1.702-5.603
				c2.402-2.186,5.544-2.877,8.617-3.104c5.918-0.449,12.138-0.703,17.513,2.609c2.408,1.492,2.909,4.122,3.102,6.649
				c0.804,8.923-0.816,17.505,0.875,26.669c0.385,2.075,2.367,3.128,4.197,2.903c1.673-0.207,2.583-1.434,3.982-2.378
				C459.635,316.474,460.066,316.69,460.066,316.841z M441.358,299.092c-7.066,2.411-17.846,7.515-14.423,16.441
				c1.312,3.419,6.424,4.836,9.59,3.032c1.312-0.743,3.212-1.504,4.215-3.76c2.11-4.856,0.787-4.938,1.044-15.519
				C441.784,299.211,441.486,299.051,441.358,299.092z"/>
			<g>
				<path fill="#1E1E1C" d="M324.088,299.961c0.571,0.227,0.741,0.933,0.67,1.428c-0.577,3.964-2.239,7.305-4.646,10.599
					c-4.588,6.235-11.462,9.112-18.761,9.841c-8.127,0.831-15.892-1.131-22.684-6.136c-17.233-12.692-17.572-39.073-1.481-52.557
					c5.888-4.912,12.733-7.626,20.236-8.421c6.815-0.711,12.879,1.851,19.531,3.34c0.245,0.056,0.676-0.224,0.944-0.449
					c0.857-0.717,0.845-2.003,2.023-2.396c0.63-0.213,1.073,0.405,1.119,0.737c0.752,6.976,1.3,13.811,1.464,20.743
					c0.017,0.88-1.411,1.364-1.621,0.88c-3.201-7.221-6.046-15.802-13.636-19.297c-4.232-1.944-9.165-1.892-13.496-0.038
					c-10.162,4.341-14.546,15.525-15.281,25.871c-0.775,11.191-0.332,24.221,10.348,31.304c4.53,3.017,9.62,3.828,14.773,3.16
					c5.136-0.659,9.812-2.53,13.304-6.582c2.728-3.148,4.501-6.62,5.334-10.818C322.379,300.316,323.155,299.561,324.088,299.961z"
					/>
			</g>
			<g>
				<path fill="#1E1E1C" d="M366.868,283.471c-0.157-0.385,0.303-0.627,0.478-0.647c4.611-0.397,9.007-2.102,13.555-1.557
					c1.626,0.192,0.991,2.723,1.749,4.194c6.92-4.6,16.027-6.544,23.926-3.11c1.352,0.586,2.408,1.556,3.241,2.892
					c1.323,2.16,1.766,4.556,1.784,6.894c0.012,7.229-0.321,14.49,0.21,21.719c0.216,3.134,3.032,5.393,6.15,6.23
					c0.041,0.003,0.723,0.953,0.07,0.953c-7.795,0-14.091,0.032-21.408,0c-0.618,0,0.303-1.093,0.624-1.149
					c2.39-0.42,4.396-1.924,4.728-4.063c1.259-8.168,0.904-16.108,0.589-24.192c-0.058-1.125-0.291-2.341-0.705-3.434
					c-0.781-2.049-2.349-3.597-4.408-4.352c-1.288-0.461-2.431-0.863-3.883-0.764c-2.029,0.146-3.912,0.676-5.714,1.641
					c-2.903,1.571-4.285,4.393-4.792,7.433c-1.178,7.177-0.898,13.928-0.676,21.186c0.093,3.058,2.693,6.162,6.197,6.544
					c0.315,0.047,1.084,0.825,0.799,1.119c-7.975,0.09-14.254,0-21.722,0.012c-0.309-1.224,1.901-1.157,2.897-1.973
					c1.224-1.026,2.256-2.181,2.577-3.717c1.236-6.002,0.699-11.45,0.88-17.397c0.093-3.105-0.053-6.262-0.898-9.22
					c-0.711-2.46-2.857-4.929-5.783-4.798C367.171,283.925,366.962,283.674,366.868,283.471z"/>
			</g>
			<path fill="#1E1E1C" d="M551.935,316.806c-0.029,2.781-3.212,4.352-5.626,4.603c-4.378,0.452-9.523-0.157-12.345-3.862
				c-6.308,4.941-17.286,6.416-23.142-0.81c-3.276-4.049-2.204-10.074,1.915-13.249c4.792-3.699,10.616-2.918,16.073-4.6
				c5.259-1.609,5.637-7.681,4.069-11.946c-0.863-2.399-2.355-4.664-5.09-5.151c-2.717-0.487-5.574-0.021-7.107,2.437
				c-1.446,2.291-1.417,5.41-4.04,6.559c-2.035,0.872-4.297,0.006-5.314-1.941c-1.113-2.072,0.172-4.189,1.694-5.597
				c2.379-2.195,5.515-2.886,8.599-3.107c5.906-0.449,12.132-0.697,17.522,2.615c2.402,1.484,2.891,4.116,3.096,6.637
				c0.799,8.917-0.81,17.51,0.857,26.675c0.402,2.076,2.373,3.131,4.221,2.895c1.673-0.21,2.565-1.428,3.97-2.358
				C551.539,316.433,551.959,316.664,551.935,316.806z M533.259,299.06c-7.107,2.399-17.857,7.515-14.447,16.444
				c1.323,3.422,6.436,4.839,9.608,3.034c1.294-0.749,3.195-1.51,4.186-3.772c2.14-4.851,0.816-4.944,1.055-15.502
				C533.667,299.177,533.352,299.01,533.259,299.06z"/>
			<path fill="#1E1E1C" d="M483.13,257.527c5.847-0.058,11.671-1.093,17.531-0.828c-0.49,16.805-0.49,33.598-0.058,50.403
				c0.047,2.618,0.233,5.323,1.102,7.897c0.869,2.641,3.189,3.714,5.859,4.273c0.047,0,0.047,0.382,0,0.382
				c-4.856,0.79-9.485,1.93-14.313,1.609c-0.863-0.058-0.904-1.367-1.102-2.268c-0.052-0.187,0.012-0.738-0.373-0.732
				c-1.655,0.044-2.81,1.294-4.227,1.877c-1.533,0.621-3.055,1.35-4.687,1.434c-2.956,0.163-5.807,0.324-8.896-0.271
				c-8.384-1.592-15.024-8.159-15.758-16.432c-0.461-5.11-0.059-10.226,2.991-14.779c1.341-1.973,2.839-3.475,4.687-4.9
				c7.422-5.652,18.061-6.632,25.413-0.344c0.169,0.149,0.443-0.053,0.431-0.233c-0.303-7.004,0.898-13.738-0.635-21.014
				c-0.839-3.944-4.769-5.428-8.209-5.168C482.856,258.072,482.856,257.536,483.13,257.527z M485.549,283.733
				c-5.113-2.358-10.943-0.44-14.26,4.376c-0.746,1.081-1.353,2.096-1.936,3.209c-0.729,1.408-0.764,1.918-1.271,3.583
				c-0.122,0.466-0.233,1.067-0.303,1.501c-0.041,0.28-0.093,1.195-0.099,1.315c-0.105,2.055-0.262,4.107-0.064,6.174
				c0.256,2.685,0.956,5.177,2.023,7.617c1.166,2.653,2.81,5.005,5.352,6.658c5.323,3.405,12.511,2.055,15.1-3.492
				c2.915-6.247,2.332-13.231,1.93-19.909C491.729,290.449,489.898,285.718,485.549,283.733z"/>
			<g>
				<g>
					<rect x="506.106" y="257.101" fill="#E21318" width="10.194" height="20.294"/>
					<path fill="#E21318" d="M511.207,267.246"/>
				</g>
				<polygon fill="#E21318" points="529.137,256.656 530.705,260.107 532.74,259.025 531.568,265.048 534.472,262.465 
					535.311,263.643 538.016,263.001 537.369,266.657 538.34,267.301 533.615,271.496 534.023,273.422 529.207,272.347 
					529.207,277.396 528.438,277.396 528.438,272.347 523.616,273.422 524.036,271.496 519.308,267.301 520.287,266.657 
					519.64,263.001 522.322,263.643 523.179,262.465 526.077,265.048 524.905,259.025 526.957,260.107 528.945,256.717 				"/>
				<g>
					<rect x="541.453" y="257.101" fill="#E21318" width="10.197" height="20.294"/>
					<path fill="#E21318" d="M546.572,267.246"/>
				</g>
			</g>
			<path fill="#1E1E1C" d="M367.69,316.867c-0.07,2.787-3.2,4.355-5.626,4.6c-4.39,0.455-9.515-0.163-12.354-3.862
				c-6.308,4.935-17.286,6.419-23.151-0.799c-3.271-4.063-2.198-10.083,1.936-13.269c4.775-3.687,10.599-2.903,16.073-4.577
				c5.235-1.621,5.62-7.693,4.064-11.957c-0.869-2.39-2.373-4.673-5.107-5.154c-2.693-0.478-5.544-0.018-7.107,2.431
				c-1.423,2.3-1.417,5.425-4.04,6.562c-2.035,0.88-4.303,0.017-5.323-1.936c-1.096-2.064,0.175-4.189,1.696-5.597
				c2.396-2.195,5.544-2.886,8.605-3.113c5.917-0.452,12.132-0.697,17.531,2.617c2.402,1.492,2.88,4.119,3.101,6.638
				c0.781,8.929-0.816,17.516,0.875,26.675c0.367,2.087,2.344,3.131,4.192,2.909c1.667-0.216,2.571-1.44,3.976-2.373
				C367.265,316.494,367.69,316.719,367.69,316.867z M348.982,299.112c-7.066,2.408-17.846,7.529-14.412,16.452
				c1.3,3.428,6.419,4.839,9.573,3.029c1.329-0.738,3.23-1.513,4.209-3.76c2.128-4.857,0.805-4.947,1.067-15.519
				C349.419,299.238,349.11,299.083,348.982,299.112z"/>
		</g>
		<g>
			<path fill="#107BC0" d="M280.078,99.106v66.034h-12.05V99.106H280.078z"/>
			<path fill="#107BC0" d="M293.888,99.989c5.29-0.883,12.05-1.373,19.202-1.373c12.344,0,20.868,2.548,26.942,7.643
				c6.369,5.193,10.288,13.031,10.288,24.297c0,11.757-4.018,20.573-10.288,26.256c-6.564,5.977-17.047,9.014-29.881,9.014
				c-7.054,0-12.344-0.393-16.263-0.883V99.989z M305.938,155.931c1.665,0.294,4.213,0.294,6.661,0.294
				c15.676,0.097,24.984-8.524,24.984-25.277c0.097-14.598-8.328-22.926-23.416-22.926c-3.82,0-6.564,0.295-8.229,0.686V155.931z"/>
			<path fill="#107BC0" d="M360.796,99.989c4.506-0.784,11.267-1.373,18.222-1.373c9.504,0,15.971,1.568,20.378,5.292
				c3.625,3.036,5.683,7.642,5.683,13.225c0,8.524-5.78,14.304-11.953,16.558v0.294c4.703,1.762,7.544,6.368,9.21,12.735
				c2.058,8.23,3.82,15.872,5.193,18.42h-12.443c-0.98-1.959-2.548-7.348-4.409-15.578c-1.861-8.622-4.996-11.364-11.854-11.56
				h-6.075v27.139h-11.952V99.989z M372.747,129.184h7.153c8.132,0,13.225-4.31,13.225-10.874c0-7.25-5.094-10.582-12.932-10.582
				c-3.821,0-6.27,0.294-7.447,0.589V129.184z"/>
			<path fill="#107BC0" d="M463.854,163.182c-2.841,1.469-9.112,2.939-17.045,2.939c-20.967,0-33.704-13.129-33.704-33.213
				c0-21.751,15.088-34.879,35.272-34.879c7.934,0,13.617,1.665,16.068,2.939l-2.646,9.602c-3.135-1.371-7.445-2.548-12.933-2.548
				c-13.422,0-23.121,8.427-23.121,24.297c0,14.501,8.524,23.807,23.025,23.807c4.898,0,9.993-0.979,13.128-2.449L463.854,163.182z"
				/>
			<g>
				<path fill="#107BC0" d="M571.24,162.742c-2.841,1.469-9.112,2.939-17.048,2.939c-20.966,0-33.701-13.129-33.701-33.213
					c0-21.751,15.088-34.879,35.269-34.879c7.937,0,13.619,1.665,16.068,2.939l-2.646,9.602c-3.135-1.371-7.445-2.548-12.93-2.548
					c-13.424,0-23.124,8.427-23.124,24.297c0,14.501,8.524,23.807,23.025,23.807c4.898,0,9.993-0.979,13.128-2.449L571.24,162.742z"
					/>
				<path fill="#107BC0" d="M581.521,99.55c4.505-0.784,11.267-1.373,18.223-1.373c9.501,0,15.969,1.568,20.378,5.292
					c3.624,3.036,5.683,7.642,5.683,13.225c0,8.524-5.782,14.304-11.953,16.558v0.294c4.703,1.762,7.544,6.368,9.208,12.735
					c2.059,8.23,3.821,15.872,5.194,18.42H615.81c-0.977-1.959-2.545-7.348-4.406-15.578c-1.864-8.622-4.999-11.364-11.857-11.56
					h-6.073v27.139h-11.953V99.55z M593.474,128.745h7.151c8.132,0,13.227-4.31,13.227-10.874c0-7.25-5.095-10.582-12.933-10.582
					c-3.821,0-6.27,0.294-7.445,0.589V128.745z"/>
				<path fill="#107BC0" d="M637.259,99.55c5.29-0.883,12.049-1.373,19.203-1.373c12.343,0,20.867,2.548,26.942,7.643
					c6.366,5.193,10.287,13.031,10.287,24.297c0,11.757-4.016,20.573-10.287,26.256c-6.564,5.977-17.048,9.014-29.883,9.014
					c-7.055,0-12.346-0.393-16.263-0.883V99.55z M649.308,155.492c1.666,0.294,4.214,0.294,6.663,0.294
					c15.676,0.097,24.982-8.524,24.982-25.277c0.099-14.598-8.326-22.926-23.415-22.926c-3.821,0-6.564,0.295-8.23,0.686V155.492z"
					/>
				<path fill="#107BC0" d="M716.216,98.667v66.034h-12.049V98.667H716.216z"/>
			</g>
			<circle fill="#107BC0" cx="490.883" cy="133.205" r="7.449"/>
			<g>
				<path fill="#107BC0" d="M81.085,148.628c-11.119-25.359,15.501-70.543,52.279-84.729c2.562-0.988,19.12,9.67,18.569,9.998
					C139.012,81.583,102.311,103.34,81.085,148.628z"/>
				<g>
					<g>
						<g>
							<path fill="#E20E17" d="M148.94,112.156l5.217-10.609l5.183,10.214c0.65,1.084,1.167,0.998,2.202,0.468l4.444-2.199
								l-2.886,16.208c-0.6,2.808,0.998,3.621,2.722,1.725l6.338-6.775l1.681,3.834c0.567,1.167,1.426,0.995,2.547,0.776
								l6.556-1.377l-2.193,8.281l-0.043,0.172c-0.259,1.081-0.776,1.983,0.434,2.501l2.325,1.167l-13.494,11.439
								c-1.376,1.423-0.905,1.851-0.382,3.446l1.25,3.837l-12.601-2.279c-1.546-0.388-1.959-0.388-2.001,0.868l0.523,11.296h-5.134
								l0.508-11.253c0-1.423-0.413-1.38-2.956-0.862l-11.644,2.248l1.506-3.837c0.517-1.466,0.647-2.461-0.52-3.446l-13.811-11.254
								l2.547-1.552c0.733-0.567,0.776-1.17,0.388-2.421l-2.596-8.407l6.652,1.416c1.848,0.431,2.365,0,2.842-1.041l1.851-3.794
								l6.559,7.418c1.167,1.38,2.808,0.474,2.285-1.509l-3.157-17.418l4.875,2.799c0.779,0.477,1.601,0.613,2.07-0.299"/>
						</g>
					</g>
				</g>
				<path fill="#1DB3E8" d="M139.975,61.108c25.359-11.119,70.543,15.501,84.729,52.279c0.988,2.562-9.67,19.12-9.998,18.569
					C207.02,119.034,185.263,82.333,139.975,61.108z"/>
				<path fill="#98C11D" d="M227.337,119.942c11.119,25.359-15.501,70.543-52.279,84.729c-2.562,0.988-19.12-9.67-18.569-9.998
					C169.41,186.987,206.112,165.23,227.337,119.942z"/>
				<path fill="#05B1B3" d="M168.452,207.337c-25.359,11.119-70.543-15.501-84.729-52.279c-0.988-2.562,9.67-19.12,9.998-18.569
					C101.407,149.41,123.164,186.112,168.452,207.337z"/>
			</g>
		</g>
	</g>
	<g>
		<rect x="-0.209" fill="none" width="792.209" height="380.26"/>
	</g>
</g>
</svg>
