<?xml version="1.0" encoding="UTF-8"?><svg id="EnFlujo" xmlns="http://www.w3.org/2000/svg" viewBox="0 0 99.04 32.37"><defs><style>.cls-1{fill:#0042ba;}</style></defs><g id="Capa_2-2"><g><g><path class="cls-1" d="M33.81,29.6l-.23-.83h-.97l-.22,.83h-.62l.92-3.27h.85l.92,3.27h-.65Zm-.69-2.66h-.04l-.36,1.33h.76l-.36-1.33Z"/><path class="cls-1" d="M34.87,29.6v-2.41h.6v.43h.02c.11-.26,.31-.48,.71-.48,.47,0,.8,.33,.8,.91v1.56h-.6v-1.47c0-.35-.15-.52-.45-.52-.24,0-.48,.13-.48,.38v1.61h-.6Z"/><path class="cls-1" d="M38.89,29.6c-.46,0-.67-.27-.67-.66v-1.29h-.7v-.47h.48c.19,0,.27-.07,.27-.27v-.59h.56v.85h.98v.47h-.98v1.47h.98v.47h-.91Z"/><path class="cls-1" d="M40.39,28.4c0-.78,.45-1.27,1.16-1.27s1.14,.48,1.14,1.21v.2h-1.69v.06c0,.35,.23,.59,.62,.59,.29,0,.51-.13,.66-.33l.34,.34c-.17,.25-.51,.46-1.02,.46-.77,0-1.2-.49-1.2-1.26Zm.6-.25v.03h1.1v-.04c0-.35-.21-.57-.53-.57s-.56,.23-.56,.58Z"/><path class="cls-1" d="M46,28.4c0-.78,.45-1.27,1.16-1.27s1.14,.48,1.14,1.21v.2h-1.69v.06c0,.35,.23,.59,.62,.59,.29,0,.51-.13,.66-.33l.34,.34c-.17,.25-.51,.46-1.02,.46-.77,0-1.2-.49-1.2-1.26Zm.6-.25v.03h1.1v-.04c0-.35-.21-.57-.53-.57s-.56,.23-.56,.58Z"/><path class="cls-1" d="M48.89,29.13h.77v-2.52h-.77v-.47h1.37v2.99h.77v.47h-2.14v-.47Z"/><path class="cls-1" d="M54.49,27.18h.6v.43h.03c.13-.29,.35-.48,.72-.48,.55,0,.92,.41,.92,1.26s-.37,1.26-.92,1.26c-.37,0-.59-.19-.72-.48h-.03v1.36h-.6v-3.35Zm1.65,1.4v-.38c0-.37-.2-.59-.55-.59-.27,0-.5,.13-.5,.41v.76c0,.28,.23,.41,.5,.41,.35,0,.55-.23,.55-.59Z"/><path class="cls-1" d="M57.33,29.13h.6v-1.47h-.6v-.47h1.2v.66h.04c.09-.34,.29-.66,.78-.66h.26v.56h-.5c-.38,0-.58,.26-.58,.57v.81h.84v.47h-2.04v-.47Z"/><path class="cls-1" d="M60.05,28.4c0-.78,.45-1.27,1.16-1.27s1.14,.48,1.14,1.21v.2h-1.69v.06c0,.35,.23,.59,.62,.59,.29,0,.51-.13,.66-.33l.34,.34c-.17,.25-.51,.46-1.02,.46-.77,0-1.2-.49-1.2-1.26Zm.6-.25v.03h1.1v-.04c0-.35-.21-.57-.53-.57s-.56,.23-.56,.58Z"/><path class="cls-1" d="M62.85,29.2l.35-.32c.2,.22,.45,.34,.8,.34,.3,0,.5-.1,.5-.3,0-.17-.14-.22-.33-.25l-.39-.06c-.4-.06-.79-.22-.79-.7,0-.5,.41-.78,1.06-.78,.46,0,.79,.14,1,.37l-.31,.35c-.14-.15-.36-.29-.71-.29-.3,0-.46,.1-.46,.29,0,.17,.14,.22,.34,.25l.38,.06c.41,.06,.79,.22,.79,.69s-.41,.8-1.09,.8c-.53,0-.93-.18-1.14-.46Z"/><path class="cls-1" d="M65.66,28.4c0-.78,.45-1.27,1.16-1.27s1.14,.48,1.14,1.21v.2h-1.69v.06c0,.35,.23,.59,.62,.59,.29,0,.51-.13,.66-.33l.34,.34c-.17,.25-.51,.46-1.02,.46-.77,0-1.2-.49-1.2-1.26Zm.6-.25v.03h1.1v-.04c0-.35-.21-.57-.53-.57s-.56,.23-.56,.58Z"/><path class="cls-1" d="M68.56,29.6v-2.41h.6v.43h.02c.11-.26,.31-.48,.71-.48,.47,0,.8,.33,.8,.91v1.56h-.6v-1.47c0-.35-.15-.52-.45-.52-.24,0-.48,.13-.48,.38v1.61h-.6Z"/><path class="cls-1" d="M72.59,29.6c-.46,0-.67-.27-.67-.66v-1.29h-.7v-.47h.48c.19,0,.27-.07,.27-.27v-.59h.56v.85h.98v.47h-.98v1.47h.98v.47h-.91Z"/><path class="cls-1" d="M74.09,28.4c0-.78,.45-1.27,1.16-1.27s1.14,.48,1.14,1.21v.2h-1.69v.06c0,.35,.23,.59,.62,.59,.29,0,.51-.13,.66-.33l.34,.34c-.17,.25-.51,.46-1.02,.46-.77,0-1.2-.49-1.2-1.26Zm.6-.25v.03h1.1v-.04c0-.35-.21-.57-.53-.57s-.56,.23-.56,.58Z"/><path class="cls-1" d="M81.33,29.17h-.03c-.13,.29-.35,.48-.72,.48-.55,0-.92-.41-.92-1.26s.37-1.26,.92-1.26c.37,0,.59,.19,.72,.48h.03v-1.47h.6v3.46h-.6v-.43Zm0-.4v-.76c0-.28-.23-.41-.5-.41-.35,0-.55,.23-.55,.59v.38c0,.37,.2,.59,.55,.59,.27,0,.5-.13,.5-.41Z"/><path class="cls-1" d="M82.71,29.13h.8v-1.47h-.8v-.47h1.39v1.94h.74v.47h-2.13v-.47Zm.71-2.62v-.11c0-.17,.1-.3,.38-.3s.38,.14,.38,.3v.11c0,.17-.1,.3-.38,.3s-.38-.14-.38-.3Z"/><path class="cls-1" d="M86.45,30.59c-.88,0-1.15-.22-1.15-.57,0-.27,.16-.4,.44-.47v-.04c-.19-.06-.3-.17-.3-.37,0-.24,.18-.34,.44-.4v-.02c-.29-.14-.46-.39-.46-.74,0-.53,.4-.85,1.02-.85,.16,0,.31,.02,.44,.07v-.1c0-.19,.13-.33,.35-.33h.44v.45h-.57v.08c.23,.14,.37,.37,.37,.69,0,.54-.41,.85-1.02,.85-.12,0-.24,0-.35-.04-.09,.03-.19,.1-.19,.21,0,.15,.16,.16,.37,.16h.55c.67,0,.94,.28,.94,.68,0,.51-.42,.74-1.3,.74Zm.33-.93h-.83c-.09,.05-.14,.13-.14,.23,0,.17,.13,.29,.46,.29h.39c.35,0,.53-.1,.53-.29,0-.15-.1-.23-.41-.23Zm.1-1.62v-.12c0-.23-.14-.4-.44-.4s-.44,.16-.44,.4v.12c0,.23,.14,.4,.44,.4s.44-.16,.44-.4Z"/><path class="cls-1" d="M88.33,29.13h.8v-1.47h-.8v-.47h1.39v1.94h.74v.47h-2.13v-.47Zm.71-2.62v-.11c0-.17,.1-.3,.38-.3s.38,.14,.38,.3v.11c0,.17-.1,.3-.38,.3s-.38-.14-.38-.3Z"/><path class="cls-1" d="M92.24,29.6c-.46,0-.67-.27-.67-.66v-1.29h-.7v-.47h.48c.19,0,.27-.07,.27-.27v-.59h.56v.85h.98v.47h-.98v1.47h.98v.47h-.91Z"/><path class="cls-1" d="M95.78,29.6c-.29,0-.45-.16-.48-.42h-.02c-.09,.3-.36,.47-.73,.47-.48,0-.8-.27-.8-.73,0-.49,.36-.73,1.07-.73h.43v-.16c0-.3-.15-.46-.48-.46-.3,0-.48,.13-.61,.32l-.34-.29c.15-.27,.49-.48,1.01-.48,.63,0,1.02,.3,1.02,.88v1.14h.29v.45h-.35Zm-.53-.73v-.32h-.41c-.33,0-.49,.11-.49,.31v.09c0,.19,.15,.29,.4,.29,.29,0,.5-.15,.5-.37Z"/><path class="cls-1" d="M96.63,29.13h.77v-2.52h-.77v-.47h1.37v2.99h.77v.47h-2.14v-.47Z"/></g><path class="cls-1" d="M14.04,32.37c-.12,0-.24-.03-.35-.09L.35,24.53c-.22-.13-.35-.36-.35-.61V8.44c0-.25,.13-.48,.35-.61L13.7,.09c.22-.13,.48-.13,.7,0l6.81,3.9c.34,.19,.45,.62,.26,.95-.19,.34-.62,.45-.95,.26L14.06,1.51,1.4,8.85v14.68l12.65,7.34,7.37-4.25-2.98-1.79-4.05,2.36c-.22,.13-.49,.13-.71,0l-8.7-5.23c-.21-.13-.34-.35-.34-.6V11.02c0-.25,.13-.48,.35-.61L13.69,5.37c.33-.19,.76-.08,.96,.25,.19,.33,.08,.76-.25,.96L6.05,11.43v9.52l8,4.81,3.03-1.77-3.39-2.05c-.21-.13-.34-.35-.34-.6v-5.05c0-.25,.13-.48,.34-.6l8.95-5.27c.22-.13,.48-.13,.7,0,.22,.12,.35,.36,.35,.61v10.32c0,.25-.13,.48-.35,.6l-3.53,2.06,3.34,2.01c.21,.13,.34,.36,.34,.61,0,.25-.14,.48-.35,.6l-8.75,5.05c-.11,.06-.23,.09-.35,.09Zm.7-11.42l3.71,2.24,3.84-2.24V12.25l-7.55,4.45v4.25Z"/><rect class="cls-1" x="31.71" y="20.16" width="67.33" height=".78"/><g><path class="cls-1" d="M31.71,13.26V1.79h7.33V3.81h-4.86v2.63h4.7v2.02h-4.7v2.78h4.86v2.02h-7.33Z"/><path class="cls-1" d="M41.32,13.26V4.78h2.43v1.54h.1c.38-.95,1.13-1.74,2.5-1.74,1.63,0,2.76,1.13,2.76,3.19v5.49h-2.43v-5.16c0-1.07-.48-1.64-1.43-1.64-.76,0-1.5,.41-1.5,1.23v5.57h-2.43Z"/><path class="cls-1" d="M51.43,13.26V1.79h7.61V3.81h-5.14v2.63h4.6v2.02h-4.6v4.8h-2.47Z"/><path class="cls-1" d="M61.09,11.37h2.6V2.99h-2.6V1.1h5.03V11.37h2.6v1.89h-7.63v-1.89Z"/><path class="cls-1" d="M76.2,11.72h-.1c-.38,.95-1.13,1.74-2.5,1.74-1.63,0-2.76-1.13-2.76-3.19V4.78h2.43v5.16c0,1.07,.48,1.64,1.43,1.64,.76,0,1.5-.41,1.5-1.23V4.78h2.43V13.26h-2.43v-1.54Z"/><path class="cls-1" d="M81.21,14.66h3.25V6.67h-3.29v-1.89h5.72V14.1c0,1.43-.84,2.45-2.58,2.45h-3.11v-1.89Zm3.01-12.11v-.48c0-.66,.38-1.15,1.46-1.15s1.46,.49,1.46,1.15v.48c0,.64-.39,1.15-1.46,1.15s-1.46-.51-1.46-1.15Z"/><path class="cls-1" d="M90.23,9.02c0-2.74,1.61-4.44,4.26-4.44s4.26,1.69,4.26,4.44-1.61,4.44-4.26,4.44-4.26-1.69-4.26-4.44Zm6,.67v-1.35c0-1.25-.66-1.96-1.74-1.96s-1.74,.71-1.74,1.96v1.35c0,1.25,.66,1.96,1.74,1.96s1.74-.71,1.74-1.96Z"/></g></g></g></svg>