<svg xmlns="http://www.w3.org/2000/svg" width="820" height="320" viewBox="0 0 820 320">
  <g data-name="emblem">
    <path fill="#f9b118" d="M 100.54556,64.900693 174.22409,138.57928 159.52275,153.28193 85.843966,79.603342 C 81.107567,74.866014 80.5585,67.735356 84.618499,63.675361 88.678366,59.615366 95.808498,60.164698 100.54556,64.900693 Z M 109.5825,30.962065 195.66409,117.0433 180.96275,131.74595 94.880498,45.663381 c -4.736532,-4.735994 -5.284399,-11.866652 -1.224533,-15.926648 4.0588,-4.059996 11.190135,-3.511997 15.926535,1.225332 z m 77.20559,-8.746657 51.85198,51.85194 -14.70132,14.702655 -51.852,-51.853278 c -4.73733,-4.735994 -5.28533,-11.866654 -1.22533,-15.92665 4.06,-4.058661 11.19067,-3.510662 15.92667,1.225333 z m -43.73573,-0.835999 74.17172,74.171916 -14.70133,14.702645 -74.17252,-74.171911 c -4.73693,-4.737327 -5.28493,-11.867987 -1.22507,-15.926649 4.06,-4.059995 11.19014,-3.511996 15.9272,1.223999" />
    <path fill="#1b458e" d="m 64.346103,218.74839 73.678127,-73.67979 14.70119,14.70132 -73.678253,73.67845 c -4.736,4.73852 -11.867199,5.28545 -15.927197,1.22547 -4.059334,-4.0588 -3.511467,-11.18959 1.226133,-15.92545 z m -33.939596,-9.03692 86.081723,-86.08285 14.70213,14.70266 -86.082255,86.0827 c -4.736533,4.73599 -11.867198,5.28386 -15.927144,1.224 -4.059894,-4.05987 -3.510934,-11.19066 1.225546,-15.92651 z M 21.659615,132.50461 73.512768,80.652675 88.214233,95.355325 36.36224,147.20727 c -4.737067,4.73599 -11.867212,5.28399 -15.927105,1.22533 -4.059901,-4.06133 -3.510943,-11.19199 1.22448,-15.92799 z m -0.74272,43.97969 74.172403,-74.17165 14.701062,14.70131 -74.171853,74.17193 c -4.736534,4.73745 -11.867226,5.28545 -15.927132,1.2256 -4.059893,-4.05894 -3.510933,-11.19066 1.22552,-15.92719" />
    <path fill="#00aaa4" d="m 218.54808,255.0994 -73.67958,-73.67857 14.70225,-14.70292 73.67867,73.67831 c 4.73732,4.7376 5.28532,11.86826 1.22533,15.92812 -4.06,4.05893 -11.19067,3.51093 -15.92667,-1.22494 z m -9.03733,33.93957 -86.08132,-86.08377 14.70147,-14.70105 86.08252,86.0811 c 4.736,4.73707 5.284,11.86932 1.224,15.92762 -4.05867,4.06041 -11.18933,3.51093 -15.92667,-1.2239 z m -77.20585,8.74421 -51.852133,-51.85043 14.702131,-14.70318 51.851602,51.85367 c 4.73759,4.73587 5.28559,11.86504 1.22545,15.92649 -4.05985,4.0599 -11.19052,3.51042 -15.92705,-1.22655 z m 43.71785,0.8375 -74.17252,-74.1723 14.70213,-14.70105 74.17173,74.17178 c 4.736,4.736 5.28533,11.86668 1.22533,15.92552 -4.06,4.0599 -11.19067,3.51198 -15.92667,-1.22395" />
    <path fill="#b6124f" d="m 254.72807,101.01798 -73.67865,73.67833 -14.70133,-14.70106 73.67865,-73.678585 c 4.736,-4.737325 11.86667,-5.285325 15.92667,-1.225328 4.06,4.058665 3.512,11.189317 -1.22534,15.926643 z m 33.94,9.03733 -86.08265,86.0811 -14.70133,-14.70105 86.08265,-86.082705 c 4.736,-4.735995 11.86667,-5.283994 15.92667,-1.225329 4.05866,4.059996 3.51066,11.190644 -1.22534,15.927984 z m 8.74667,77.20511 -51.85333,51.85194 -14.70133,-14.70091 51.85199,-51.85208 c 4.736,-4.73746 11.868,-5.28546 15.92667,-1.22546 4.06,4.05985 3.512,11.19052 -1.224,15.92651 z m 0.74267,-43.74648 -74.17199,74.17298 -14.70267,-14.70265 74.17199,-74.17165 c 4.73733,-4.736 11.868,-5.28533 15.928,-1.22533 4.06,4.05999 3.51067,11.19066 -1.22533,15.92665" />
  </g>
  <path data-name="text_sida" fill="#231f20" d="m 492.19471,104.37931 c 0,7.91466 6.49999,14.69866 14.41199,14.69866 7.91467,0 14.132,-6.784 14.132,-14.69866 0,-7.914656 -6.21733,-14.698648 -14.132,-14.698648 -8.19466,0 -14.41199,6.783992 -14.41199,14.698648 z M 349.8134,254.23115 h 6.88133 c 2.29333,-11.47079 5.16,-15.77346 6.88,-18.35305 4.588,5.16092 20.93066,23.8009 52.18132,23.8009 36.41333,0 59.636,-22.65464 59.636,-54.77327 0,-36.13449 -23.22267,-47.03048 -60.20933,-63.37713 -22.07599,-9.75065 -45.58666,-20.07463 -45.58666,-42.729279 0,-12.618656 8.60133,-28.963968 32.68533,-28.963968 22.36266,0 42.43333,14.911984 50.46133,46.170607 h 6.02 V 66.394024 h -6.02 c -0.57334,3.441329 -1.148,8.889323 -7.45467,16.631985 -6.88133,-7.454663 -18.924,-20.073314 -43.86799,-20.073314 -31.53733,0 -50.17333,22.367971 -50.17333,47.030615 0,36.13329 31.252,49.61194 52.468,58.78793 1.72,0.57453 11.18132,4.5892 12.90132,5.4496 19.21067,8.31719 38.70533,19.2145 38.70533,41.58222 0,17.49318 -14.048,36.99315 -42.14533,36.99315 -44.43999,0 -53.90132,-46.45714 -56.48132,-59.6478 H 349.8134 Z M 521.44404,136.94061 c -4.58667,0 -11.46934,2.58134 -15.76934,3.43999 -10.89465,2.008 -18.63732,3.44134 -26.09198,4.016 v 6.30799 c 20.07065,0 21.79198,0 21.79198,31.54544 v 34.69996 c 0,29.82489 0,32.97956 -16.91599,32.97956 h -4.87599 v 6.30839 h 61.93198 v -6.30839 c -20.07066,0 -20.07066,-1.14787 -20.07066,-32.97956 z m 119.41598,16.91865 c -9.46266,-8.60266 -24.65866,-16.91865 -41.57333,-16.91865 -29.81865,0 -55.91065,24.37597 -55.91065,62.51607 0,38.14274 28.09733,61.36926 54.47599,61.36926 22.93733,0 37.84533,-14.62399 44.15333,-20.64785 0,6.59679 0,13.76506 1.72133,20.64785 5.44667,-1.14694 21.78933,-3.15467 36.12532,-3.72654 v -6.31092 c -18.92399,0 -18.92399,-1.71987 -18.92399,-32.97702 V 63.526027 c -2.292,0 -3.15333,0.286667 -10.608,2.007998 -4.588,1.146666 -17.776,3.727996 -29.53066,4.013328 v 6.31066 c 20.07066,0 20.07066,1.146666 20.07066,32.978627 z m 0,78.57604 c -15.484,20.07451 -33.25999,20.07451 -36.69999,20.07451 -13.47467,0 -37.55866,-8.60265 -37.55866,-54.19993 0,-8.60266 0.28667,-52.76661 36.69866,-52.76661 18.06133,0 31.25066,11.18399 37.55999,16.34665 z m 157.00665,2.86934 c -2.00667,11.75571 -8.31467,13.47704 -11.75467,13.47704 -8.888,0 -8.888,-8.60359 -8.888,-25.23597 v -46.45715 c 0,-14.05198 0,-40.14795 -43.58132,-40.14795 -35.264,0 -46.732,18.63998 -46.732,26.38264 0,5.16266 4.3,8.02932 8.60133,8.02932 9.46134,0 10.89467,-9.75065 12.04134,-15.77198 2.00666,-10.03732 13.47466,-12.33199 23.51066,-12.33199 23.51067,0 26.09067,13.76666 26.09067,30.68531 v 5.73585 l -21.79067,8.88959 c -39.56533,16.05985 -52.75466,29.82397 -52.75466,46.17022 0,16.63331 15.48133,24.37503 28.384,24.37503 15.76933,0 32.112,-10.03599 46.16133,-20.07184 1.432,6.88225 3.72665,20.07184 22.36399,20.07184 15.768,0 22.936,-10.89479 23.50933,-23.79996 z m -40.71199,-3.72814 c -4.87467,4.01454 -21.79067,17.49211 -34.692,17.49211 -11.18133,0 -16.62933,-9.74945 -16.62933,-19.78691 0,-19.2145 21.216,-30.68542 36.12533,-36.70781 l 15.196,-6.30774 v 45.31035" />
</svg>
