<svg xmlns="http://www.w3.org/2000/svg" width="820" height="320"><g data-name="emblem"><path fill="#f9b118" d="m100.546 64.9 73.678 73.68-14.701 14.702-73.679-73.679c-4.736-4.737-5.285-11.868-1.226-15.928 4.06-4.06 11.19-3.51 15.928 1.226Zm9.036-33.938 86.082 86.081-14.701 14.703L94.88 45.663c-4.736-4.736-5.284-11.866-1.224-15.926 4.059-4.06 11.19-3.512 15.927 1.225zm77.206-8.747 51.852 51.852L223.94 88.77l-51.852-51.853c-4.738-4.736-5.286-11.867-1.226-15.927 4.06-4.059 11.191-3.51 15.927 1.225zm-43.736-.836 74.172 74.172-14.701 14.703-74.173-74.172c-4.737-4.737-5.285-11.868-1.225-15.927 4.06-4.06 11.19-3.512 15.927 1.224"/><path fill="#1b458e" d="m64.346 218.748 73.678-73.68 14.701 14.702-73.678 73.678c-4.736 4.739-11.867 5.286-15.927 1.226-4.06-4.059-3.511-11.19 1.226-15.926zm-33.94-9.037 86.082-86.082 14.702 14.702-86.082 86.083c-4.736 4.736-11.867 5.284-15.927 1.224-4.06-4.06-3.511-11.19 1.226-15.927zm-8.746-77.206 51.853-51.852 14.701 14.702-51.852 51.852c-4.737 4.736-11.867 5.284-15.927 1.226-4.06-4.062-3.51-11.192 1.225-15.928zm-.743 43.98 74.172-74.172 14.701 14.701-74.171 74.172c-4.737 4.737-11.868 5.285-15.928 1.225-4.06-4.058-3.51-11.19 1.226-15.927"/><path fill="#00aaa4" d="m218.548 255.1-73.68-73.68 14.703-14.702 73.678 73.678c4.738 4.738 5.286 11.868 1.226 15.928-4.06 4.06-11.19 3.511-15.927-1.225zm-9.037 33.939-86.082-86.084 14.702-14.7 86.082 86.08c4.736 4.737 5.284 11.87 1.224 15.928-4.058 4.06-11.189 3.51-15.926-1.224zm-77.206 8.744-51.852-51.85 14.702-14.703 51.851 51.853c4.738 4.736 5.286 11.865 1.226 15.927-4.06 4.06-11.19 3.51-15.927-1.227zm43.718.838-74.173-74.173 14.702-14.7 74.172 74.171c4.736 4.736 5.285 11.867 1.225 15.926-4.06 4.06-11.19 3.512-15.926-1.224"/><path fill="#b6124f" d="m254.728 101.018-73.679 73.678-14.7-14.7 73.678-73.68c4.736-4.737 11.866-5.285 15.926-1.225 4.06 4.059 3.512 11.19-1.225 15.927zm33.94 9.037-86.083 86.081-14.7-14.7 86.082-86.083c4.736-4.736 11.866-5.284 15.926-1.226 4.06 4.06 3.511 11.191-1.225 15.928zm8.747 77.205-51.854 51.852-14.7-14.7 51.851-51.853c4.736-4.737 11.868-5.285 15.927-1.225 4.06 4.06 3.512 11.19-1.224 15.926zm.742-43.746-74.172 74.173-14.702-14.703 74.172-74.171c4.737-4.736 11.868-5.286 15.928-1.226 4.06 4.06 3.51 11.191-1.226 15.927"/></g><path data-name="text_sida" fill="#231f20" d="M492.195 104.38c0 7.914 6.5 14.698 14.412 14.698 7.914 0 14.132-6.784 14.132-14.699 0-7.914-6.218-14.698-14.132-14.698-8.195 0-14.412 6.784-14.412 14.698zM349.813 254.23h6.882c2.293-11.47 5.16-15.773 6.88-18.353 4.588 5.161 20.93 23.801 52.181 23.801 36.413 0 59.636-22.655 59.636-54.773 0-36.135-23.223-47.03-60.21-63.377-22.075-9.751-45.586-20.075-45.586-42.73 0-12.618 8.601-28.964 32.685-28.964 22.363 0 42.434 14.912 50.462 46.171h6.02V66.394h-6.02c-.574 3.441-1.148 8.89-7.455 16.632-6.881-7.455-18.924-20.073-43.868-20.073-31.537 0-50.173 22.368-50.173 47.03 0 36.134 31.252 49.612 52.468 58.788 1.72.575 11.181 4.59 12.901 5.45 19.21 8.317 38.705 19.214 38.705 41.582 0 17.493-14.048 36.993-42.145 36.993-44.44 0-53.901-46.457-56.481-59.648h-6.882Zm171.631-117.29c-4.587 0-11.47 2.58-15.77 3.44-10.894 2.008-18.637 3.44-26.091 4.016v6.308c20.07 0 21.792 0 21.792 31.545v34.7c0 29.825 0 32.98-16.916 32.98h-4.876v6.308h61.932v-6.308c-20.071 0-20.071-1.148-20.071-32.98zm119.416 16.918c-9.463-8.602-24.659-16.918-41.573-16.918-29.819 0-55.911 24.376-55.911 62.516 0 38.142 28.097 61.369 54.476 61.369 22.937 0 37.845-14.624 44.153-20.648 0 6.597 0 13.765 1.722 20.648 5.446-1.147 21.789-3.155 36.125-3.727v-6.31c-18.924 0-18.924-1.72-18.924-32.978V63.526c-2.292 0-3.153.287-10.608 2.008-4.588 1.147-17.776 3.728-29.53 4.013v6.311c20.07 0 20.07 1.147 20.07 32.979zm0 78.576c-15.484 20.075-33.26 20.075-36.7 20.075-13.475 0-37.559-8.603-37.559-54.2 0-8.603.287-52.767 36.699-52.767 18.061 0 31.25 11.184 37.56 16.347zm157.007 2.87c-2.007 11.755-8.315 13.477-11.755 13.477-8.888 0-8.888-8.604-8.888-25.236v-46.457c0-14.052 0-40.148-43.581-40.148-35.264 0-46.732 18.64-46.732 26.382 0 5.163 4.3 8.03 8.601 8.03 9.461 0 10.895-9.751 12.041-15.772 2.007-10.038 13.475-12.332 23.511-12.332 23.51 0 26.09 13.766 26.09 30.685v5.736l-21.79 8.89c-39.565 16.06-52.755 29.823-52.755 46.17 0 16.633 15.482 24.375 28.384 24.375 15.77 0 32.112-10.036 46.162-20.072 1.432 6.882 3.726 20.072 22.364 20.072 15.768 0 22.936-10.895 23.509-23.8zm-40.712-3.729c-4.875 4.015-21.791 17.493-34.692 17.493-11.182 0-16.63-9.75-16.63-19.787 0-19.215 21.216-30.686 36.126-36.708l15.196-6.308v45.31"/></svg>